<?xml version="1.0" encoding="UTF-8"?>
<svg width="10px" height="10px" viewBox="0 0 10 10" version="1.1" xmlns="http://www.w3.org/2000/svg" xmlns:xlink="http://www.w3.org/1999/xlink">
    <!-- Generator: Sketch 63.1 (92452) - https://sketch.com -->
    <title>icon_close_success</title>
    <desc>Created with Sketch.</desc>
    <g id="icon_close_success" stroke="none" stroke-width="1" fill="none" fill-rule="evenodd">
        <path d="M6.46705607,4.98450156 L9.82281931,1.62873832 C10.0169003,1.43465732 10.0169003,1.11970405 9.82281931,0.925311526 L9.04306854,0.145560748 C8.84898754,-0.0485202492 8.53403427,-0.0485202492 8.33964174,0.145560748 L4.98419003,3.50163551 L1.62842679,0.145872274 C1.43434579,-0.0482087227 1.11939252,-0.0482087227 0.925,0.145872274 L0.145560748,0.925311526 C-0.0485202492,1.11939252 -0.0485202492,1.43434579 0.145560748,1.62873832 L3.50132399,4.98450156 L0.145560748,8.3402648 C-0.0485202492,8.53434579 -0.0485202492,8.84929907 0.145560748,9.04369159 L0.925311526,9.82344237 C1.11939252,10.0175234 1.43434579,10.0175234 1.62873832,9.82344237 L4.98419003,6.4673676 L8.33995327,9.82313084 C8.53403427,10.0172118 8.84898754,10.0172118 9.04338006,9.82313084 L9.82313084,9.04338006 C10.0172118,8.84929907 10.0172118,8.53434579 9.82313084,8.33995327 L6.46705607,4.98450156 Z" id="Path" fill="#0D7744" fill-rule="nonzero"></path>
    </g>
</svg>