<?xml version="1.0" encoding="UTF-8"?>
<svg width="12px" height="12px" viewBox="0 0 12 12" version="1.1" xmlns="http://www.w3.org/2000/svg" xmlns:xlink="http://www.w3.org/1999/xlink">
    <!-- Generator: Sketch 63.1 (92452) - https://sketch.com -->
    <title>refresh</title>
    <desc>Created with Sketch.</desc>
    <g id="Evaluate" stroke="none" stroke-width="1" fill="none" fill-rule="evenodd">
        <g id="EvaluationWorkspace_Refresh" transform="translate(-300.000000, -544.000000)" fill="#FFFFFF" fill-rule="nonzero">
            <g id="Group-8" transform="translate(260.000000, 536.000000)">
                <g id="Group-11" transform="translate(40.000000, 6.000000)">
                    <g id="refresh" transform="translate(0.000000, 2.000000)">
                        <path d="M11.7142857,-5.75876131e-06 L11.0545,-5.75876131e-06 C10.8940476,-5.75876131e-06 10.7650476,0.132095238 10.7688571,0.29252381 L10.8247381,2.63938095 C9.76369048,1.04366667 7.94733333,-0.00642857143 5.88588095,-5.75876131e-06 C2.63857143,0.0101904762 -0.00507142857,2.66688095 -7.28440066e-06,5.91419048 C0.0050952381,9.17097619 2.64678571,11.8095238 5.9047619,11.8095238 C7.42680952,11.8095238 8.81433333,11.2336429 9.86138095,10.2879048 C9.98311905,10.1779524 9.98885714,9.98883333 9.87285714,9.87283333 L9.40290476,9.40288095 C9.29580952,9.29578571 9.12307143,9.28895238 9.01002381,9.3897381 C8.18540476,10.1249048 7.0977381,10.5714286 5.9047619,10.5714286 C3.32566667,10.5714286 1.23809524,8.4842381 1.23809524,5.9047619 C1.23809524,3.32566667 3.32528571,1.23809524 5.9047619,1.23809524 C7.79869048,1.23809524 9.42716667,2.36385714 10.1589286,3.98338095 L7.14966667,3.9117381 C6.9892619,3.90792857 6.85714286,4.03690476 6.85714286,4.19738095 L6.85714286,4.85714286 C6.85714286,5.01492857 6.98507143,5.14285714 7.14285714,5.14285714 L11.7142857,5.14285714 C11.8720714,5.14285714 11.9999927,5.01492857 11.9999927,4.85714286 L11.9999927,0.285714286 C11.9999927,0.127928571 11.8720714,-5.75876131e-06 11.7142857,-5.75876131e-06 Z" id="Path"></path>
                    </g>
                </g>
            </g>
        </g>
    </g>
</svg>