<svg id="Layer_1" data-name="Layer 1" xmlns="http://www.w3.org/2000/svg" viewBox="0 0 86 44"><defs><style>.cls-1{fill:#4a82f1;}.cls-2{isolation:isolate;}.cls-3{fill:#fff;}</style></defs><title>SuccessKPI_Logo</title><rect class="cls-1" x="40.99" y="19.6" width="9.16" height="9.16" rx="0.45"/><rect class="cls-1" x="51.98" y="19.6" width="5.49" height="5.49" rx="0.45"/><rect class="cls-1" x="44.62" y="10.45" width="7.33" height="7.33" rx="0.45"/><path class="cls-1" d="M40,4.43a6.09,6.09,0,0,0-3.29,2,9.82,9.82,0,0,0-18.32,4.9c0,.16,0,.33,0,.5A8.83,8.83,0,0,0,21.38,29h16.8a.92.92,0,0,0,.91-.92V18.71a.92.92,0,0,1,.92-.92h1.83a.92.92,0,0,0,.92-.92V9.53a.91.91,0,0,1,.91-.91h1.38A.92.92,0,0,0,46,7.7V7.35C46,6.7,44.62,3.68,40,4.43Z"/><g id="SideNav_Playbooks" data-name="SideNav Playbooks"><g id="Group-6"><g id="Logo" class="cls-2"><g class="cls-2"><path class="cls-3" d="M61.16,40.45v-9.9a1.06,1.06,0,1,1,2.12,0V35h.07l4.75-5.13a1.13,1.13,0,0,1,.88-.44,1,1,0,0,1,1,1,1.07,1.07,0,0,1-.35.77l-3.55,3.71L70,39.61a1.51,1.51,0,0,1,.4.93,1,1,0,0,1-1,1,1.19,1.19,0,0,1-1-.56L64.5,36.3l-1.22,1.31v2.84a1.06,1.06,0,1,1-2.12,0Z"/><path class="cls-3" d="M72.3,40.45V30.69a1,1,0,0,1,1.06-1.1H76.9a3.77,3.77,0,0,1,4,3.95,3.83,3.83,0,0,1-4.07,4h-2.4v3a1.06,1.06,0,1,1-2.11,0Zm4-4.65a2.25,2.25,0,1,0,0-4.48H74.41V35.8Z"/><path class="cls-3" d="M83.09,40.45v-9.9a1.06,1.06,0,1,1,2.11,0v9.9a1.06,1.06,0,1,1-2.11,0Z"/></g></g></g></g><g class="cls-2"><path class="cls-3" d="M.28,39.29a1.75,1.75,0,0,1-.08-.51A.68.68,0,0,1,.88,38a.69.69,0,0,1,.71.59c.36,1.22,1.53,1.79,3,1.79s2.76-.84,2.76-2c0-1-.65-1.64-2.29-2l-1.31-.29C1.4,35.57.38,34.5.38,32.82c0-1.95,1.72-3.32,4.17-3.32a3.87,3.87,0,0,1,4,2.59,1.73,1.73,0,0,1,0,.37.63.63,0,0,1-.67.66.73.73,0,0,1-.74-.57,2.55,2.55,0,0,0-2.66-1.72c-1.48,0-2.61.72-2.61,1.93,0,.93.63,1.57,2.24,1.92L5.45,35c2.46.54,3.44,1.52,3.44,3.19,0,2.19-1.72,3.56-4.37,3.56C2.3,41.72.72,40.72.28,39.29Z"/><path class="cls-3" d="M10.35,38.53V33.62a.71.71,0,1,1,1.42,0v4.66c0,1.38.65,2.13,2,2.13A2.16,2.16,0,0,0,16,38V33.62a.71.71,0,1,1,1.42,0V41a.66.66,0,0,1-.67.72A.67.67,0,0,1,16,41v-.81h0a2.8,2.8,0,0,1-2.7,1.53A2.81,2.81,0,0,1,10.35,38.53Z"/><path class="cls-3" d="M18.81,37.28c0-2.68,1.55-4.43,3.91-4.43a3.38,3.38,0,0,1,3.34,2.09,1.24,1.24,0,0,1,.05.31.58.58,0,0,1-.61.62c-.31,0-.48-.13-.68-.5a2.17,2.17,0,0,0-2.08-1.26c-1.48,0-2.48,1.24-2.48,3.15s1,3.15,2.48,3.15a2.17,2.17,0,0,0,2.09-1.26c.2-.38.36-.5.67-.5a.59.59,0,0,1,.61.63,1.34,1.34,0,0,1-.06.36,3.43,3.43,0,0,1-3.31,2C20.38,41.67,18.81,40,18.81,37.28Z"/><path class="cls-3" d="M27.21,37.28c0-2.68,1.56-4.43,3.92-4.43a3.37,3.37,0,0,1,3.33,2.09,1.24,1.24,0,0,1,0,.31.58.58,0,0,1-.61.62c-.31,0-.48-.13-.68-.5a2.16,2.16,0,0,0-2.08-1.26c-1.48,0-2.48,1.24-2.48,3.15s1,3.15,2.48,3.15a2.16,2.16,0,0,0,2.09-1.26c.21-.38.36-.5.67-.5a.6.6,0,0,1,.62.63,1.41,1.41,0,0,1-.07.36,3.43,3.43,0,0,1-3.31,2C28.78,41.67,27.21,40,27.21,37.28Z"/><path class="cls-3" d="M35.61,37.29c0-2.68,1.52-4.44,3.87-4.44a3.68,3.68,0,0,1,3.71,4,.75.75,0,0,1-.79.83H37.08c0,1.72.94,2.78,2.47,2.78a2.51,2.51,0,0,0,2.3-1.33.6.6,0,0,1,.53-.28.59.59,0,0,1,.63.62,1.14,1.14,0,0,1-.11.42,3.43,3.43,0,0,1-3.3,1.81C37.09,41.67,35.61,40.05,35.61,37.29Zm6.11-.76a2.27,2.27,0,0,0-2.26-2.44,2.38,2.38,0,0,0-2.37,2.44Z"/><path class="cls-3" d="M44.47,39.92a.85.85,0,0,1-.07-.33.58.58,0,0,1,.65-.59.69.69,0,0,1,.62.42,2,2,0,0,0,2,1.08c1.09,0,1.83-.47,1.83-1.27,0-.61-.35-.94-1.31-1.17l-1.3-.33c-1.65-.41-2.44-1.19-2.44-2.39,0-1.48,1.3-2.49,3.22-2.49a2.82,2.82,0,0,1,2.87,1.81,1,1,0,0,1,0,.22.52.52,0,0,1-.56.55.63.63,0,0,1-.63-.38,1.8,1.8,0,0,0-1.79-1c-1,0-1.73.51-1.73,1.24s.46,1,1.39,1.23l1.27.31c1.78.43,2.43,1.06,2.43,2.31,0,1.52-1.37,2.55-3.39,2.55A3.13,3.13,0,0,1,44.47,39.92Z"/><path class="cls-3" d="M52.27,39.92a.83.83,0,0,1-.06-.33.58.58,0,0,1,.64-.59.71.71,0,0,1,.63.42,2,2,0,0,0,2,1.08c1.09,0,1.83-.47,1.83-1.27,0-.61-.36-.94-1.31-1.17l-1.31-.33c-1.64-.41-2.44-1.19-2.44-2.39,0-1.48,1.31-2.49,3.23-2.49a2.83,2.83,0,0,1,2.87,1.81,2,2,0,0,1,0,.22.52.52,0,0,1-.56.55.65.65,0,0,1-.63-.38,1.77,1.77,0,0,0-1.78-1c-1,0-1.74.51-1.74,1.24s.46,1,1.39,1.23l1.27.31c1.78.43,2.44,1.06,2.44,2.31,0,1.52-1.37,2.55-3.39,2.55A3.15,3.15,0,0,1,52.27,39.92Z"/></g></svg>