<?xml version="1.0" encoding="UTF-8"?>
<svg width="242px" height="120px" viewBox="0 0 242 120" version="1.1" xmlns="http://www.w3.org/2000/svg" xmlns:xlink="http://www.w3.org/1999/xlink">
    <!-- Generator: Sketch 63.1 (92452) - https://sketch.com -->
    <title>AnalyticsPattern3</title>
    <desc>Created with Sketch.</desc>
    <g id="Analytics" stroke="none" stroke-width="1" fill="none" fill-rule="evenodd">
        <g id="AnalyticsPattern3">
            <rect id="Rectangle" fill="#4A82F1" x="0" y="0" width="242" height="120"></rect>
            <g id="Group-8_looper" opacity="0.699474516" transform="translate(3.000000, 7.000000)" fill="#8AAEF5" fill-rule="nonzero">
                <g id="Group-8_32" opacity="0.733103021" transform="translate(224.000000, 96.000000)">
                    <path d="M6.975,5.10504202 L7.36875,5.10504202 C7.48125,5.10504202 7.59375,4.99159664 7.59375,4.87815126 L7.59375,0.794117647 C7.59375,0.680672269 7.48125,0.567226891 7.36875,0.567226891 L6.975,0.567226891 C6.8625,0.567226891 6.75,0.680672269 6.75,0.794117647 L6.75,4.87815126 C6.75,4.99159664 6.8625,5.10504202 6.975,5.10504202 Z M3.6,5.10504202 L3.99375,5.10504202 C4.10625,5.10504202 4.21875,4.99159664 4.21875,4.87815126 L4.21875,1.36134454 C4.21875,1.24789916 4.10625,1.13445378 3.99375,1.13445378 L3.6,1.13445378 C3.4875,1.13445378 3.375,1.24789916 3.375,1.36134454 L3.375,4.87815126 C3.375,4.99159664 3.4875,5.10504202 3.6,5.10504202 L3.6,5.10504202 Z M5.2875,5.10504202 L5.68125,5.10504202 C5.79375,5.10504202 5.90625,4.99159664 5.90625,4.87815126 L5.90625,2.49579832 C5.90625,2.38235294 5.79375,2.26890756 5.68125,2.26890756 L5.2875,2.26890756 C5.175,2.26890756 5.0625,2.38235294 5.0625,2.49579832 L5.0625,4.87815126 C5.0625,4.99159664 5.175,5.10504202 5.2875,5.10504202 L5.2875,5.10504202 Z M8.71875,5.95588235 L0.84375,5.95588235 L0.84375,0.283613445 C0.84375,0.126917017 0.717890625,-6.27942143e-13 0.5625,-6.27942143e-13 L0.28125,-6.27942143e-13 C0.125859375,-6.27942143e-13 0,0.126917017 0,0.283613445 L0,6.2394958 C0,6.5527114 0.251894531,6.80672269 0.5625,6.80672269 L8.71875,6.80672269 C8.87414062,6.80672269 9,6.67980567 9,6.52310924 L9,6.2394958 C9,6.08279937 8.87414062,5.95588235 8.71875,5.95588235 Z M1.9125,5.10504202 L2.30625,5.10504202 C2.41875,5.10504202 2.53125,4.99159664 2.53125,4.87815126 L2.53125,3.6302521 C2.53125,3.51680672 2.41875,3.40336134 2.30625,3.40336134 L1.9125,3.40336134 C1.8,3.40336134 1.6875,3.51680672 1.6875,3.6302521 L1.6875,4.87815126 C1.6875,4.99159664 1.8,5.10504202 1.9125,5.10504202 L1.9125,5.10504202 Z" id="Shape"></path>
                </g>
                <g id="Group-8_31" opacity="0.0648881317" transform="translate(192.000000, 96.000000)">
                    <path d="M21.71875,12.6722689 L14.125,12.6722689 L14.125,7.28361345 C14.125,7.12691702 13.9991406,7 13.84375,7 L13.28125,7 C13.1258594,7 13,7.12691702 13,7.28361345 L13,13.2394958 C13,13.5527114 13.2518945,13.8067227 13.5625,13.8067227 L21.71875,13.8067227 C21.8741406,13.8067227 22,13.6798057 22,13.5231092 L22,12.9558824 C22,12.7991859 21.8741406,12.6722689 21.71875,12.6722689 Z M21.15625,7.56722689 L19.0809766,7.56722689 C18.7051563,7.56722689 18.5168945,8.02543986 18.7826758,8.29345457 L19.352207,8.8677718 L18.0625,10.168494 L16.772793,8.86794905 C16.5530664,8.64637605 16.1969336,8.64637605 15.9773828,8.86794905 L14.7699414,10.085537 C14.6600781,10.1963235 14.6600781,10.3758863 14.7699414,10.4866728 L15.1675586,10.8876313 C15.2774219,10.9984178 15.4554883,10.9984178 15.5653516,10.8876313 L16.375,10.0710018 L17.664707,11.3715467 C17.8844336,11.5931197 18.2405664,11.5931197 18.4601172,11.3715467 L20.1476172,9.66986607 L20.7171484,10.2441833 C20.9829297,10.512198 21.4373244,10.3223543 21.4373244,9.94337579 L21.4373244,7.85084034 C21.4375,7.69414391 21.3116406,7.56722689 21.15625,7.56722689 Z" id="Shape"></path>
                    <path d="M6.975,5.10504202 L7.36875,5.10504202 C7.48125,5.10504202 7.59375,4.99159664 7.59375,4.87815126 L7.59375,0.794117647 C7.59375,0.680672269 7.48125,0.567226891 7.36875,0.567226891 L6.975,0.567226891 C6.8625,0.567226891 6.75,0.680672269 6.75,0.794117647 L6.75,4.87815126 C6.75,4.99159664 6.8625,5.10504202 6.975,5.10504202 Z M3.6,5.10504202 L3.99375,5.10504202 C4.10625,5.10504202 4.21875,4.99159664 4.21875,4.87815126 L4.21875,1.36134454 C4.21875,1.24789916 4.10625,1.13445378 3.99375,1.13445378 L3.6,1.13445378 C3.4875,1.13445378 3.375,1.24789916 3.375,1.36134454 L3.375,4.87815126 C3.375,4.99159664 3.4875,5.10504202 3.6,5.10504202 L3.6,5.10504202 Z M5.2875,5.10504202 L5.68125,5.10504202 C5.79375,5.10504202 5.90625,4.99159664 5.90625,4.87815126 L5.90625,2.49579832 C5.90625,2.38235294 5.79375,2.26890756 5.68125,2.26890756 L5.2875,2.26890756 C5.175,2.26890756 5.0625,2.38235294 5.0625,2.49579832 L5.0625,4.87815126 C5.0625,4.99159664 5.175,5.10504202 5.2875,5.10504202 L5.2875,5.10504202 Z M8.71875,5.95588235 L0.84375,5.95588235 L0.84375,0.283613445 C0.84375,0.126917017 0.717890625,-6.27942143e-13 0.5625,-6.27942143e-13 L0.28125,-6.27942143e-13 C0.125859375,-6.27942143e-13 0,0.126917017 0,0.283613445 L0,6.2394958 C0,6.5527114 0.251894531,6.80672269 0.5625,6.80672269 L8.71875,6.80672269 C8.87414062,6.80672269 9,6.67980567 9,6.52310924 L9,6.2394958 C9,6.08279937 8.87414062,5.95588235 8.71875,5.95588235 Z M1.9125,5.10504202 L2.30625,5.10504202 C2.41875,5.10504202 2.53125,4.99159664 2.53125,4.87815126 L2.53125,3.6302521 C2.53125,3.51680672 2.41875,3.40336134 2.30625,3.40336134 L1.9125,3.40336134 C1.8,3.40336134 1.6875,3.51680672 1.6875,3.6302521 L1.6875,4.87815126 C1.6875,4.99159664 1.8,5.10504202 1.9125,5.10504202 L1.9125,5.10504202 Z" id="Shape"></path>
                </g>
                <g id="Group-8_30" opacity="0.649987067" transform="translate(160.000000, 96.000000)">
                    <path d="M21.71875,12.6722689 L14.125,12.6722689 L14.125,7.28361345 C14.125,7.12691702 13.9991406,7 13.84375,7 L13.28125,7 C13.1258594,7 13,7.12691702 13,7.28361345 L13,13.2394958 C13,13.5527114 13.2518945,13.8067227 13.5625,13.8067227 L21.71875,13.8067227 C21.8741406,13.8067227 22,13.6798057 22,13.5231092 L22,12.9558824 C22,12.7991859 21.8741406,12.6722689 21.71875,12.6722689 Z M21.15625,7.56722689 L19.0809766,7.56722689 C18.7051563,7.56722689 18.5168945,8.02543986 18.7826758,8.29345457 L19.352207,8.8677718 L18.0625,10.168494 L16.772793,8.86794905 C16.5530664,8.64637605 16.1969336,8.64637605 15.9773828,8.86794905 L14.7699414,10.085537 C14.6600781,10.1963235 14.6600781,10.3758863 14.7699414,10.4866728 L15.1675586,10.8876313 C15.2774219,10.9984178 15.4554883,10.9984178 15.5653516,10.8876313 L16.375,10.0710018 L17.664707,11.3715467 C17.8844336,11.5931197 18.2405664,11.5931197 18.4601172,11.3715467 L20.1476172,9.66986607 L20.7171484,10.2441833 C20.9829297,10.512198 21.4373244,10.3223543 21.4373244,9.94337579 L21.4373244,7.85084034 C21.4375,7.69414391 21.3116406,7.56722689 21.15625,7.56722689 Z" id="Shape"></path>
                    <path d="M6.975,5.10504202 L7.36875,5.10504202 C7.48125,5.10504202 7.59375,4.99159664 7.59375,4.87815126 L7.59375,0.794117647 C7.59375,0.680672269 7.48125,0.567226891 7.36875,0.567226891 L6.975,0.567226891 C6.8625,0.567226891 6.75,0.680672269 6.75,0.794117647 L6.75,4.87815126 C6.75,4.99159664 6.8625,5.10504202 6.975,5.10504202 Z M3.6,5.10504202 L3.99375,5.10504202 C4.10625,5.10504202 4.21875,4.99159664 4.21875,4.87815126 L4.21875,1.36134454 C4.21875,1.24789916 4.10625,1.13445378 3.99375,1.13445378 L3.6,1.13445378 C3.4875,1.13445378 3.375,1.24789916 3.375,1.36134454 L3.375,4.87815126 C3.375,4.99159664 3.4875,5.10504202 3.6,5.10504202 L3.6,5.10504202 Z M5.2875,5.10504202 L5.68125,5.10504202 C5.79375,5.10504202 5.90625,4.99159664 5.90625,4.87815126 L5.90625,2.49579832 C5.90625,2.38235294 5.79375,2.26890756 5.68125,2.26890756 L5.2875,2.26890756 C5.175,2.26890756 5.0625,2.38235294 5.0625,2.49579832 L5.0625,4.87815126 C5.0625,4.99159664 5.175,5.10504202 5.2875,5.10504202 L5.2875,5.10504202 Z M8.71875,5.95588235 L0.84375,5.95588235 L0.84375,0.283613445 C0.84375,0.126917017 0.717890625,-6.27942143e-13 0.5625,-6.27942143e-13 L0.28125,-6.27942143e-13 C0.125859375,-6.27942143e-13 0,0.126917017 0,0.283613445 L0,6.2394958 C0,6.5527114 0.251894531,6.80672269 0.5625,6.80672269 L8.71875,6.80672269 C8.87414062,6.80672269 9,6.67980567 9,6.52310924 L9,6.2394958 C9,6.08279937 8.87414062,5.95588235 8.71875,5.95588235 Z M1.9125,5.10504202 L2.30625,5.10504202 C2.41875,5.10504202 2.53125,4.99159664 2.53125,4.87815126 L2.53125,3.6302521 C2.53125,3.51680672 2.41875,3.40336134 2.30625,3.40336134 L1.9125,3.40336134 C1.8,3.40336134 1.6875,3.51680672 1.6875,3.6302521 L1.6875,4.87815126 C1.6875,4.99159664 1.8,5.10504202 1.9125,5.10504202 L1.9125,5.10504202 Z" id="Shape"></path>
                </g>
                <g id="Group-8_29" opacity="0.145789328" transform="translate(128.000000, 96.000000)">
                    <path d="M21.71875,12.6722689 L14.125,12.6722689 L14.125,7.28361345 C14.125,7.12691702 13.9991406,7 13.84375,7 L13.28125,7 C13.1258594,7 13,7.12691702 13,7.28361345 L13,13.2394958 C13,13.5527114 13.2518945,13.8067227 13.5625,13.8067227 L21.71875,13.8067227 C21.8741406,13.8067227 22,13.6798057 22,13.5231092 L22,12.9558824 C22,12.7991859 21.8741406,12.6722689 21.71875,12.6722689 Z M21.15625,7.56722689 L19.0809766,7.56722689 C18.7051563,7.56722689 18.5168945,8.02543986 18.7826758,8.29345457 L19.352207,8.8677718 L18.0625,10.168494 L16.772793,8.86794905 C16.5530664,8.64637605 16.1969336,8.64637605 15.9773828,8.86794905 L14.7699414,10.085537 C14.6600781,10.1963235 14.6600781,10.3758863 14.7699414,10.4866728 L15.1675586,10.8876313 C15.2774219,10.9984178 15.4554883,10.9984178 15.5653516,10.8876313 L16.375,10.0710018 L17.664707,11.3715467 C17.8844336,11.5931197 18.2405664,11.5931197 18.4601172,11.3715467 L20.1476172,9.66986607 L20.7171484,10.2441833 C20.9829297,10.512198 21.4373244,10.3223543 21.4373244,9.94337579 L21.4373244,7.85084034 C21.4375,7.69414391 21.3116406,7.56722689 21.15625,7.56722689 Z" id="Shape"></path>
                    <path d="M6.975,5.10504202 L7.36875,5.10504202 C7.48125,5.10504202 7.59375,4.99159664 7.59375,4.87815126 L7.59375,0.794117647 C7.59375,0.680672269 7.48125,0.567226891 7.36875,0.567226891 L6.975,0.567226891 C6.8625,0.567226891 6.75,0.680672269 6.75,0.794117647 L6.75,4.87815126 C6.75,4.99159664 6.8625,5.10504202 6.975,5.10504202 Z M3.6,5.10504202 L3.99375,5.10504202 C4.10625,5.10504202 4.21875,4.99159664 4.21875,4.87815126 L4.21875,1.36134454 C4.21875,1.24789916 4.10625,1.13445378 3.99375,1.13445378 L3.6,1.13445378 C3.4875,1.13445378 3.375,1.24789916 3.375,1.36134454 L3.375,4.87815126 C3.375,4.99159664 3.4875,5.10504202 3.6,5.10504202 L3.6,5.10504202 Z M5.2875,5.10504202 L5.68125,5.10504202 C5.79375,5.10504202 5.90625,4.99159664 5.90625,4.87815126 L5.90625,2.49579832 C5.90625,2.38235294 5.79375,2.26890756 5.68125,2.26890756 L5.2875,2.26890756 C5.175,2.26890756 5.0625,2.38235294 5.0625,2.49579832 L5.0625,4.87815126 C5.0625,4.99159664 5.175,5.10504202 5.2875,5.10504202 L5.2875,5.10504202 Z M8.71875,5.95588235 L0.84375,5.95588235 L0.84375,0.283613445 C0.84375,0.126917017 0.717890625,-6.27942143e-13 0.5625,-6.27942143e-13 L0.28125,-6.27942143e-13 C0.125859375,-6.27942143e-13 0,0.126917017 0,0.283613445 L0,6.2394958 C0,6.5527114 0.251894531,6.80672269 0.5625,6.80672269 L8.71875,6.80672269 C8.87414062,6.80672269 9,6.67980567 9,6.52310924 L9,6.2394958 C9,6.08279937 8.87414062,5.95588235 8.71875,5.95588235 Z M1.9125,5.10504202 L2.30625,5.10504202 C2.41875,5.10504202 2.53125,4.99159664 2.53125,4.87815126 L2.53125,3.6302521 C2.53125,3.51680672 2.41875,3.40336134 2.30625,3.40336134 L1.9125,3.40336134 C1.8,3.40336134 1.6875,3.51680672 1.6875,3.6302521 L1.6875,4.87815126 C1.6875,4.99159664 1.8,5.10504202 1.9125,5.10504202 L1.9125,5.10504202 Z" id="Shape"></path>
                </g>
                <g id="Group-8_28" opacity="0.156976885" transform="translate(96.000000, 96.000000)">
                    <path d="M21.71875,12.6722689 L14.125,12.6722689 L14.125,7.28361345 C14.125,7.12691702 13.9991406,7 13.84375,7 L13.28125,7 C13.1258594,7 13,7.12691702 13,7.28361345 L13,13.2394958 C13,13.5527114 13.2518945,13.8067227 13.5625,13.8067227 L21.71875,13.8067227 C21.8741406,13.8067227 22,13.6798057 22,13.5231092 L22,12.9558824 C22,12.7991859 21.8741406,12.6722689 21.71875,12.6722689 Z M21.15625,7.56722689 L19.0809766,7.56722689 C18.7051563,7.56722689 18.5168945,8.02543986 18.7826758,8.29345457 L19.352207,8.8677718 L18.0625,10.168494 L16.772793,8.86794905 C16.5530664,8.64637605 16.1969336,8.64637605 15.9773828,8.86794905 L14.7699414,10.085537 C14.6600781,10.1963235 14.6600781,10.3758863 14.7699414,10.4866728 L15.1675586,10.8876313 C15.2774219,10.9984178 15.4554883,10.9984178 15.5653516,10.8876313 L16.375,10.0710018 L17.664707,11.3715467 C17.8844336,11.5931197 18.2405664,11.5931197 18.4601172,11.3715467 L20.1476172,9.66986607 L20.7171484,10.2441833 C20.9829297,10.512198 21.4373244,10.3223543 21.4373244,9.94337579 L21.4373244,7.85084034 C21.4375,7.69414391 21.3116406,7.56722689 21.15625,7.56722689 Z" id="Shape"></path>
                    <path d="M6.975,5.10504202 L7.36875,5.10504202 C7.48125,5.10504202 7.59375,4.99159664 7.59375,4.87815126 L7.59375,0.794117647 C7.59375,0.680672269 7.48125,0.567226891 7.36875,0.567226891 L6.975,0.567226891 C6.8625,0.567226891 6.75,0.680672269 6.75,0.794117647 L6.75,4.87815126 C6.75,4.99159664 6.8625,5.10504202 6.975,5.10504202 Z M3.6,5.10504202 L3.99375,5.10504202 C4.10625,5.10504202 4.21875,4.99159664 4.21875,4.87815126 L4.21875,1.36134454 C4.21875,1.24789916 4.10625,1.13445378 3.99375,1.13445378 L3.6,1.13445378 C3.4875,1.13445378 3.375,1.24789916 3.375,1.36134454 L3.375,4.87815126 C3.375,4.99159664 3.4875,5.10504202 3.6,5.10504202 L3.6,5.10504202 Z M5.2875,5.10504202 L5.68125,5.10504202 C5.79375,5.10504202 5.90625,4.99159664 5.90625,4.87815126 L5.90625,2.49579832 C5.90625,2.38235294 5.79375,2.26890756 5.68125,2.26890756 L5.2875,2.26890756 C5.175,2.26890756 5.0625,2.38235294 5.0625,2.49579832 L5.0625,4.87815126 C5.0625,4.99159664 5.175,5.10504202 5.2875,5.10504202 L5.2875,5.10504202 Z M8.71875,5.95588235 L0.84375,5.95588235 L0.84375,0.283613445 C0.84375,0.126917017 0.717890625,-6.27942143e-13 0.5625,-6.27942143e-13 L0.28125,-6.27942143e-13 C0.125859375,-6.27942143e-13 0,0.126917017 0,0.283613445 L0,6.2394958 C0,6.5527114 0.251894531,6.80672269 0.5625,6.80672269 L8.71875,6.80672269 C8.87414062,6.80672269 9,6.67980567 9,6.52310924 L9,6.2394958 C9,6.08279937 8.87414062,5.95588235 8.71875,5.95588235 Z M1.9125,5.10504202 L2.30625,5.10504202 C2.41875,5.10504202 2.53125,4.99159664 2.53125,4.87815126 L2.53125,3.6302521 C2.53125,3.51680672 2.41875,3.40336134 2.30625,3.40336134 L1.9125,3.40336134 C1.8,3.40336134 1.6875,3.51680672 1.6875,3.6302521 L1.6875,4.87815126 C1.6875,4.99159664 1.8,5.10504202 1.9125,5.10504202 L1.9125,5.10504202 Z" id="Shape"></path>
                </g>
                <g id="Group-8_27" opacity="0.498272943" transform="translate(64.000000, 96.000000)">
                    <path d="M21.71875,12.6722689 L14.125,12.6722689 L14.125,7.28361345 C14.125,7.12691702 13.9991406,7 13.84375,7 L13.28125,7 C13.1258594,7 13,7.12691702 13,7.28361345 L13,13.2394958 C13,13.5527114 13.2518945,13.8067227 13.5625,13.8067227 L21.71875,13.8067227 C21.8741406,13.8067227 22,13.6798057 22,13.5231092 L22,12.9558824 C22,12.7991859 21.8741406,12.6722689 21.71875,12.6722689 Z M21.15625,7.56722689 L19.0809766,7.56722689 C18.7051563,7.56722689 18.5168945,8.02543986 18.7826758,8.29345457 L19.352207,8.8677718 L18.0625,10.168494 L16.772793,8.86794905 C16.5530664,8.64637605 16.1969336,8.64637605 15.9773828,8.86794905 L14.7699414,10.085537 C14.6600781,10.1963235 14.6600781,10.3758863 14.7699414,10.4866728 L15.1675586,10.8876313 C15.2774219,10.9984178 15.4554883,10.9984178 15.5653516,10.8876313 L16.375,10.0710018 L17.664707,11.3715467 C17.8844336,11.5931197 18.2405664,11.5931197 18.4601172,11.3715467 L20.1476172,9.66986607 L20.7171484,10.2441833 C20.9829297,10.512198 21.4373244,10.3223543 21.4373244,9.94337579 L21.4373244,7.85084034 C21.4375,7.69414391 21.3116406,7.56722689 21.15625,7.56722689 Z" id="Shape"></path>
                    <path d="M6.975,5.10504202 L7.36875,5.10504202 C7.48125,5.10504202 7.59375,4.99159664 7.59375,4.87815126 L7.59375,0.794117647 C7.59375,0.680672269 7.48125,0.567226891 7.36875,0.567226891 L6.975,0.567226891 C6.8625,0.567226891 6.75,0.680672269 6.75,0.794117647 L6.75,4.87815126 C6.75,4.99159664 6.8625,5.10504202 6.975,5.10504202 Z M3.6,5.10504202 L3.99375,5.10504202 C4.10625,5.10504202 4.21875,4.99159664 4.21875,4.87815126 L4.21875,1.36134454 C4.21875,1.24789916 4.10625,1.13445378 3.99375,1.13445378 L3.6,1.13445378 C3.4875,1.13445378 3.375,1.24789916 3.375,1.36134454 L3.375,4.87815126 C3.375,4.99159664 3.4875,5.10504202 3.6,5.10504202 L3.6,5.10504202 Z M5.2875,5.10504202 L5.68125,5.10504202 C5.79375,5.10504202 5.90625,4.99159664 5.90625,4.87815126 L5.90625,2.49579832 C5.90625,2.38235294 5.79375,2.26890756 5.68125,2.26890756 L5.2875,2.26890756 C5.175,2.26890756 5.0625,2.38235294 5.0625,2.49579832 L5.0625,4.87815126 C5.0625,4.99159664 5.175,5.10504202 5.2875,5.10504202 L5.2875,5.10504202 Z M8.71875,5.95588235 L0.84375,5.95588235 L0.84375,0.283613445 C0.84375,0.126917017 0.717890625,-6.27942143e-13 0.5625,-6.27942143e-13 L0.28125,-6.27942143e-13 C0.125859375,-6.27942143e-13 0,0.126917017 0,0.283613445 L0,6.2394958 C0,6.5527114 0.251894531,6.80672269 0.5625,6.80672269 L8.71875,6.80672269 C8.87414062,6.80672269 9,6.67980567 9,6.52310924 L9,6.2394958 C9,6.08279937 8.87414062,5.95588235 8.71875,5.95588235 Z M1.9125,5.10504202 L2.30625,5.10504202 C2.41875,5.10504202 2.53125,4.99159664 2.53125,4.87815126 L2.53125,3.6302521 C2.53125,3.51680672 2.41875,3.40336134 2.30625,3.40336134 L1.9125,3.40336134 C1.8,3.40336134 1.6875,3.51680672 1.6875,3.6302521 L1.6875,4.87815126 C1.6875,4.99159664 1.8,5.10504202 1.9125,5.10504202 L1.9125,5.10504202 Z" id="Shape"></path>
                </g>
                <g id="Group-8_26" opacity="0.682878047" transform="translate(32.000000, 96.000000)">
                    <path d="M21.71875,12.6722689 L14.125,12.6722689 L14.125,7.28361345 C14.125,7.12691702 13.9991406,7 13.84375,7 L13.28125,7 C13.1258594,7 13,7.12691702 13,7.28361345 L13,13.2394958 C13,13.5527114 13.2518945,13.8067227 13.5625,13.8067227 L21.71875,13.8067227 C21.8741406,13.8067227 22,13.6798057 22,13.5231092 L22,12.9558824 C22,12.7991859 21.8741406,12.6722689 21.71875,12.6722689 Z M21.15625,7.56722689 L19.0809766,7.56722689 C18.7051563,7.56722689 18.5168945,8.02543986 18.7826758,8.29345457 L19.352207,8.8677718 L18.0625,10.168494 L16.772793,8.86794905 C16.5530664,8.64637605 16.1969336,8.64637605 15.9773828,8.86794905 L14.7699414,10.085537 C14.6600781,10.1963235 14.6600781,10.3758863 14.7699414,10.4866728 L15.1675586,10.8876313 C15.2774219,10.9984178 15.4554883,10.9984178 15.5653516,10.8876313 L16.375,10.0710018 L17.664707,11.3715467 C17.8844336,11.5931197 18.2405664,11.5931197 18.4601172,11.3715467 L20.1476172,9.66986607 L20.7171484,10.2441833 C20.9829297,10.512198 21.4373244,10.3223543 21.4373244,9.94337579 L21.4373244,7.85084034 C21.4375,7.69414391 21.3116406,7.56722689 21.15625,7.56722689 Z" id="Shape"></path>
                    <path d="M6.975,5.10504202 L7.36875,5.10504202 C7.48125,5.10504202 7.59375,4.99159664 7.59375,4.87815126 L7.59375,0.794117647 C7.59375,0.680672269 7.48125,0.567226891 7.36875,0.567226891 L6.975,0.567226891 C6.8625,0.567226891 6.75,0.680672269 6.75,0.794117647 L6.75,4.87815126 C6.75,4.99159664 6.8625,5.10504202 6.975,5.10504202 Z M3.6,5.10504202 L3.99375,5.10504202 C4.10625,5.10504202 4.21875,4.99159664 4.21875,4.87815126 L4.21875,1.36134454 C4.21875,1.24789916 4.10625,1.13445378 3.99375,1.13445378 L3.6,1.13445378 C3.4875,1.13445378 3.375,1.24789916 3.375,1.36134454 L3.375,4.87815126 C3.375,4.99159664 3.4875,5.10504202 3.6,5.10504202 L3.6,5.10504202 Z M5.2875,5.10504202 L5.68125,5.10504202 C5.79375,5.10504202 5.90625,4.99159664 5.90625,4.87815126 L5.90625,2.49579832 C5.90625,2.38235294 5.79375,2.26890756 5.68125,2.26890756 L5.2875,2.26890756 C5.175,2.26890756 5.0625,2.38235294 5.0625,2.49579832 L5.0625,4.87815126 C5.0625,4.99159664 5.175,5.10504202 5.2875,5.10504202 L5.2875,5.10504202 Z M8.71875,5.95588235 L0.84375,5.95588235 L0.84375,0.283613445 C0.84375,0.126917017 0.717890625,-6.27942143e-13 0.5625,-6.27942143e-13 L0.28125,-6.27942143e-13 C0.125859375,-6.27942143e-13 0,0.126917017 0,0.283613445 L0,6.2394958 C0,6.5527114 0.251894531,6.80672269 0.5625,6.80672269 L8.71875,6.80672269 C8.87414062,6.80672269 9,6.67980567 9,6.52310924 L9,6.2394958 C9,6.08279937 8.87414062,5.95588235 8.71875,5.95588235 Z M1.9125,5.10504202 L2.30625,5.10504202 C2.41875,5.10504202 2.53125,4.99159664 2.53125,4.87815126 L2.53125,3.6302521 C2.53125,3.51680672 2.41875,3.40336134 2.30625,3.40336134 L1.9125,3.40336134 C1.8,3.40336134 1.6875,3.51680672 1.6875,3.6302521 L1.6875,4.87815126 C1.6875,4.99159664 1.8,5.10504202 1.9125,5.10504202 L1.9125,5.10504202 Z" id="Shape"></path>
                </g>
                <g id="Group-8_25" opacity="0.370143536" transform="translate(0.000000, 96.000000)">
                    <path d="M21.71875,12.6722689 L14.125,12.6722689 L14.125,7.28361345 C14.125,7.12691702 13.9991406,7 13.84375,7 L13.28125,7 C13.1258594,7 13,7.12691702 13,7.28361345 L13,13.2394958 C13,13.5527114 13.2518945,13.8067227 13.5625,13.8067227 L21.71875,13.8067227 C21.8741406,13.8067227 22,13.6798057 22,13.5231092 L22,12.9558824 C22,12.7991859 21.8741406,12.6722689 21.71875,12.6722689 Z M21.15625,7.56722689 L19.0809766,7.56722689 C18.7051563,7.56722689 18.5168945,8.02543986 18.7826758,8.29345457 L19.352207,8.8677718 L18.0625,10.168494 L16.772793,8.86794905 C16.5530664,8.64637605 16.1969336,8.64637605 15.9773828,8.86794905 L14.7699414,10.085537 C14.6600781,10.1963235 14.6600781,10.3758863 14.7699414,10.4866728 L15.1675586,10.8876313 C15.2774219,10.9984178 15.4554883,10.9984178 15.5653516,10.8876313 L16.375,10.0710018 L17.664707,11.3715467 C17.8844336,11.5931197 18.2405664,11.5931197 18.4601172,11.3715467 L20.1476172,9.66986607 L20.7171484,10.2441833 C20.9829297,10.512198 21.4373244,10.3223543 21.4373244,9.94337579 L21.4373244,7.85084034 C21.4375,7.69414391 21.3116406,7.56722689 21.15625,7.56722689 Z" id="Shape"></path>
                    <path d="M6.975,5.10504202 L7.36875,5.10504202 C7.48125,5.10504202 7.59375,4.99159664 7.59375,4.87815126 L7.59375,0.794117647 C7.59375,0.680672269 7.48125,0.567226891 7.36875,0.567226891 L6.975,0.567226891 C6.8625,0.567226891 6.75,0.680672269 6.75,0.794117647 L6.75,4.87815126 C6.75,4.99159664 6.8625,5.10504202 6.975,5.10504202 Z M3.6,5.10504202 L3.99375,5.10504202 C4.10625,5.10504202 4.21875,4.99159664 4.21875,4.87815126 L4.21875,1.36134454 C4.21875,1.24789916 4.10625,1.13445378 3.99375,1.13445378 L3.6,1.13445378 C3.4875,1.13445378 3.375,1.24789916 3.375,1.36134454 L3.375,4.87815126 C3.375,4.99159664 3.4875,5.10504202 3.6,5.10504202 L3.6,5.10504202 Z M5.2875,5.10504202 L5.68125,5.10504202 C5.79375,5.10504202 5.90625,4.99159664 5.90625,4.87815126 L5.90625,2.49579832 C5.90625,2.38235294 5.79375,2.26890756 5.68125,2.26890756 L5.2875,2.26890756 C5.175,2.26890756 5.0625,2.38235294 5.0625,2.49579832 L5.0625,4.87815126 C5.0625,4.99159664 5.175,5.10504202 5.2875,5.10504202 L5.2875,5.10504202 Z M8.71875,5.95588235 L0.84375,5.95588235 L0.84375,0.283613445 C0.84375,0.126917017 0.717890625,-6.27942143e-13 0.5625,-6.27942143e-13 L0.28125,-6.27942143e-13 C0.125859375,-6.27942143e-13 0,0.126917017 0,0.283613445 L0,6.2394958 C0,6.5527114 0.251894531,6.80672269 0.5625,6.80672269 L8.71875,6.80672269 C8.87414062,6.80672269 9,6.67980567 9,6.52310924 L9,6.2394958 C9,6.08279937 8.87414062,5.95588235 8.71875,5.95588235 Z M1.9125,5.10504202 L2.30625,5.10504202 C2.41875,5.10504202 2.53125,4.99159664 2.53125,4.87815126 L2.53125,3.6302521 C2.53125,3.51680672 2.41875,3.40336134 2.30625,3.40336134 L1.9125,3.40336134 C1.8,3.40336134 1.6875,3.51680672 1.6875,3.6302521 L1.6875,4.87815126 C1.6875,4.99159664 1.8,5.10504202 1.9125,5.10504202 L1.9125,5.10504202 Z" id="Shape"></path>
                </g>
                <g id="Group-8_24" opacity="0.830511315" transform="translate(224.000000, 64.000000)">
                    <path d="M6.975,5.10504202 L7.36875,5.10504202 C7.48125,5.10504202 7.59375,4.99159664 7.59375,4.87815126 L7.59375,0.794117647 C7.59375,0.680672269 7.48125,0.567226891 7.36875,0.567226891 L6.975,0.567226891 C6.8625,0.567226891 6.75,0.680672269 6.75,0.794117647 L6.75,4.87815126 C6.75,4.99159664 6.8625,5.10504202 6.975,5.10504202 Z M3.6,5.10504202 L3.99375,5.10504202 C4.10625,5.10504202 4.21875,4.99159664 4.21875,4.87815126 L4.21875,1.36134454 C4.21875,1.24789916 4.10625,1.13445378 3.99375,1.13445378 L3.6,1.13445378 C3.4875,1.13445378 3.375,1.24789916 3.375,1.36134454 L3.375,4.87815126 C3.375,4.99159664 3.4875,5.10504202 3.6,5.10504202 L3.6,5.10504202 Z M5.2875,5.10504202 L5.68125,5.10504202 C5.79375,5.10504202 5.90625,4.99159664 5.90625,4.87815126 L5.90625,2.49579832 C5.90625,2.38235294 5.79375,2.26890756 5.68125,2.26890756 L5.2875,2.26890756 C5.175,2.26890756 5.0625,2.38235294 5.0625,2.49579832 L5.0625,4.87815126 C5.0625,4.99159664 5.175,5.10504202 5.2875,5.10504202 L5.2875,5.10504202 Z M8.71875,5.95588235 L0.84375,5.95588235 L0.84375,0.283613445 C0.84375,0.126917017 0.717890625,-6.27942143e-13 0.5625,-6.27942143e-13 L0.28125,-6.27942143e-13 C0.125859375,-6.27942143e-13 0,0.126917017 0,0.283613445 L0,6.2394958 C0,6.5527114 0.251894531,6.80672269 0.5625,6.80672269 L8.71875,6.80672269 C8.87414062,6.80672269 9,6.67980567 9,6.52310924 L9,6.2394958 C9,6.08279937 8.87414062,5.95588235 8.71875,5.95588235 Z M1.9125,5.10504202 L2.30625,5.10504202 C2.41875,5.10504202 2.53125,4.99159664 2.53125,4.87815126 L2.53125,3.6302521 C2.53125,3.51680672 2.41875,3.40336134 2.30625,3.40336134 L1.9125,3.40336134 C1.8,3.40336134 1.6875,3.51680672 1.6875,3.6302521 L1.6875,4.87815126 C1.6875,4.99159664 1.8,5.10504202 1.9125,5.10504202 L1.9125,5.10504202 Z" id="Shape"></path>
                </g>
                <g id="Group-8_23" opacity="0.335528537" transform="translate(192.000000, 64.000000)">
                    <path d="M21.71875,12.6722689 L14.125,12.6722689 L14.125,7.28361345 C14.125,7.12691702 13.9991406,7 13.84375,7 L13.28125,7 C13.1258594,7 13,7.12691702 13,7.28361345 L13,13.2394958 C13,13.5527114 13.2518945,13.8067227 13.5625,13.8067227 L21.71875,13.8067227 C21.8741406,13.8067227 22,13.6798057 22,13.5231092 L22,12.9558824 C22,12.7991859 21.8741406,12.6722689 21.71875,12.6722689 Z M21.15625,7.56722689 L19.0809766,7.56722689 C18.7051563,7.56722689 18.5168945,8.02543986 18.7826758,8.29345457 L19.352207,8.8677718 L18.0625,10.168494 L16.772793,8.86794905 C16.5530664,8.64637605 16.1969336,8.64637605 15.9773828,8.86794905 L14.7699414,10.085537 C14.6600781,10.1963235 14.6600781,10.3758863 14.7699414,10.4866728 L15.1675586,10.8876313 C15.2774219,10.9984178 15.4554883,10.9984178 15.5653516,10.8876313 L16.375,10.0710018 L17.664707,11.3715467 C17.8844336,11.5931197 18.2405664,11.5931197 18.4601172,11.3715467 L20.1476172,9.66986607 L20.7171484,10.2441833 C20.9829297,10.512198 21.4373244,10.3223543 21.4373244,9.94337579 L21.4373244,7.85084034 C21.4375,7.69414391 21.3116406,7.56722689 21.15625,7.56722689 Z" id="Shape"></path>
                    <path d="M6.975,5.10504202 L7.36875,5.10504202 C7.48125,5.10504202 7.59375,4.99159664 7.59375,4.87815126 L7.59375,0.794117647 C7.59375,0.680672269 7.48125,0.567226891 7.36875,0.567226891 L6.975,0.567226891 C6.8625,0.567226891 6.75,0.680672269 6.75,0.794117647 L6.75,4.87815126 C6.75,4.99159664 6.8625,5.10504202 6.975,5.10504202 Z M3.6,5.10504202 L3.99375,5.10504202 C4.10625,5.10504202 4.21875,4.99159664 4.21875,4.87815126 L4.21875,1.36134454 C4.21875,1.24789916 4.10625,1.13445378 3.99375,1.13445378 L3.6,1.13445378 C3.4875,1.13445378 3.375,1.24789916 3.375,1.36134454 L3.375,4.87815126 C3.375,4.99159664 3.4875,5.10504202 3.6,5.10504202 L3.6,5.10504202 Z M5.2875,5.10504202 L5.68125,5.10504202 C5.79375,5.10504202 5.90625,4.99159664 5.90625,4.87815126 L5.90625,2.49579832 C5.90625,2.38235294 5.79375,2.26890756 5.68125,2.26890756 L5.2875,2.26890756 C5.175,2.26890756 5.0625,2.38235294 5.0625,2.49579832 L5.0625,4.87815126 C5.0625,4.99159664 5.175,5.10504202 5.2875,5.10504202 L5.2875,5.10504202 Z M8.71875,5.95588235 L0.84375,5.95588235 L0.84375,0.283613445 C0.84375,0.126917017 0.717890625,-6.27942143e-13 0.5625,-6.27942143e-13 L0.28125,-6.27942143e-13 C0.125859375,-6.27942143e-13 0,0.126917017 0,0.283613445 L0,6.2394958 C0,6.5527114 0.251894531,6.80672269 0.5625,6.80672269 L8.71875,6.80672269 C8.87414062,6.80672269 9,6.67980567 9,6.52310924 L9,6.2394958 C9,6.08279937 8.87414062,5.95588235 8.71875,5.95588235 Z M1.9125,5.10504202 L2.30625,5.10504202 C2.41875,5.10504202 2.53125,4.99159664 2.53125,4.87815126 L2.53125,3.6302521 C2.53125,3.51680672 2.41875,3.40336134 2.30625,3.40336134 L1.9125,3.40336134 C1.8,3.40336134 1.6875,3.51680672 1.6875,3.6302521 L1.6875,4.87815126 C1.6875,4.99159664 1.8,5.10504202 1.9125,5.10504202 L1.9125,5.10504202 Z" id="Shape"></path>
                </g>
                <g id="Group-8_22" opacity="0.224105562" transform="translate(160.000000, 64.000000)">
                    <path d="M21.71875,12.6722689 L14.125,12.6722689 L14.125,7.28361345 C14.125,7.12691702 13.9991406,7 13.84375,7 L13.28125,7 C13.1258594,7 13,7.12691702 13,7.28361345 L13,13.2394958 C13,13.5527114 13.2518945,13.8067227 13.5625,13.8067227 L21.71875,13.8067227 C21.8741406,13.8067227 22,13.6798057 22,13.5231092 L22,12.9558824 C22,12.7991859 21.8741406,12.6722689 21.71875,12.6722689 Z M21.15625,7.56722689 L19.0809766,7.56722689 C18.7051563,7.56722689 18.5168945,8.02543986 18.7826758,8.29345457 L19.352207,8.8677718 L18.0625,10.168494 L16.772793,8.86794905 C16.5530664,8.64637605 16.1969336,8.64637605 15.9773828,8.86794905 L14.7699414,10.085537 C14.6600781,10.1963235 14.6600781,10.3758863 14.7699414,10.4866728 L15.1675586,10.8876313 C15.2774219,10.9984178 15.4554883,10.9984178 15.5653516,10.8876313 L16.375,10.0710018 L17.664707,11.3715467 C17.8844336,11.5931197 18.2405664,11.5931197 18.4601172,11.3715467 L20.1476172,9.66986607 L20.7171484,10.2441833 C20.9829297,10.512198 21.4373244,10.3223543 21.4373244,9.94337579 L21.4373244,7.85084034 C21.4375,7.69414391 21.3116406,7.56722689 21.15625,7.56722689 Z" id="Shape"></path>
                    <path d="M6.975,5.10504202 L7.36875,5.10504202 C7.48125,5.10504202 7.59375,4.99159664 7.59375,4.87815126 L7.59375,0.794117647 C7.59375,0.680672269 7.48125,0.567226891 7.36875,0.567226891 L6.975,0.567226891 C6.8625,0.567226891 6.75,0.680672269 6.75,0.794117647 L6.75,4.87815126 C6.75,4.99159664 6.8625,5.10504202 6.975,5.10504202 Z M3.6,5.10504202 L3.99375,5.10504202 C4.10625,5.10504202 4.21875,4.99159664 4.21875,4.87815126 L4.21875,1.36134454 C4.21875,1.24789916 4.10625,1.13445378 3.99375,1.13445378 L3.6,1.13445378 C3.4875,1.13445378 3.375,1.24789916 3.375,1.36134454 L3.375,4.87815126 C3.375,4.99159664 3.4875,5.10504202 3.6,5.10504202 L3.6,5.10504202 Z M5.2875,5.10504202 L5.68125,5.10504202 C5.79375,5.10504202 5.90625,4.99159664 5.90625,4.87815126 L5.90625,2.49579832 C5.90625,2.38235294 5.79375,2.26890756 5.68125,2.26890756 L5.2875,2.26890756 C5.175,2.26890756 5.0625,2.38235294 5.0625,2.49579832 L5.0625,4.87815126 C5.0625,4.99159664 5.175,5.10504202 5.2875,5.10504202 L5.2875,5.10504202 Z M8.71875,5.95588235 L0.84375,5.95588235 L0.84375,0.283613445 C0.84375,0.126917017 0.717890625,-6.27942143e-13 0.5625,-6.27942143e-13 L0.28125,-6.27942143e-13 C0.125859375,-6.27942143e-13 0,0.126917017 0,0.283613445 L0,6.2394958 C0,6.5527114 0.251894531,6.80672269 0.5625,6.80672269 L8.71875,6.80672269 C8.87414062,6.80672269 9,6.67980567 9,6.52310924 L9,6.2394958 C9,6.08279937 8.87414062,5.95588235 8.71875,5.95588235 Z M1.9125,5.10504202 L2.30625,5.10504202 C2.41875,5.10504202 2.53125,4.99159664 2.53125,4.87815126 L2.53125,3.6302521 C2.53125,3.51680672 2.41875,3.40336134 2.30625,3.40336134 L1.9125,3.40336134 C1.8,3.40336134 1.6875,3.51680672 1.6875,3.6302521 L1.6875,4.87815126 C1.6875,4.99159664 1.8,5.10504202 1.9125,5.10504202 L1.9125,5.10504202 Z" id="Shape"></path>
                </g>
                <g id="Group-8_21" opacity="0.31458623" transform="translate(128.000000, 64.000000)">
                    <path d="M21.71875,12.6722689 L14.125,12.6722689 L14.125,7.28361345 C14.125,7.12691702 13.9991406,7 13.84375,7 L13.28125,7 C13.1258594,7 13,7.12691702 13,7.28361345 L13,13.2394958 C13,13.5527114 13.2518945,13.8067227 13.5625,13.8067227 L21.71875,13.8067227 C21.8741406,13.8067227 22,13.6798057 22,13.5231092 L22,12.9558824 C22,12.7991859 21.8741406,12.6722689 21.71875,12.6722689 Z M21.15625,7.56722689 L19.0809766,7.56722689 C18.7051563,7.56722689 18.5168945,8.02543986 18.7826758,8.29345457 L19.352207,8.8677718 L18.0625,10.168494 L16.772793,8.86794905 C16.5530664,8.64637605 16.1969336,8.64637605 15.9773828,8.86794905 L14.7699414,10.085537 C14.6600781,10.1963235 14.6600781,10.3758863 14.7699414,10.4866728 L15.1675586,10.8876313 C15.2774219,10.9984178 15.4554883,10.9984178 15.5653516,10.8876313 L16.375,10.0710018 L17.664707,11.3715467 C17.8844336,11.5931197 18.2405664,11.5931197 18.4601172,11.3715467 L20.1476172,9.66986607 L20.7171484,10.2441833 C20.9829297,10.512198 21.4373244,10.3223543 21.4373244,9.94337579 L21.4373244,7.85084034 C21.4375,7.69414391 21.3116406,7.56722689 21.15625,7.56722689 Z" id="Shape"></path>
                    <path d="M6.975,5.10504202 L7.36875,5.10504202 C7.48125,5.10504202 7.59375,4.99159664 7.59375,4.87815126 L7.59375,0.794117647 C7.59375,0.680672269 7.48125,0.567226891 7.36875,0.567226891 L6.975,0.567226891 C6.8625,0.567226891 6.75,0.680672269 6.75,0.794117647 L6.75,4.87815126 C6.75,4.99159664 6.8625,5.10504202 6.975,5.10504202 Z M3.6,5.10504202 L3.99375,5.10504202 C4.10625,5.10504202 4.21875,4.99159664 4.21875,4.87815126 L4.21875,1.36134454 C4.21875,1.24789916 4.10625,1.13445378 3.99375,1.13445378 L3.6,1.13445378 C3.4875,1.13445378 3.375,1.24789916 3.375,1.36134454 L3.375,4.87815126 C3.375,4.99159664 3.4875,5.10504202 3.6,5.10504202 L3.6,5.10504202 Z M5.2875,5.10504202 L5.68125,5.10504202 C5.79375,5.10504202 5.90625,4.99159664 5.90625,4.87815126 L5.90625,2.49579832 C5.90625,2.38235294 5.79375,2.26890756 5.68125,2.26890756 L5.2875,2.26890756 C5.175,2.26890756 5.0625,2.38235294 5.0625,2.49579832 L5.0625,4.87815126 C5.0625,4.99159664 5.175,5.10504202 5.2875,5.10504202 L5.2875,5.10504202 Z M8.71875,5.95588235 L0.84375,5.95588235 L0.84375,0.283613445 C0.84375,0.126917017 0.717890625,-6.27942143e-13 0.5625,-6.27942143e-13 L0.28125,-6.27942143e-13 C0.125859375,-6.27942143e-13 0,0.126917017 0,0.283613445 L0,6.2394958 C0,6.5527114 0.251894531,6.80672269 0.5625,6.80672269 L8.71875,6.80672269 C8.87414062,6.80672269 9,6.67980567 9,6.52310924 L9,6.2394958 C9,6.08279937 8.87414062,5.95588235 8.71875,5.95588235 Z M1.9125,5.10504202 L2.30625,5.10504202 C2.41875,5.10504202 2.53125,4.99159664 2.53125,4.87815126 L2.53125,3.6302521 C2.53125,3.51680672 2.41875,3.40336134 2.30625,3.40336134 L1.9125,3.40336134 C1.8,3.40336134 1.6875,3.51680672 1.6875,3.6302521 L1.6875,4.87815126 C1.6875,4.99159664 1.8,5.10504202 1.9125,5.10504202 L1.9125,5.10504202 Z" id="Shape"></path>
                </g>
                <g id="Group-8_20" opacity="0.629473522" transform="translate(96.000000, 64.000000)">
                    <path d="M21.71875,12.6722689 L14.125,12.6722689 L14.125,7.28361345 C14.125,7.12691702 13.9991406,7 13.84375,7 L13.28125,7 C13.1258594,7 13,7.12691702 13,7.28361345 L13,13.2394958 C13,13.5527114 13.2518945,13.8067227 13.5625,13.8067227 L21.71875,13.8067227 C21.8741406,13.8067227 22,13.6798057 22,13.5231092 L22,12.9558824 C22,12.7991859 21.8741406,12.6722689 21.71875,12.6722689 Z M21.15625,7.56722689 L19.0809766,7.56722689 C18.7051563,7.56722689 18.5168945,8.02543986 18.7826758,8.29345457 L19.352207,8.8677718 L18.0625,10.168494 L16.772793,8.86794905 C16.5530664,8.64637605 16.1969336,8.64637605 15.9773828,8.86794905 L14.7699414,10.085537 C14.6600781,10.1963235 14.6600781,10.3758863 14.7699414,10.4866728 L15.1675586,10.8876313 C15.2774219,10.9984178 15.4554883,10.9984178 15.5653516,10.8876313 L16.375,10.0710018 L17.664707,11.3715467 C17.8844336,11.5931197 18.2405664,11.5931197 18.4601172,11.3715467 L20.1476172,9.66986607 L20.7171484,10.2441833 C20.9829297,10.512198 21.4373244,10.3223543 21.4373244,9.94337579 L21.4373244,7.85084034 C21.4375,7.69414391 21.3116406,7.56722689 21.15625,7.56722689 Z" id="Shape"></path>
                    <path d="M6.975,5.10504202 L7.36875,5.10504202 C7.48125,5.10504202 7.59375,4.99159664 7.59375,4.87815126 L7.59375,0.794117647 C7.59375,0.680672269 7.48125,0.567226891 7.36875,0.567226891 L6.975,0.567226891 C6.8625,0.567226891 6.75,0.680672269 6.75,0.794117647 L6.75,4.87815126 C6.75,4.99159664 6.8625,5.10504202 6.975,5.10504202 Z M3.6,5.10504202 L3.99375,5.10504202 C4.10625,5.10504202 4.21875,4.99159664 4.21875,4.87815126 L4.21875,1.36134454 C4.21875,1.24789916 4.10625,1.13445378 3.99375,1.13445378 L3.6,1.13445378 C3.4875,1.13445378 3.375,1.24789916 3.375,1.36134454 L3.375,4.87815126 C3.375,4.99159664 3.4875,5.10504202 3.6,5.10504202 L3.6,5.10504202 Z M5.2875,5.10504202 L5.68125,5.10504202 C5.79375,5.10504202 5.90625,4.99159664 5.90625,4.87815126 L5.90625,2.49579832 C5.90625,2.38235294 5.79375,2.26890756 5.68125,2.26890756 L5.2875,2.26890756 C5.175,2.26890756 5.0625,2.38235294 5.0625,2.49579832 L5.0625,4.87815126 C5.0625,4.99159664 5.175,5.10504202 5.2875,5.10504202 L5.2875,5.10504202 Z M8.71875,5.95588235 L0.84375,5.95588235 L0.84375,0.283613445 C0.84375,0.126917017 0.717890625,-6.27942143e-13 0.5625,-6.27942143e-13 L0.28125,-6.27942143e-13 C0.125859375,-6.27942143e-13 0,0.126917017 0,0.283613445 L0,6.2394958 C0,6.5527114 0.251894531,6.80672269 0.5625,6.80672269 L8.71875,6.80672269 C8.87414062,6.80672269 9,6.67980567 9,6.52310924 L9,6.2394958 C9,6.08279937 8.87414062,5.95588235 8.71875,5.95588235 Z M1.9125,5.10504202 L2.30625,5.10504202 C2.41875,5.10504202 2.53125,4.99159664 2.53125,4.87815126 L2.53125,3.6302521 C2.53125,3.51680672 2.41875,3.40336134 2.30625,3.40336134 L1.9125,3.40336134 C1.8,3.40336134 1.6875,3.51680672 1.6875,3.6302521 L1.6875,4.87815126 C1.6875,4.99159664 1.8,5.10504202 1.9125,5.10504202 L1.9125,5.10504202 Z" id="Shape"></path>
                </g>
                <g id="Group-8_19" opacity="0.165126735" transform="translate(64.000000, 64.000000)">
                    <path d="M21.71875,12.6722689 L14.125,12.6722689 L14.125,7.28361345 C14.125,7.12691702 13.9991406,7 13.84375,7 L13.28125,7 C13.1258594,7 13,7.12691702 13,7.28361345 L13,13.2394958 C13,13.5527114 13.2518945,13.8067227 13.5625,13.8067227 L21.71875,13.8067227 C21.8741406,13.8067227 22,13.6798057 22,13.5231092 L22,12.9558824 C22,12.7991859 21.8741406,12.6722689 21.71875,12.6722689 Z M21.15625,7.56722689 L19.0809766,7.56722689 C18.7051563,7.56722689 18.5168945,8.02543986 18.7826758,8.29345457 L19.352207,8.8677718 L18.0625,10.168494 L16.772793,8.86794905 C16.5530664,8.64637605 16.1969336,8.64637605 15.9773828,8.86794905 L14.7699414,10.085537 C14.6600781,10.1963235 14.6600781,10.3758863 14.7699414,10.4866728 L15.1675586,10.8876313 C15.2774219,10.9984178 15.4554883,10.9984178 15.5653516,10.8876313 L16.375,10.0710018 L17.664707,11.3715467 C17.8844336,11.5931197 18.2405664,11.5931197 18.4601172,11.3715467 L20.1476172,9.66986607 L20.7171484,10.2441833 C20.9829297,10.512198 21.4373244,10.3223543 21.4373244,9.94337579 L21.4373244,7.85084034 C21.4375,7.69414391 21.3116406,7.56722689 21.15625,7.56722689 Z" id="Shape"></path>
                    <path d="M6.975,5.10504202 L7.36875,5.10504202 C7.48125,5.10504202 7.59375,4.99159664 7.59375,4.87815126 L7.59375,0.794117647 C7.59375,0.680672269 7.48125,0.567226891 7.36875,0.567226891 L6.975,0.567226891 C6.8625,0.567226891 6.75,0.680672269 6.75,0.794117647 L6.75,4.87815126 C6.75,4.99159664 6.8625,5.10504202 6.975,5.10504202 Z M3.6,5.10504202 L3.99375,5.10504202 C4.10625,5.10504202 4.21875,4.99159664 4.21875,4.87815126 L4.21875,1.36134454 C4.21875,1.24789916 4.10625,1.13445378 3.99375,1.13445378 L3.6,1.13445378 C3.4875,1.13445378 3.375,1.24789916 3.375,1.36134454 L3.375,4.87815126 C3.375,4.99159664 3.4875,5.10504202 3.6,5.10504202 L3.6,5.10504202 Z M5.2875,5.10504202 L5.68125,5.10504202 C5.79375,5.10504202 5.90625,4.99159664 5.90625,4.87815126 L5.90625,2.49579832 C5.90625,2.38235294 5.79375,2.26890756 5.68125,2.26890756 L5.2875,2.26890756 C5.175,2.26890756 5.0625,2.38235294 5.0625,2.49579832 L5.0625,4.87815126 C5.0625,4.99159664 5.175,5.10504202 5.2875,5.10504202 L5.2875,5.10504202 Z M8.71875,5.95588235 L0.84375,5.95588235 L0.84375,0.283613445 C0.84375,0.126917017 0.717890625,-6.27942143e-13 0.5625,-6.27942143e-13 L0.28125,-6.27942143e-13 C0.125859375,-6.27942143e-13 0,0.126917017 0,0.283613445 L0,6.2394958 C0,6.5527114 0.251894531,6.80672269 0.5625,6.80672269 L8.71875,6.80672269 C8.87414062,6.80672269 9,6.67980567 9,6.52310924 L9,6.2394958 C9,6.08279937 8.87414062,5.95588235 8.71875,5.95588235 Z M1.9125,5.10504202 L2.30625,5.10504202 C2.41875,5.10504202 2.53125,4.99159664 2.53125,4.87815126 L2.53125,3.6302521 C2.53125,3.51680672 2.41875,3.40336134 2.30625,3.40336134 L1.9125,3.40336134 C1.8,3.40336134 1.6875,3.51680672 1.6875,3.6302521 L1.6875,4.87815126 C1.6875,4.99159664 1.8,5.10504202 1.9125,5.10504202 L1.9125,5.10504202 Z" id="Shape"></path>
                </g>
                <g id="Group-8_18" opacity="0.465611449" transform="translate(32.000000, 64.000000)">
                    <path d="M21.71875,12.6722689 L14.125,12.6722689 L14.125,7.28361345 C14.125,7.12691702 13.9991406,7 13.84375,7 L13.28125,7 C13.1258594,7 13,7.12691702 13,7.28361345 L13,13.2394958 C13,13.5527114 13.2518945,13.8067227 13.5625,13.8067227 L21.71875,13.8067227 C21.8741406,13.8067227 22,13.6798057 22,13.5231092 L22,12.9558824 C22,12.7991859 21.8741406,12.6722689 21.71875,12.6722689 Z M21.15625,7.56722689 L19.0809766,7.56722689 C18.7051563,7.56722689 18.5168945,8.02543986 18.7826758,8.29345457 L19.352207,8.8677718 L18.0625,10.168494 L16.772793,8.86794905 C16.5530664,8.64637605 16.1969336,8.64637605 15.9773828,8.86794905 L14.7699414,10.085537 C14.6600781,10.1963235 14.6600781,10.3758863 14.7699414,10.4866728 L15.1675586,10.8876313 C15.2774219,10.9984178 15.4554883,10.9984178 15.5653516,10.8876313 L16.375,10.0710018 L17.664707,11.3715467 C17.8844336,11.5931197 18.2405664,11.5931197 18.4601172,11.3715467 L20.1476172,9.66986607 L20.7171484,10.2441833 C20.9829297,10.512198 21.4373244,10.3223543 21.4373244,9.94337579 L21.4373244,7.85084034 C21.4375,7.69414391 21.3116406,7.56722689 21.15625,7.56722689 Z" id="Shape"></path>
                    <path d="M6.975,5.10504202 L7.36875,5.10504202 C7.48125,5.10504202 7.59375,4.99159664 7.59375,4.87815126 L7.59375,0.794117647 C7.59375,0.680672269 7.48125,0.567226891 7.36875,0.567226891 L6.975,0.567226891 C6.8625,0.567226891 6.75,0.680672269 6.75,0.794117647 L6.75,4.87815126 C6.75,4.99159664 6.8625,5.10504202 6.975,5.10504202 Z M3.6,5.10504202 L3.99375,5.10504202 C4.10625,5.10504202 4.21875,4.99159664 4.21875,4.87815126 L4.21875,1.36134454 C4.21875,1.24789916 4.10625,1.13445378 3.99375,1.13445378 L3.6,1.13445378 C3.4875,1.13445378 3.375,1.24789916 3.375,1.36134454 L3.375,4.87815126 C3.375,4.99159664 3.4875,5.10504202 3.6,5.10504202 L3.6,5.10504202 Z M5.2875,5.10504202 L5.68125,5.10504202 C5.79375,5.10504202 5.90625,4.99159664 5.90625,4.87815126 L5.90625,2.49579832 C5.90625,2.38235294 5.79375,2.26890756 5.68125,2.26890756 L5.2875,2.26890756 C5.175,2.26890756 5.0625,2.38235294 5.0625,2.49579832 L5.0625,4.87815126 C5.0625,4.99159664 5.175,5.10504202 5.2875,5.10504202 L5.2875,5.10504202 Z M8.71875,5.95588235 L0.84375,5.95588235 L0.84375,0.283613445 C0.84375,0.126917017 0.717890625,-6.27942143e-13 0.5625,-6.27942143e-13 L0.28125,-6.27942143e-13 C0.125859375,-6.27942143e-13 0,0.126917017 0,0.283613445 L0,6.2394958 C0,6.5527114 0.251894531,6.80672269 0.5625,6.80672269 L8.71875,6.80672269 C8.87414062,6.80672269 9,6.67980567 9,6.52310924 L9,6.2394958 C9,6.08279937 8.87414062,5.95588235 8.71875,5.95588235 Z M1.9125,5.10504202 L2.30625,5.10504202 C2.41875,5.10504202 2.53125,4.99159664 2.53125,4.87815126 L2.53125,3.6302521 C2.53125,3.51680672 2.41875,3.40336134 2.30625,3.40336134 L1.9125,3.40336134 C1.8,3.40336134 1.6875,3.51680672 1.6875,3.6302521 L1.6875,4.87815126 C1.6875,4.99159664 1.8,5.10504202 1.9125,5.10504202 L1.9125,5.10504202 Z" id="Shape"></path>
                </g>
                <g id="Group-8_17" opacity="0.279387718" transform="translate(0.000000, 64.000000)">
                    <path d="M21.71875,12.6722689 L14.125,12.6722689 L14.125,7.28361345 C14.125,7.12691702 13.9991406,7 13.84375,7 L13.28125,7 C13.1258594,7 13,7.12691702 13,7.28361345 L13,13.2394958 C13,13.5527114 13.2518945,13.8067227 13.5625,13.8067227 L21.71875,13.8067227 C21.8741406,13.8067227 22,13.6798057 22,13.5231092 L22,12.9558824 C22,12.7991859 21.8741406,12.6722689 21.71875,12.6722689 Z M21.15625,7.56722689 L19.0809766,7.56722689 C18.7051563,7.56722689 18.5168945,8.02543986 18.7826758,8.29345457 L19.352207,8.8677718 L18.0625,10.168494 L16.772793,8.86794905 C16.5530664,8.64637605 16.1969336,8.64637605 15.9773828,8.86794905 L14.7699414,10.085537 C14.6600781,10.1963235 14.6600781,10.3758863 14.7699414,10.4866728 L15.1675586,10.8876313 C15.2774219,10.9984178 15.4554883,10.9984178 15.5653516,10.8876313 L16.375,10.0710018 L17.664707,11.3715467 C17.8844336,11.5931197 18.2405664,11.5931197 18.4601172,11.3715467 L20.1476172,9.66986607 L20.7171484,10.2441833 C20.9829297,10.512198 21.4373244,10.3223543 21.4373244,9.94337579 L21.4373244,7.85084034 C21.4375,7.69414391 21.3116406,7.56722689 21.15625,7.56722689 Z" id="Shape"></path>
                    <path d="M6.975,5.10504202 L7.36875,5.10504202 C7.48125,5.10504202 7.59375,4.99159664 7.59375,4.87815126 L7.59375,0.794117647 C7.59375,0.680672269 7.48125,0.567226891 7.36875,0.567226891 L6.975,0.567226891 C6.8625,0.567226891 6.75,0.680672269 6.75,0.794117647 L6.75,4.87815126 C6.75,4.99159664 6.8625,5.10504202 6.975,5.10504202 Z M3.6,5.10504202 L3.99375,5.10504202 C4.10625,5.10504202 4.21875,4.99159664 4.21875,4.87815126 L4.21875,1.36134454 C4.21875,1.24789916 4.10625,1.13445378 3.99375,1.13445378 L3.6,1.13445378 C3.4875,1.13445378 3.375,1.24789916 3.375,1.36134454 L3.375,4.87815126 C3.375,4.99159664 3.4875,5.10504202 3.6,5.10504202 L3.6,5.10504202 Z M5.2875,5.10504202 L5.68125,5.10504202 C5.79375,5.10504202 5.90625,4.99159664 5.90625,4.87815126 L5.90625,2.49579832 C5.90625,2.38235294 5.79375,2.26890756 5.68125,2.26890756 L5.2875,2.26890756 C5.175,2.26890756 5.0625,2.38235294 5.0625,2.49579832 L5.0625,4.87815126 C5.0625,4.99159664 5.175,5.10504202 5.2875,5.10504202 L5.2875,5.10504202 Z M8.71875,5.95588235 L0.84375,5.95588235 L0.84375,0.283613445 C0.84375,0.126917017 0.717890625,-6.27942143e-13 0.5625,-6.27942143e-13 L0.28125,-6.27942143e-13 C0.125859375,-6.27942143e-13 0,0.126917017 0,0.283613445 L0,6.2394958 C0,6.5527114 0.251894531,6.80672269 0.5625,6.80672269 L8.71875,6.80672269 C8.87414062,6.80672269 9,6.67980567 9,6.52310924 L9,6.2394958 C9,6.08279937 8.87414062,5.95588235 8.71875,5.95588235 Z M1.9125,5.10504202 L2.30625,5.10504202 C2.41875,5.10504202 2.53125,4.99159664 2.53125,4.87815126 L2.53125,3.6302521 C2.53125,3.51680672 2.41875,3.40336134 2.30625,3.40336134 L1.9125,3.40336134 C1.8,3.40336134 1.6875,3.51680672 1.6875,3.6302521 L1.6875,4.87815126 C1.6875,4.99159664 1.8,5.10504202 1.9125,5.10504202 L1.9125,5.10504202 Z" id="Shape"></path>
                </g>
                <g id="Group-8_16" opacity="0.905799294" transform="translate(224.000000, 32.000000)">
                    <path d="M6.975,5.10504202 L7.36875,5.10504202 C7.48125,5.10504202 7.59375,4.99159664 7.59375,4.87815126 L7.59375,0.794117647 C7.59375,0.680672269 7.48125,0.567226891 7.36875,0.567226891 L6.975,0.567226891 C6.8625,0.567226891 6.75,0.680672269 6.75,0.794117647 L6.75,4.87815126 C6.75,4.99159664 6.8625,5.10504202 6.975,5.10504202 Z M3.6,5.10504202 L3.99375,5.10504202 C4.10625,5.10504202 4.21875,4.99159664 4.21875,4.87815126 L4.21875,1.36134454 C4.21875,1.24789916 4.10625,1.13445378 3.99375,1.13445378 L3.6,1.13445378 C3.4875,1.13445378 3.375,1.24789916 3.375,1.36134454 L3.375,4.87815126 C3.375,4.99159664 3.4875,5.10504202 3.6,5.10504202 L3.6,5.10504202 Z M5.2875,5.10504202 L5.68125,5.10504202 C5.79375,5.10504202 5.90625,4.99159664 5.90625,4.87815126 L5.90625,2.49579832 C5.90625,2.38235294 5.79375,2.26890756 5.68125,2.26890756 L5.2875,2.26890756 C5.175,2.26890756 5.0625,2.38235294 5.0625,2.49579832 L5.0625,4.87815126 C5.0625,4.99159664 5.175,5.10504202 5.2875,5.10504202 L5.2875,5.10504202 Z M8.71875,5.95588235 L0.84375,5.95588235 L0.84375,0.283613445 C0.84375,0.126917017 0.717890625,-6.27942143e-13 0.5625,-6.27942143e-13 L0.28125,-6.27942143e-13 C0.125859375,-6.27942143e-13 0,0.126917017 0,0.283613445 L0,6.2394958 C0,6.5527114 0.251894531,6.80672269 0.5625,6.80672269 L8.71875,6.80672269 C8.87414062,6.80672269 9,6.67980567 9,6.52310924 L9,6.2394958 C9,6.08279937 8.87414062,5.95588235 8.71875,5.95588235 Z M1.9125,5.10504202 L2.30625,5.10504202 C2.41875,5.10504202 2.53125,4.99159664 2.53125,4.87815126 L2.53125,3.6302521 C2.53125,3.51680672 2.41875,3.40336134 2.30625,3.40336134 L1.9125,3.40336134 C1.8,3.40336134 1.6875,3.51680672 1.6875,3.6302521 L1.6875,4.87815126 C1.6875,4.99159664 1.8,5.10504202 1.9125,5.10504202 L1.9125,5.10504202 Z" id="Shape"></path>
                </g>
                <g id="Group-8_15" opacity="0.498977676" transform="translate(192.000000, 32.000000)">
                    <path d="M21.71875,12.6722689 L14.125,12.6722689 L14.125,7.28361345 C14.125,7.12691702 13.9991406,7 13.84375,7 L13.28125,7 C13.1258594,7 13,7.12691702 13,7.28361345 L13,13.2394958 C13,13.5527114 13.2518945,13.8067227 13.5625,13.8067227 L21.71875,13.8067227 C21.8741406,13.8067227 22,13.6798057 22,13.5231092 L22,12.9558824 C22,12.7991859 21.8741406,12.6722689 21.71875,12.6722689 Z M21.15625,7.56722689 L19.0809766,7.56722689 C18.7051563,7.56722689 18.5168945,8.02543986 18.7826758,8.29345457 L19.352207,8.8677718 L18.0625,10.168494 L16.772793,8.86794905 C16.5530664,8.64637605 16.1969336,8.64637605 15.9773828,8.86794905 L14.7699414,10.085537 C14.6600781,10.1963235 14.6600781,10.3758863 14.7699414,10.4866728 L15.1675586,10.8876313 C15.2774219,10.9984178 15.4554883,10.9984178 15.5653516,10.8876313 L16.375,10.0710018 L17.664707,11.3715467 C17.8844336,11.5931197 18.2405664,11.5931197 18.4601172,11.3715467 L20.1476172,9.66986607 L20.7171484,10.2441833 C20.9829297,10.512198 21.4373244,10.3223543 21.4373244,9.94337579 L21.4373244,7.85084034 C21.4375,7.69414391 21.3116406,7.56722689 21.15625,7.56722689 Z" id="Shape"></path>
                    <path d="M6.975,5.10504202 L7.36875,5.10504202 C7.48125,5.10504202 7.59375,4.99159664 7.59375,4.87815126 L7.59375,0.794117647 C7.59375,0.680672269 7.48125,0.567226891 7.36875,0.567226891 L6.975,0.567226891 C6.8625,0.567226891 6.75,0.680672269 6.75,0.794117647 L6.75,4.87815126 C6.75,4.99159664 6.8625,5.10504202 6.975,5.10504202 Z M3.6,5.10504202 L3.99375,5.10504202 C4.10625,5.10504202 4.21875,4.99159664 4.21875,4.87815126 L4.21875,1.36134454 C4.21875,1.24789916 4.10625,1.13445378 3.99375,1.13445378 L3.6,1.13445378 C3.4875,1.13445378 3.375,1.24789916 3.375,1.36134454 L3.375,4.87815126 C3.375,4.99159664 3.4875,5.10504202 3.6,5.10504202 L3.6,5.10504202 Z M5.2875,5.10504202 L5.68125,5.10504202 C5.79375,5.10504202 5.90625,4.99159664 5.90625,4.87815126 L5.90625,2.49579832 C5.90625,2.38235294 5.79375,2.26890756 5.68125,2.26890756 L5.2875,2.26890756 C5.175,2.26890756 5.0625,2.38235294 5.0625,2.49579832 L5.0625,4.87815126 C5.0625,4.99159664 5.175,5.10504202 5.2875,5.10504202 L5.2875,5.10504202 Z M8.71875,5.95588235 L0.84375,5.95588235 L0.84375,0.283613445 C0.84375,0.126917017 0.717890625,-6.27942143e-13 0.5625,-6.27942143e-13 L0.28125,-6.27942143e-13 C0.125859375,-6.27942143e-13 0,0.126917017 0,0.283613445 L0,6.2394958 C0,6.5527114 0.251894531,6.80672269 0.5625,6.80672269 L8.71875,6.80672269 C8.87414062,6.80672269 9,6.67980567 9,6.52310924 L9,6.2394958 C9,6.08279937 8.87414062,5.95588235 8.71875,5.95588235 Z M1.9125,5.10504202 L2.30625,5.10504202 C2.41875,5.10504202 2.53125,4.99159664 2.53125,4.87815126 L2.53125,3.6302521 C2.53125,3.51680672 2.41875,3.40336134 2.30625,3.40336134 L1.9125,3.40336134 C1.8,3.40336134 1.6875,3.51680672 1.6875,3.6302521 L1.6875,4.87815126 C1.6875,4.99159664 1.8,5.10504202 1.9125,5.10504202 L1.9125,5.10504202 Z" id="Shape"></path>
                </g>
                <g id="Group-8_14" opacity="0.528457291" transform="translate(160.000000, 32.000000)">
                    <path d="M21.71875,12.6722689 L14.125,12.6722689 L14.125,7.28361345 C14.125,7.12691702 13.9991406,7 13.84375,7 L13.28125,7 C13.1258594,7 13,7.12691702 13,7.28361345 L13,13.2394958 C13,13.5527114 13.2518945,13.8067227 13.5625,13.8067227 L21.71875,13.8067227 C21.8741406,13.8067227 22,13.6798057 22,13.5231092 L22,12.9558824 C22,12.7991859 21.8741406,12.6722689 21.71875,12.6722689 Z M21.15625,7.56722689 L19.0809766,7.56722689 C18.7051563,7.56722689 18.5168945,8.02543986 18.7826758,8.29345457 L19.352207,8.8677718 L18.0625,10.168494 L16.772793,8.86794905 C16.5530664,8.64637605 16.1969336,8.64637605 15.9773828,8.86794905 L14.7699414,10.085537 C14.6600781,10.1963235 14.6600781,10.3758863 14.7699414,10.4866728 L15.1675586,10.8876313 C15.2774219,10.9984178 15.4554883,10.9984178 15.5653516,10.8876313 L16.375,10.0710018 L17.664707,11.3715467 C17.8844336,11.5931197 18.2405664,11.5931197 18.4601172,11.3715467 L20.1476172,9.66986607 L20.7171484,10.2441833 C20.9829297,10.512198 21.4373244,10.3223543 21.4373244,9.94337579 L21.4373244,7.85084034 C21.4375,7.69414391 21.3116406,7.56722689 21.15625,7.56722689 Z" id="Shape"></path>
                    <path d="M6.975,5.10504202 L7.36875,5.10504202 C7.48125,5.10504202 7.59375,4.99159664 7.59375,4.87815126 L7.59375,0.794117647 C7.59375,0.680672269 7.48125,0.567226891 7.36875,0.567226891 L6.975,0.567226891 C6.8625,0.567226891 6.75,0.680672269 6.75,0.794117647 L6.75,4.87815126 C6.75,4.99159664 6.8625,5.10504202 6.975,5.10504202 Z M3.6,5.10504202 L3.99375,5.10504202 C4.10625,5.10504202 4.21875,4.99159664 4.21875,4.87815126 L4.21875,1.36134454 C4.21875,1.24789916 4.10625,1.13445378 3.99375,1.13445378 L3.6,1.13445378 C3.4875,1.13445378 3.375,1.24789916 3.375,1.36134454 L3.375,4.87815126 C3.375,4.99159664 3.4875,5.10504202 3.6,5.10504202 L3.6,5.10504202 Z M5.2875,5.10504202 L5.68125,5.10504202 C5.79375,5.10504202 5.90625,4.99159664 5.90625,4.87815126 L5.90625,2.49579832 C5.90625,2.38235294 5.79375,2.26890756 5.68125,2.26890756 L5.2875,2.26890756 C5.175,2.26890756 5.0625,2.38235294 5.0625,2.49579832 L5.0625,4.87815126 C5.0625,4.99159664 5.175,5.10504202 5.2875,5.10504202 L5.2875,5.10504202 Z M8.71875,5.95588235 L0.84375,5.95588235 L0.84375,0.283613445 C0.84375,0.126917017 0.717890625,-6.27942143e-13 0.5625,-6.27942143e-13 L0.28125,-6.27942143e-13 C0.125859375,-6.27942143e-13 0,0.126917017 0,0.283613445 L0,6.2394958 C0,6.5527114 0.251894531,6.80672269 0.5625,6.80672269 L8.71875,6.80672269 C8.87414062,6.80672269 9,6.67980567 9,6.52310924 L9,6.2394958 C9,6.08279937 8.87414062,5.95588235 8.71875,5.95588235 Z M1.9125,5.10504202 L2.30625,5.10504202 C2.41875,5.10504202 2.53125,4.99159664 2.53125,4.87815126 L2.53125,3.6302521 C2.53125,3.51680672 2.41875,3.40336134 2.30625,3.40336134 L1.9125,3.40336134 C1.8,3.40336134 1.6875,3.51680672 1.6875,3.6302521 L1.6875,4.87815126 C1.6875,4.99159664 1.8,5.10504202 1.9125,5.10504202 L1.9125,5.10504202 Z" id="Shape"></path>
                </g>
                <g id="Group-8_13" opacity="0.639692353" transform="translate(128.000000, 32.000000)">
                    <path d="M21.71875,12.6722689 L14.125,12.6722689 L14.125,7.28361345 C14.125,7.12691702 13.9991406,7 13.84375,7 L13.28125,7 C13.1258594,7 13,7.12691702 13,7.28361345 L13,13.2394958 C13,13.5527114 13.2518945,13.8067227 13.5625,13.8067227 L21.71875,13.8067227 C21.8741406,13.8067227 22,13.6798057 22,13.5231092 L22,12.9558824 C22,12.7991859 21.8741406,12.6722689 21.71875,12.6722689 Z M21.15625,7.56722689 L19.0809766,7.56722689 C18.7051563,7.56722689 18.5168945,8.02543986 18.7826758,8.29345457 L19.352207,8.8677718 L18.0625,10.168494 L16.772793,8.86794905 C16.5530664,8.64637605 16.1969336,8.64637605 15.9773828,8.86794905 L14.7699414,10.085537 C14.6600781,10.1963235 14.6600781,10.3758863 14.7699414,10.4866728 L15.1675586,10.8876313 C15.2774219,10.9984178 15.4554883,10.9984178 15.5653516,10.8876313 L16.375,10.0710018 L17.664707,11.3715467 C17.8844336,11.5931197 18.2405664,11.5931197 18.4601172,11.3715467 L20.1476172,9.66986607 L20.7171484,10.2441833 C20.9829297,10.512198 21.4373244,10.3223543 21.4373244,9.94337579 L21.4373244,7.85084034 C21.4375,7.69414391 21.3116406,7.56722689 21.15625,7.56722689 Z" id="Shape"></path>
                    <path d="M6.975,5.10504202 L7.36875,5.10504202 C7.48125,5.10504202 7.59375,4.99159664 7.59375,4.87815126 L7.59375,0.794117647 C7.59375,0.680672269 7.48125,0.567226891 7.36875,0.567226891 L6.975,0.567226891 C6.8625,0.567226891 6.75,0.680672269 6.75,0.794117647 L6.75,4.87815126 C6.75,4.99159664 6.8625,5.10504202 6.975,5.10504202 Z M3.6,5.10504202 L3.99375,5.10504202 C4.10625,5.10504202 4.21875,4.99159664 4.21875,4.87815126 L4.21875,1.36134454 C4.21875,1.24789916 4.10625,1.13445378 3.99375,1.13445378 L3.6,1.13445378 C3.4875,1.13445378 3.375,1.24789916 3.375,1.36134454 L3.375,4.87815126 C3.375,4.99159664 3.4875,5.10504202 3.6,5.10504202 L3.6,5.10504202 Z M5.2875,5.10504202 L5.68125,5.10504202 C5.79375,5.10504202 5.90625,4.99159664 5.90625,4.87815126 L5.90625,2.49579832 C5.90625,2.38235294 5.79375,2.26890756 5.68125,2.26890756 L5.2875,2.26890756 C5.175,2.26890756 5.0625,2.38235294 5.0625,2.49579832 L5.0625,4.87815126 C5.0625,4.99159664 5.175,5.10504202 5.2875,5.10504202 L5.2875,5.10504202 Z M8.71875,5.95588235 L0.84375,5.95588235 L0.84375,0.283613445 C0.84375,0.126917017 0.717890625,-6.27942143e-13 0.5625,-6.27942143e-13 L0.28125,-6.27942143e-13 C0.125859375,-6.27942143e-13 0,0.126917017 0,0.283613445 L0,6.2394958 C0,6.5527114 0.251894531,6.80672269 0.5625,6.80672269 L8.71875,6.80672269 C8.87414062,6.80672269 9,6.67980567 9,6.52310924 L9,6.2394958 C9,6.08279937 8.87414062,5.95588235 8.71875,5.95588235 Z M1.9125,5.10504202 L2.30625,5.10504202 C2.41875,5.10504202 2.53125,4.99159664 2.53125,4.87815126 L2.53125,3.6302521 C2.53125,3.51680672 2.41875,3.40336134 2.30625,3.40336134 L1.9125,3.40336134 C1.8,3.40336134 1.6875,3.51680672 1.6875,3.6302521 L1.6875,4.87815126 C1.6875,4.99159664 1.8,5.10504202 1.9125,5.10504202 L1.9125,5.10504202 Z" id="Shape"></path>
                </g>
                <g id="Group-8_12" opacity="0.469851716" transform="translate(96.000000, 32.000000)">
                    <path d="M21.71875,12.6722689 L14.125,12.6722689 L14.125,7.28361345 C14.125,7.12691702 13.9991406,7 13.84375,7 L13.28125,7 C13.1258594,7 13,7.12691702 13,7.28361345 L13,13.2394958 C13,13.5527114 13.2518945,13.8067227 13.5625,13.8067227 L21.71875,13.8067227 C21.8741406,13.8067227 22,13.6798057 22,13.5231092 L22,12.9558824 C22,12.7991859 21.8741406,12.6722689 21.71875,12.6722689 Z M21.15625,7.56722689 L19.0809766,7.56722689 C18.7051563,7.56722689 18.5168945,8.02543986 18.7826758,8.29345457 L19.352207,8.8677718 L18.0625,10.168494 L16.772793,8.86794905 C16.5530664,8.64637605 16.1969336,8.64637605 15.9773828,8.86794905 L14.7699414,10.085537 C14.6600781,10.1963235 14.6600781,10.3758863 14.7699414,10.4866728 L15.1675586,10.8876313 C15.2774219,10.9984178 15.4554883,10.9984178 15.5653516,10.8876313 L16.375,10.0710018 L17.664707,11.3715467 C17.8844336,11.5931197 18.2405664,11.5931197 18.4601172,11.3715467 L20.1476172,9.66986607 L20.7171484,10.2441833 C20.9829297,10.512198 21.4373244,10.3223543 21.4373244,9.94337579 L21.4373244,7.85084034 C21.4375,7.69414391 21.3116406,7.56722689 21.15625,7.56722689 Z" id="Shape"></path>
                    <path d="M6.975,5.10504202 L7.36875,5.10504202 C7.48125,5.10504202 7.59375,4.99159664 7.59375,4.87815126 L7.59375,0.794117647 C7.59375,0.680672269 7.48125,0.567226891 7.36875,0.567226891 L6.975,0.567226891 C6.8625,0.567226891 6.75,0.680672269 6.75,0.794117647 L6.75,4.87815126 C6.75,4.99159664 6.8625,5.10504202 6.975,5.10504202 Z M3.6,5.10504202 L3.99375,5.10504202 C4.10625,5.10504202 4.21875,4.99159664 4.21875,4.87815126 L4.21875,1.36134454 C4.21875,1.24789916 4.10625,1.13445378 3.99375,1.13445378 L3.6,1.13445378 C3.4875,1.13445378 3.375,1.24789916 3.375,1.36134454 L3.375,4.87815126 C3.375,4.99159664 3.4875,5.10504202 3.6,5.10504202 L3.6,5.10504202 Z M5.2875,5.10504202 L5.68125,5.10504202 C5.79375,5.10504202 5.90625,4.99159664 5.90625,4.87815126 L5.90625,2.49579832 C5.90625,2.38235294 5.79375,2.26890756 5.68125,2.26890756 L5.2875,2.26890756 C5.175,2.26890756 5.0625,2.38235294 5.0625,2.49579832 L5.0625,4.87815126 C5.0625,4.99159664 5.175,5.10504202 5.2875,5.10504202 L5.2875,5.10504202 Z M8.71875,5.95588235 L0.84375,5.95588235 L0.84375,0.283613445 C0.84375,0.126917017 0.717890625,-6.27942143e-13 0.5625,-6.27942143e-13 L0.28125,-6.27942143e-13 C0.125859375,-6.27942143e-13 0,0.126917017 0,0.283613445 L0,6.2394958 C0,6.5527114 0.251894531,6.80672269 0.5625,6.80672269 L8.71875,6.80672269 C8.87414062,6.80672269 9,6.67980567 9,6.52310924 L9,6.2394958 C9,6.08279937 8.87414062,5.95588235 8.71875,5.95588235 Z M1.9125,5.10504202 L2.30625,5.10504202 C2.41875,5.10504202 2.53125,4.99159664 2.53125,4.87815126 L2.53125,3.6302521 C2.53125,3.51680672 2.41875,3.40336134 2.30625,3.40336134 L1.9125,3.40336134 C1.8,3.40336134 1.6875,3.51680672 1.6875,3.6302521 L1.6875,4.87815126 C1.6875,4.99159664 1.8,5.10504202 1.9125,5.10504202 L1.9125,5.10504202 Z" id="Shape"></path>
                </g>
                <g id="Group-8_11" opacity="0.211196133" transform="translate(64.000000, 32.000000)">
                    <path d="M21.71875,12.6722689 L14.125,12.6722689 L14.125,7.28361345 C14.125,7.12691702 13.9991406,7 13.84375,7 L13.28125,7 C13.1258594,7 13,7.12691702 13,7.28361345 L13,13.2394958 C13,13.5527114 13.2518945,13.8067227 13.5625,13.8067227 L21.71875,13.8067227 C21.8741406,13.8067227 22,13.6798057 22,13.5231092 L22,12.9558824 C22,12.7991859 21.8741406,12.6722689 21.71875,12.6722689 Z M21.15625,7.56722689 L19.0809766,7.56722689 C18.7051563,7.56722689 18.5168945,8.02543986 18.7826758,8.29345457 L19.352207,8.8677718 L18.0625,10.168494 L16.772793,8.86794905 C16.5530664,8.64637605 16.1969336,8.64637605 15.9773828,8.86794905 L14.7699414,10.085537 C14.6600781,10.1963235 14.6600781,10.3758863 14.7699414,10.4866728 L15.1675586,10.8876313 C15.2774219,10.9984178 15.4554883,10.9984178 15.5653516,10.8876313 L16.375,10.0710018 L17.664707,11.3715467 C17.8844336,11.5931197 18.2405664,11.5931197 18.4601172,11.3715467 L20.1476172,9.66986607 L20.7171484,10.2441833 C20.9829297,10.512198 21.4373244,10.3223543 21.4373244,9.94337579 L21.4373244,7.85084034 C21.4375,7.69414391 21.3116406,7.56722689 21.15625,7.56722689 Z" id="Shape"></path>
                    <path d="M6.975,5.10504202 L7.36875,5.10504202 C7.48125,5.10504202 7.59375,4.99159664 7.59375,4.87815126 L7.59375,0.794117647 C7.59375,0.680672269 7.48125,0.567226891 7.36875,0.567226891 L6.975,0.567226891 C6.8625,0.567226891 6.75,0.680672269 6.75,0.794117647 L6.75,4.87815126 C6.75,4.99159664 6.8625,5.10504202 6.975,5.10504202 Z M3.6,5.10504202 L3.99375,5.10504202 C4.10625,5.10504202 4.21875,4.99159664 4.21875,4.87815126 L4.21875,1.36134454 C4.21875,1.24789916 4.10625,1.13445378 3.99375,1.13445378 L3.6,1.13445378 C3.4875,1.13445378 3.375,1.24789916 3.375,1.36134454 L3.375,4.87815126 C3.375,4.99159664 3.4875,5.10504202 3.6,5.10504202 L3.6,5.10504202 Z M5.2875,5.10504202 L5.68125,5.10504202 C5.79375,5.10504202 5.90625,4.99159664 5.90625,4.87815126 L5.90625,2.49579832 C5.90625,2.38235294 5.79375,2.26890756 5.68125,2.26890756 L5.2875,2.26890756 C5.175,2.26890756 5.0625,2.38235294 5.0625,2.49579832 L5.0625,4.87815126 C5.0625,4.99159664 5.175,5.10504202 5.2875,5.10504202 L5.2875,5.10504202 Z M8.71875,5.95588235 L0.84375,5.95588235 L0.84375,0.283613445 C0.84375,0.126917017 0.717890625,-6.27942143e-13 0.5625,-6.27942143e-13 L0.28125,-6.27942143e-13 C0.125859375,-6.27942143e-13 0,0.126917017 0,0.283613445 L0,6.2394958 C0,6.5527114 0.251894531,6.80672269 0.5625,6.80672269 L8.71875,6.80672269 C8.87414062,6.80672269 9,6.67980567 9,6.52310924 L9,6.2394958 C9,6.08279937 8.87414062,5.95588235 8.71875,5.95588235 Z M1.9125,5.10504202 L2.30625,5.10504202 C2.41875,5.10504202 2.53125,4.99159664 2.53125,4.87815126 L2.53125,3.6302521 C2.53125,3.51680672 2.41875,3.40336134 2.30625,3.40336134 L1.9125,3.40336134 C1.8,3.40336134 1.6875,3.51680672 1.6875,3.6302521 L1.6875,4.87815126 C1.6875,4.99159664 1.8,5.10504202 1.9125,5.10504202 L1.9125,5.10504202 Z" id="Shape"></path>
                </g>
                <g id="Group-8_10" opacity="0.718876425" transform="translate(32.000000, 32.000000)">
                    <path d="M21.71875,12.6722689 L14.125,12.6722689 L14.125,7.28361345 C14.125,7.12691702 13.9991406,7 13.84375,7 L13.28125,7 C13.1258594,7 13,7.12691702 13,7.28361345 L13,13.2394958 C13,13.5527114 13.2518945,13.8067227 13.5625,13.8067227 L21.71875,13.8067227 C21.8741406,13.8067227 22,13.6798057 22,13.5231092 L22,12.9558824 C22,12.7991859 21.8741406,12.6722689 21.71875,12.6722689 Z M21.15625,7.56722689 L19.0809766,7.56722689 C18.7051563,7.56722689 18.5168945,8.02543986 18.7826758,8.29345457 L19.352207,8.8677718 L18.0625,10.168494 L16.772793,8.86794905 C16.5530664,8.64637605 16.1969336,8.64637605 15.9773828,8.86794905 L14.7699414,10.085537 C14.6600781,10.1963235 14.6600781,10.3758863 14.7699414,10.4866728 L15.1675586,10.8876313 C15.2774219,10.9984178 15.4554883,10.9984178 15.5653516,10.8876313 L16.375,10.0710018 L17.664707,11.3715467 C17.8844336,11.5931197 18.2405664,11.5931197 18.4601172,11.3715467 L20.1476172,9.66986607 L20.7171484,10.2441833 C20.9829297,10.512198 21.4373244,10.3223543 21.4373244,9.94337579 L21.4373244,7.85084034 C21.4375,7.69414391 21.3116406,7.56722689 21.15625,7.56722689 Z" id="Shape"></path>
                    <path d="M6.975,5.10504202 L7.36875,5.10504202 C7.48125,5.10504202 7.59375,4.99159664 7.59375,4.87815126 L7.59375,0.794117647 C7.59375,0.680672269 7.48125,0.567226891 7.36875,0.567226891 L6.975,0.567226891 C6.8625,0.567226891 6.75,0.680672269 6.75,0.794117647 L6.75,4.87815126 C6.75,4.99159664 6.8625,5.10504202 6.975,5.10504202 Z M3.6,5.10504202 L3.99375,5.10504202 C4.10625,5.10504202 4.21875,4.99159664 4.21875,4.87815126 L4.21875,1.36134454 C4.21875,1.24789916 4.10625,1.13445378 3.99375,1.13445378 L3.6,1.13445378 C3.4875,1.13445378 3.375,1.24789916 3.375,1.36134454 L3.375,4.87815126 C3.375,4.99159664 3.4875,5.10504202 3.6,5.10504202 L3.6,5.10504202 Z M5.2875,5.10504202 L5.68125,5.10504202 C5.79375,5.10504202 5.90625,4.99159664 5.90625,4.87815126 L5.90625,2.49579832 C5.90625,2.38235294 5.79375,2.26890756 5.68125,2.26890756 L5.2875,2.26890756 C5.175,2.26890756 5.0625,2.38235294 5.0625,2.49579832 L5.0625,4.87815126 C5.0625,4.99159664 5.175,5.10504202 5.2875,5.10504202 L5.2875,5.10504202 Z M8.71875,5.95588235 L0.84375,5.95588235 L0.84375,0.283613445 C0.84375,0.126917017 0.717890625,-6.27942143e-13 0.5625,-6.27942143e-13 L0.28125,-6.27942143e-13 C0.125859375,-6.27942143e-13 0,0.126917017 0,0.283613445 L0,6.2394958 C0,6.5527114 0.251894531,6.80672269 0.5625,6.80672269 L8.71875,6.80672269 C8.87414062,6.80672269 9,6.67980567 9,6.52310924 L9,6.2394958 C9,6.08279937 8.87414062,5.95588235 8.71875,5.95588235 Z M1.9125,5.10504202 L2.30625,5.10504202 C2.41875,5.10504202 2.53125,4.99159664 2.53125,4.87815126 L2.53125,3.6302521 C2.53125,3.51680672 2.41875,3.40336134 2.30625,3.40336134 L1.9125,3.40336134 C1.8,3.40336134 1.6875,3.51680672 1.6875,3.6302521 L1.6875,4.87815126 C1.6875,4.99159664 1.8,5.10504202 1.9125,5.10504202 L1.9125,5.10504202 Z" id="Shape"></path>
                </g>
                <g id="Group-8_9" opacity="0.710145215" transform="translate(0.000000, 32.000000)">
                    <path d="M21.71875,12.6722689 L14.125,12.6722689 L14.125,7.28361345 C14.125,7.12691702 13.9991406,7 13.84375,7 L13.28125,7 C13.1258594,7 13,7.12691702 13,7.28361345 L13,13.2394958 C13,13.5527114 13.2518945,13.8067227 13.5625,13.8067227 L21.71875,13.8067227 C21.8741406,13.8067227 22,13.6798057 22,13.5231092 L22,12.9558824 C22,12.7991859 21.8741406,12.6722689 21.71875,12.6722689 Z M21.15625,7.56722689 L19.0809766,7.56722689 C18.7051563,7.56722689 18.5168945,8.02543986 18.7826758,8.29345457 L19.352207,8.8677718 L18.0625,10.168494 L16.772793,8.86794905 C16.5530664,8.64637605 16.1969336,8.64637605 15.9773828,8.86794905 L14.7699414,10.085537 C14.6600781,10.1963235 14.6600781,10.3758863 14.7699414,10.4866728 L15.1675586,10.8876313 C15.2774219,10.9984178 15.4554883,10.9984178 15.5653516,10.8876313 L16.375,10.0710018 L17.664707,11.3715467 C17.8844336,11.5931197 18.2405664,11.5931197 18.4601172,11.3715467 L20.1476172,9.66986607 L20.7171484,10.2441833 C20.9829297,10.512198 21.4373244,10.3223543 21.4373244,9.94337579 L21.4373244,7.85084034 C21.4375,7.69414391 21.3116406,7.56722689 21.15625,7.56722689 Z" id="Shape"></path>
                    <path d="M6.975,5.10504202 L7.36875,5.10504202 C7.48125,5.10504202 7.59375,4.99159664 7.59375,4.87815126 L7.59375,0.794117647 C7.59375,0.680672269 7.48125,0.567226891 7.36875,0.567226891 L6.975,0.567226891 C6.8625,0.567226891 6.75,0.680672269 6.75,0.794117647 L6.75,4.87815126 C6.75,4.99159664 6.8625,5.10504202 6.975,5.10504202 Z M3.6,5.10504202 L3.99375,5.10504202 C4.10625,5.10504202 4.21875,4.99159664 4.21875,4.87815126 L4.21875,1.36134454 C4.21875,1.24789916 4.10625,1.13445378 3.99375,1.13445378 L3.6,1.13445378 C3.4875,1.13445378 3.375,1.24789916 3.375,1.36134454 L3.375,4.87815126 C3.375,4.99159664 3.4875,5.10504202 3.6,5.10504202 L3.6,5.10504202 Z M5.2875,5.10504202 L5.68125,5.10504202 C5.79375,5.10504202 5.90625,4.99159664 5.90625,4.87815126 L5.90625,2.49579832 C5.90625,2.38235294 5.79375,2.26890756 5.68125,2.26890756 L5.2875,2.26890756 C5.175,2.26890756 5.0625,2.38235294 5.0625,2.49579832 L5.0625,4.87815126 C5.0625,4.99159664 5.175,5.10504202 5.2875,5.10504202 L5.2875,5.10504202 Z M8.71875,5.95588235 L0.84375,5.95588235 L0.84375,0.283613445 C0.84375,0.126917017 0.717890625,-6.27942143e-13 0.5625,-6.27942143e-13 L0.28125,-6.27942143e-13 C0.125859375,-6.27942143e-13 0,0.126917017 0,0.283613445 L0,6.2394958 C0,6.5527114 0.251894531,6.80672269 0.5625,6.80672269 L8.71875,6.80672269 C8.87414062,6.80672269 9,6.67980567 9,6.52310924 L9,6.2394958 C9,6.08279937 8.87414062,5.95588235 8.71875,5.95588235 Z M1.9125,5.10504202 L2.30625,5.10504202 C2.41875,5.10504202 2.53125,4.99159664 2.53125,4.87815126 L2.53125,3.6302521 C2.53125,3.51680672 2.41875,3.40336134 2.30625,3.40336134 L1.9125,3.40336134 C1.8,3.40336134 1.6875,3.51680672 1.6875,3.6302521 L1.6875,4.87815126 C1.6875,4.99159664 1.8,5.10504202 1.9125,5.10504202 L1.9125,5.10504202 Z" id="Shape"></path>
                </g>
                <g id="Group-8_8" opacity="0.521662776" transform="translate(224.000000, 0.000000)">
                    <path d="M6.975,5.10504202 L7.36875,5.10504202 C7.48125,5.10504202 7.59375,4.99159664 7.59375,4.87815126 L7.59375,0.794117647 C7.59375,0.680672269 7.48125,0.567226891 7.36875,0.567226891 L6.975,0.567226891 C6.8625,0.567226891 6.75,0.680672269 6.75,0.794117647 L6.75,4.87815126 C6.75,4.99159664 6.8625,5.10504202 6.975,5.10504202 Z M3.6,5.10504202 L3.99375,5.10504202 C4.10625,5.10504202 4.21875,4.99159664 4.21875,4.87815126 L4.21875,1.36134454 C4.21875,1.24789916 4.10625,1.13445378 3.99375,1.13445378 L3.6,1.13445378 C3.4875,1.13445378 3.375,1.24789916 3.375,1.36134454 L3.375,4.87815126 C3.375,4.99159664 3.4875,5.10504202 3.6,5.10504202 L3.6,5.10504202 Z M5.2875,5.10504202 L5.68125,5.10504202 C5.79375,5.10504202 5.90625,4.99159664 5.90625,4.87815126 L5.90625,2.49579832 C5.90625,2.38235294 5.79375,2.26890756 5.68125,2.26890756 L5.2875,2.26890756 C5.175,2.26890756 5.0625,2.38235294 5.0625,2.49579832 L5.0625,4.87815126 C5.0625,4.99159664 5.175,5.10504202 5.2875,5.10504202 L5.2875,5.10504202 Z M8.71875,5.95588235 L0.84375,5.95588235 L0.84375,0.283613445 C0.84375,0.126917017 0.717890625,-6.27942143e-13 0.5625,-6.27942143e-13 L0.28125,-6.27942143e-13 C0.125859375,-6.27942143e-13 0,0.126917017 0,0.283613445 L0,6.2394958 C0,6.5527114 0.251894531,6.80672269 0.5625,6.80672269 L8.71875,6.80672269 C8.87414062,6.80672269 9,6.67980567 9,6.52310924 L9,6.2394958 C9,6.08279937 8.87414062,5.95588235 8.71875,5.95588235 Z M1.9125,5.10504202 L2.30625,5.10504202 C2.41875,5.10504202 2.53125,4.99159664 2.53125,4.87815126 L2.53125,3.6302521 C2.53125,3.51680672 2.41875,3.40336134 2.30625,3.40336134 L1.9125,3.40336134 C1.8,3.40336134 1.6875,3.51680672 1.6875,3.6302521 L1.6875,4.87815126 C1.6875,4.99159664 1.8,5.10504202 1.9125,5.10504202 L1.9125,5.10504202 Z" id="Shape"></path>
                </g>
                <g id="Group-8_7" opacity="0.380299278" transform="translate(192.000000, 0.000000)">
                    <path d="M21.71875,12.6722689 L14.125,12.6722689 L14.125,7.28361345 C14.125,7.12691702 13.9991406,7 13.84375,7 L13.28125,7 C13.1258594,7 13,7.12691702 13,7.28361345 L13,13.2394958 C13,13.5527114 13.2518945,13.8067227 13.5625,13.8067227 L21.71875,13.8067227 C21.8741406,13.8067227 22,13.6798057 22,13.5231092 L22,12.9558824 C22,12.7991859 21.8741406,12.6722689 21.71875,12.6722689 Z M21.15625,7.56722689 L19.0809766,7.56722689 C18.7051563,7.56722689 18.5168945,8.02543986 18.7826758,8.29345457 L19.352207,8.8677718 L18.0625,10.168494 L16.772793,8.86794905 C16.5530664,8.64637605 16.1969336,8.64637605 15.9773828,8.86794905 L14.7699414,10.085537 C14.6600781,10.1963235 14.6600781,10.3758863 14.7699414,10.4866728 L15.1675586,10.8876313 C15.2774219,10.9984178 15.4554883,10.9984178 15.5653516,10.8876313 L16.375,10.0710018 L17.664707,11.3715467 C17.8844336,11.5931197 18.2405664,11.5931197 18.4601172,11.3715467 L20.1476172,9.66986607 L20.7171484,10.2441833 C20.9829297,10.512198 21.4373244,10.3223543 21.4373244,9.94337579 L21.4373244,7.85084034 C21.4375,7.69414391 21.3116406,7.56722689 21.15625,7.56722689 Z" id="Shape"></path>
                    <path d="M6.975,5.10504202 L7.36875,5.10504202 C7.48125,5.10504202 7.59375,4.99159664 7.59375,4.87815126 L7.59375,0.794117647 C7.59375,0.680672269 7.48125,0.567226891 7.36875,0.567226891 L6.975,0.567226891 C6.8625,0.567226891 6.75,0.680672269 6.75,0.794117647 L6.75,4.87815126 C6.75,4.99159664 6.8625,5.10504202 6.975,5.10504202 Z M3.6,5.10504202 L3.99375,5.10504202 C4.10625,5.10504202 4.21875,4.99159664 4.21875,4.87815126 L4.21875,1.36134454 C4.21875,1.24789916 4.10625,1.13445378 3.99375,1.13445378 L3.6,1.13445378 C3.4875,1.13445378 3.375,1.24789916 3.375,1.36134454 L3.375,4.87815126 C3.375,4.99159664 3.4875,5.10504202 3.6,5.10504202 L3.6,5.10504202 Z M5.2875,5.10504202 L5.68125,5.10504202 C5.79375,5.10504202 5.90625,4.99159664 5.90625,4.87815126 L5.90625,2.49579832 C5.90625,2.38235294 5.79375,2.26890756 5.68125,2.26890756 L5.2875,2.26890756 C5.175,2.26890756 5.0625,2.38235294 5.0625,2.49579832 L5.0625,4.87815126 C5.0625,4.99159664 5.175,5.10504202 5.2875,5.10504202 L5.2875,5.10504202 Z M8.71875,5.95588235 L0.84375,5.95588235 L0.84375,0.283613445 C0.84375,0.126917017 0.717890625,-6.27942143e-13 0.5625,-6.27942143e-13 L0.28125,-6.27942143e-13 C0.125859375,-6.27942143e-13 0,0.126917017 0,0.283613445 L0,6.2394958 C0,6.5527114 0.251894531,6.80672269 0.5625,6.80672269 L8.71875,6.80672269 C8.87414062,6.80672269 9,6.67980567 9,6.52310924 L9,6.2394958 C9,6.08279937 8.87414062,5.95588235 8.71875,5.95588235 Z M1.9125,5.10504202 L2.30625,5.10504202 C2.41875,5.10504202 2.53125,4.99159664 2.53125,4.87815126 L2.53125,3.6302521 C2.53125,3.51680672 2.41875,3.40336134 2.30625,3.40336134 L1.9125,3.40336134 C1.8,3.40336134 1.6875,3.51680672 1.6875,3.6302521 L1.6875,4.87815126 C1.6875,4.99159664 1.8,5.10504202 1.9125,5.10504202 L1.9125,5.10504202 Z" id="Shape"></path>
                </g>
                <g id="Group-8_6" opacity="0.317602691" transform="translate(160.000000, 0.000000)">
                    <path d="M21.71875,12.6722689 L14.125,12.6722689 L14.125,7.28361345 C14.125,7.12691702 13.9991406,7 13.84375,7 L13.28125,7 C13.1258594,7 13,7.12691702 13,7.28361345 L13,13.2394958 C13,13.5527114 13.2518945,13.8067227 13.5625,13.8067227 L21.71875,13.8067227 C21.8741406,13.8067227 22,13.6798057 22,13.5231092 L22,12.9558824 C22,12.7991859 21.8741406,12.6722689 21.71875,12.6722689 Z M21.15625,7.56722689 L19.0809766,7.56722689 C18.7051563,7.56722689 18.5168945,8.02543986 18.7826758,8.29345457 L19.352207,8.8677718 L18.0625,10.168494 L16.772793,8.86794905 C16.5530664,8.64637605 16.1969336,8.64637605 15.9773828,8.86794905 L14.7699414,10.085537 C14.6600781,10.1963235 14.6600781,10.3758863 14.7699414,10.4866728 L15.1675586,10.8876313 C15.2774219,10.9984178 15.4554883,10.9984178 15.5653516,10.8876313 L16.375,10.0710018 L17.664707,11.3715467 C17.8844336,11.5931197 18.2405664,11.5931197 18.4601172,11.3715467 L20.1476172,9.66986607 L20.7171484,10.2441833 C20.9829297,10.512198 21.4373244,10.3223543 21.4373244,9.94337579 L21.4373244,7.85084034 C21.4375,7.69414391 21.3116406,7.56722689 21.15625,7.56722689 Z" id="Shape"></path>
                    <path d="M6.975,5.10504202 L7.36875,5.10504202 C7.48125,5.10504202 7.59375,4.99159664 7.59375,4.87815126 L7.59375,0.794117647 C7.59375,0.680672269 7.48125,0.567226891 7.36875,0.567226891 L6.975,0.567226891 C6.8625,0.567226891 6.75,0.680672269 6.75,0.794117647 L6.75,4.87815126 C6.75,4.99159664 6.8625,5.10504202 6.975,5.10504202 Z M3.6,5.10504202 L3.99375,5.10504202 C4.10625,5.10504202 4.21875,4.99159664 4.21875,4.87815126 L4.21875,1.36134454 C4.21875,1.24789916 4.10625,1.13445378 3.99375,1.13445378 L3.6,1.13445378 C3.4875,1.13445378 3.375,1.24789916 3.375,1.36134454 L3.375,4.87815126 C3.375,4.99159664 3.4875,5.10504202 3.6,5.10504202 L3.6,5.10504202 Z M5.2875,5.10504202 L5.68125,5.10504202 C5.79375,5.10504202 5.90625,4.99159664 5.90625,4.87815126 L5.90625,2.49579832 C5.90625,2.38235294 5.79375,2.26890756 5.68125,2.26890756 L5.2875,2.26890756 C5.175,2.26890756 5.0625,2.38235294 5.0625,2.49579832 L5.0625,4.87815126 C5.0625,4.99159664 5.175,5.10504202 5.2875,5.10504202 L5.2875,5.10504202 Z M8.71875,5.95588235 L0.84375,5.95588235 L0.84375,0.283613445 C0.84375,0.126917017 0.717890625,-6.27942143e-13 0.5625,-6.27942143e-13 L0.28125,-6.27942143e-13 C0.125859375,-6.27942143e-13 0,0.126917017 0,0.283613445 L0,6.2394958 C0,6.5527114 0.251894531,6.80672269 0.5625,6.80672269 L8.71875,6.80672269 C8.87414062,6.80672269 9,6.67980567 9,6.52310924 L9,6.2394958 C9,6.08279937 8.87414062,5.95588235 8.71875,5.95588235 Z M1.9125,5.10504202 L2.30625,5.10504202 C2.41875,5.10504202 2.53125,4.99159664 2.53125,4.87815126 L2.53125,3.6302521 C2.53125,3.51680672 2.41875,3.40336134 2.30625,3.40336134 L1.9125,3.40336134 C1.8,3.40336134 1.6875,3.51680672 1.6875,3.6302521 L1.6875,4.87815126 C1.6875,4.99159664 1.8,5.10504202 1.9125,5.10504202 L1.9125,5.10504202 Z" id="Shape"></path>
                </g>
                <g id="Group-8_5" opacity="0.15463819" transform="translate(128.000000, 0.000000)">
                    <path d="M21.71875,12.6722689 L14.125,12.6722689 L14.125,7.28361345 C14.125,7.12691702 13.9991406,7 13.84375,7 L13.28125,7 C13.1258594,7 13,7.12691702 13,7.28361345 L13,13.2394958 C13,13.5527114 13.2518945,13.8067227 13.5625,13.8067227 L21.71875,13.8067227 C21.8741406,13.8067227 22,13.6798057 22,13.5231092 L22,12.9558824 C22,12.7991859 21.8741406,12.6722689 21.71875,12.6722689 Z M21.15625,7.56722689 L19.0809766,7.56722689 C18.7051563,7.56722689 18.5168945,8.02543986 18.7826758,8.29345457 L19.352207,8.8677718 L18.0625,10.168494 L16.772793,8.86794905 C16.5530664,8.64637605 16.1969336,8.64637605 15.9773828,8.86794905 L14.7699414,10.085537 C14.6600781,10.1963235 14.6600781,10.3758863 14.7699414,10.4866728 L15.1675586,10.8876313 C15.2774219,10.9984178 15.4554883,10.9984178 15.5653516,10.8876313 L16.375,10.0710018 L17.664707,11.3715467 C17.8844336,11.5931197 18.2405664,11.5931197 18.4601172,11.3715467 L20.1476172,9.66986607 L20.7171484,10.2441833 C20.9829297,10.512198 21.4373244,10.3223543 21.4373244,9.94337579 L21.4373244,7.85084034 C21.4375,7.69414391 21.3116406,7.56722689 21.15625,7.56722689 Z" id="Shape"></path>
                    <path d="M6.975,5.10504202 L7.36875,5.10504202 C7.48125,5.10504202 7.59375,4.99159664 7.59375,4.87815126 L7.59375,0.794117647 C7.59375,0.680672269 7.48125,0.567226891 7.36875,0.567226891 L6.975,0.567226891 C6.8625,0.567226891 6.75,0.680672269 6.75,0.794117647 L6.75,4.87815126 C6.75,4.99159664 6.8625,5.10504202 6.975,5.10504202 Z M3.6,5.10504202 L3.99375,5.10504202 C4.10625,5.10504202 4.21875,4.99159664 4.21875,4.87815126 L4.21875,1.36134454 C4.21875,1.24789916 4.10625,1.13445378 3.99375,1.13445378 L3.6,1.13445378 C3.4875,1.13445378 3.375,1.24789916 3.375,1.36134454 L3.375,4.87815126 C3.375,4.99159664 3.4875,5.10504202 3.6,5.10504202 L3.6,5.10504202 Z M5.2875,5.10504202 L5.68125,5.10504202 C5.79375,5.10504202 5.90625,4.99159664 5.90625,4.87815126 L5.90625,2.49579832 C5.90625,2.38235294 5.79375,2.26890756 5.68125,2.26890756 L5.2875,2.26890756 C5.175,2.26890756 5.0625,2.38235294 5.0625,2.49579832 L5.0625,4.87815126 C5.0625,4.99159664 5.175,5.10504202 5.2875,5.10504202 L5.2875,5.10504202 Z M8.71875,5.95588235 L0.84375,5.95588235 L0.84375,0.283613445 C0.84375,0.126917017 0.717890625,-6.27942143e-13 0.5625,-6.27942143e-13 L0.28125,-6.27942143e-13 C0.125859375,-6.27942143e-13 0,0.126917017 0,0.283613445 L0,6.2394958 C0,6.5527114 0.251894531,6.80672269 0.5625,6.80672269 L8.71875,6.80672269 C8.87414062,6.80672269 9,6.67980567 9,6.52310924 L9,6.2394958 C9,6.08279937 8.87414062,5.95588235 8.71875,5.95588235 Z M1.9125,5.10504202 L2.30625,5.10504202 C2.41875,5.10504202 2.53125,4.99159664 2.53125,4.87815126 L2.53125,3.6302521 C2.53125,3.51680672 2.41875,3.40336134 2.30625,3.40336134 L1.9125,3.40336134 C1.8,3.40336134 1.6875,3.51680672 1.6875,3.6302521 L1.6875,4.87815126 C1.6875,4.99159664 1.8,5.10504202 1.9125,5.10504202 L1.9125,5.10504202 Z" id="Shape"></path>
                </g>
                <g id="Group-8_4" opacity="0.341673076" transform="translate(96.000000, 0.000000)">
                    <path d="M21.71875,12.6722689 L14.125,12.6722689 L14.125,7.28361345 C14.125,7.12691702 13.9991406,7 13.84375,7 L13.28125,7 C13.1258594,7 13,7.12691702 13,7.28361345 L13,13.2394958 C13,13.5527114 13.2518945,13.8067227 13.5625,13.8067227 L21.71875,13.8067227 C21.8741406,13.8067227 22,13.6798057 22,13.5231092 L22,12.9558824 C22,12.7991859 21.8741406,12.6722689 21.71875,12.6722689 Z M21.15625,7.56722689 L19.0809766,7.56722689 C18.7051563,7.56722689 18.5168945,8.02543986 18.7826758,8.29345457 L19.352207,8.8677718 L18.0625,10.168494 L16.772793,8.86794905 C16.5530664,8.64637605 16.1969336,8.64637605 15.9773828,8.86794905 L14.7699414,10.085537 C14.6600781,10.1963235 14.6600781,10.3758863 14.7699414,10.4866728 L15.1675586,10.8876313 C15.2774219,10.9984178 15.4554883,10.9984178 15.5653516,10.8876313 L16.375,10.0710018 L17.664707,11.3715467 C17.8844336,11.5931197 18.2405664,11.5931197 18.4601172,11.3715467 L20.1476172,9.66986607 L20.7171484,10.2441833 C20.9829297,10.512198 21.4373244,10.3223543 21.4373244,9.94337579 L21.4373244,7.85084034 C21.4375,7.69414391 21.3116406,7.56722689 21.15625,7.56722689 Z" id="Shape"></path>
                    <path d="M6.975,5.10504202 L7.36875,5.10504202 C7.48125,5.10504202 7.59375,4.99159664 7.59375,4.87815126 L7.59375,0.794117647 C7.59375,0.680672269 7.48125,0.567226891 7.36875,0.567226891 L6.975,0.567226891 C6.8625,0.567226891 6.75,0.680672269 6.75,0.794117647 L6.75,4.87815126 C6.75,4.99159664 6.8625,5.10504202 6.975,5.10504202 Z M3.6,5.10504202 L3.99375,5.10504202 C4.10625,5.10504202 4.21875,4.99159664 4.21875,4.87815126 L4.21875,1.36134454 C4.21875,1.24789916 4.10625,1.13445378 3.99375,1.13445378 L3.6,1.13445378 C3.4875,1.13445378 3.375,1.24789916 3.375,1.36134454 L3.375,4.87815126 C3.375,4.99159664 3.4875,5.10504202 3.6,5.10504202 L3.6,5.10504202 Z M5.2875,5.10504202 L5.68125,5.10504202 C5.79375,5.10504202 5.90625,4.99159664 5.90625,4.87815126 L5.90625,2.49579832 C5.90625,2.38235294 5.79375,2.26890756 5.68125,2.26890756 L5.2875,2.26890756 C5.175,2.26890756 5.0625,2.38235294 5.0625,2.49579832 L5.0625,4.87815126 C5.0625,4.99159664 5.175,5.10504202 5.2875,5.10504202 L5.2875,5.10504202 Z M8.71875,5.95588235 L0.84375,5.95588235 L0.84375,0.283613445 C0.84375,0.126917017 0.717890625,-6.27942143e-13 0.5625,-6.27942143e-13 L0.28125,-6.27942143e-13 C0.125859375,-6.27942143e-13 0,0.126917017 0,0.283613445 L0,6.2394958 C0,6.5527114 0.251894531,6.80672269 0.5625,6.80672269 L8.71875,6.80672269 C8.87414062,6.80672269 9,6.67980567 9,6.52310924 L9,6.2394958 C9,6.08279937 8.87414062,5.95588235 8.71875,5.95588235 Z M1.9125,5.10504202 L2.30625,5.10504202 C2.41875,5.10504202 2.53125,4.99159664 2.53125,4.87815126 L2.53125,3.6302521 C2.53125,3.51680672 2.41875,3.40336134 2.30625,3.40336134 L1.9125,3.40336134 C1.8,3.40336134 1.6875,3.51680672 1.6875,3.6302521 L1.6875,4.87815126 C1.6875,4.99159664 1.8,5.10504202 1.9125,5.10504202 L1.9125,5.10504202 Z" id="Shape"></path>
                </g>
                <g id="Group-8_3" opacity="0.237182023" transform="translate(64.000000, 0.000000)">
                    <path d="M21.71875,12.6722689 L14.125,12.6722689 L14.125,7.28361345 C14.125,7.12691702 13.9991406,7 13.84375,7 L13.28125,7 C13.1258594,7 13,7.12691702 13,7.28361345 L13,13.2394958 C13,13.5527114 13.2518945,13.8067227 13.5625,13.8067227 L21.71875,13.8067227 C21.8741406,13.8067227 22,13.6798057 22,13.5231092 L22,12.9558824 C22,12.7991859 21.8741406,12.6722689 21.71875,12.6722689 Z M21.15625,7.56722689 L19.0809766,7.56722689 C18.7051563,7.56722689 18.5168945,8.02543986 18.7826758,8.29345457 L19.352207,8.8677718 L18.0625,10.168494 L16.772793,8.86794905 C16.5530664,8.64637605 16.1969336,8.64637605 15.9773828,8.86794905 L14.7699414,10.085537 C14.6600781,10.1963235 14.6600781,10.3758863 14.7699414,10.4866728 L15.1675586,10.8876313 C15.2774219,10.9984178 15.4554883,10.9984178 15.5653516,10.8876313 L16.375,10.0710018 L17.664707,11.3715467 C17.8844336,11.5931197 18.2405664,11.5931197 18.4601172,11.3715467 L20.1476172,9.66986607 L20.7171484,10.2441833 C20.9829297,10.512198 21.4373244,10.3223543 21.4373244,9.94337579 L21.4373244,7.85084034 C21.4375,7.69414391 21.3116406,7.56722689 21.15625,7.56722689 Z" id="Shape"></path>
                    <path d="M6.975,5.10504202 L7.36875,5.10504202 C7.48125,5.10504202 7.59375,4.99159664 7.59375,4.87815126 L7.59375,0.794117647 C7.59375,0.680672269 7.48125,0.567226891 7.36875,0.567226891 L6.975,0.567226891 C6.8625,0.567226891 6.75,0.680672269 6.75,0.794117647 L6.75,4.87815126 C6.75,4.99159664 6.8625,5.10504202 6.975,5.10504202 Z M3.6,5.10504202 L3.99375,5.10504202 C4.10625,5.10504202 4.21875,4.99159664 4.21875,4.87815126 L4.21875,1.36134454 C4.21875,1.24789916 4.10625,1.13445378 3.99375,1.13445378 L3.6,1.13445378 C3.4875,1.13445378 3.375,1.24789916 3.375,1.36134454 L3.375,4.87815126 C3.375,4.99159664 3.4875,5.10504202 3.6,5.10504202 L3.6,5.10504202 Z M5.2875,5.10504202 L5.68125,5.10504202 C5.79375,5.10504202 5.90625,4.99159664 5.90625,4.87815126 L5.90625,2.49579832 C5.90625,2.38235294 5.79375,2.26890756 5.68125,2.26890756 L5.2875,2.26890756 C5.175,2.26890756 5.0625,2.38235294 5.0625,2.49579832 L5.0625,4.87815126 C5.0625,4.99159664 5.175,5.10504202 5.2875,5.10504202 L5.2875,5.10504202 Z M8.71875,5.95588235 L0.84375,5.95588235 L0.84375,0.283613445 C0.84375,0.126917017 0.717890625,-6.27942143e-13 0.5625,-6.27942143e-13 L0.28125,-6.27942143e-13 C0.125859375,-6.27942143e-13 0,0.126917017 0,0.283613445 L0,6.2394958 C0,6.5527114 0.251894531,6.80672269 0.5625,6.80672269 L8.71875,6.80672269 C8.87414062,6.80672269 9,6.67980567 9,6.52310924 L9,6.2394958 C9,6.08279937 8.87414062,5.95588235 8.71875,5.95588235 Z M1.9125,5.10504202 L2.30625,5.10504202 C2.41875,5.10504202 2.53125,4.99159664 2.53125,4.87815126 L2.53125,3.6302521 C2.53125,3.51680672 2.41875,3.40336134 2.30625,3.40336134 L1.9125,3.40336134 C1.8,3.40336134 1.6875,3.51680672 1.6875,3.6302521 L1.6875,4.87815126 C1.6875,4.99159664 1.8,5.10504202 1.9125,5.10504202 L1.9125,5.10504202 Z" id="Shape"></path>
                </g>
                <g id="Group-8_2" opacity="0.370199977" transform="translate(32.000000, 0.000000)">
                    <path d="M21.71875,12.6722689 L14.125,12.6722689 L14.125,7.28361345 C14.125,7.12691702 13.9991406,7 13.84375,7 L13.28125,7 C13.1258594,7 13,7.12691702 13,7.28361345 L13,13.2394958 C13,13.5527114 13.2518945,13.8067227 13.5625,13.8067227 L21.71875,13.8067227 C21.8741406,13.8067227 22,13.6798057 22,13.5231092 L22,12.9558824 C22,12.7991859 21.8741406,12.6722689 21.71875,12.6722689 Z M21.15625,7.56722689 L19.0809766,7.56722689 C18.7051563,7.56722689 18.5168945,8.02543986 18.7826758,8.29345457 L19.352207,8.8677718 L18.0625,10.168494 L16.772793,8.86794905 C16.5530664,8.64637605 16.1969336,8.64637605 15.9773828,8.86794905 L14.7699414,10.085537 C14.6600781,10.1963235 14.6600781,10.3758863 14.7699414,10.4866728 L15.1675586,10.8876313 C15.2774219,10.9984178 15.4554883,10.9984178 15.5653516,10.8876313 L16.375,10.0710018 L17.664707,11.3715467 C17.8844336,11.5931197 18.2405664,11.5931197 18.4601172,11.3715467 L20.1476172,9.66986607 L20.7171484,10.2441833 C20.9829297,10.512198 21.4373244,10.3223543 21.4373244,9.94337579 L21.4373244,7.85084034 C21.4375,7.69414391 21.3116406,7.56722689 21.15625,7.56722689 Z" id="Shape"></path>
                    <path d="M6.975,5.10504202 L7.36875,5.10504202 C7.48125,5.10504202 7.59375,4.99159664 7.59375,4.87815126 L7.59375,0.794117647 C7.59375,0.680672269 7.48125,0.567226891 7.36875,0.567226891 L6.975,0.567226891 C6.8625,0.567226891 6.75,0.680672269 6.75,0.794117647 L6.75,4.87815126 C6.75,4.99159664 6.8625,5.10504202 6.975,5.10504202 Z M3.6,5.10504202 L3.99375,5.10504202 C4.10625,5.10504202 4.21875,4.99159664 4.21875,4.87815126 L4.21875,1.36134454 C4.21875,1.24789916 4.10625,1.13445378 3.99375,1.13445378 L3.6,1.13445378 C3.4875,1.13445378 3.375,1.24789916 3.375,1.36134454 L3.375,4.87815126 C3.375,4.99159664 3.4875,5.10504202 3.6,5.10504202 L3.6,5.10504202 Z M5.2875,5.10504202 L5.68125,5.10504202 C5.79375,5.10504202 5.90625,4.99159664 5.90625,4.87815126 L5.90625,2.49579832 C5.90625,2.38235294 5.79375,2.26890756 5.68125,2.26890756 L5.2875,2.26890756 C5.175,2.26890756 5.0625,2.38235294 5.0625,2.49579832 L5.0625,4.87815126 C5.0625,4.99159664 5.175,5.10504202 5.2875,5.10504202 L5.2875,5.10504202 Z M8.71875,5.95588235 L0.84375,5.95588235 L0.84375,0.283613445 C0.84375,0.126917017 0.717890625,-6.27942143e-13 0.5625,-6.27942143e-13 L0.28125,-6.27942143e-13 C0.125859375,-6.27942143e-13 0,0.126917017 0,0.283613445 L0,6.2394958 C0,6.5527114 0.251894531,6.80672269 0.5625,6.80672269 L8.71875,6.80672269 C8.87414062,6.80672269 9,6.67980567 9,6.52310924 L9,6.2394958 C9,6.08279937 8.87414062,5.95588235 8.71875,5.95588235 Z M1.9125,5.10504202 L2.30625,5.10504202 C2.41875,5.10504202 2.53125,4.99159664 2.53125,4.87815126 L2.53125,3.6302521 C2.53125,3.51680672 2.41875,3.40336134 2.30625,3.40336134 L1.9125,3.40336134 C1.8,3.40336134 1.6875,3.51680672 1.6875,3.6302521 L1.6875,4.87815126 C1.6875,4.99159664 1.8,5.10504202 1.9125,5.10504202 L1.9125,5.10504202 Z" id="Shape"></path>
                </g>
                <g id="Group-8_1" opacity="0.85019115">
                    <path d="M21.71875,12.6722689 L14.125,12.6722689 L14.125,7.28361345 C14.125,7.12691702 13.9991406,7 13.84375,7 L13.28125,7 C13.1258594,7 13,7.12691702 13,7.28361345 L13,13.2394958 C13,13.5527114 13.2518945,13.8067227 13.5625,13.8067227 L21.71875,13.8067227 C21.8741406,13.8067227 22,13.6798057 22,13.5231092 L22,12.9558824 C22,12.7991859 21.8741406,12.6722689 21.71875,12.6722689 Z M21.15625,7.56722689 L19.0809766,7.56722689 C18.7051563,7.56722689 18.5168945,8.02543986 18.7826758,8.29345457 L19.352207,8.8677718 L18.0625,10.168494 L16.772793,8.86794905 C16.5530664,8.64637605 16.1969336,8.64637605 15.9773828,8.86794905 L14.7699414,10.085537 C14.6600781,10.1963235 14.6600781,10.3758863 14.7699414,10.4866728 L15.1675586,10.8876313 C15.2774219,10.9984178 15.4554883,10.9984178 15.5653516,10.8876313 L16.375,10.0710018 L17.664707,11.3715467 C17.8844336,11.5931197 18.2405664,11.5931197 18.4601172,11.3715467 L20.1476172,9.66986607 L20.7171484,10.2441833 C20.9829297,10.512198 21.4373244,10.3223543 21.4373244,9.94337579 L21.4373244,7.85084034 C21.4375,7.69414391 21.3116406,7.56722689 21.15625,7.56722689 Z" id="Shape"></path>
                    <path d="M6.975,5.10504202 L7.36875,5.10504202 C7.48125,5.10504202 7.59375,4.99159664 7.59375,4.87815126 L7.59375,0.794117647 C7.59375,0.680672269 7.48125,0.567226891 7.36875,0.567226891 L6.975,0.567226891 C6.8625,0.567226891 6.75,0.680672269 6.75,0.794117647 L6.75,4.87815126 C6.75,4.99159664 6.8625,5.10504202 6.975,5.10504202 Z M3.6,5.10504202 L3.99375,5.10504202 C4.10625,5.10504202 4.21875,4.99159664 4.21875,4.87815126 L4.21875,1.36134454 C4.21875,1.24789916 4.10625,1.13445378 3.99375,1.13445378 L3.6,1.13445378 C3.4875,1.13445378 3.375,1.24789916 3.375,1.36134454 L3.375,4.87815126 C3.375,4.99159664 3.4875,5.10504202 3.6,5.10504202 L3.6,5.10504202 Z M5.2875,5.10504202 L5.68125,5.10504202 C5.79375,5.10504202 5.90625,4.99159664 5.90625,4.87815126 L5.90625,2.49579832 C5.90625,2.38235294 5.79375,2.26890756 5.68125,2.26890756 L5.2875,2.26890756 C5.175,2.26890756 5.0625,2.38235294 5.0625,2.49579832 L5.0625,4.87815126 C5.0625,4.99159664 5.175,5.10504202 5.2875,5.10504202 L5.2875,5.10504202 Z M8.71875,5.95588235 L0.84375,5.95588235 L0.84375,0.283613445 C0.84375,0.126917017 0.717890625,-6.27942143e-13 0.5625,-6.27942143e-13 L0.28125,-6.27942143e-13 C0.125859375,-6.27942143e-13 0,0.126917017 0,0.283613445 L0,6.2394958 C0,6.5527114 0.251894531,6.80672269 0.5625,6.80672269 L8.71875,6.80672269 C8.87414062,6.80672269 9,6.67980567 9,6.52310924 L9,6.2394958 C9,6.08279937 8.87414062,5.95588235 8.71875,5.95588235 Z M1.9125,5.10504202 L2.30625,5.10504202 C2.41875,5.10504202 2.53125,4.99159664 2.53125,4.87815126 L2.53125,3.6302521 C2.53125,3.51680672 2.41875,3.40336134 2.30625,3.40336134 L1.9125,3.40336134 C1.8,3.40336134 1.6875,3.51680672 1.6875,3.6302521 L1.6875,4.87815126 C1.6875,4.99159664 1.8,5.10504202 1.9125,5.10504202 L1.9125,5.10504202 Z" id="Shape"></path>
                </g>
            </g>
        </g>
    </g>
</svg>