<?xml version="1.0" encoding="UTF-8"?>
<svg width="310px" height="8px" viewBox="0 0 310 8" version="1.1" xmlns="http://www.w3.org/2000/svg" xmlns:xlink="http://www.w3.org/1999/xlink">
    <!-- Generator: Sketch 63.1 (92452) - https://sketch.com -->
    <title>Pattern_Actions</title>
    <desc>Created with Sketch.</desc>
    <defs>
        <rect id="path-1" x="0" y="0" width="310" height="8"></rect>
    </defs>
    <g id="Playbooks" stroke="none" stroke-width="1" fill="none" fill-rule="evenodd">
        <g id="Actions_List" transform="translate(-260.000000, -172.000000)">
            <g id="Pattern_Actions" transform="translate(260.000000, 172.000000)">
                <mask id="mask-2" fill="white">
                    <use xlink:href="#path-1"></use>
                </mask>
                <use id="Mask" fill="#4A82F1" xlink:href="#path-1"></use>
                <g id="Group-10" mask="url(#mask-2)">
                    <g transform="translate(2.000000, -3.000000)">
                        <g id="email" stroke-width="1" fill="none" fill-rule="evenodd" transform="translate(80.604469, 9.142857) rotate(-13.000000) translate(-80.604469, -9.142857) translate(76.604469, 6.000000)">
                            <path d="M7.25,0 L0.75,0 C0.33578125,0 0,0.33578125 0,0.75 L0,5.25 C0,5.66421875 0.33578125,6 0.75,6 L7.25,6 C7.66421875,6 8,5.66421875 8,5.25 L8,0.75 C8,0.33578125 7.66421875,0 7.25,0 Z M7.25,0.75 L7.25,1.38757813 C6.89965625,1.672875 6.341125,2.1165 5.14707813,3.05148438 C4.8839375,3.25846875 4.3626875,3.75573438 4,3.7499375 C3.637375,3.75579688 3.11595312,3.25839063 2.85292187,3.05148438 C1.6590625,2.11664063 1.10039062,1.67292188 0.75,1.38757813 L0.75,0.75 L7.25,0.75 Z M0.75,5.25 L0.75,2.34996875 C1.10803125,2.63514063 1.61576562,3.0353125 2.38965625,3.6413125 C2.73117188,3.91014063 3.32925,4.50359375 4,4.49998438 C4.66745312,4.50359375 5.25795313,3.91875 5.61020312,3.6414375 C6.38407813,3.03545313 6.89195312,2.63517188 7.25,2.34996875 L7.25,5.25 L0.75,5.25 Z" id="Shape" fill="#8AAEF5" fill-rule="nonzero"></path>
                        </g>
                        <g id="email" stroke-width="1" fill="none" fill-rule="evenodd" transform="translate(149.000000, 4.142857) rotate(10.000000) translate(-149.000000, -4.142857) translate(145.000000, 1.000000)">
                            <path d="M7.25,0 L0.75,0 C0.33578125,0 0,0.33578125 0,0.75 L0,5.25 C0,5.66421875 0.33578125,6 0.75,6 L7.25,6 C7.66421875,6 8,5.66421875 8,5.25 L8,0.75 C8,0.33578125 7.66421875,0 7.25,0 Z M7.25,0.75 L7.25,1.38757813 C6.89965625,1.672875 6.341125,2.1165 5.14707813,3.05148438 C4.8839375,3.25846875 4.3626875,3.75573438 4,3.7499375 C3.637375,3.75579688 3.11595312,3.25839063 2.85292187,3.05148438 C1.6590625,2.11664063 1.10039062,1.67292188 0.75,1.38757813 L0.75,0.75 L7.25,0.75 Z M0.75,5.25 L0.75,2.34996875 C1.10803125,2.63514063 1.61576562,3.0353125 2.38965625,3.6413125 C2.73117188,3.91014063 3.32925,4.50359375 4,4.49998438 C4.66745312,4.50359375 5.25795313,3.91875 5.61020312,3.6414375 C6.38407813,3.03545313 6.89195312,2.63517188 7.25,2.34996875 L7.25,5.25 L0.75,5.25 Z" id="Shape" fill="#8AAEF5" fill-rule="nonzero"></path>
                        </g>
                        <g id="email" stroke-width="1" fill="none" fill-rule="evenodd" transform="translate(286.000000, 9.142857) rotate(-18.000000) translate(-286.000000, -9.142857) translate(282.000000, 6.000000)">
                            <path d="M7.25,0 L0.75,0 C0.33578125,0 0,0.33578125 0,0.75 L0,5.25 C0,5.66421875 0.33578125,6 0.75,6 L7.25,6 C7.66421875,6 8,5.66421875 8,5.25 L8,0.75 C8,0.33578125 7.66421875,0 7.25,0 Z M7.25,0.75 L7.25,1.38757813 C6.89965625,1.672875 6.341125,2.1165 5.14707813,3.05148438 C4.8839375,3.25846875 4.3626875,3.75573438 4,3.7499375 C3.637375,3.75579688 3.11595312,3.25839063 2.85292187,3.05148438 C1.6590625,2.11664063 1.10039062,1.67292188 0.75,1.38757813 L0.75,0.75 L7.25,0.75 Z M0.75,5.25 L0.75,2.34996875 C1.10803125,2.63514063 1.61576562,3.0353125 2.38965625,3.6413125 C2.73117188,3.91014063 3.32925,4.50359375 4,4.49998438 C4.66745312,4.50359375 5.25795313,3.91875 5.61020312,3.6414375 C6.38407813,3.03545313 6.89195312,2.63517188 7.25,2.34996875 L7.25,5.25 L0.75,5.25 Z" id="Shape" fill="#8AAEF5" fill-rule="nonzero"></path>
                        </g>
                        <g id="https" stroke-width="1" fill="none" fill-rule="evenodd" transform="translate(106.000000, 5.000000)">
                            <path d="M3.26932409,7.09462738 L2.73136915,6.93795494 C2.67313692,6.92131716 2.63847487,6.85892548 2.65511265,6.80069324 L4.60727903,0.0804159445 C4.62391681,0.0221837088 4.68630849,-0.0124783362 4.74454073,0.00415944541 L5.28249567,0.160831889 C5.3407279,0.177469671 5.37538995,0.239861352 5.35875217,0.298093588 L3.40658579,7.01837088 C3.38994801,7.0779896 3.32894281,7.11126516 3.26932409,7.09462738 Z M2.11577123,5.41559792 L2.49289428,5.0135182 C2.53587522,4.9677643 2.53171577,4.89566724 2.48596187,4.85407279 L1.01490468,3.54939341 L2.48596187,2.24471404 C2.53310225,2.20311958 2.53587522,2.13102253 2.49289428,2.08526863 L2.11577123,1.68318891 C2.07417678,1.63882149 2.0034662,1.63604853 1.95909879,1.67764298 L0.0485268631,3.46897747 C0.0013864818,3.51334489 0.0013864818,3.58682842 0.0485268631,3.63119584 L1.95909879,5.42114385 C2.0034662,5.4627383 2.07279029,5.45996534 2.11577123,5.41559792 Z M6.05476603,5.42114385 L7.96395147,3.63119584 C8.01109185,3.58682842 8.01109185,3.51334489 7.96395147,3.46897747 L6.05476603,1.67764298 C6.01039861,1.63604853 5.93968804,1.63743501 5.89809359,1.68318891 L5.52097054,2.08526863 C5.4779896,2.13102253 5.48214905,2.20311958 5.52790295,2.24471404 L6.99896014,3.54939341 L5.52790295,4.85407279 C5.48076256,4.89566724 5.4779896,4.9677643 5.52097054,5.0135182 L5.89809359,5.41559792 C5.94107452,5.45996534 6.01039861,5.4627383 6.05476603,5.42114385 Z" id="Shape" fill="#8AAEF5" fill-rule="nonzero"></path>
                        </g>
                        <g id="https" stroke-width="1" fill="none" fill-rule="evenodd" transform="translate(198.000000, 2.000000)">
                            <path d="M3.26932409,7.09462738 L2.73136915,6.93795494 C2.67313692,6.92131716 2.63847487,6.85892548 2.65511265,6.80069324 L4.60727903,0.0804159445 C4.62391681,0.0221837088 4.68630849,-0.0124783362 4.74454073,0.00415944541 L5.28249567,0.160831889 C5.3407279,0.177469671 5.37538995,0.239861352 5.35875217,0.298093588 L3.40658579,7.01837088 C3.38994801,7.0779896 3.32894281,7.11126516 3.26932409,7.09462738 Z M2.11577123,5.41559792 L2.49289428,5.0135182 C2.53587522,4.9677643 2.53171577,4.89566724 2.48596187,4.85407279 L1.01490468,3.54939341 L2.48596187,2.24471404 C2.53310225,2.20311958 2.53587522,2.13102253 2.49289428,2.08526863 L2.11577123,1.68318891 C2.07417678,1.63882149 2.0034662,1.63604853 1.95909879,1.67764298 L0.0485268631,3.46897747 C0.0013864818,3.51334489 0.0013864818,3.58682842 0.0485268631,3.63119584 L1.95909879,5.42114385 C2.0034662,5.4627383 2.07279029,5.45996534 2.11577123,5.41559792 Z M6.05476603,5.42114385 L7.96395147,3.63119584 C8.01109185,3.58682842 8.01109185,3.51334489 7.96395147,3.46897747 L6.05476603,1.67764298 C6.01039861,1.63604853 5.93968804,1.63743501 5.89809359,1.68318891 L5.52097054,2.08526863 C5.4779896,2.13102253 5.48214905,2.20311958 5.52790295,2.24471404 L6.99896014,3.54939341 L5.52790295,4.85407279 C5.48076256,4.89566724 5.4779896,4.9677643 5.52097054,5.0135182 L5.89809359,5.41559792 C5.94107452,5.45996534 6.01039861,5.4627383 6.05476603,5.42114385 Z" id="Shape" fill="#8AAEF5" fill-rule="nonzero"></path>
                        </g>
                        <g id="https" stroke-width="1" fill="none" fill-rule="evenodd" transform="translate(303.000000, 7.714286) rotate(14.000000) translate(-303.000000, -7.714286) translate(299.000000, 4.000000)">
                            <path d="M3.26932409,7.09462738 L2.73136915,6.93795494 C2.67313692,6.92131716 2.63847487,6.85892548 2.65511265,6.80069324 L4.60727903,0.0804159445 C4.62391681,0.0221837088 4.68630849,-0.0124783362 4.74454073,0.00415944541 L5.28249567,0.160831889 C5.3407279,0.177469671 5.37538995,0.239861352 5.35875217,0.298093588 L3.40658579,7.01837088 C3.38994801,7.0779896 3.32894281,7.11126516 3.26932409,7.09462738 Z M2.11577123,5.41559792 L2.49289428,5.0135182 C2.53587522,4.9677643 2.53171577,4.89566724 2.48596187,4.85407279 L1.01490468,3.54939341 L2.48596187,2.24471404 C2.53310225,2.20311958 2.53587522,2.13102253 2.49289428,2.08526863 L2.11577123,1.68318891 C2.07417678,1.63882149 2.0034662,1.63604853 1.95909879,1.67764298 L0.0485268631,3.46897747 C0.0013864818,3.51334489 0.0013864818,3.58682842 0.0485268631,3.63119584 L1.95909879,5.42114385 C2.0034662,5.4627383 2.07279029,5.45996534 2.11577123,5.41559792 Z M6.05476603,5.42114385 L7.96395147,3.63119584 C8.01109185,3.58682842 8.01109185,3.51334489 7.96395147,3.46897747 L6.05476603,1.67764298 C6.01039861,1.63604853 5.93968804,1.63743501 5.89809359,1.68318891 L5.52097054,2.08526863 C5.4779896,2.13102253 5.48214905,2.20311958 5.52790295,2.24471404 L6.99896014,3.54939341 L5.52790295,4.85407279 C5.48076256,4.89566724 5.4779896,4.9677643 5.52097054,5.0135182 L5.89809359,5.41559792 C5.94107452,5.45996534 6.01039861,5.4627383 6.05476603,5.42114385 Z" id="Shape" fill="#8AAEF5" fill-rule="nonzero"></path>
                        </g>
                        <g id="https" stroke-width="1" fill="none" fill-rule="evenodd" transform="translate(30.000000, 1.000000)">
                            <path d="M3.26932409,7.09462738 L2.73136915,6.93795494 C2.67313692,6.92131716 2.63847487,6.85892548 2.65511265,6.80069324 L4.60727903,0.0804159445 C4.62391681,0.0221837088 4.68630849,-0.0124783362 4.74454073,0.00415944541 L5.28249567,0.160831889 C5.3407279,0.177469671 5.37538995,0.239861352 5.35875217,0.298093588 L3.40658579,7.01837088 C3.38994801,7.0779896 3.32894281,7.11126516 3.26932409,7.09462738 Z M2.11577123,5.41559792 L2.49289428,5.0135182 C2.53587522,4.9677643 2.53171577,4.89566724 2.48596187,4.85407279 L1.01490468,3.54939341 L2.48596187,2.24471404 C2.53310225,2.20311958 2.53587522,2.13102253 2.49289428,2.08526863 L2.11577123,1.68318891 C2.07417678,1.63882149 2.0034662,1.63604853 1.95909879,1.67764298 L0.0485268631,3.46897747 C0.0013864818,3.51334489 0.0013864818,3.58682842 0.0485268631,3.63119584 L1.95909879,5.42114385 C2.0034662,5.4627383 2.07279029,5.45996534 2.11577123,5.41559792 Z M6.05476603,5.42114385 L7.96395147,3.63119584 C8.01109185,3.58682842 8.01109185,3.51334489 7.96395147,3.46897747 L6.05476603,1.67764298 C6.01039861,1.63604853 5.93968804,1.63743501 5.89809359,1.68318891 L5.52097054,2.08526863 C5.4779896,2.13102253 5.48214905,2.20311958 5.52790295,2.24471404 L6.99896014,3.54939341 L5.52790295,4.85407279 C5.48076256,4.89566724 5.4779896,4.9677643 5.52097054,5.0135182 L5.89809359,5.41559792 C5.94107452,5.45996534 6.01039861,5.4627383 6.05476603,5.42114385 Z" id="Shape" fill="#8AAEF5" fill-rule="nonzero"></path>
                        </g>
                        <g id="send_evaluation" stroke-width="1" fill="none" fill-rule="evenodd" transform="translate(5.897867, 7.283638) rotate(17.000000) translate(-5.897867, -7.283638) translate(1.897867, 2.283638)">
                            <path d="M5.0786014,4.75426732 C5.00750765,4.6864051 4.8926639,4.6864051 4.82157015,4.75252726 L3.21740349,6.27159686 L2.52287224,5.60167499 C2.45177849,5.53381277 2.33693474,5.53381277 2.26584099,5.59993493 L1.83563265,6.00710823 C1.7645389,6.07497044 1.7645389,6.18459402 1.83380974,6.25245624 L3.08250765,7.4548355 C3.1536014,7.52269772 3.26844515,7.52269772 3.3395389,7.45657556 L5.50151807,5.41026874 C5.57261182,5.34240652 5.57261182,5.23278294 5.50334099,5.16492073 L5.0786014,4.75426732 Z M6.29448682,1.93885539 L4.83615349,1.93885539 C4.83615349,1.32461533 4.3129764,0.825219024 3.66948682,0.825219024 C3.02599724,0.825219024 2.50282015,1.32461533 2.50282015,1.93885539 L1.04448682,1.93885539 C0.561413902,1.93885539 0.169486819,2.3129676 0.169486819,2.77408266 L0.169486819,8.89908266 C0.169486819,9.36019772 0.561413902,9.73430993 1.04448682,9.73430993 L6.29448682,9.73430993 C6.77755974,9.73430993 7.16948682,9.36019772 7.16948682,8.89908266 L7.16948682,2.77408266 C7.16948682,2.3129676 6.77755974,1.93885539 6.29448682,1.93885539 Z M3.66948682,1.6604463 C3.82990349,1.6604463 3.96115349,1.78573039 3.96115349,1.93885539 C3.96115349,2.09198039 3.82990349,2.21726448 3.66948682,2.21726448 C3.50907015,2.21726448 3.37782015,2.09198039 3.37782015,1.93885539 C3.37782015,1.78573039 3.50907015,1.6604463 3.66948682,1.6604463 Z M6.29448682,8.75987811 C6.29448682,8.83644061 6.22886182,8.89908266 6.14865349,8.89908266 L1.19032015,8.89908266 C1.11011182,8.89908266 1.04448682,8.83644061 1.04448682,8.75987811 L1.04448682,2.91328721 C1.04448682,2.83672471 1.11011182,2.77408266 1.19032015,2.77408266 L1.91948682,2.77408266 L1.91948682,3.33090084 C1.91948682,3.48402584 2.05073682,3.60930993 2.21115349,3.60930993 L5.12782015,3.60930993 C5.28823682,3.60930993 5.41948682,3.48402584 5.41948682,3.33090084 L5.41948682,2.77408266 L6.14865349,2.77408266 C6.22886182,2.77408266 6.29448682,2.83672471 6.29448682,2.91328721 L6.29448682,8.75987811 Z" id="Shape" fill="#8AAEF5" fill-rule="nonzero"></path>
                        </g>
                        <g id="send_evaluation" stroke-width="1" fill="none" fill-rule="evenodd" transform="translate(96.644508, 4.845659) rotate(4.000000) translate(-96.644508, -4.845659) translate(93.144508, 0.391113)">
                            <path d="M4.90911458,3.9290483 C4.83802083,3.86118608 4.72317708,3.86118608 4.65208333,3.92730824 L3.04791667,5.44637784 L2.35338542,4.77645597 C2.28229167,4.70859375 2.16744792,4.70859375 2.09635417,4.77471591 L1.66614583,5.1818892 C1.59505208,5.24975142 1.59505208,5.359375 1.66432292,5.42723722 L2.91302083,6.62961648 C2.98411458,6.69747869 3.09895833,6.69747869 3.17005208,6.63135653 L5.33203125,4.58504972 C5.403125,4.5171875 5.403125,4.40756392 5.33385417,4.3397017 L4.90911458,3.9290483 Z M6.125,1.11363636 L4.66666667,1.11363636 C4.66666667,0.499396307 4.14348958,0 3.5,0 C2.85651042,0 2.33333333,0.499396307 2.33333333,1.11363636 L0.875,1.11363636 C0.391927083,1.11363636 0,1.48774858 0,1.94886364 L0,8.07386364 C0,8.53497869 0.391927083,8.90909091 0.875,8.90909091 L6.125,8.90909091 C6.60807292,8.90909091 7,8.53497869 7,8.07386364 L7,1.94886364 C7,1.48774858 6.60807292,1.11363636 6.125,1.11363636 Z M3.5,0.835227273 C3.66041667,0.835227273 3.79166667,0.960511364 3.79166667,1.11363636 C3.79166667,1.26676136 3.66041667,1.39204545 3.5,1.39204545 C3.33958333,1.39204545 3.20833333,1.26676136 3.20833333,1.11363636 C3.20833333,0.960511364 3.33958333,0.835227273 3.5,0.835227273 Z M6.125,7.93465909 C6.125,8.01122159 6.059375,8.07386364 5.97916667,8.07386364 L1.02083333,8.07386364 C0.940625,8.07386364 0.875,8.01122159 0.875,7.93465909 L0.875,2.08806818 C0.875,2.01150568 0.940625,1.94886364 1.02083333,1.94886364 L1.75,1.94886364 L1.75,2.50568182 C1.75,2.65880682 1.88125,2.78409091 2.04166667,2.78409091 L4.95833333,2.78409091 C5.11875,2.78409091 5.25,2.65880682 5.25,2.50568182 L5.25,1.94886364 L5.97916667,1.94886364 C6.059375,1.94886364 6.125,2.01150568 6.125,2.08806818 L6.125,7.93465909 Z" id="Shape" fill="#8AAEF5" fill-rule="nonzero"></path>
                        </g>
                        <g id="send_evaluation" stroke-width="1" fill="none" fill-rule="evenodd" transform="translate(180.500000, 9.454545) rotate(-12.000000) translate(-180.500000, -9.454545) translate(177.000000, 5.000000)">
                            <path d="M4.90911458,3.9290483 C4.83802083,3.86118608 4.72317708,3.86118608 4.65208333,3.92730824 L3.04791667,5.44637784 L2.35338542,4.77645597 C2.28229167,4.70859375 2.16744792,4.70859375 2.09635417,4.77471591 L1.66614583,5.1818892 C1.59505208,5.24975142 1.59505208,5.359375 1.66432292,5.42723722 L2.91302083,6.62961648 C2.98411458,6.69747869 3.09895833,6.69747869 3.17005208,6.63135653 L5.33203125,4.58504972 C5.403125,4.5171875 5.403125,4.40756392 5.33385417,4.3397017 L4.90911458,3.9290483 Z M6.125,1.11363636 L4.66666667,1.11363636 C4.66666667,0.499396307 4.14348958,0 3.5,0 C2.85651042,0 2.33333333,0.499396307 2.33333333,1.11363636 L0.875,1.11363636 C0.391927083,1.11363636 0,1.48774858 0,1.94886364 L0,8.07386364 C0,8.53497869 0.391927083,8.90909091 0.875,8.90909091 L6.125,8.90909091 C6.60807292,8.90909091 7,8.53497869 7,8.07386364 L7,1.94886364 C7,1.48774858 6.60807292,1.11363636 6.125,1.11363636 Z M3.5,0.835227273 C3.66041667,0.835227273 3.79166667,0.960511364 3.79166667,1.11363636 C3.79166667,1.26676136 3.66041667,1.39204545 3.5,1.39204545 C3.33958333,1.39204545 3.20833333,1.26676136 3.20833333,1.11363636 C3.20833333,0.960511364 3.33958333,0.835227273 3.5,0.835227273 Z M6.125,7.93465909 C6.125,8.01122159 6.059375,8.07386364 5.97916667,8.07386364 L1.02083333,8.07386364 C0.940625,8.07386364 0.875,8.01122159 0.875,7.93465909 L0.875,2.08806818 C0.875,2.01150568 0.940625,1.94886364 1.02083333,1.94886364 L1.75,1.94886364 L1.75,2.50568182 C1.75,2.65880682 1.88125,2.78409091 2.04166667,2.78409091 L4.95833333,2.78409091 C5.11875,2.78409091 5.25,2.65880682 5.25,2.50568182 L5.25,1.94886364 L5.97916667,1.94886364 C6.059375,1.94886364 6.125,2.01150568 6.125,2.08806818 L6.125,7.93465909 Z" id="Shape" fill="#8AAEF5" fill-rule="nonzero"></path>
                        </g>
                        <g id="send_evaluation" stroke-width="1" fill="none" fill-rule="evenodd" transform="translate(253.500000, 8.454545) rotate(11.000000) translate(-253.500000, -8.454545) translate(250.000000, 4.000000)">
                            <path d="M4.90911458,3.9290483 C4.83802083,3.86118608 4.72317708,3.86118608 4.65208333,3.92730824 L3.04791667,5.44637784 L2.35338542,4.77645597 C2.28229167,4.70859375 2.16744792,4.70859375 2.09635417,4.77471591 L1.66614583,5.1818892 C1.59505208,5.24975142 1.59505208,5.359375 1.66432292,5.42723722 L2.91302083,6.62961648 C2.98411458,6.69747869 3.09895833,6.69747869 3.17005208,6.63135653 L5.33203125,4.58504972 C5.403125,4.5171875 5.403125,4.40756392 5.33385417,4.3397017 L4.90911458,3.9290483 Z M6.125,1.11363636 L4.66666667,1.11363636 C4.66666667,0.499396307 4.14348958,0 3.5,0 C2.85651042,0 2.33333333,0.499396307 2.33333333,1.11363636 L0.875,1.11363636 C0.391927083,1.11363636 0,1.48774858 0,1.94886364 L0,8.07386364 C0,8.53497869 0.391927083,8.90909091 0.875,8.90909091 L6.125,8.90909091 C6.60807292,8.90909091 7,8.53497869 7,8.07386364 L7,1.94886364 C7,1.48774858 6.60807292,1.11363636 6.125,1.11363636 Z M3.5,0.835227273 C3.66041667,0.835227273 3.79166667,0.960511364 3.79166667,1.11363636 C3.79166667,1.26676136 3.66041667,1.39204545 3.5,1.39204545 C3.33958333,1.39204545 3.20833333,1.26676136 3.20833333,1.11363636 C3.20833333,0.960511364 3.33958333,0.835227273 3.5,0.835227273 Z M6.125,7.93465909 C6.125,8.01122159 6.059375,8.07386364 5.97916667,8.07386364 L1.02083333,8.07386364 C0.940625,8.07386364 0.875,8.01122159 0.875,7.93465909 L0.875,2.08806818 C0.875,2.01150568 0.940625,1.94886364 1.02083333,1.94886364 L1.75,1.94886364 L1.75,2.50568182 C1.75,2.65880682 1.88125,2.78409091 2.04166667,2.78409091 L4.95833333,2.78409091 C5.11875,2.78409091 5.25,2.65880682 5.25,2.50568182 L5.25,1.94886364 L5.97916667,1.94886364 C6.059375,1.94886364 6.125,2.01150568 6.125,2.08806818 L6.125,7.93465909 Z" id="Shape" fill="#8AAEF5" fill-rule="nonzero"></path>
                        </g>
                        <g id="sms" stroke-width="1" fill="none" fill-rule="evenodd" transform="translate(275.000000, 5.000000) rotate(-13.000000) translate(-275.000000, -5.000000) translate(271.000000, 1.000000)">
                            <path d="M7,0 L1,0 C0.4484375,0 0,0.4484375 0,1 L0,5.5 C0,6.0515625 0.4484375,6.5 1,6.5 L2.5,6.5 L2.5,7.8125 C2.5,7.9234375 2.590625,8 2.6875,8 C2.725,8 2.7640625,7.9890625 2.7984375,7.9625 L4.75,6.5 L7,6.5 C7.5515625,6.5 8,6.0515625 8,5.5 L8,1 C8,0.4484375 7.5515625,0 7,0 Z M7.25,5.5 C7.25,5.6375 7.1375,5.75 7,5.75 L4.5,5.75 L4.3,5.9 L3.25,6.6875 L3.25,5.75 L1,5.75 C0.8625,5.75 0.75,5.6375 0.75,5.5 L0.75,1 C0.75,0.8625 0.8625,0.75 1,0.75 L7,0.75 C7.1375,0.75 7.25,0.8625 7.25,1 L7.25,5.5 Z M5.75,2.125 L2.25,2.125 C2.1125,2.125 2,2.2375 2,2.375 L2,2.625 C2,2.7625 2.1125,2.875 2.25,2.875 L5.75,2.875 C5.8875,2.875 6,2.7625 6,2.625 L6,2.375 C6,2.2375 5.8875,2.125 5.75,2.125 Z M4.25,3.625 L2.25,3.625 C2.1125,3.625 2,3.7375 2,3.875 L2,4.125 C2,4.2625 2.1125,4.375 2.25,4.375 L4.25,4.375 C4.3875,4.375 4.5,4.2625 4.5,4.125 L4.5,3.875 C4.5,3.7375 4.3875,3.625 4.25,3.625 Z" id="Shape" fill="#8AAEF5" fill-rule="nonzero"></path>
                        </g>
                        <g id="sms" stroke-width="1" fill="none" fill-rule="evenodd" transform="translate(213.000000, 10.000000) rotate(14.000000) translate(-213.000000, -10.000000) translate(209.000000, 6.000000)">
                            <path d="M7,0 L1,0 C0.4484375,0 0,0.4484375 0,1 L0,5.5 C0,6.0515625 0.4484375,6.5 1,6.5 L2.5,6.5 L2.5,7.8125 C2.5,7.9234375 2.590625,8 2.6875,8 C2.725,8 2.7640625,7.9890625 2.7984375,7.9625 L4.75,6.5 L7,6.5 C7.5515625,6.5 8,6.0515625 8,5.5 L8,1 C8,0.4484375 7.5515625,0 7,0 Z M7.25,5.5 C7.25,5.6375 7.1375,5.75 7,5.75 L4.5,5.75 L4.3,5.9 L3.25,6.6875 L3.25,5.75 L1,5.75 C0.8625,5.75 0.75,5.6375 0.75,5.5 L0.75,1 C0.75,0.8625 0.8625,0.75 1,0.75 L7,0.75 C7.1375,0.75 7.25,0.8625 7.25,1 L7.25,5.5 Z M5.75,2.125 L2.25,2.125 C2.1125,2.125 2,2.2375 2,2.375 L2,2.625 C2,2.7625 2.1125,2.875 2.25,2.875 L5.75,2.875 C5.8875,2.875 6,2.7625 6,2.625 L6,2.375 C6,2.2375 5.8875,2.125 5.75,2.125 Z M4.25,3.625 L2.25,3.625 C2.1125,3.625 2,3.7375 2,3.875 L2,4.125 C2,4.2625 2.1125,4.375 2.25,4.375 L4.25,4.375 C4.3875,4.375 4.5,4.2625 4.5,4.125 L4.5,3.875 C4.5,3.7375 4.3875,3.625 4.25,3.625 Z" id="Shape" fill="#8AAEF5" fill-rule="nonzero"></path>
                        </g>
                        <g id="sms" stroke-width="1" fill="none" fill-rule="evenodd" transform="translate(130.000000, 3.000000)">
                            <path d="M7,0 L1,0 C0.4484375,0 0,0.4484375 0,1 L0,5.5 C0,6.0515625 0.4484375,6.5 1,6.5 L2.5,6.5 L2.5,7.8125 C2.5,7.9234375 2.590625,8 2.6875,8 C2.725,8 2.7640625,7.9890625 2.7984375,7.9625 L4.75,6.5 L7,6.5 C7.5515625,6.5 8,6.0515625 8,5.5 L8,1 C8,0.4484375 7.5515625,0 7,0 Z M7.25,5.5 C7.25,5.6375 7.1375,5.75 7,5.75 L4.5,5.75 L4.3,5.9 L3.25,6.6875 L3.25,5.75 L1,5.75 C0.8625,5.75 0.75,5.6375 0.75,5.5 L0.75,1 C0.75,0.8625 0.8625,0.75 1,0.75 L7,0.75 C7.1375,0.75 7.25,0.8625 7.25,1 L7.25,5.5 Z M5.75,2.125 L2.25,2.125 C2.1125,2.125 2,2.2375 2,2.375 L2,2.625 C2,2.7625 2.1125,2.875 2.25,2.875 L5.75,2.875 C5.8875,2.875 6,2.7625 6,2.625 L6,2.375 C6,2.2375 5.8875,2.125 5.75,2.125 Z M4.25,3.625 L2.25,3.625 C2.1125,3.625 2,3.7375 2,3.875 L2,4.125 C2,4.2625 2.1125,4.375 2.25,4.375 L4.25,4.375 C4.3875,4.375 4.5,4.2625 4.5,4.125 L4.5,3.875 C4.5,3.7375 4.3875,3.625 4.25,3.625 Z" id="Shape" fill="#8AAEF5" fill-rule="nonzero"></path>
                        </g>
                        <g id="sms" stroke-width="1" fill="none" fill-rule="evenodd" transform="translate(46.000000, 2.000000)">
                            <path d="M7,0 L1,0 C0.4484375,0 0,0.4484375 0,1 L0,5.5 C0,6.0515625 0.4484375,6.5 1,6.5 L2.5,6.5 L2.5,7.8125 C2.5,7.9234375 2.590625,8 2.6875,8 C2.725,8 2.7640625,7.9890625 2.7984375,7.9625 L4.75,6.5 L7,6.5 C7.5515625,6.5 8,6.0515625 8,5.5 L8,1 C8,0.4484375 7.5515625,0 7,0 Z M7.25,5.5 C7.25,5.6375 7.1375,5.75 7,5.75 L4.5,5.75 L4.3,5.9 L3.25,6.6875 L3.25,5.75 L1,5.75 C0.8625,5.75 0.75,5.6375 0.75,5.5 L0.75,1 C0.75,0.8625 0.8625,0.75 1,0.75 L7,0.75 C7.1375,0.75 7.25,0.8625 7.25,1 L7.25,5.5 Z M5.75,2.125 L2.25,2.125 C2.1125,2.125 2,2.2375 2,2.375 L2,2.625 C2,2.7625 2.1125,2.875 2.25,2.875 L5.75,2.875 C5.8875,2.875 6,2.7625 6,2.625 L6,2.375 C6,2.2375 5.8875,2.125 5.75,2.125 Z M4.25,3.625 L2.25,3.625 C2.1125,3.625 2,3.7375 2,3.875 L2,4.125 C2,4.2625 2.1125,4.375 2.25,4.375 L4.25,4.375 C4.3875,4.375 4.5,4.2625 4.5,4.125 L4.5,3.875 C4.5,3.7375 4.3875,3.625 4.25,3.625 Z" id="Shape" fill="#8AAEF5" fill-rule="nonzero"></path>
                        </g>
                        <path d="M241.875,11.25 L240.735781,11.25 L237.872031,5.28359375 C237.788775,5.11027169 237.613531,5 237.42125,5 L235.125,5 C235.055937,5 235,5.0559375 235,5.125 L235,5.625 C235,5.6940625 235.055937,5.75 235.125,5.75 L237.264219,5.75 L237.406094,6.045625 L235.020469,11.6515625 C234.949844,11.8164062 235.070781,12 235.250313,12 L235.522344,12 C235.622344,12 235.712656,11.9404687 235.752187,11.8484375 L237.846094,6.9625 L240.127969,11.7164062 C240.211189,11.8897597 240.386456,12 240.57875,12 L241.875,12 C241.944063,12 242,11.9440625 242,11.875 L242,11.375 C242,11.3059375 241.944063,11.25 241.875,11.25 Z" id="Path" fill="#8AAEF5" fill-rule="nonzero" transform="translate(238.500000, 8.500000) rotate(-17.000000) translate(-238.500000, -8.500000) "></path>
                        <path d="M64.875,10.25 L63.7357813,10.25 L60.8720312,4.28359375 C60.7887755,4.11027169 60.6135312,4 60.42125,4 L58.125,4 C58.0559375,4 58,4.0559375 58,4.125 L58,4.625 C58,4.6940625 58.0559375,4.75 58.125,4.75 L60.2642187,4.75 L60.4060937,5.045625 L58.0204687,10.6515625 C57.9498437,10.8164062 58.0707813,11 58.2503125,11 L58.5223437,11 C58.6223437,11 58.7126563,10.9404687 58.7521875,10.8484375 L60.8460938,5.9625 L63.1279688,10.7164062 C63.2111893,10.8897597 63.3864557,11 63.57875,11 L64.875,11 C64.9440625,11 65,10.9440625 65,10.875 L65,10.375 C65,10.3059375 64.9440625,10.25 64.875,10.25 Z" id="Path" fill="#8AAEF5" fill-rule="nonzero" transform="translate(61.500000, 7.500000) rotate(18.000000) translate(-61.500000, -7.500000) "></path>
                    </g>
                </g>
            </g>
        </g>
    </g>
</svg>