<?xml version="1.0" encoding="UTF-8"?>
<svg width="14px" height="11px" viewBox="0 0 14 11" version="1.1" xmlns="http://www.w3.org/2000/svg" xmlns:xlink="http://www.w3.org/1999/xlink">
    <!-- Generator: Sketch 62 (91390) - https://sketch.com -->
    <title>Icon_Analytics</title>
    <desc>Created with Sketch.</desc>
    <g id="Design-System-" stroke="none" stroke-width="1" fill="none" fill-rule="evenodd">
        <g id="Iconography" transform="translate(-222.000000, -188.000000)">
            <g id="Icon_Analytics" transform="translate(219.000000, 182.000000)">
                <rect id="Rectangle" opacity="0.2" x="0" y="0" width="20" height="20"></rect>
                <g id="chart-bar" stroke-width="1" fill-rule="evenodd" transform="translate(3.000000, 6.000000)" fill="#FFFFFF">
                    <path d="M10.85,7.875 L11.4625,7.875 C11.6375,7.875 11.8125,7.7 11.8125,7.525 L11.8125,1.225 C11.8125,1.05 11.6375,0.875 11.4625,0.875 L10.85,0.875 C10.675,0.875 10.5,1.05 10.5,1.225 L10.5,7.525 C10.5,7.7 10.675,7.875 10.85,7.875 Z M5.6,7.875 L6.2125,7.875 C6.3875,7.875 6.5625,7.7 6.5625,7.525 L6.5625,2.1 C6.5625,1.925 6.3875,1.75 6.2125,1.75 L5.6,1.75 C5.425,1.75 5.25,1.925 5.25,2.1 L5.25,7.525 C5.25,7.7 5.425,7.875 5.6,7.875 L5.6,7.875 Z M8.225,7.875 L8.8375,7.875 C9.0125,7.875 9.1875,7.7 9.1875,7.525 L9.1875,3.85 C9.1875,3.675 9.0125,3.5 8.8375,3.5 L8.225,3.5 C8.05,3.5 7.875,3.675 7.875,3.85 L7.875,7.525 C7.875,7.7 8.05,7.875 8.225,7.875 L8.225,7.875 Z M13.5625,9.1875 L1.3125,9.1875 L1.3125,0.4375 C1.3125,0.19578125 1.11671875,0 0.875,0 L0.4375,0 C0.19578125,0 0,0.19578125 0,0.4375 L0,9.625 C0,10.1081641 0.391835938,10.5 0.875,10.5 L13.5625,10.5 C13.8042187,10.5 14,10.3042188 14,10.0625 L14,9.625 C14,9.38328125 13.8042187,9.1875 13.5625,9.1875 Z M2.975,7.875 L3.5875,7.875 C3.7625,7.875 3.9375,7.7 3.9375,7.525 L3.9375,5.6 C3.9375,5.425 3.7625,5.25 3.5875,5.25 L2.975,5.25 C2.8,5.25 2.625,5.425 2.625,5.6 L2.625,7.525 C2.625,7.7 2.8,7.875 2.975,7.875 L2.975,7.875 Z" id="Shape" fill-rule="nonzero"></path>
                </g>
            </g>
        </g>
    </g>
</svg>