<?xml version="1.0" encoding="UTF-8"?>
<svg width="11px" height="14px" viewBox="0 0 11 14" version="1.1" xmlns="http://www.w3.org/2000/svg" xmlns:xlink="http://www.w3.org/1999/xlink">
    <!-- Generator: Sketch 62 (91390) - https://sketch.com -->
    <title>evaluations</title>
    <desc>Created with Sketch.</desc>
    <g id="Design-System-" stroke="none" stroke-width="1" fill="none" fill-rule="evenodd">
        <g id="Iconography" transform="translate(-320.000000, -185.000000)">
            <g id="Icon_Evaluate" transform="translate(315.000000, 182.000000)">
                <g id="Rectangle" opacity="0.2">
                    <rect x="0" y="0" width="20" height="20"></rect>
                </g>
                <g id="clipboard" transform="translate(5.000000, 3.000000)" fill="#FFFFFF">
                    <path d="M9.625,1.75 L7.33333333,1.75 C7.33333333,0.784765625 6.51119792,0 5.5,0 C4.48880208,0 3.66666667,0.784765625 3.66666667,1.75 L1.375,1.75 C0.615885417,1.75 0,2.33789062 0,3.0625 L0,12.6875 C0,13.4121094 0.615885417,14 1.375,14 L9.625,14 C10.3841146,14 11,13.4121094 11,12.6875 L11,3.0625 C11,2.33789062 10.3841146,1.75 9.625,1.75 Z M5.5,1.09375 C5.88098958,1.09375 6.1875,1.38632813 6.1875,1.75 C6.1875,2.11367187 5.88098958,2.40625 5.5,2.40625 C5.11901042,2.40625 4.8125,2.11367187 4.8125,1.75 C4.8125,1.38632813 5.11901042,1.09375 5.5,1.09375 Z M9.625,12.5234375 C9.625,12.6136719 9.54765625,12.6875 9.453125,12.6875 L1.546875,12.6875 C1.45234375,12.6875 1.375,12.6136719 1.375,12.5234375 L1.375,3.2265625 C1.375,3.13632812 1.45234375,3.0625 1.546875,3.0625 L2.75,3.0625 L2.75,4.046875 C2.75,4.22734375 2.9046875,4.375 3.09375,4.375 L7.90625,4.375 C8.0953125,4.375 8.25,4.22734375 8.25,4.046875 L8.25,3.0625 L9.453125,3.0625 C9.54765625,3.0625 9.625,3.13632812 9.625,3.2265625 L9.625,12.5234375 Z" id="Shape" fill-rule="nonzero"></path>
                </g>
                <g id="evaluation" transform="translate(5.000000, 3.000000)" fill="#FFFFFF">
                    <path d="M7.71432292,6.17421875 C7.60260417,6.06757813 7.42213542,6.06757813 7.31041667,6.17148438 L4.78958333,8.55859375 L3.69817708,7.50585938 C3.58645833,7.39921875 3.40598958,7.39921875 3.29427083,7.503125 L2.61822917,8.14296875 C2.50651042,8.24960937 2.50651042,8.421875 2.61536458,8.52851563 L4.57760417,10.4179688 C4.68932292,10.5246094 4.86979167,10.5246094 4.98151042,10.4207031 L8.37890625,7.20507812 C8.490625,7.0984375 8.490625,6.92617188 8.38177083,6.81953125 L7.71432292,6.17421875 Z M9.625,1.75 L7.33333333,1.75 C7.33333333,0.784765625 6.51119792,0 5.5,0 C4.48880208,0 3.66666667,0.784765625 3.66666667,1.75 L1.375,1.75 C0.615885417,1.75 0,2.33789062 0,3.0625 L0,12.6875 C0,13.4121094 0.615885417,14 1.375,14 L9.625,14 C10.3841146,14 11,13.4121094 11,12.6875 L11,3.0625 C11,2.33789062 10.3841146,1.75 9.625,1.75 Z M5.5,1.3125 C5.75208333,1.3125 5.95833333,1.509375 5.95833333,1.75 C5.95833333,1.990625 5.75208333,2.1875 5.5,2.1875 C5.24791667,2.1875 5.04166667,1.990625 5.04166667,1.75 C5.04166667,1.509375 5.24791667,1.3125 5.5,1.3125 Z M9.625,12.46875 C9.625,12.5890625 9.521875,12.6875 9.39583333,12.6875 L1.60416667,12.6875 C1.478125,12.6875 1.375,12.5890625 1.375,12.46875 L1.375,3.28125 C1.375,3.1609375 1.478125,3.0625 1.60416667,3.0625 L2.75,3.0625 L2.75,3.9375 C2.75,4.178125 2.95625,4.375 3.20833333,4.375 L7.79166667,4.375 C8.04375,4.375 8.25,4.178125 8.25,3.9375 L8.25,3.0625 L9.39583333,3.0625 C9.521875,3.0625 9.625,3.1609375 9.625,3.28125 L9.625,12.46875 Z" id="Shape" fill-rule="nonzero"></path>
                </g>
            </g>
        </g>
    </g>
</svg>