<?xml version="1.0" encoding="UTF-8"?>
<svg width="14px" height="13px" viewBox="0 0 14 13" version="1.1" xmlns="http://www.w3.org/2000/svg" xmlns:xlink="http://www.w3.org/1999/xlink">
    <!-- Generator: Sketch 62 (91390) - https://sketch.com -->
    <title>Icon_Home</title>
    <desc>Created with Sketch.</desc>
    <g id="Design-System-" stroke="none" stroke-width="1" fill="none" fill-rule="evenodd">
        <g id="Iconography" transform="translate(-126.000000, -186.000000)">
            <g id="Icon_Home" transform="translate(123.000000, 182.000000)">
                <g id="Rectangle" opacity="0.2">
                    <rect x="0" y="0" width="20" height="20"></rect>
                </g>
                <g id="home-alt" transform="translate(3.000000, 4.000000)" fill="#FFFFFF">
                    <path d="M13.8359792,5.89011719 L7.85819757,0.35546875 C7.35393,-0.117684125 6.62180657,-0.117684125 6.11753899,0.35546875 L0.139757366,5.89011719 C0.0607946032,5.96459203 0.0113203231,6.07136856 0.00221963034,6.18695429 C-0.00688106241,6.30254002 0.0251374147,6.41746549 0.0912305026,6.50644531 L0.339688042,6.84277344 C0.477284197,7.02790347 0.721961124,7.052381 0.886343154,6.89746094 L1.55285962,6.28058594 L1.55285962,11.375 C1.55405919,11.8576881 1.90097695,12.2486481 2.32928943,12.25 L5.43500867,12.25 C5.86332114,12.2486481 6.2102389,11.8576881 6.21143847,11.375 L6.21143847,8.53125 L7.76429809,8.53125 L7.76429809,11.375 C7.76549767,11.8576881 8.11241542,12.2486481 8.5407279,12.25 L11.6464471,12.25 C12.0726131,12.2489741 12.4187584,11.8618102 12.4228769,11.3815625 L12.4228769,6.28003906 L13.0908492,6.89855469 C13.2552313,7.05347475 13.4999082,7.02899722 13.6375043,6.84386719 L13.8857192,6.5078125 C13.9520514,6.41858341 13.9840956,6.30324285 13.9747605,6.18731526 C13.9654254,6.07138767 13.9154808,5.96443202 13.8359792,5.89011719 Z M11.2545927,10.9375 L8.92894281,10.9375 L8.92894281,8.09375 C8.92774323,7.61106191 8.58082548,7.22010187 8.152513,7.21875 L5.82322357,7.21875 C5.39491109,7.22010187 5.04799334,7.61106191 5.04679376,8.09375 L5.04679376,10.9375 L2.71750433,10.9375 L2.71750433,5.20269531 L6.98786828,1.24824219 L11.2582322,5.20105469 L11.2545927,10.9375 Z" id="Shape" fill-rule="nonzero"></path>
                </g>
            </g>
        </g>
    </g>
</svg>