<?xml version="1.0" encoding="UTF-8"?>
<svg width="13px" height="14px" viewBox="0 0 13 14" version="1.1" xmlns="http://www.w3.org/2000/svg" xmlns:xlink="http://www.w3.org/1999/xlink">
    <!-- Generator: Sketch 62 (91390) - https://sketch.com -->
    <title>playbooks</title>
    <desc>Created with Sketch.</desc>
    <g id="Design-System-" stroke="none" stroke-width="1" fill="none" fill-rule="evenodd">
        <g id="Iconography" transform="translate(-415.000000, -185.000000)">
            <g id="Icon_Playbooks" transform="translate(411.000000, 182.000000)">
                <g>
                    <rect id="Rectangle" opacity="0.2" x="0" y="0" width="20" height="20"></rect>
                    <g id="playbooks_sparkle" transform="translate(4.000000, 3.000000)" fill="#FFFFFF" fill-rule="nonzero">
                        <path d="M12.25,10.5 L12.25,0.4375 C12.25,0.196875 12.053125,0 11.8125,0 L2.1875,0 C0.97890625,0 0,0.97890625 0,2.1875 L0,11.8125 C0,13.0210938 0.97890625,14 2.1875,14 L11.8125,14 C12.053125,14 12.25,13.803125 12.25,13.5625 L12.25,13.125 C12.25,12.9117188 12.096875,12.7339844 11.8972656,12.6957031 C11.7824219,12.3402344 11.7824219,11.2847656 11.8972656,10.9292969 C12.0996094,10.8882813 12.25,10.7132813 12.25,10.5 Z M10.7734375,12.6875 L2.1875,12.6875 C1.70351562,12.6875 1.3125,12.2964844 1.3125,11.8125 C1.3125,11.33125 1.70625,10.9375 2.1875,10.9375 L10.7734375,10.9375 C10.6996094,11.4105469 10.6996094,12.2144531 10.7734375,12.6875 Z M10.9375,9.625 L2.1875,9.625 C1.87578125,9.625 1.58046875,9.690625 1.3125,9.80820313 L1.3125,2.1875 C1.3125,1.70351563 1.70351562,1.3125 2.1875,1.3125 L10.9375,1.3125 L10.9375,9.625 Z M6.70851563,7.29175781 L7.4375,8.75 L8.16648437,7.29175781 L9.625,6.5625 L8.16648437,5.83324219 L7.4375,4.375 L6.70851563,5.83324219 L5.25,6.5625 L6.70851563,7.29175781 Z M4.375,5.46875 L4.88523437,4.44800781 L5.90625,3.9375 L4.88523437,3.42699219 L4.375,2.40625 L3.86449219,3.42699219 L2.84375,3.9375 L3.86449219,4.44800781 L4.375,5.46875 Z" id="Shape"></path>
                    </g>
                </g>
            </g>
        </g>
    </g>
</svg>