<?xml version="1.0" standalone="no"?>
<!DOCTYPE svg PUBLIC "-//W3C//DTD SVG 20010904//EN"
 "http://www.w3.org/TR/2001/REC-SVG-20010904/DTD/svg10.dtd">
<svg version="1.0" xmlns="http://www.w3.org/2000/svg"
 height="16px" viewBox="0 0 512.000000 512.000000"
 preserveAspectRatio="xMidYMid meet">

<g transform="translate(0.000000,512.000000) scale(0.100000,-0.100000)"
fill="#ffffff" stroke="none">
<path d="M2433 5105 c-35 -8 -93 -28 -130 -46 -93 -45 -217 -169 -261 -261
-155 -320 8 -706 343 -811 98 -31 252 -31 350 0 335 105 498 491 343 811 -44
92 -168 216 -260 260 -120 59 -256 75 -385 47z"/>
<path d="M1205 4836 c-223 -55 -395 -275 -395 -501 1 -260 197 -482 458 -519
42 -6 45 -5 110 54 92 85 198 148 311 186 90 30 97 34 115 70 10 22 26 74 34
118 71 357 -276 681 -633 592z"/>
<path d="M3663 4835 c-201 -54 -355 -228 -385 -432 -10 -67 -9 -94 4 -159 8
-44 24 -96 34 -118 18 -36 25 -40 115 -70 113 -38 219 -101 311 -186 65 -59
68 -60 110 -54 261 37 457 259 458 519 0 231 -181 456 -408 504 -71 15 -175
13 -239 -4z"/>
<path d="M1841 3789 c-71 -14 -186 -74 -242 -126 -68 -62 -124 -150 -149 -231
-19 -60 -20 -93 -20 -473 l0 -409 1130 0 1130 0 0 409 c0 380 -1 413 -20 473
-54 175 -220 324 -399 358 -66 12 -1366 12 -1430 -1z"/>
<path d="M720 3663 c-184 -28 -319 -140 -385 -319 -16 -43 -19 -94 -23 -421
l-4 -373 411 0 411 0 0 414 c0 485 2 501 87 694 4 9 -46 12 -233 11 -132 -1
-250 -3 -264 -6z"/>
<path d="M3903 3658 c86 -196 87 -207 87 -694 l0 -414 411 0 411 0 -4 373 c-4
327 -7 378 -23 421 -55 148 -162 256 -303 303 -66 22 -588 32 -579 11z"/>
<path d="M317 2243 c-10 -9 -9 -311 1 -316 4 -3 150 -20 324 -38 l318 -33 15
-56 c27 -95 66 -191 121 -303 l54 -107 -200 -247 c-110 -136 -200 -252 -200
-258 0 -5 101 -111 224 -234 l224 -224 252 205 253 205 114 -58 c63 -32 167
-74 231 -95 65 -20 118 -38 119 -38 1 -1 15 -136 33 -301 17 -165 33 -310 36
-323 l4 -22 320 0 320 0 4 23 c3 12 19 157 36 322 18 165 32 300 33 301 1 0
54 18 119 38 64 21 168 63 231 95 l114 58 253 -205 252 -205 224 224 c123 123
224 229 224 234 0 6 -90 122 -200 258 l-200 247 54 107 c55 112 94 208 121
303 l15 56 318 33 c174 18 320 36 325 40 4 4 6 77 5 162 l-3 154 -742 3 -742
2 -6 -47 c-29 -242 -128 -429 -293 -554 -145 -110 -276 -153 -462 -153 -141 0
-212 15 -325 69 -246 117 -394 337 -430 638 l-6 47 -738 0 c-406 0 -741 -3
-744 -7z"/>
</g>
</svg>
