<?xml version="1.0" encoding="UTF-8"?>
<svg width="48px" height="48px" viewBox="0 0 48 48" version="1.1" xmlns="http://www.w3.org/2000/svg" xmlns:xlink="http://www.w3.org/1999/xlink">
    <!-- Generator: Sketch 63.1 (92452) - https://sketch.com -->
    <title>icon_speechtextanalytics</title>
    <desc>Created with Sketch.</desc>
    <g id="Login-Screen" stroke="none" stroke-width="1" fill="none" fill-rule="evenodd">
        <g id="Register" transform="translate(-1137.000000, -311.000000)">
            <g id="Group-2" transform="translate(1113.000000, 290.000000)">
                <g id="icon_speechtextanalytics" transform="translate(24.000000, 21.000000)">
                    <circle id="Oval" fill="#FFFFFF" cx="24" cy="24" r="24"></circle>
                    <g id="person_speak" transform="translate(12.000000, 12.000000)" fill="#4A82F1">
                        <path d="M8.64,13.545 C11.4255,13.545 13.68,11.2905 13.68,8.505 C13.68,5.7195 11.4255,3.465 8.64,3.465 C5.8545,3.465 3.6,5.7195 3.6,8.505 C3.6,11.2905 5.8545,13.545 8.64,13.545 Z" id="Path"></path>
                        <path d="M21.1956293,-7.03437308e-15 C18.0145793,-7.03437308e-15 15.4356293,2.25675 15.4356293,5.04 C15.4356293,6.3342 16.0093793,7.5024 16.9255793,8.39475 C16.5423046,9.27108264 16.0705053,10.1059669 15.5175293,10.8864 C15.4329205,11.0049692 15.4118971,11.1575146 15.4612793,11.29455 C15.5103293,11.4354 15.6156293,11.51955 15.7362293,11.51955 C17.5290293,11.51955 18.9919793,10.7487 20.0211293,9.97335 C20.4086405,10.0440368 20.8017238,10.0797306 21.1956293,10.08 C24.3766793,10.08 26.9556293,7.82325 26.9556293,5.04 C26.9556293,2.25675 24.3766793,-7.03437308e-15 21.1956293,-7.03437308e-15 Z" id="Path"></path>
                        <path d="M12.096,14.985 L11.7225,14.985 C10.7865,15.435 9.747,15.705 8.64,15.705 C7.533,15.705 6.498,15.435 5.5575,14.985 L5.184,14.985 C2.322,14.985 0,17.307 0,20.169 L0,21.465 C0,22.6575 0.9675,23.625 2.16,23.625 L15.12,23.625 C16.3125,23.625 17.28,22.6575 17.28,21.465 L17.28,20.169 C17.28,17.307 14.958,14.985 12.096,14.985 Z" id="Path"></path>
                    </g>
                </g>
            </g>
        </g>
    </g>
</svg>