<?xml version="1.0" encoding="UTF-8"?>
<svg width="48px" height="48px" viewBox="0 0 48 48" version="1.1" xmlns="http://www.w3.org/2000/svg" xmlns:xlink="http://www.w3.org/1999/xlink">
    <!-- Generator: Sketch 63.1 (92452) - https://sketch.com -->
    <title>icon_circle_convoanalytics</title>
    <desc>Created with Sketch.</desc>
    <g id="Login-Screen" stroke="none" stroke-width="1" fill="none" fill-rule="evenodd">
        <g id="Register" transform="translate(-826.000000, -309.000000)">
            <g id="Group" transform="translate(805.000000, 290.000000)">
                <g id="icon_circle_convoanalytics" transform="translate(21.000000, 19.000000)">
                    <circle id="Oval" fill="#FFFFFF" cx="24" cy="24" r="24"></circle>
                    <path d="M33.2758333,16.8595833 C33.50125,16.9475 33.74375,17 34,17 C35.1045833,17 36,16.1045833 36,15 C36,13.8954167 35.1045833,13 34,13 C32.8954167,13 32,13.8954167 32,15 C32,15.10125 32.0154167,15.1983333 32.0295833,15.2954167 L28.0570833,18.4733333 C27.8320833,18.3854167 27.5891667,18.3329167 27.3329167,18.3329167 C27.0766667,18.3329167 26.8341667,18.3854167 26.60875,18.4733333 L22.6370833,15.2958333 C22.6516667,15.19875 22.6666667,15.10125 22.6666667,15 C22.6666667,13.8954167 21.77125,13 20.6666667,13 C19.5620833,13 18.6666667,13.8954167 18.6666667,15 C18.6666667,15.1779167 18.6975,15.3475 18.7408333,15.5116667 L14.5116667,19.7408333 C14.3475,19.6975 14.1779167,19.6666667 14,19.6666667 C12.8954167,19.6666667 12,20.5620833 12,21.6666667 C12,22.77125 12.8954167,23.6666667 14,23.6666667 C15.1045833,23.6666667 16,22.77125 16,21.6666667 C16,21.48875 15.9691667,21.3191667 15.9258333,21.155 L20.155,16.9258333 C20.3191667,16.9691667 20.48875,17 20.6666667,17 C20.9229167,17 21.1654167,16.9475 21.3908333,16.8595833 L25.3633333,20.0375 C25.34875,20.1345833 25.33375,20.2320833 25.33375,20.3333333 C25.33375,21.4379167 26.2291667,22.3333333 27.33375,22.3333333 C28.4383333,22.3333333 29.33375,21.4379167 29.33375,20.3333333 C29.33375,20.2320833 29.3183333,20.135 29.3041667,20.0379167 L33.2758333,16.8595833 Z M28.2962963,26.3333333 L25.9259259,26.3333333 C25.5985185,26.3333333 25.3333333,26.6316667 25.3333333,27 L25.3333333,33.6666667 C25.3333333,34.035 25.5985185,34.3333333 25.9259259,34.3333333 L28.2962963,34.3333333 C28.6237037,34.3333333 28.8888889,34.035 28.8888889,33.6666667 L28.8888889,27 C28.8888889,26.6316667 28.6237037,26.3333333 28.2962963,26.3333333 Z M35.2592593,21 L32.2962963,21 C31.887037,21 31.5555556,21.2983333 31.5555556,21.6666667 L31.5555556,33.6666667 C31.5555556,34.035 31.887037,34.3333333 32.2962963,34.3333333 L35.2592593,34.3333333 C35.6685185,34.3333333 36,34.035 36,33.6666667 L36,21.6666667 C36,21.2983333 35.6685185,21 35.2592593,21 Z M21.9259259,21 L18.962963,21 C18.5537037,21 18.2222222,21.2983333 18.2222222,21.6666667 L18.2222222,33.6666667 C18.2222222,34.035 18.5537037,34.3333333 18.962963,34.3333333 L21.9259259,34.3333333 C22.3351852,34.3333333 22.6666667,34.035 22.6666667,33.6666667 L22.6666667,21.6666667 C22.6666667,21.2983333 22.3351852,21 21.9259259,21 Z M14.962963,27.2222222 L12.5925926,27.2222222 C12.2651852,27.2222222 12,27.5404444 12,27.9333333 L12,33.6222222 C12,34.0151111 12.2651852,34.3333333 12.5925926,34.3333333 L14.962963,34.3333333 C15.2903704,34.3333333 15.5555556,34.0151111 15.5555556,33.6222222 L15.5555556,27.9333333 C15.5555556,27.5404444 15.2903704,27.2222222 14.962963,27.2222222 Z" id="Shape" fill="#4A82F1"></path>
                </g>
            </g>
        </g>
    </g>
</svg>