<?xml version="1.0" encoding="UTF-8"?>
<svg width="48px" height="48px" viewBox="0 0 48 48" version="1.1" xmlns="http://www.w3.org/2000/svg" xmlns:xlink="http://www.w3.org/1999/xlink">
    <!-- Generator: Sketch 63.1 (92452) - https://sketch.com -->
    <title>icon_coach_empower</title>
    <desc>Created with Sketch.</desc>
    <g id="Login-Screen" stroke="none" stroke-width="1" fill="none" fill-rule="evenodd">
        <g id="Register" transform="translate(-827.000000, -574.000000)">
            <g id="Group-4" transform="translate(805.000000, 553.000000)">
                <g id="icon_coach_empower" transform="translate(22.000000, 21.000000)">
                    <circle id="Oval" fill="#FFFFFF" cx="24" cy="24" r="24"></circle>
                    <path d="M35.71875,16.75 L31.25,16.75 L31.25,15.03125 C31.25,14.4597656 30.7902344,14 30.21875,14 L18.53125,14 C17.9597656,14 17.5,14.4597656 17.5,15.03125 L17.5,16.75 L13.03125,16.75 C12.4597656,16.75 12,17.2097656 12,17.78125 L12,20.1875 C12,23.0449219 15.3472656,25.8464844 19.3863281,26.30625 C20.7355469,28.5449219 22.3125,29.46875 22.3125,29.46875 L22.3125,32.5625 L20.25,32.5625 C18.7332031,32.5625 17.5,33.4519531 17.5,34.96875 L17.5,35.484375 C17.5,35.7679688 17.7320312,36 18.015625,36 L30.734375,36 C31.0179688,36 31.25,35.7679688 31.25,35.484375 L31.25,34.96875 C31.25,33.4519531 30.0167969,32.5625 28.5,32.5625 L26.4375,32.5625 L26.4375,29.46875 C26.4375,29.46875 28.0144531,28.5449219 29.3636719,26.30625 C33.415625,25.8421875 36.75,23.0363281 36.75,20.1875 L36.75,17.78125 C36.75,17.2097656 36.2902344,16.75 35.71875,16.75 Z M14.75,20.1875 L14.75,19.5 L17.5085937,19.5 C17.5515625,20.9007813 17.7578125,22.1296875 18.0585938,23.2039062 C16.0175781,22.4992188 14.75,21.0597656 14.75,20.1875 Z M34,20.1875 C34,21.0554687 32.7367188,22.4992188 30.6914063,23.2039062 C30.9921875,22.1296875 31.1984375,20.9007813 31.2414063,19.5 L34,19.5 L34,20.1875 Z M28.5300781,20.3894531 L26.8285156,22.0480469 L27.2324219,24.3941406 C27.3054687,24.8152344 26.8585937,25.1332031 26.4847656,24.9355469 L24.3792969,23.8269531 L22.2738281,24.9355469 C21.8957031,25.1332031 21.453125,24.8109375 21.5261719,24.3941406 L21.9300781,22.0480469 L20.2285156,20.3894531 C19.9234375,20.0929687 20.0910156,19.5730469 20.5164062,19.5085937 L22.8710937,19.1648437 L23.9238281,17.0335938 C24.1128906,16.6511719 24.6585937,16.6511719 24.8476562,17.0335938 L25.9003906,19.1648437 L28.2550781,19.5085937 C28.6675781,19.5730469 28.8351562,20.0929687 28.5300781,20.3894531 L28.5300781,20.3894531 Z" id="Shape" fill="#4A82F1"></path>
                </g>
            </g>
        </g>
    </g>
</svg>