<?xml version="1.0" encoding="UTF-8"?>
<svg width="48px" height="48px" viewBox="0 0 48 48" version="1.1" xmlns="http://www.w3.org/2000/svg" xmlns:xlink="http://www.w3.org/1999/xlink">
    <!-- Generator: Sketch 63.1 (92452) - https://sketch.com -->
    <title>icon_playbookbuilder</title>
    <desc>Created with Sketch.</desc>
    <g id="Login-Screen" stroke="none" stroke-width="1" fill="none" fill-rule="evenodd">
        <g id="Register" transform="translate(-1138.000000, -574.000000)">
            <g id="Group-5" transform="translate(1113.000000, 553.000000)">
                <g id="icon_playbookbuilder" transform="translate(25.000000, 21.000000)">
                    <circle id="Oval" fill="#FFFFFF" cx="24" cy="24" r="24"></circle>
                    <g id="book-spells" transform="translate(14.000000, 14.000000)" fill="#4A82F1">
                        <path d="M19.25,15.4 L19.25,1.1 C19.25,0.4125 18.8375,0 18.15,0 L4.125,0 C1.7875,0 0,1.7875 0,4.125 L0,17.875 C0,20.2125 1.7875,22 4.125,22 L18.15,22 C18.7,22 19.25,21.5875 19.25,20.9 L19.25,20.2125 C19.25,19.9375 19.1125,19.6625 18.8375,19.3875 C18.7,18.7 18.7,16.775 18.8375,16.225 C19.1125,16.0875 19.25,15.8125 19.25,15.4 Z M11.6875,6.875 L12.8330469,9.16652344 L15.125,10.3125 L12.8330469,11.4584766 L11.6875,13.75 L10.5419531,11.4584766 L8.25,10.3125 L10.5419531,9.16652344 L11.6875,6.875 Z M6.875,4.125 L7.5625,2.75 L8.25,4.125 L9.625,4.8125 L8.25,5.5 L7.5625,6.875 L6.875,5.5 L5.5,4.8125 L6.875,4.125 Z M16.3625,19.25 L4.125,19.25 C3.3,19.25 2.75,18.7 2.75,17.875 C2.75,17.05 3.4375,16.5 4.125,16.5 L16.3625,16.5 L16.3625,19.25 Z" id="Shape"></path>
                    </g>
                </g>
            </g>
        </g>
    </g>
</svg>