<?xml version="1.0" encoding="UTF-8"?>
<svg width="14px" height="11px" viewBox="0 0 14 11" version="1.1" xmlns="http://www.w3.org/2000/svg" xmlns:xlink="http://www.w3.org/1999/xlink">
    <!-- Generator: Sketch 62 (91390) - https://sketch.com -->
    <title>email</title>
    <desc>Created with Sketch.</desc>
    <g id="Design-System-" stroke="none" stroke-width="1" fill="none" fill-rule="evenodd">
        <g id="Iconography" transform="translate(-225.000000, -626.000000)">
            <g id="email" transform="translate(222.000000, 621.000000)">
                <rect id="Rectangle" fill-opacity="0" fill="#FFFFFF" x="0" y="0" width="20" height="20"></rect>
                <g transform="translate(3.000000, 5.000000)" fill="#727588" fill-rule="nonzero" id="Shape">
                    <path d="M12.6875,0 L1.3125,0 C0.587617187,0 0,0.587617187 0,1.3125 L0,9.1875 C0,9.91238281 0.587617187,10.5 1.3125,10.5 L12.6875,10.5 C13.4123828,10.5 14,9.91238281 14,9.1875 L14,1.3125 C14,0.587617187 13.4123828,0 12.6875,0 Z M12.6875,1.3125 L12.6875,2.42826172 C12.0743984,2.92753125 11.0969688,3.703875 9.00738672,5.34009766 C8.54689062,5.70232031 7.63470312,6.57253516 7,6.56239063 C6.36540625,6.57264453 5.45291797,5.70218359 4.99261328,5.34009766 C2.90335937,3.70412109 1.92568359,2.92761328 1.3125,2.42826172 L1.3125,1.3125 L12.6875,1.3125 Z M1.3125,9.1875 L1.3125,4.11244531 C1.93905469,4.61149609 2.82758984,5.31179687 4.18189844,6.37229687 C4.77955078,6.84274609 5.8261875,7.88128906 7,7.87497266 C8.16804297,7.88128906 9.20141797,6.8578125 9.81785547,6.37251562 C11.1721367,5.31204297 12.060918,4.61155078 12.6875,4.11244531 L12.6875,9.1875 L1.3125,9.1875 Z"></path>
                </g>
            </g>
        </g>
    </g>
</svg>