<?xml version="1.0" encoding="UTF-8"?>
<svg width="14px" height="13px" viewBox="0 0 14 13" version="1.1" xmlns="http://www.w3.org/2000/svg" xmlns:xlink="http://www.w3.org/1999/xlink">
    <!-- Generator: Sketch 62 (91390) - https://sketch.com -->
    <title>https_rest</title>
    <desc>Created with Sketch.</desc>
    <g id="Design-System-" stroke="none" stroke-width="1" fill="none" fill-rule="evenodd">
        <g id="Iconography" transform="translate(-417.000000, -625.000000)">
            <g id="https_rest" transform="translate(414.000000, 621.000000)">
                <rect id="Rectangle" fill-opacity="0" fill="#FFFFFF" x="0" y="0" width="20" height="20"></rect>
                <g id="https" transform="translate(3.000000, 4.000000)" fill="#727588" fill-rule="nonzero">
                    <path d="M5.72131716,12.4155979 L4.77989601,12.1414211 C4.6779896,12.112305 4.61733102,12.0031196 4.64644714,11.9012132 L8.0627383,0.140727903 C8.09185442,0.0388214905 8.20103986,-0.0218370884 8.30294627,0.00727902946 L9.24436742,0.281455806 C9.34627383,0.310571924 9.40693241,0.419757366 9.37781629,0.521663778 L5.96152513,12.282149 C5.93240901,12.3864818 5.82564991,12.444714 5.72131716,12.4155979 Z M3.70259965,9.47729636 L4.36256499,8.77365685 C4.43778163,8.69358752 4.4305026,8.56741768 4.35043328,8.49462738 L1.77608319,6.21143847 L4.35043328,3.92824957 C4.43292894,3.85545927 4.43778163,3.72928943 4.36256499,3.6492201 L3.70259965,2.94558059 C3.62980936,2.86793761 3.50606586,2.86308492 3.42842288,2.93587522 L0.0849220104,6.07071057 C0.00242634315,6.14835355 0.00242634315,6.27694974 0.0849220104,6.35459272 L3.42842288,9.48700173 C3.50606586,9.55979203 3.62738302,9.55493934 3.70259965,9.47729636 Z M10.5958406,9.48700173 L13.9369151,6.35459272 C14.0194107,6.27694974 14.0194107,6.14835355 13.9369151,6.07071057 L10.5958406,2.93587522 C10.5181976,2.86308492 10.3944541,2.86551127 10.3216638,2.94558059 L9.66169844,3.6492201 C9.5864818,3.72928943 9.59376083,3.85545927 9.67383016,3.92824957 L12.2481802,6.21143847 L9.67383016,8.49462738 C9.59133449,8.56741768 9.5864818,8.69358752 9.66169844,8.77365685 L10.3216638,9.47729636 C10.3968804,9.55493934 10.5181976,9.55979203 10.5958406,9.48700173 Z" id="Shape"></path>
                </g>
            </g>
        </g>
    </g>
</svg>