<?xml version="1.0" encoding="UTF-8"?>
<svg width="14px" height="14px" viewBox="0 0 14 14" version="1.1" xmlns="http://www.w3.org/2000/svg" xmlns:xlink="http://www.w3.org/1999/xlink">
    <!-- Generator: Sketch 62 (91390) - https://sketch.com -->
    <title>sms_msg</title>
    <desc>Created with Sketch.</desc>
    <g id="Design-System-" stroke="none" stroke-width="1" fill="none" fill-rule="evenodd">
        <g id="Iconography" transform="translate(-321.000000, -625.000000)">
            <g id="sms_msg" transform="translate(318.000000, 621.000000)">
                <rect id="Rectangle" fill-opacity="0" fill="#FFFFFF" x="0" y="0" width="20" height="20"></rect>
                <g id="sms" transform="translate(3.000000, 4.000000)" fill="#727588" fill-rule="nonzero">
                    <path d="M12.25,0 L1.75,0 C0.784765625,0 0,0.784765625 0,1.75 L0,9.625 C0,10.5902344 0.784765625,11.375 1.75,11.375 L4.375,11.375 L4.375,13.671875 C4.375,13.8660156 4.53359375,14 4.703125,14 C4.76875,14 4.83710937,13.9808594 4.89726563,13.934375 L8.3125,11.375 L12.25,11.375 C13.2152344,11.375 14,10.5902344 14,9.625 L14,1.75 C14,0.784765625 13.2152344,0 12.25,0 Z M12.6875,9.625 C12.6875,9.865625 12.490625,10.0625 12.25,10.0625 L7.875,10.0625 L7.525,10.325 L5.6875,11.703125 L5.6875,10.0625 L1.75,10.0625 C1.509375,10.0625 1.3125,9.865625 1.3125,9.625 L1.3125,1.75 C1.3125,1.509375 1.509375,1.3125 1.75,1.3125 L12.25,1.3125 C12.490625,1.3125 12.6875,1.509375 12.6875,1.75 L12.6875,9.625 Z M10.0625,3.71875 L3.9375,3.71875 C3.696875,3.71875 3.5,3.915625 3.5,4.15625 L3.5,4.59375 C3.5,4.834375 3.696875,5.03125 3.9375,5.03125 L10.0625,5.03125 C10.303125,5.03125 10.5,4.834375 10.5,4.59375 L10.5,4.15625 C10.5,3.915625 10.303125,3.71875 10.0625,3.71875 Z M7.4375,6.34375 L3.9375,6.34375 C3.696875,6.34375 3.5,6.540625 3.5,6.78125 L3.5,7.21875 C3.5,7.459375 3.696875,7.65625 3.9375,7.65625 L7.4375,7.65625 C7.678125,7.65625 7.875,7.459375 7.875,7.21875 L7.875,6.78125 C7.875,6.540625 7.678125,6.34375 7.4375,6.34375 Z" id="Shape"></path>
                </g>
            </g>
        </g>
    </g>
</svg>