<?xml version="1.0" encoding="UTF-8"?>
<svg width="14px" height="14px" viewBox="0 0 14 14" version="1.1" xmlns="http://www.w3.org/2000/svg" xmlns:xlink="http://www.w3.org/1999/xlink">
    <!-- Generator: Sketch 62 (91390) - https://sketch.com -->
    <title>ic_add</title>
    <desc>Created with Sketch.</desc>
    <g id="Design-System-" stroke="none" stroke-width="1" fill="none" fill-rule="evenodd">
        <g id="Iconography" transform="translate(-417.000000, -646.000000)">
            <g id="ic_add" transform="translate(414.000000, 643.000000)">
                <g id="add_item">
                    <rect id="Rectangle" fill-opacity="0" fill="#FFFFFF" x="0" y="0" width="20" height="20"></rect>
                    <g id="add" transform="translate(3.000000, 3.000000)" fill="#0D4DCE" fill-rule="nonzero">
                        <path d="M13.4166667,5.83333333 L8.16666667,5.83333333 L8.16666667,0.583333333 C8.16666667,0.261041667 7.905625,0 7.58333333,0 L6.41666667,0 C6.094375,0 5.83333333,0.261041667 5.83333333,0.583333333 L5.83333333,5.83333333 L0.583333333,5.83333333 C0.261041667,5.83333333 0,6.094375 0,6.41666667 L0,7.58333333 C0,7.905625 0.261041667,8.16666667 0.583333333,8.16666667 L5.83333333,8.16666667 L5.83333333,13.4166667 C5.83333333,13.7389583 6.094375,14 6.41666667,14 L7.58333333,14 C7.905625,14 8.16666667,13.7389583 8.16666667,13.4166667 L8.16666667,8.16666667 L13.4166667,8.16666667 C13.7389583,8.16666667 14,7.905625 14,7.58333333 L14,6.41666667 C14,6.094375 13.7389583,5.83333333 13.4166667,5.83333333 Z" id="Path"></path>
                    </g>
                </g>
            </g>
        </g>
    </g>
</svg>