<?xml version="1.0" encoding="UTF-8"?>
<svg width="13px" height="14px" viewBox="0 0 13 14" version="1.1" xmlns="http://www.w3.org/2000/svg" xmlns:xlink="http://www.w3.org/1999/xlink">
    <!-- Generator: Sketch 62 (91390) - https://sketch.com -->
    <title>ic_delete</title>
    <desc>Created with Sketch.</desc>
    <g id="Design-System-" stroke="none" stroke-width="1" fill="none" fill-rule="evenodd">
        <g id="Iconography" transform="translate(-322.000000, -646.000000)">
            <g id="ic_delete" transform="translate(318.000000, 643.000000)">
                <g id="delete">
                    <rect id="Rectangle" fill-opacity="0" fill="#FFFFFF" x="0" y="0" width="20" height="20"></rect>
                    <g transform="translate(4.000000, 3.000000)" fill="#0D4DCE" fill-rule="nonzero" id="Shape">
                        <path d="M7.328125,11.375 L7.984375,11.375 C8.16559343,11.375 8.3125,11.2280934 8.3125,11.046875 L8.3125,5.140625 C8.3125,4.95940657 8.16559343,4.8125 7.984375,4.8125 L7.328125,4.8125 C7.14690657,4.8125 7,4.95940657 7,5.140625 L7,11.046875 C7,11.2280934 7.14690657,11.375 7.328125,11.375 Z M11.8125,2.1875 L9.55910156,2.1875 L8.62941406,0.637109375 C8.39208438,0.241651342 7.96460597,-0.000219638917 7.50339844,-1.49460317e-07 L4.74660156,-1.49460317e-07 C4.28558896,-1.49460317e-07 3.85836222,0.241818554 3.62113281,0.637109375 L2.69089844,2.1875 L0.4375,2.1875 C0.195875422,2.1875 0,2.38337542 0,2.625 L0,3.0625 C0,3.30412458 0.195875422,3.49999985 0.4375,3.49999985 L0.875,3.49999985 L0.875,12.6875 C0.875,13.4123737 1.46262627,13.9999999 2.1875,13.9999999 L10.0625,13.9999999 C10.7873737,13.9999999 11.375,13.4123737 11.375,12.6875 L11.375,3.49999985 L11.8125,3.49999985 C12.0541246,3.49999985 12.25,3.30412458 12.25,3.0625 L12.25,2.625 C12.25,2.38337542 12.0541246,2.1875 11.8125,2.1875 Z M4.69875,1.39207031 C4.72849573,1.34255961 4.78208484,1.31233784 4.83984375,1.31249935 L7.41015625,1.31249935 C7.46781776,1.31243411 7.52128091,1.34264338 7.55097656,1.39207031 L8.02839844,2.1875 L4.22160156,2.1875 L4.69875,1.39207031 Z M10.0625,12.6875 L2.1875,12.6875 L2.1875,3.5 L10.0625,3.5 L10.0625,12.6875 Z M4.265625,11.375 L4.921875,11.375 C5.10309343,11.375 5.25,11.2280934 5.25,11.046875 L5.25,5.140625 C5.25,4.95940657 5.10309343,4.8125 4.921875,4.8125 L4.265625,4.8125 C4.08440657,4.8125 3.9375,4.95940657 3.9375,5.140625 L3.9375,11.046875 C3.9375,11.2280934 4.08440657,11.375 4.265625,11.375 Z"></path>
                    </g>
                </g>
            </g>
        </g>
    </g>
</svg>