<?xml version="1.0" encoding="UTF-8"?>
<svg width="14px" height="14px" viewBox="0 0 14 14" version="1.1" xmlns="http://www.w3.org/2000/svg" xmlns:xlink="http://www.w3.org/1999/xlink">
    <!-- Generator: Sketch 62 (91390) - https://sketch.com -->
    <title>Close_keyphrase</title>
    <desc>Created with Sketch.</desc>
    <g id="Design-System-" stroke="none" stroke-width="1" fill="none" fill-rule="evenodd">
        <g id="Iconography" transform="translate(-514.000000, -861.000000)" fill="#004660" fill-rule="nonzero">
            <g id="Close_keyphrase" transform="translate(514.000000, 861.000000)">
                <path d="M7,0 C3.13306452,0 0,3.13306452 0,7 C0,10.8669355 3.13306452,14 7,14 C10.8669355,14 14,10.8669355 14,7 C14,3.13306452 10.8669355,0 7,0 Z M10.4322581,8.8375 C10.5649194,8.97016129 10.5649194,9.18467742 10.4322581,9.31733871 L9.31451613,10.4322581 C9.18185484,10.5649194 8.96733871,10.5649194 8.83467742,10.4322581 L7,8.58064516 L5.1625,10.4322581 C5.02983871,10.5649194 4.81532258,10.5649194 4.68266129,10.4322581 L3.56774194,9.31451613 C3.43508065,9.18185484 3.43508065,8.96733871 3.56774194,8.83467742 L5.41935484,7 L3.56774194,5.1625 C3.43508065,5.02983871 3.43508065,4.81532258 3.56774194,4.68266129 L4.68548387,3.56491935 C4.81814516,3.43225806 5.03266129,3.43225806 5.16532258,3.56491935 L7,5.41935484 L8.8375,3.56774194 C8.97016129,3.43508065 9.18467742,3.43508065 9.31733871,3.56774194 L10.4350806,4.68548387 C10.5677419,4.81814516 10.5677419,5.03266129 10.4350806,5.16532258 L8.58064516,7 L10.4322581,8.8375 Z"></path>
            </g>
        </g>
    </g>
</svg>