<?xml version="1.0" encoding="UTF-8"?>
<svg width="14px" height="14px" viewBox="0 0 14 14" version="1.1" xmlns="http://www.w3.org/2000/svg" xmlns:xlink="http://www.w3.org/1999/xlink">
    <!-- Generator: Sketch 62 (91390) - https://sketch.com -->
    <title>ic_edit</title>
    <desc>Created with Sketch.</desc>
    <g id="Design-System-" stroke="none" stroke-width="1" fill="none" fill-rule="evenodd">
        <g id="Iconography" transform="translate(-225.000000, -646.000000)">
            <g id="ic_edit" transform="translate(222.000000, 643.000000)">
                <g id="edit">
                    <rect id="Rectangle" fill-opacity="0" fill="#FFFFFF" x="0" y="0" width="20" height="20"></rect>
                    <g transform="translate(3.000000, 3.000000)" fill="#0D4DCE" fill-rule="nonzero" id="Shape">
                        <path d="M13.4424336,2.01318359 L11.9696719,0.541023438 C11.2483984,-0.180277344 10.080875,-0.180386719 9.3594375,0.540996094 L0.681132812,9.16258984 L0.00899609375,13.2366992 C-0.0641484375,13.6800781 0.319839844,14.0641484 0.763328125,13.9910312 L4.83741016,13.3188672 L13.4596055,4.6405625 C14.1795664,3.92057422 14.1864297,2.75715234 13.4424336,2.01318359 Z M3.29885937,8.2578125 L7.95437891,3.63248047 L10.3674922,6.04559375 L5.7421875,10.7011133 L5.7421875,9.5703125 L4.4296875,9.5703125 L4.4296875,8.2578125 L3.29885937,8.2578125 Z M2.24579687,12.5270469 L1.47298047,11.7542305 L1.80493359,9.74208594 L2.30805859,9.2421875 L3.4453125,9.2421875 L3.4453125,10.5546875 L4.7578125,10.5546875 L4.7578125,11.6919141 L4.25791406,12.1950664 L2.24579687,12.5270469 L2.24579687,12.5270469 Z M12.608668,3.78981641 L12.6072734,3.79121094 L12.6058789,3.79260547 L11.2925586,5.11451172 L8.88548828,2.70744141 L10.2073945,1.39412109 L10.2087617,1.39275391 L10.2101289,1.39138672 C10.4602422,1.14130078 10.8657773,1.13821094 11.1189258,1.39135937 L12.5914961,2.86392969 C12.8615977,3.13400391 12.8632656,3.53519141 12.608668,3.78981641 L12.608668,3.78981641 Z"></path>
                    </g>
                </g>
            </g>
        </g>
    </g>
</svg>