<?xml version="1.0" encoding="UTF-8"?>
<svg width="4px" height="14px" viewBox="0 0 4 14" version="1.1" xmlns="http://www.w3.org/2000/svg" xmlns:xlink="http://www.w3.org/1999/xlink">
    <!-- Generator: Sketch 62 (91390) - https://sketch.com -->
    <title>ic_more_options</title>
    <desc>Created with Sketch.</desc>
    <g id="Design-System-" stroke="none" stroke-width="1" fill="none" fill-rule="evenodd">
        <g id="Iconography" transform="translate(-422.000000, -738.000000)">
            <g id="ic_more_options" transform="translate(414.000000, 735.000000)">
                <g id="options">
                    <rect id="Rectangle" fill-opacity="0" fill="#FFFFFF" x="0" y="0" width="20" height="20"></rect>
                    <g transform="translate(8.000000, 3.000000)" fill="#0D4DCE" fill-rule="nonzero" id="Shape">
                        <path d="M1.68,5.32 C2.6075,5.32 3.36,6.0725 3.36,7 C3.36,7.9275 2.6075,8.68 1.68,8.68 C0.7525,8.68 2.91544566e-13,7.9275 2.91544566e-13,7 C2.91544566e-13,6.0725 0.7525,5.32 1.68,5.32 Z M2.91544566e-13,1.68 C2.91544566e-13,2.6075 0.7525,3.36 1.68,3.36 C2.6075,3.36 3.36,2.6075 3.36,1.68 C3.36,0.7525 2.6075,0 1.68,0 C0.7525,0 2.91544566e-13,0.7525 2.91544566e-13,1.68 Z M2.91544566e-13,12.32 C2.91544566e-13,13.2475 0.7525,14 1.68,14 C2.6075,14 3.36,13.2475 3.36,12.32 C3.36,11.3925 2.6075,10.64 1.68,10.64 C0.7525,10.64 2.91544566e-13,11.3925 2.91544566e-13,12.32 Z"></path>
                    </g>
                </g>
            </g>
        </g>
    </g>
</svg>