<?xml version="1.0" encoding="UTF-8"?>
<svg width="12px" height="12px" viewBox="0 0 12 12" version="1.1" xmlns="http://www.w3.org/2000/svg" xmlns:xlink="http://www.w3.org/1999/xlink">
    <!-- Generator: Sketch 62 (91390) - https://sketch.com -->
    <title>aws_lambda</title>
    <desc>Created with Sketch.</desc>
    <g id="Design-System-" stroke="none" stroke-width="1" fill="none" fill-rule="evenodd">
        <g id="Iconography" transform="translate(-515.000000, -625.000000)">
            <g id="aws_lambda" transform="translate(510.000000, 621.000000)">
                <rect id="Rectangle" fill-opacity="0" fill="#FFFFFF" x="0" y="0" width="20" height="20"></rect>
                <path d="M16.7857143,14.7142857 L14.8327679,14.7142857 L9.92348214,4.48616071 C9.78075795,4.18903718 9.48033921,4 9.15071429,4 L5.21428571,4 C5.09589286,4 5,4.09589286 5,4.21428571 L5,5.07142857 C5,5.18982143 5.09589286,5.28571429 5.21428571,5.28571429 L8.88151786,5.28571429 L9.12473214,5.7925 L5.03508929,15.4026786 C4.91401786,15.6852679 5.12133929,16 5.42910714,16 L5.89544643,16 C6.066875,16 6.22169643,15.8979464 6.28946429,15.7401786 L9.87901786,7.36428571 L13.7908036,15.5138393 C13.9334674,15.8110167 14.2339241,16 14.5635714,16 L16.7857143,16 C16.9041071,16 17,15.9041071 17,15.7857143 L17,14.9285714 C17,14.8101786 16.9041071,14.7142857 16.7857143,14.7142857 Z" id="Path" fill="#727588" fill-rule="nonzero"></path>
            </g>
        </g>
    </g>
</svg>