<?xml version="1.0" encoding="UTF-8"?>
<svg width="380px" height="9px" viewBox="0 0 380 9" version="1.1" xmlns="http://www.w3.org/2000/svg" xmlns:xlink="http://www.w3.org/1999/xlink">
    <!-- Generator: Sketch 63.1 (92452) - https://sketch.com -->
    <title>Pattern_Topics</title>
    <desc>Created with Sketch.</desc>
    <defs>
        <rect id="path-1" x="0" y="0.592306162" width="380" height="8"></rect>
    </defs>
    <g id="Playbooks" stroke="none" stroke-width="1" fill="none" fill-rule="evenodd">
        <g id="Pattern_Topics">
            <mask id="mask-2" fill="white">
                <use xlink:href="#path-1"></use>
            </mask>
            <use id="Mask" fill="#4A82F1" xlink:href="#path-1"></use>
            <g id="hashtag" opacity="0.8" mask="url(#mask-2)">
                <g transform="translate(190.706947, 4.506272) rotate(-17.000000) translate(-190.706947, -4.506272) translate(13.206947, -53.493728)" id="Hashtags">
                    <g transform="translate(-0.000002, 0.000000)">
                        <path d="M7.86905554,2.68051786 L7.99660911,1.96623214 C8.02005554,1.83489286 7.9190734,1.71428571 7.78566268,1.71428571 L6.44976983,1.71428571 L6.71089483,0.251946429 C6.73434125,0.120607143 6.63335911,2.27373675e-13 6.4999484,2.27373675e-13 L5.77437697,2.27373675e-13 C5.67055958,2.27373675e-13 5.58167645,0.0744235489 5.56343054,0.176625 L5.28884125,1.71428571 L3.52750197,1.71428571 L3.78862697,0.251946429 C3.81209125,0.120607143 3.71110911,2.27373675e-13 3.57768054,2.27373675e-13 L2.85210911,2.27373675e-13 C2.74829173,2.27373675e-13 2.65940859,0.0744235489 2.64116268,0.176625 L2.3665734,1.71428571 L0.954144826,1.71428571 C0.850327439,1.7142876 0.761444303,1.78870926 0.743198397,1.89091071 L0.615644826,2.60519643 C0.592198397,2.73653571 0.69318054,2.85714286 0.826591254,2.85714286 L2.16248411,2.85714286 L1.7543234,5.14285714 L0.341894826,5.14285714 C0.238077439,5.14285903 0.149194303,5.21728069 0.130948397,5.31948214 L0.00339482553,6.03376786 C-0.020051603,6.16510714 0.0809305398,6.28571429 0.214341254,6.28571429 L1.55023411,6.28571429 L1.28910911,7.74805357 C1.26566268,7.87939286 1.36664483,8 1.50005554,8 L2.22562697,8 C2.32944435,8 2.41832749,7.92557645 2.4365734,7.823375 L2.71118054,6.28571429 L4.47250197,6.28571429 L4.21137697,7.74805357 C4.18791268,7.87939286 4.28889483,8 4.4223234,8 L5.14789483,8 C5.25171221,8 5.34059535,7.92557645 5.35884125,7.823375 L5.63343054,6.28571429 L7.04585911,6.28571429 C7.1496765,6.2857124 7.23855963,6.21129074 7.25680554,6.10908929 L7.38435911,5.39480357 C7.40780554,5.26346429 7.3068234,5.14285714 7.17341268,5.14285714 L5.83751983,5.14285714 L6.24568054,2.85714286 L7.65810911,2.85714286 C7.7619265,2.85714097 7.85080963,2.78271931 7.86905554,2.68051786 L7.86905554,2.68051786 Z M4.67659125,5.14285714 L2.91526983,5.14285714 L3.32343054,2.85714286 L5.08475197,2.85714286 L4.67659125,5.14285714 Z" id="Shape" fill="#8AAEF5" fill-rule="nonzero"></path>
                        <path d="M38.8423691,14.2413936 L38.9699226,13.5271079 C38.9933691,13.3957686 38.8923869,13.2751615 38.7589762,13.2751615 L37.4230834,13.2751615 L37.6842084,11.8128222 C37.7076548,11.6814829 37.6066726,11.5608758 37.4732619,11.5608758 L36.7476905,11.5608758 C36.6438731,11.5608758 36.55499,11.6352993 36.5367441,11.7375008 L36.2621548,13.2751615 L34.5008155,13.2751615 L34.7619405,11.8128222 C34.7854048,11.6814829 34.6844226,11.5608758 34.5509941,11.5608758 L33.8254226,11.5608758 C33.7216053,11.5608758 33.6327221,11.6352993 33.6144762,11.7375008 L33.3398869,13.2751615 L31.9274584,13.2751615 C31.823641,13.2751634 31.7347578,13.349585 31.7165119,13.4517865 L31.5889584,14.1660722 C31.5655119,14.2974115 31.6664941,14.4180186 31.7999048,14.4180186 L33.1357976,14.4180186 L32.7276369,16.7037329 L31.3152084,16.7037329 C31.211391,16.7037348 31.1225078,16.7781565 31.1042619,16.8803579 L30.9767084,17.5946436 C30.9532619,17.7259829 31.0542441,17.8465901 31.1876548,17.8465901 L32.5235476,17.8465901 L32.2624226,19.3089293 C32.2389762,19.4402686 32.3399584,19.5608758 32.4733691,19.5608758 L33.1989405,19.5608758 C33.3027579,19.5608758 33.391641,19.4864522 33.4098869,19.3842508 L33.6844941,17.8465901 L35.4458155,17.8465901 L35.1846905,19.3089293 C35.1612262,19.4402686 35.2622084,19.5608758 35.3956369,19.5608758 L36.1212084,19.5608758 C36.2250257,19.5608758 36.3139089,19.4864522 36.3321548,19.3842508 L36.6067441,17.8465901 L38.0191726,17.8465901 C38.12299,17.8465882 38.2118732,17.7721665 38.2301191,17.6699651 L38.3576726,16.9556793 C38.3811191,16.8243401 38.2801369,16.7037329 38.1467262,16.7037329 L36.8108334,16.7037329 L37.2189941,14.4180186 L38.6314226,14.4180186 C38.73524,14.4180167 38.8241232,14.3435951 38.8423691,14.2413936 L38.8423691,14.2413936 Z M35.6499048,16.7037329 L33.8885834,16.7037329 L34.2967441,14.4180186 L36.0580655,14.4180186 L35.6499048,16.7037329 Z" id="Shape" fill="#8AAEF5" fill-rule="nonzero" transform="translate(34.973316, 15.560876) rotate(20.000000) translate(-34.973316, -15.560876) "></path>
                        <path d="M304.890047,95.5803316 L305.017601,94.8660459 C305.041047,94.7347066 304.940065,94.6140994 304.806654,94.6140994 L303.470762,94.6140994 L303.731887,93.1517602 C303.755333,93.0204209 303.654351,92.8998137 303.52094,92.8998137 L302.795369,92.8998137 C302.691551,92.8998137 302.602668,92.9742373 302.584422,93.0764387 L302.309833,94.6140994 L300.548494,94.6140994 L300.809619,93.1517602 C300.833083,93.0204209 300.732101,92.8998137 300.598672,92.8998137 L299.873101,92.8998137 C299.769283,92.8998137 299.6804,92.9742373 299.662154,93.0764387 L299.387565,94.6140994 L297.975137,94.6140994 C297.871319,94.6141013 297.782436,94.688523 297.76419,94.7907244 L297.636637,95.5050102 C297.61319,95.6363494 297.714172,95.7569566 297.847583,95.7569566 L299.183476,95.7569566 L298.775315,98.0426709 L297.362887,98.0426709 C297.259069,98.0426728 297.170186,98.1170944 297.15194,98.2192959 L297.024387,98.9335816 C297.00094,99.0649209 297.101922,99.185528 297.235333,99.185528 L298.571226,99.185528 L298.310101,100.647867 C298.286654,100.779207 298.387637,100.899814 298.521047,100.899814 L299.246619,100.899814 C299.350436,100.899814 299.439319,100.82539 299.457565,100.723189 L299.732172,99.185528 L301.493494,99.185528 L301.232369,100.647867 C301.208904,100.779207 301.309887,100.899814 301.443315,100.899814 L302.168887,100.899814 C302.272704,100.899814 302.361587,100.82539 302.379833,100.723189 L302.654422,99.185528 L304.066851,99.185528 C304.170668,99.1855261 304.259551,99.1111045 304.277797,99.008903 L304.405351,98.2946173 C304.428797,98.163278 304.327815,98.0426709 304.194404,98.0426709 L302.858512,98.0426709 L303.266672,95.7569566 L304.679101,95.7569566 C304.782918,95.7569547 304.871801,95.682533 304.890047,95.5803316 L304.890047,95.5803316 Z M301.697583,98.0426709 L299.936262,98.0426709 L300.344422,95.7569566 L302.105744,95.7569566 L301.697583,98.0426709 Z" id="Shape" fill="#8AAEF5" fill-rule="nonzero" transform="translate(301.020994, 96.899814) rotate(20.000000) translate(-301.020994, -96.899814) "></path>
                        <path d="M69.2309392,27.7148789 L69.3584928,27.0005932 C69.3819392,26.8692539 69.2809571,26.7486468 69.1475463,26.7486468 L67.8116535,26.7486468 L68.0727785,25.2863075 C68.0962249,25.1549682 67.9952428,25.034361 67.8618321,25.034361 L67.1362606,25.034361 C67.0324432,25.034361 66.9435601,25.1087846 66.9253142,25.210986 L66.6507249,26.7486468 L64.8893856,26.7486468 L65.1505106,25.2863075 C65.1739749,25.1549682 65.0729928,25.034361 64.9395642,25.034361 L64.2139928,25.034361 C64.1101754,25.034361 64.0212923,25.1087846 64.0030463,25.210986 L63.7284571,26.7486468 L62.3160285,26.7486468 C62.2122111,26.7486486 62.123328,26.8230703 62.1050821,26.9252718 L61.9775285,27.6395575 C61.9540821,27.7708968 62.0550642,27.8915039 62.1884749,27.8915039 L63.5243678,27.8915039 L63.1162071,30.1772182 L61.7037785,30.1772182 C61.5999611,30.1772201 61.511078,30.2516417 61.4928321,30.3538432 L61.3652785,31.0681289 C61.3418321,31.1994682 61.4428142,31.3200753 61.5762249,31.3200753 L62.9121178,31.3200753 L62.6509928,32.7824146 C62.6275463,32.9137539 62.7285285,33.034361 62.8619392,33.034361 L63.5875106,33.034361 C63.691328,33.034361 63.7802112,32.9599375 63.7984571,32.857736 L64.0730642,31.3200753 L65.8343856,31.3200753 L65.5732606,32.7824146 C65.5497963,32.9137539 65.6507785,33.034361 65.7842071,33.034361 L66.5097785,33.034361 C66.6135959,33.034361 66.702479,32.9599375 66.7207249,32.857736 L66.9953142,31.3200753 L68.4077428,31.3200753 C68.5115602,31.3200734 68.6004433,31.2456518 68.6186892,31.1434503 L68.7462428,30.4291646 C68.7696892,30.2978253 68.6687071,30.1772182 68.5352963,30.1772182 L67.1994035,30.1772182 L67.6075642,27.8915039 L69.0199928,27.8915039 C69.1238102,27.891502 69.2126933,27.8170804 69.2309392,27.7148789 L69.2309392,27.7148789 Z M66.0384749,30.1772182 L64.2771535,30.1772182 L64.6853142,27.8915039 L66.4466356,27.8915039 L66.0384749,30.1772182 Z" id="Shape" fill="#8AAEF5" fill-rule="nonzero" transform="translate(65.361886, 29.034361) rotate(36.000000) translate(-65.361886, -29.034361) "></path>
                        <path d="M335.278617,109.053817 L335.406171,108.339531 C335.429617,108.208192 335.328635,108.087585 335.195225,108.087585 L333.859332,108.087585 L334.120457,106.625245 C334.143903,106.493906 334.042921,106.373299 333.90951,106.373299 L333.183939,106.373299 C333.080121,106.373299 332.991238,106.447723 332.972992,106.549924 L332.698403,108.087585 L330.937064,108.087585 L331.198189,106.625245 C331.221653,106.493906 331.120671,106.373299 330.987242,106.373299 L330.261671,106.373299 C330.157854,106.373299 330.06897,106.447723 330.050725,106.549924 L329.776135,108.087585 L328.363707,108.087585 C328.259889,108.087587 328.171006,108.162008 328.15276,108.26421 L328.025207,108.978495 C328.00176,109.109835 328.102742,109.230442 328.236153,109.230442 L329.572046,109.230442 L329.163885,111.516156 L327.751457,111.516156 C327.647639,111.516158 327.558756,111.59058 327.54051,111.692781 L327.412957,112.407067 C327.38951,112.538406 327.490492,112.659013 327.623903,112.659013 L328.959796,112.659013 L328.698671,114.121353 C328.675225,114.252692 328.776207,114.373299 328.909617,114.373299 L329.635189,114.373299 C329.739006,114.373299 329.827889,114.298875 329.846135,114.196674 L330.120742,112.659013 L331.882064,112.659013 L331.620939,114.121353 C331.597475,114.252692 331.698457,114.373299 331.831885,114.373299 L332.557457,114.373299 C332.661274,114.373299 332.750157,114.298875 332.768403,114.196674 L333.042992,112.659013 L334.455421,112.659013 C334.559238,112.659011 334.648122,112.58459 334.666367,112.482388 L334.793921,111.768103 C334.817367,111.636763 334.716385,111.516156 334.582975,111.516156 L333.247082,111.516156 L333.655242,109.230442 L335.067671,109.230442 C335.171488,109.23044 335.260372,109.156018 335.278617,109.053817 L335.278617,109.053817 Z M332.086153,111.516156 L330.324832,111.516156 L330.732992,109.230442 L332.494314,109.230442 L332.086153,111.516156 Z" id="Shape" fill="#8AAEF5" fill-rule="nonzero" transform="translate(331.409564, 110.373299) rotate(36.000000) translate(-331.409564, -110.373299) "></path>
                        <path d="M87.8270937,25.0347598 L87.9546473,24.3204741 C87.9780937,24.1891348 87.8771116,24.0685277 87.7437008,24.0685277 L86.407808,24.0685277 L86.668933,22.6061884 C86.6923794,22.4748491 86.5913973,22.354242 86.4579866,22.354242 L85.7324151,22.354242 C85.6285977,22.354242 85.5397146,22.4286655 85.5214687,22.530867 L85.2468794,24.0685277 L83.4855401,24.0685277 L83.7466651,22.6061884 C83.7701294,22.4748491 83.6691473,22.354242 83.5357187,22.354242 L82.8101473,22.354242 C82.7063299,22.354242 82.6174467,22.4286655 82.5992008,22.530867 L82.3246116,24.0685277 L80.912183,24.0685277 C80.8083656,24.0685296 80.7194825,24.1429512 80.7012366,24.2451527 L80.573683,24.9594384 C80.5502366,25.0907777 80.6512187,25.2113848 80.7846294,25.2113848 L82.1205223,25.2113848 L81.7123616,27.4970991 L80.299933,27.4970991 C80.1961156,27.497101 80.1072325,27.5715227 80.0889866,27.6737241 L79.961433,28.3880098 C79.9379866,28.5193491 80.0389687,28.6399563 80.1723794,28.6399563 L81.5082723,28.6399563 L81.2471473,30.1022956 C81.2237008,30.2336348 81.324683,30.354242 81.4580937,30.354242 L82.1836651,30.354242 C82.2874825,30.354242 82.3763656,30.2798184 82.3946116,30.177617 L82.6692187,28.6399563 L84.4305401,28.6399563 L84.1694151,30.1022956 C84.1459508,30.2336348 84.246933,30.354242 84.3803616,30.354242 L85.105933,30.354242 C85.2097504,30.354242 85.2986335,30.2798184 85.3168794,30.177617 L85.5914687,28.6399563 L87.0038973,28.6399563 C87.1077147,28.6399544 87.1965978,28.5655327 87.2148437,28.4633313 L87.3423973,27.7490456 C87.3658437,27.6177063 87.2648616,27.4970991 87.1314508,27.4970991 L85.795558,27.4970991 L86.2037187,25.2113848 L87.6161473,25.2113848 C87.7199647,25.211383 87.8088478,25.1369613 87.8270937,25.0347598 L87.8270937,25.0347598 Z M84.6346294,27.4970991 L82.873308,27.4970991 L83.2814687,25.2113848 L85.0427901,25.2113848 L84.6346294,27.4970991 Z" id="Shape" fill="#8AAEF5" fill-rule="nonzero"></path>
                        <path d="M353.874772,106.373698 L354.002325,105.659412 C354.025772,105.528073 353.92479,105.407466 353.791379,105.407466 L352.455486,105.407466 L352.716611,103.945126 C352.740058,103.813787 352.639075,103.69318 352.505665,103.69318 L351.780093,103.69318 C351.676276,103.69318 351.587393,103.767603 351.569147,103.869805 L351.294558,105.407466 L349.533218,105.407466 L349.794343,103.945126 C349.817808,103.813787 349.716825,103.69318 349.583397,103.69318 L348.857825,103.69318 C348.754008,103.69318 348.665125,103.767603 348.646879,103.869805 L348.37229,105.407466 L346.959861,105.407466 C346.856044,105.407468 346.767161,105.481889 346.748915,105.584091 L346.621361,106.298376 C346.597915,106.429716 346.698897,106.550323 346.832308,106.550323 L348.1682,106.550323 L347.76004,108.836037 L346.347611,108.836037 C346.243794,108.836039 346.154911,108.910461 346.136665,109.012662 L346.009111,109.726948 C345.985665,109.858287 346.086647,109.978894 346.220058,109.978894 L347.55595,109.978894 L347.294825,111.441234 C347.271379,111.572573 347.372361,111.69318 347.505772,111.69318 L348.231343,111.69318 C348.335161,111.69318 348.424044,111.618756 348.44229,111.516555 L348.716897,109.978894 L350.478218,109.978894 L350.217093,111.441234 C350.193629,111.572573 350.294611,111.69318 350.42804,111.69318 L351.153611,111.69318 C351.257429,111.69318 351.346312,111.618756 351.364558,111.516555 L351.639147,109.978894 L353.051575,109.978894 C353.155393,109.978892 353.244276,109.904471 353.262522,109.802269 L353.390075,109.087984 C353.413522,108.956644 353.31254,108.836037 353.179129,108.836037 L351.843236,108.836037 L352.251397,106.550323 L353.663825,106.550323 C353.767643,106.550321 353.856526,106.475899 353.874772,106.373698 L353.874772,106.373698 Z M350.682308,108.836037 L348.920986,108.836037 L349.329147,106.550323 L351.090468,106.550323 L350.682308,108.836037 Z" id="Shape" fill="#8AAEF5" fill-rule="nonzero"></path>
                        <path d="M116.010683,38.8798065 L116.138236,38.1655207 C116.161683,38.0341815 116.0607,37.9135743 115.92729,37.9135743 L114.591397,37.9135743 L114.852522,36.451235 C114.875968,36.3198957 114.774986,36.1992886 114.641575,36.1992886 L113.916004,36.1992886 C113.812187,36.1992886 113.723304,36.2737122 113.705058,36.3759136 L113.430468,37.9135743 L111.669129,37.9135743 L111.930254,36.451235 C111.953718,36.3198957 111.852736,36.1992886 111.719308,36.1992886 L110.993736,36.1992886 C110.889919,36.1992886 110.801036,36.2737122 110.78279,36.3759136 L110.5082,37.9135743 L109.095772,37.9135743 C108.991955,37.9135762 108.903071,37.9879979 108.884825,38.0901993 L108.757272,38.804485 C108.733825,38.9358243 108.834808,39.0564315 108.968218,39.0564315 L110.304111,39.0564315 L109.89595,41.3421457 L108.483522,41.3421457 C108.379705,41.3421476 108.290821,41.4165693 108.272575,41.5187707 L108.145022,42.2330565 C108.121575,42.3643957 108.222558,42.4850029 108.355968,42.4850029 L109.691861,42.4850029 L109.430736,43.9473422 C109.40729,44.0786815 109.508272,44.1992886 109.641683,44.1992886 L110.367254,44.1992886 C110.471071,44.1992886 110.559955,44.1248651 110.5782,44.0226636 L110.852808,42.4850029 L112.614129,42.4850029 L112.353004,43.9473422 C112.32954,44.0786815 112.430522,44.1992886 112.56395,44.1992886 L113.289522,44.1992886 C113.393339,44.1992886 113.482222,44.1248651 113.500468,44.0226636 L113.775058,42.4850029 L115.187486,42.4850029 C115.291304,42.485001 115.380187,42.4105793 115.398433,42.3083779 L115.525986,41.5940922 C115.549433,41.4627529 115.44845,41.3421457 115.31504,41.3421457 L113.979147,41.3421457 L114.387308,39.0564315 L115.799736,39.0564315 C115.903554,39.0564296 115.992437,38.9820079 116.010683,38.8798065 L116.010683,38.8798065 Z M112.818218,41.3421457 L111.056897,41.3421457 L111.465058,39.0564315 L113.226379,39.0564315 L112.818218,41.3421457 Z" id="Shape" fill="#8AAEF5" fill-rule="nonzero" transform="translate(112.141629, 40.199289) rotate(29.000000) translate(-112.141629, -40.199289) "></path>
                        <path d="M152.855817,44.9160358 L152.983371,44.20175 C153.006817,44.0704108 152.905835,43.9498036 152.772424,43.9498036 L151.436531,43.9498036 L151.697656,42.4874643 C151.721103,42.356125 151.620121,42.2355179 151.48671,42.2355179 L150.761139,42.2355179 C150.657321,42.2355179 150.568438,42.3099415 150.550192,42.4121429 L150.275603,43.9498036 L148.514264,43.9498036 L148.775389,42.4874643 C148.798853,42.356125 148.697871,42.2355179 148.564442,42.2355179 L147.838871,42.2355179 C147.735053,42.2355179 147.64617,42.3099415 147.627924,42.4121429 L147.353335,43.9498036 L145.940906,43.9498036 C145.837089,43.9498055 145.748206,44.0242272 145.72996,44.1264286 L145.602406,44.8407143 C145.57896,44.9720536 145.679942,45.0926608 145.813353,45.0926608 L147.149246,45.0926608 L146.741085,47.378375 L145.328656,47.378375 C145.224839,47.3783769 145.135956,47.4527986 145.11771,47.555 L144.990156,48.2692858 C144.96671,48.400625 145.067692,48.5212322 145.201103,48.5212322 L146.536996,48.5212322 L146.275871,49.9835715 C146.252424,50.1149108 146.353406,50.2355179 146.486817,50.2355179 L147.212389,50.2355179 C147.316206,50.2355179 147.405089,50.1610944 147.423335,50.0588929 L147.697942,48.5212322 L149.459264,48.5212322 L149.198139,49.9835715 C149.174674,50.1149108 149.275656,50.2355179 149.409085,50.2355179 L150.134656,50.2355179 C150.238474,50.2355179 150.327357,50.1610944 150.345603,50.0588929 L150.620192,48.5212322 L152.032621,48.5212322 C152.136438,48.5212303 152.225321,48.4468086 152.243567,48.3446072 L152.371121,47.6303215 C152.394567,47.4989822 152.293585,47.378375 152.160174,47.378375 L150.824281,47.378375 L151.232442,45.0926608 L152.644871,45.0926608 C152.748688,45.0926589 152.837571,45.0182372 152.855817,44.9160358 L152.855817,44.9160358 Z M149.663353,47.378375 L147.902031,47.378375 L148.310192,45.0926608 L150.071514,45.0926608 L149.663353,47.378375 Z" id="Shape" fill="#8AAEF5" fill-rule="nonzero"></path>
                        <path d="M165.896909,60.4057071 L166.024463,59.6914213 C166.047909,59.5600821 165.946927,59.4394749 165.813516,59.4394749 L164.477623,59.4394749 L164.738748,57.9771356 C164.762195,57.8457963 164.661213,57.7251892 164.527802,57.7251892 L163.802231,57.7251892 C163.698413,57.7251892 163.60953,57.7996127 163.591284,57.9018142 L163.316695,59.4394749 L161.555356,59.4394749 L161.816481,57.9771356 C161.839945,57.8457963 161.738963,57.7251892 161.605534,57.7251892 L160.879963,57.7251892 C160.776145,57.7251892 160.687262,57.7996127 160.669016,57.9018142 L160.394427,59.4394749 L158.981998,59.4394749 C158.878181,59.4394768 158.789298,59.5138985 158.771052,59.6160999 L158.643498,60.3303856 C158.620052,60.4617249 158.721034,60.5823321 158.854445,60.5823321 L160.190338,60.5823321 L159.782177,62.8680463 L158.369748,62.8680463 C158.265931,62.8680482 158.177048,62.9424699 158.158802,63.0446713 L158.031248,63.7589571 C158.007802,63.8902963 158.108784,64.0109035 158.242195,64.0109035 L159.578088,64.0109035 L159.316963,65.4732428 C159.293516,65.6045821 159.394498,65.7251892 159.527909,65.7251892 L160.253481,65.7251892 C160.357298,65.7251892 160.446181,65.6507656 160.464427,65.5485642 L160.739034,64.0109035 L162.500356,64.0109035 L162.239231,65.4732428 C162.215766,65.6045821 162.316748,65.7251892 162.450177,65.7251892 L163.175748,65.7251892 C163.279566,65.7251892 163.368449,65.6507656 163.386695,65.5485642 L163.661284,64.0109035 L165.073713,64.0109035 C165.17753,64.0109016 165.266413,63.9364799 165.284659,63.8342785 L165.412213,63.1199928 C165.435659,62.9886535 165.334677,62.8680463 165.201266,62.8680463 L163.865373,62.8680463 L164.273534,60.5823321 L165.685963,60.5823321 C165.78978,60.5823302 165.878663,60.5079085 165.896909,60.4057071 L165.896909,60.4057071 Z M162.704445,62.8680463 L160.943123,62.8680463 L161.351284,60.5823321 L163.112606,60.5823321 L162.704445,62.8680463 Z" id="Shape" fill="#8AAEF5" fill-rule="nonzero" transform="translate(162.027856, 61.725189) rotate(15.000000) translate(-162.027856, -61.725189) "></path>
                        <path d="M195.343971,66.6978241 L195.471524,65.9835383 C195.494971,65.8521991 195.393989,65.7315919 195.260578,65.7315919 L193.924685,65.7315919 L194.18581,64.2692526 C194.209256,64.1379133 194.108274,64.0173062 193.974864,64.0173062 L193.249292,64.0173062 C193.145475,64.0173062 193.056592,64.0917298 193.038346,64.1939312 L192.763756,65.7315919 L191.002417,65.7315919 L191.263542,64.2692526 C191.287006,64.1379133 191.186024,64.0173062 191.052596,64.0173062 L190.327024,64.0173062 C190.223207,64.0173062 190.134324,64.0917298 190.116078,64.1939312 L189.841489,65.7315919 L188.42906,65.7315919 C188.325243,65.7315938 188.236359,65.8060155 188.218114,65.9082169 L188.09056,66.6225026 C188.067114,66.7538419 188.168096,66.8744491 188.301506,66.8744491 L189.637399,66.8744491 L189.229239,69.1601633 L187.81681,69.1601633 C187.712993,69.1601652 187.624109,69.2345869 187.605864,69.3367883 L187.47831,70.0510741 C187.454864,70.1824133 187.555846,70.3030205 187.689256,70.3030205 L189.025149,70.3030205 L188.764024,71.7653598 C188.740578,71.8966991 188.84156,72.0173062 188.974971,72.0173062 L189.700542,72.0173062 C189.80436,72.0173062 189.893243,71.9428827 189.911489,71.8406812 L190.186096,70.3030205 L191.947417,70.3030205 L191.686292,71.7653598 C191.662828,71.8966991 191.76381,72.0173062 191.897239,72.0173062 L192.62281,72.0173062 C192.726627,72.0173062 192.815511,71.9428827 192.833756,71.8406812 L193.108346,70.3030205 L194.520774,70.3030205 C194.624592,70.3030186 194.713475,70.2285969 194.731721,70.1263955 L194.859274,69.4121098 C194.882721,69.2807705 194.781739,69.1601633 194.648328,69.1601633 L193.312435,69.1601633 L193.720596,66.8744491 L195.133024,66.8744491 C195.236842,66.8744472 195.325725,66.8000255 195.343971,66.6978241 L195.343971,66.6978241 Z M192.151506,69.1601633 L190.390185,69.1601633 L190.798346,66.8744491 L192.559667,66.8744491 L192.151506,69.1601633 Z" id="Shape" fill="#8AAEF5" fill-rule="nonzero" transform="translate(191.474917, 68.017306) rotate(-13.000000) translate(-191.474917, -68.017306) "></path>
                        <path d="M182.129703,51.7745774 L182.257257,51.0602917 C182.280703,50.9289524 182.179721,50.8083452 182.04631,50.8083452 L180.710417,50.8083452 L180.971542,49.346006 C180.994989,49.2146667 180.894007,49.0940595 180.760596,49.0940595 L180.035025,49.0940595 C179.931207,49.0940595 179.842324,49.1684831 179.824078,49.2706845 L179.549489,50.8083452 L177.78815,50.8083452 L178.049275,49.346006 C178.072739,49.2146667 177.971757,49.0940595 177.838328,49.0940595 L177.112757,49.0940595 C177.008939,49.0940595 176.920056,49.1684831 176.90181,49.2706845 L176.627221,50.8083452 L175.214792,50.8083452 C175.110975,50.8083471 175.022092,50.8827688 175.003846,50.9849702 L174.876292,51.699256 C174.852846,51.8305952 174.953828,51.9512024 175.087239,51.9512024 L176.423132,51.9512024 L176.014971,54.2369167 L174.602542,54.2369167 C174.498725,54.2369186 174.409842,54.3113402 174.391596,54.4135417 L174.264042,55.1278274 C174.240596,55.2591667 174.341578,55.3797738 174.474989,55.3797738 L175.810882,55.3797738 L175.549757,56.8421131 C175.52631,56.9734524 175.627292,57.0940595 175.760703,57.0940595 L176.486275,57.0940595 C176.590092,57.0940595 176.678975,57.019636 176.697221,56.9174345 L176.971828,55.3797738 L178.73315,55.3797738 L178.472025,56.8421131 C178.44856,56.9734524 178.549542,57.0940595 178.682971,57.0940595 L179.408542,57.0940595 C179.51236,57.0940595 179.601243,57.019636 179.619489,56.9174345 L179.894078,55.3797738 L181.306507,55.3797738 C181.410324,55.3797719 181.499207,55.3053503 181.517453,55.2031488 L181.645007,54.4888631 C181.668453,54.3575238 181.567471,54.2369167 181.43406,54.2369167 L180.098167,54.2369167 L180.506328,51.9512024 L181.918757,51.9512024 C182.022574,51.9512005 182.111457,51.8767788 182.129703,51.7745774 L182.129703,51.7745774 Z M178.937239,54.2369167 L177.175917,54.2369167 L177.584078,51.9512024 L179.3454,51.9512024 L178.937239,54.2369167 Z" id="Shape" fill="#8AAEF5" fill-rule="nonzero" transform="translate(178.260650, 53.094060) rotate(10.000000) translate(-178.260650, -53.094060) "></path>
                        <path d="M221.204206,71.040694 L221.331759,70.3264083 C221.355206,70.195069 221.254224,70.0744618 221.120813,70.0744618 L219.78492,70.0744618 L220.046045,68.6121226 C220.069491,68.4807833 219.968509,68.3601761 219.835099,68.3601761 L219.109527,68.3601761 C219.00571,68.3601761 218.916827,68.4345997 218.898581,68.5368011 L218.623991,70.0744618 L216.862652,70.0744618 L217.123777,68.6121226 C217.147241,68.4807833 217.046259,68.3601761 216.912831,68.3601761 L216.187259,68.3601761 C216.083442,68.3601761 215.994559,68.4345997 215.976313,68.5368011 L215.701724,70.0744618 L214.289295,70.0744618 C214.185478,70.0744637 214.096595,70.1488854 214.078349,70.2510868 L213.950795,70.9653726 C213.927349,71.0967118 214.028331,71.217319 214.161741,71.217319 L215.497634,71.217319 L215.089474,73.5030333 L213.677045,73.5030333 C213.573228,73.5030352 213.484345,73.5774568 213.466099,73.6796583 L213.338545,74.393944 C213.315099,74.5252833 213.416081,74.6458904 213.549491,74.6458904 L214.885384,74.6458904 L214.624259,76.1082297 C214.600813,76.239569 214.701795,76.3601761 214.835206,76.3601761 L215.560777,76.3601761 C215.664595,76.3601761 215.753478,76.2857526 215.771724,76.1835511 L216.046331,74.6458904 L217.807652,74.6458904 L217.546527,76.1082297 C217.523063,76.239569 217.624045,76.3601761 217.757474,76.3601761 L218.483045,76.3601761 C218.586862,76.3601761 218.675746,76.2857526 218.693991,76.1835511 L218.968581,74.6458904 L220.381009,74.6458904 C220.484827,74.6458885 220.57371,74.5714669 220.591956,74.4692654 L220.719509,73.7549797 C220.742956,73.6236404 220.641974,73.5030333 220.508563,73.5030333 L219.17267,73.5030333 L219.580831,71.217319 L220.993259,71.217319 C221.097077,71.2173171 221.18596,71.1428954 221.204206,71.040694 L221.204206,71.040694 Z M218.011741,73.5030333 L216.25042,73.5030333 L216.658581,71.217319 L218.419902,71.217319 L218.011741,73.5030333 Z" id="Shape" fill="#8AAEF5" fill-rule="nonzero"></path>
                        <path d="M239.215617,70.2731844 L239.34317,69.5588987 C239.366617,69.4275594 239.265635,69.3069523 239.132224,69.3069523 L237.796331,69.3069523 L238.057456,67.844613 C238.080903,67.7132737 237.97992,67.5926666 237.84651,67.5926666 L237.120938,67.5926666 C237.017121,67.5926666 236.928238,67.6670901 236.909992,67.7692916 L236.635403,69.3069523 L234.874063,69.3069523 L235.135188,67.844613 C235.158653,67.7132737 235.05767,67.5926666 234.924242,67.5926666 L234.19867,67.5926666 C234.094853,67.5926666 234.00597,67.6670901 233.987724,67.7692916 L233.713135,69.3069523 L232.300706,69.3069523 C232.196889,69.3069542 232.108006,69.3813758 232.08976,69.4835773 L231.962206,70.197863 C231.93876,70.3292023 232.039742,70.4498094 232.173153,70.4498094 L233.509045,70.4498094 L233.100885,72.7355237 L231.688456,72.7355237 C231.584639,72.7355256 231.495756,72.8099473 231.47751,72.9121487 L231.349956,73.6264344 C231.32651,73.7577737 231.427492,73.8783809 231.560903,73.8783809 L232.896795,73.8783809 L232.63567,75.3407201 C232.612224,75.4720594 232.713206,75.5926666 232.846617,75.5926666 L233.572188,75.5926666 C233.676006,75.5926666 233.764889,75.518243 233.783135,75.4160416 L234.057742,73.8783809 L235.819063,73.8783809 L235.557938,75.3407201 C235.534474,75.4720594 235.635456,75.5926666 235.768885,75.5926666 L236.494456,75.5926666 C236.598274,75.5926666 236.687157,75.518243 236.705403,75.4160416 L236.979992,73.8783809 L238.39242,73.8783809 C238.496238,73.878379 238.585121,73.8039573 238.603367,73.7017559 L238.73092,72.9874701 C238.754367,72.8561309 238.653385,72.7355237 238.519974,72.7355237 L237.184081,72.7355237 L237.592242,70.4498094 L239.00467,70.4498094 C239.108488,70.4498075 239.197371,70.3753859 239.215617,70.2731844 L239.215617,70.2731844 Z M236.023153,72.7355237 L234.261831,72.7355237 L234.669992,70.4498094 L236.431313,70.4498094 L236.023153,72.7355237 Z" id="Shape" fill="#8AAEF5" fill-rule="nonzero" transform="translate(235.346563, 71.592667) rotate(28.000000) translate(-235.346563, -71.592667) "></path>
                        <path d="M256.002738,83.7710566 L256.130292,83.0567709 C256.153738,82.9254316 256.052756,82.8048244 255.919345,82.8048244 L254.583453,82.8048244 L254.844578,81.3424851 C254.868024,81.2111459 254.767042,81.0905387 254.633631,81.0905387 L253.90806,81.0905387 C253.804242,81.0905387 253.715359,81.1649623 253.697113,81.2671637 L253.422524,82.8048244 L251.661185,82.8048244 L251.92231,81.3424851 C251.945774,81.2111459 251.844792,81.0905387 251.711363,81.0905387 L250.985792,81.0905387 C250.881975,81.0905387 250.793091,81.1649623 250.774845,81.2671637 L250.500256,82.8048244 L249.087828,82.8048244 C248.98401,82.8048263 248.895127,82.879248 248.876881,82.9814494 L248.749328,83.6957351 C248.725881,83.8270744 248.826863,83.9476816 248.960274,83.9476816 L250.296167,83.9476816 L249.888006,86.2333959 L248.475578,86.2333959 C248.37176,86.2333977 248.282877,86.3078194 248.264631,86.4100209 L248.137078,87.1243066 C248.113631,87.2556459 248.214613,87.376253 248.348024,87.376253 L249.683917,87.376253 L249.422792,88.8385923 C249.399345,88.9699316 249.500328,89.0905387 249.633738,89.0905387 L250.35931,89.0905387 C250.463127,89.0905387 250.55201,89.0161152 250.570256,88.9139137 L250.844863,87.376253 L252.606185,87.376253 L252.34506,88.8385923 C252.321595,88.9699316 252.422578,89.0905387 252.556006,89.0905387 L253.281578,89.0905387 C253.385395,89.0905387 253.474278,89.0161152 253.492524,88.9139137 L253.767113,87.376253 L255.179542,87.376253 C255.283359,87.3762511 255.372242,87.3018294 255.390488,87.199628 L255.518042,86.4853423 C255.541488,86.354003 255.440506,86.2333959 255.307095,86.2333959 L253.971203,86.2333959 L254.379363,83.9476816 L255.791792,83.9476816 C255.895609,83.9476797 255.984492,83.873258 256.002738,83.7710566 L256.002738,83.7710566 Z M252.810274,86.2333959 L251.048953,86.2333959 L251.457113,83.9476816 L253.218435,83.9476816 L252.810274,86.2333959 Z" id="Shape" fill="#8AAEF5" fill-rule="nonzero"></path>
                        <path d="M282.328522,86.5911977 L282.456076,85.876912 C282.479522,85.7455727 282.37854,85.6249655 282.24513,85.6249655 L280.909237,85.6249655 L281.170362,84.1626263 C281.193808,84.031287 281.092826,83.9106798 280.959415,83.9106798 L280.233844,83.9106798 C280.130026,83.9106798 280.041143,83.9851034 280.022897,84.0873048 L279.748308,85.6249655 L277.986969,85.6249655 L278.248094,84.1626263 C278.271558,84.031287 278.170576,83.9106798 278.037147,83.9106798 L277.311576,83.9106798 C277.207759,83.9106798 277.118875,83.9851034 277.10063,84.0873048 L276.82604,85.6249655 L275.413612,85.6249655 C275.309794,85.6249674 275.220911,85.6993891 275.202665,85.8015905 L275.075112,86.5158763 C275.051665,86.6472155 275.152647,86.7678227 275.286058,86.7678227 L276.621951,86.7678227 L276.21379,89.053537 L274.801362,89.053537 C274.697544,89.0535389 274.608661,89.1279605 274.590415,89.230162 L274.462862,89.9444477 C274.439415,90.075787 274.540397,90.1963941 274.673808,90.1963941 L276.009701,90.1963941 L275.748576,91.6587334 C275.72513,91.7900727 275.826112,91.9106798 275.959522,91.9106798 L276.685094,91.9106798 C276.788911,91.9106798 276.877794,91.8362563 276.89604,91.7340548 L277.170647,90.1963941 L278.931969,90.1963941 L278.670844,91.6587334 C278.64738,91.7900727 278.748362,91.9106798 278.88179,91.9106798 L279.607362,91.9106798 C279.711179,91.9106798 279.800062,91.8362563 279.818308,91.7340548 L280.092897,90.1963941 L281.505326,90.1963941 C281.609143,90.1963922 281.698026,90.1219706 281.716272,90.0197691 L281.843826,89.3054834 C281.867272,89.1741441 281.76629,89.053537 281.63288,89.053537 L280.296987,89.053537 L280.705147,86.7678227 L282.117576,86.7678227 C282.221393,86.7678208 282.310276,86.6933991 282.328522,86.5911977 L282.328522,86.5911977 Z M279.136058,89.053537 L277.374737,89.053537 L277.782897,86.7678227 L279.544219,86.7678227 L279.136058,89.053537 Z" id="Shape" fill="#8AAEF5" fill-rule="nonzero" transform="translate(278.459469, 87.910680) rotate(-20.000000) translate(-278.459469, -87.910680) "></path>
                    </g>
                </g>
            </g>
        </g>
    </g>
</svg>