<?xml version="1.0" encoding="UTF-8"?>
<svg width="380px" height="8px" viewBox="0 0 380 8" version="1.1" xmlns="http://www.w3.org/2000/svg" xmlns:xlink="http://www.w3.org/1999/xlink">
    <!-- Generator: Sketch 63.1 (92452) - https://sketch.com -->
    <title>Pattern_Themes</title>
    <desc>Created with Sketch.</desc>
    <defs>
        <rect id="path-1" x="0" y="0.702248831" width="380" height="8"></rect>
    </defs>
    <g id="Playbooks" stroke="none" stroke-width="1" fill="none" fill-rule="evenodd">
        <g id="Pattern_Themes" transform="translate(0.000000, -0.702249)">
            <mask id="mask-2" fill="white">
                <use xlink:href="#path-1"></use>
            </mask>
            <use id="Mask" fill="#4A82F1" xlink:href="#path-1"></use>
            <g id="Group-11" mask="url(#mask-2)">
                <g transform="translate(0.000000, -2.000000)">
                    <path d="M315.14668,3.43613281 L314.837695,3.12714844 C314.668164,2.95761719 314.389258,2.95761719 314.219727,3.12714844 L313.136914,4.20996094 L312.054102,3.12714844 C311.88457,2.95761719 311.605664,2.95761719 311.436133,3.12714844 L311.127148,3.43613281 C310.957617,3.60566406 310.957617,3.88457031 311.127148,4.05410156 L312.209961,5.13691406 L311.127148,6.21972656 C310.957617,6.38925781 310.957617,6.66816406 311.127148,6.83769531 L311.436133,7.14667969 C311.605664,7.31621094 311.88457,7.31621094 312.054102,7.14667969 L313.136914,6.06386719 L314.219727,7.14667969 C314.389258,7.31621094 314.668164,7.31621094 314.837695,7.14667969 L315.14668,6.83769531 C315.316211,6.66816406 315.316211,6.38925781 315.14668,6.21972656 L314.063867,5.13691406 L315.14668,4.05410156 C315.318945,3.88457031 315.318945,3.60566406 315.14668,3.43613281 Z" id="Path" stroke="none" fill="#8AAEF5" fill-rule="evenodd"></path>
                    <path d="M40.1466797,9.43613281 L39.8376953,9.12714844 C39.6681641,8.95761719 39.3892578,8.95761719 39.2197266,9.12714844 L38.1369141,10.2099609 L37.0541016,9.12714844 C36.8845703,8.95761719 36.6056641,8.95761719 36.4361328,9.12714844 L36.1271484,9.43613281 C35.9576172,9.60566406 35.9576172,9.88457031 36.1271484,10.0541016 L37.2099609,11.1369141 L36.1271484,12.2197266 C35.9576172,12.3892578 35.9576172,12.6681641 36.1271484,12.8376953 L36.4361328,13.1466797 C36.6056641,13.3162109 36.8845703,13.3162109 37.0541016,13.1466797 L38.1369141,12.0638672 L39.2197266,13.1466797 C39.3892578,13.3162109 39.6681641,13.3162109 39.8376953,13.1466797 L40.1466797,12.8376953 C40.3162109,12.6681641 40.3162109,12.3892578 40.1466797,12.2197266 L39.0638672,11.1369141 L40.1466797,10.0541016 C40.3189453,9.88457031 40.3189453,9.60566406 40.1466797,9.43613281 Z" id="Path" stroke="none" fill="#8AAEF5" fill-rule="evenodd"></path>
                    <path d="M332.14668,7.43613281 L331.837695,7.12714844 C331.668164,6.95761719 331.389258,6.95761719 331.219727,7.12714844 L330.136914,8.20996094 L329.054102,7.12714844 C328.88457,6.95761719 328.605664,6.95761719 328.436133,7.12714844 L328.127148,7.43613281 C327.957617,7.60566406 327.957617,7.88457031 328.127148,8.05410156 L329.209961,9.13691406 L328.127148,10.2197266 C327.957617,10.3892578 327.957617,10.6681641 328.127148,10.8376953 L328.436133,11.1466797 C328.605664,11.3162109 328.88457,11.3162109 329.054102,11.1466797 L330.136914,10.0638672 L331.219727,11.1466797 C331.389258,11.3162109 331.668164,11.3162109 331.837695,11.1466797 L332.14668,10.8376953 C332.316211,10.6681641 332.316211,10.3892578 332.14668,10.2197266 L331.063867,9.13691406 L332.14668,8.05410156 C332.318945,7.88457031 332.318945,7.60566406 332.14668,7.43613281 Z" id="Path" stroke="none" fill="#8AAEF5" fill-rule="evenodd"></path>
                    <path d="M66.1466797,7.43613281 L65.8376953,7.12714844 C65.6681641,6.95761719 65.3892578,6.95761719 65.2197266,7.12714844 L64.1369141,8.20996094 L63.0541016,7.12714844 C62.8845703,6.95761719 62.6056641,6.95761719 62.4361328,7.12714844 L62.1271484,7.43613281 C61.9576172,7.60566406 61.9576172,7.88457031 62.1271484,8.05410156 L63.2099609,9.13691406 L62.1271484,10.2197266 C61.9576172,10.3892578 61.9576172,10.6681641 62.1271484,10.8376953 L62.4361328,11.1466797 C62.6056641,11.3162109 62.8845703,11.3162109 63.0541016,11.1466797 L64.1369141,10.0638672 L65.2197266,11.1466797 C65.3892578,11.3162109 65.6681641,11.3162109 65.8376953,11.1466797 L66.1466797,10.8376953 C66.3162109,10.6681641 66.3162109,10.3892578 66.1466797,10.2197266 L65.0638672,9.13691406 L66.1466797,8.05410156 C66.3189453,7.88457031 66.3189453,7.60566406 66.1466797,7.43613281 Z" id="Path" stroke="none" fill="#8AAEF5" fill-rule="evenodd" transform="translate(64.137939, 9.136914) rotate(17.000000) translate(-64.137939, -9.136914) "></path>
                    <path d="M358.14668,5.43613281 L357.837695,5.12714844 C357.668164,4.95761719 357.389258,4.95761719 357.219727,5.12714844 L356.136914,6.20996094 L355.054102,5.12714844 C354.88457,4.95761719 354.605664,4.95761719 354.436133,5.12714844 L354.127148,5.43613281 C353.957617,5.60566406 353.957617,5.88457031 354.127148,6.05410156 L355.209961,7.13691406 L354.127148,8.21972656 C353.957617,8.38925781 353.957617,8.66816406 354.127148,8.83769531 L354.436133,9.14667969 C354.605664,9.31621094 354.88457,9.31621094 355.054102,9.14667969 L356.136914,8.06386719 L357.219727,9.14667969 C357.389258,9.31621094 357.668164,9.31621094 357.837695,9.14667969 L358.14668,8.83769531 C358.316211,8.66816406 358.316211,8.38925781 358.14668,8.21972656 L357.063867,7.13691406 L358.14668,6.05410156 C358.318945,5.88457031 358.318945,5.60566406 358.14668,5.43613281 Z" id="Path" stroke="none" fill="#8AAEF5" fill-rule="evenodd" transform="translate(356.137939, 7.136914) rotate(17.000000) translate(-356.137939, -7.136914) "></path>
                    <path d="M118.14668,5.43613281 L117.837695,5.12714844 C117.668164,4.95761719 117.389258,4.95761719 117.219727,5.12714844 L116.136914,6.20996094 L115.054102,5.12714844 C114.88457,4.95761719 114.605664,4.95761719 114.436133,5.12714844 L114.127148,5.43613281 C113.957617,5.60566406 113.957617,5.88457031 114.127148,6.05410156 L115.209961,7.13691406 L114.127148,8.21972656 C113.957617,8.38925781 113.957617,8.66816406 114.127148,8.83769531 L114.436133,9.14667969 C114.605664,9.31621094 114.88457,9.31621094 115.054102,9.14667969 L116.136914,8.06386719 L117.219727,9.14667969 C117.389258,9.31621094 117.668164,9.31621094 117.837695,9.14667969 L118.14668,8.83769531 C118.316211,8.66816406 118.316211,8.38925781 118.14668,8.21972656 L117.063867,7.13691406 L118.14668,6.05410156 C118.318945,5.88457031 118.318945,5.60566406 118.14668,5.43613281 Z" id="Path" stroke="none" fill="#8AAEF5" fill-rule="evenodd"></path>
                    <path d="M122.14668,7.43613281 L121.837695,7.12714844 C121.668164,6.95761719 121.389258,6.95761719 121.219727,7.12714844 L120.136914,8.20996094 L119.054102,7.12714844 C118.88457,6.95761719 118.605664,6.95761719 118.436133,7.12714844 L118.127148,7.43613281 C117.957617,7.60566406 117.957617,7.88457031 118.127148,8.05410156 L119.209961,9.13691406 L118.127148,10.2197266 C117.957617,10.3892578 117.957617,10.6681641 118.127148,10.8376953 L118.436133,11.1466797 C118.605664,11.3162109 118.88457,11.3162109 119.054102,11.1466797 L120.136914,10.0638672 L121.219727,11.1466797 C121.389258,11.3162109 121.668164,11.3162109 121.837695,11.1466797 L122.14668,10.8376953 C122.316211,10.6681641 122.316211,10.3892578 122.14668,10.2197266 L121.063867,9.13691406 L122.14668,8.05410156 C122.318945,7.88457031 122.318945,7.60566406 122.14668,7.43613281 Z" id="Path" stroke="none" fill="#8AAEF5" fill-rule="evenodd" transform="translate(120.137939, 9.136914) rotate(-18.000000) translate(-120.137939, -9.136914) "></path>
                    <path d="M153.14668,3.43613281 L152.837695,3.12714844 C152.668164,2.95761719 152.389258,2.95761719 152.219727,3.12714844 L151.136914,4.20996094 L150.054102,3.12714844 C149.88457,2.95761719 149.605664,2.95761719 149.436133,3.12714844 L149.127148,3.43613281 C148.957617,3.60566406 148.957617,3.88457031 149.127148,4.05410156 L150.209961,5.13691406 L149.127148,6.21972656 C148.957617,6.38925781 148.957617,6.66816406 149.127148,6.83769531 L149.436133,7.14667969 C149.605664,7.31621094 149.88457,7.31621094 150.054102,7.14667969 L151.136914,6.06386719 L152.219727,7.14667969 C152.389258,7.31621094 152.668164,7.31621094 152.837695,7.14667969 L153.14668,6.83769531 C153.316211,6.66816406 153.316211,6.38925781 153.14668,6.21972656 L152.063867,5.13691406 L153.14668,4.05410156 C153.318945,3.88457031 153.318945,3.60566406 153.14668,3.43613281 Z" id="Path" stroke="none" fill="#8AAEF5" fill-rule="evenodd"></path>
                    <path d="M12.1466797,3.43613281 L11.8376953,3.12714844 C11.6681641,2.95761719 11.3892578,2.95761719 11.2197266,3.12714844 L10.1369141,4.20996094 L9.05410156,3.12714844 C8.88457031,2.95761719 8.60566406,2.95761719 8.43613281,3.12714844 L8.12714844,3.43613281 C7.95761719,3.60566406 7.95761719,3.88457031 8.12714844,4.05410156 L9.20996094,5.13691406 L8.12714844,6.21972656 C7.95761719,6.38925781 7.95761719,6.66816406 8.12714844,6.83769531 L8.43613281,7.14667969 C8.60566406,7.31621094 8.88457031,7.31621094 9.05410156,7.14667969 L10.1369141,6.06386719 L11.2197266,7.14667969 C11.3892578,7.31621094 11.6681641,7.31621094 11.8376953,7.14667969 L12.1466797,6.83769531 C12.3162109,6.66816406 12.3162109,6.38925781 12.1466797,6.21972656 L11.0638672,5.13691406 L12.1466797,4.05410156 C12.3189453,3.88457031 12.3189453,3.60566406 12.1466797,3.43613281 Z" id="Path" stroke="none" fill="#8AAEF5" fill-rule="evenodd"></path>
                    <path d="M166.14668,7.43613281 L165.837695,7.12714844 C165.668164,6.95761719 165.389258,6.95761719 165.219727,7.12714844 L164.136914,8.20996094 L163.054102,7.12714844 C162.88457,6.95761719 162.605664,6.95761719 162.436133,7.12714844 L162.127148,7.43613281 C161.957617,7.60566406 161.957617,7.88457031 162.127148,8.05410156 L163.209961,9.13691406 L162.127148,10.2197266 C161.957617,10.3892578 161.957617,10.6681641 162.127148,10.8376953 L162.436133,11.1466797 C162.605664,11.3162109 162.88457,11.3162109 163.054102,11.1466797 L164.136914,10.0638672 L165.219727,11.1466797 C165.389258,11.3162109 165.668164,11.3162109 165.837695,11.1466797 L166.14668,10.8376953 C166.316211,10.6681641 166.316211,10.3892578 166.14668,10.2197266 L165.063867,9.13691406 L166.14668,8.05410156 C166.318945,7.88457031 166.318945,7.60566406 166.14668,7.43613281 Z" id="Path" stroke="none" fill="#8AAEF5" fill-rule="evenodd"></path>
                    <path d="M187.14668,6.13838164 L186.837695,5.82939727 C186.668164,5.65986602 186.389258,5.65986602 186.219727,5.82939727 L185.136914,6.91220977 L184.054102,5.82939727 C183.88457,5.65986602 183.605664,5.65986602 183.436133,5.82939727 L183.127148,6.13838164 C182.957617,6.30791289 182.957617,6.58681914 183.127148,6.75635039 L184.209961,7.83916289 L183.127148,8.92197539 C182.957617,9.09150664 182.957617,9.37041289 183.127148,9.53994414 L183.436133,9.84892852 C183.605664,10.0184598 183.88457,10.0184598 184.054102,9.84892852 L185.136914,8.76611602 L186.219727,9.84892852 C186.389258,10.0184598 186.668164,10.0184598 186.837695,9.84892852 L187.14668,9.53994414 C187.316211,9.37041289 187.316211,9.09150664 187.14668,8.92197539 L186.063867,7.83916289 L187.14668,6.75635039 C187.318945,6.58681914 187.318945,6.30791289 187.14668,6.13838164 Z" id="Path" stroke="none" fill="#8AAEF5" fill-rule="evenodd"></path>
                    <path d="M25.1466797,7.43613281 L24.8376953,7.12714844 C24.6681641,6.95761719 24.3892578,6.95761719 24.2197266,7.12714844 L23.1369141,8.20996094 L22.0541016,7.12714844 C21.8845703,6.95761719 21.6056641,6.95761719 21.4361328,7.12714844 L21.1271484,7.43613281 C20.9576172,7.60566406 20.9576172,7.88457031 21.1271484,8.05410156 L22.2099609,9.13691406 L21.1271484,10.2197266 C20.9576172,10.3892578 20.9576172,10.6681641 21.1271484,10.8376953 L21.4361328,11.1466797 C21.6056641,11.3162109 21.8845703,11.3162109 22.0541016,11.1466797 L23.1369141,10.0638672 L24.2197266,11.1466797 C24.3892578,11.3162109 24.6681641,11.3162109 24.8376953,11.1466797 L25.1466797,10.8376953 C25.3162109,10.6681641 25.3162109,10.3892578 25.1466797,10.2197266 L24.0638672,9.13691406 L25.1466797,8.05410156 C25.3189453,7.88457031 25.3189453,7.60566406 25.1466797,7.43613281 Z" id="Path" stroke="none" fill="#8AAEF5" fill-rule="evenodd"></path>
                    <path d="M289.14668,5.43613281 L288.837695,5.12714844 C288.668164,4.95761719 288.389258,4.95761719 288.219727,5.12714844 L287.136914,6.20996094 L286.054102,5.12714844 C285.88457,4.95761719 285.605664,4.95761719 285.436133,5.12714844 L285.127148,5.43613281 C284.957617,5.60566406 284.957617,5.88457031 285.127148,6.05410156 L286.209961,7.13691406 L285.127148,8.21972656 C284.957617,8.38925781 284.957617,8.66816406 285.127148,8.83769531 L285.436133,9.14667969 C285.605664,9.31621094 285.88457,9.31621094 286.054102,9.14667969 L287.136914,8.06386719 L288.219727,9.14667969 C288.389258,9.31621094 288.668164,9.31621094 288.837695,9.14667969 L289.14668,8.83769531 C289.316211,8.66816406 289.316211,8.38925781 289.14668,8.21972656 L288.063867,7.13691406 L289.14668,6.05410156 C289.318945,5.88457031 289.318945,5.60566406 289.14668,5.43613281 Z" id="Path" stroke="none" fill="#8AAEF5" fill-rule="evenodd"></path>
                    <path d="M207.14668,1.43613281 L206.837695,1.12714844 C206.668164,0.957617187 206.389258,0.957617187 206.219727,1.12714844 L205.136914,2.20996094 L204.054102,1.12714844 C203.88457,0.957617187 203.605664,0.957617187 203.436133,1.12714844 L203.127148,1.43613281 C202.957617,1.60566406 202.957617,1.88457031 203.127148,2.05410156 L204.209961,3.13691406 L203.127148,4.21972656 C202.957617,4.38925781 202.957617,4.66816406 203.127148,4.83769531 L203.436133,5.14667969 C203.605664,5.31621094 203.88457,5.31621094 204.054102,5.14667969 L205.136914,4.06386719 L206.219727,5.14667969 C206.389258,5.31621094 206.668164,5.31621094 206.837695,5.14667969 L207.14668,4.83769531 C207.316211,4.66816406 207.316211,4.38925781 207.14668,4.21972656 L206.063867,3.13691406 L207.14668,2.05410156 C207.318945,1.88457031 207.318945,1.60566406 207.14668,1.43613281 Z" id="Path" stroke="none" fill="#8AAEF5" fill-rule="evenodd"></path>
                    <path d="M252.14668,5.43613281 L251.837695,5.12714844 C251.668164,4.95761719 251.389258,4.95761719 251.219727,5.12714844 L250.136914,6.20996094 L249.054102,5.12714844 C248.88457,4.95761719 248.605664,4.95761719 248.436133,5.12714844 L248.127148,5.43613281 C247.957617,5.60566406 247.957617,5.88457031 248.127148,6.05410156 L249.209961,7.13691406 L248.127148,8.21972656 C247.957617,8.38925781 247.957617,8.66816406 248.127148,8.83769531 L248.436133,9.14667969 C248.605664,9.31621094 248.88457,9.31621094 249.054102,9.14667969 L250.136914,8.06386719 L251.219727,9.14667969 C251.389258,9.31621094 251.668164,9.31621094 251.837695,9.14667969 L252.14668,8.83769531 C252.316211,8.66816406 252.316211,8.38925781 252.14668,8.21972656 L251.063867,7.13691406 L252.14668,6.05410156 C252.318945,5.88457031 252.318945,5.60566406 252.14668,5.43613281 Z" id="Path" stroke="none" fill="#8AAEF5" fill-rule="evenodd"></path>
                    <path d="M209.14668,5.43613281 L208.837695,5.12714844 C208.668164,4.95761719 208.389258,4.95761719 208.219727,5.12714844 L207.136914,6.20996094 L206.054102,5.12714844 C205.88457,4.95761719 205.605664,4.95761719 205.436133,5.12714844 L205.127148,5.43613281 C204.957617,5.60566406 204.957617,5.88457031 205.127148,6.05410156 L206.209961,7.13691406 L205.127148,8.21972656 C204.957617,8.38925781 204.957617,8.66816406 205.127148,8.83769531 L205.436133,9.14667969 C205.605664,9.31621094 205.88457,9.31621094 206.054102,9.14667969 L207.136914,8.06386719 L208.219727,9.14667969 C208.389258,9.31621094 208.668164,9.31621094 208.837695,9.14667969 L209.14668,8.83769531 C209.316211,8.66816406 209.316211,8.38925781 209.14668,8.21972656 L208.063867,7.13691406 L209.14668,6.05410156 C209.318945,5.88457031 209.318945,5.60566406 209.14668,5.43613281 Z" id="Path" stroke="none" fill="#8AAEF5" fill-rule="evenodd"></path>
                    <path d="M236.14668,4.43613281 L235.837695,4.12714844 C235.668164,3.95761719 235.389258,3.95761719 235.219727,4.12714844 L234.136914,5.20996094 L233.054102,4.12714844 C232.88457,3.95761719 232.605664,3.95761719 232.436133,4.12714844 L232.127148,4.43613281 C231.957617,4.60566406 231.957617,4.88457031 232.127148,5.05410156 L233.209961,6.13691406 L232.127148,7.21972656 C231.957617,7.38925781 231.957617,7.66816406 232.127148,7.83769531 L232.436133,8.14667969 C232.605664,8.31621094 232.88457,8.31621094 233.054102,8.14667969 L234.136914,7.06386719 L235.219727,8.14667969 C235.389258,8.31621094 235.668164,8.31621094 235.837695,8.14667969 L236.14668,7.83769531 C236.316211,7.66816406 236.316211,7.38925781 236.14668,7.21972656 L235.063867,6.13691406 L236.14668,5.05410156 C236.318945,4.88457031 236.318945,4.60566406 236.14668,4.43613281 Z" id="Path" stroke="none" fill="#8AAEF5" fill-rule="evenodd" transform="translate(234.137939, 6.136914) rotate(21.000000) translate(-234.137939, -6.136914) "></path>
                    <path d="M260.5,5 C261.880664,5 263,6.11933594 263,7.5 C263,8.88066406 261.880664,10 260.5,10 C259.119336,10 258,8.88066406 258,7.5 C258,6.11933594 259.119336,5 260.5,5 Z M260.5,5.83333333 C259.581042,5.83333333 258.833333,6.58104167 258.833333,7.5 C258.833333,8.41895833 259.581042,9.16666667 260.5,9.16666667 C261.418958,9.16666667 262.166667,8.41895833 262.166667,7.5 C262.166667,6.58104167 261.418958,5.83333333 260.5,5.83333333 Z" id="Combined-Shape" stroke="none" fill="#8AAEF5" fill-rule="evenodd"></path>
                    <path d="M217.5,6 C218.880664,6 220,7.11933594 220,8.5 C220,9.88066406 218.880664,11 217.5,11 C216.119336,11 215,9.88066406 215,8.5 C215,7.11933594 216.119336,6 217.5,6 Z M217.5,6.83333333 C216.581042,6.83333333 215.833333,7.58104167 215.833333,8.5 C215.833333,9.41895833 216.581042,10.1666667 217.5,10.1666667 C218.418958,10.1666667 219.166667,9.41895833 219.166667,8.5 C219.166667,7.58104167 218.418958,6.83333333 217.5,6.83333333 Z" id="Combined-Shape" stroke="none" fill="#8AAEF5" fill-rule="evenodd"></path>
                    <path d="M143.5,6 C144.880664,6 146,7.11933594 146,8.5 C146,9.88066406 144.880664,11 143.5,11 C142.119336,11 141,9.88066406 141,8.5 C141,7.11933594 142.119336,6 143.5,6 Z M143.5,6.83333333 C142.581042,6.83333333 141.833333,7.58104167 141.833333,8.5 C141.833333,9.41895833 142.581042,10.1666667 143.5,10.1666667 C144.418958,10.1666667 145.166667,9.41895833 145.166667,8.5 C145.166667,7.58104167 144.418958,6.83333333 143.5,6.83333333 Z" id="Combined-Shape" stroke="none" fill="#8AAEF5" fill-rule="evenodd"></path>
                    <path d="M2.5,6 C3.88066406,6 5,7.11933594 5,8.5 C5,9.88066406 3.88066406,11 2.5,11 C1.11933594,11 0,9.88066406 0,8.5 C0,7.11933594 1.11933594,6 2.5,6 Z M2.5,6.83333333 C1.58104167,6.83333333 0.833333333,7.58104167 0.833333333,8.5 C0.833333333,9.41895833 1.58104167,10.1666667 2.5,10.1666667 C3.41895833,10.1666667 4.16666667,9.41895833 4.16666667,8.5 C4.16666667,7.58104167 3.41895833,6.83333333 2.5,6.83333333 Z" id="Combined-Shape" stroke="none" fill="#8AAEF5" fill-rule="evenodd"></path>
                    <path d="M109.5,2 C110.880664,2 112,3.11933594 112,4.5 C112,5.88066406 110.880664,7 109.5,7 C108.119336,7 107,5.88066406 107,4.5 C107,3.11933594 108.119336,2 109.5,2 Z M109.5,2.83333333 C108.581042,2.83333333 107.833333,3.58104167 107.833333,4.5 C107.833333,5.41895833 108.581042,6.16666667 109.5,6.16666667 C110.418958,6.16666667 111.166667,5.41895833 111.166667,4.5 C111.166667,3.58104167 110.418958,2.83333333 109.5,2.83333333 Z" id="Combined-Shape" stroke="none" fill="#8AAEF5" fill-rule="evenodd"></path>
                    <path d="M94.5,7 C95.8806641,7 97,8.11933594 97,9.5 C97,10.8806641 95.8806641,12 94.5,12 C93.1193359,12 92,10.8806641 92,9.5 C92,8.11933594 93.1193359,7 94.5,7 Z M94.5,7.83333333 C93.5810417,7.83333333 92.8333333,8.58104167 92.8333333,9.5 C92.8333333,10.4189583 93.5810417,11.1666667 94.5,11.1666667 C95.4189583,11.1666667 96.1666667,10.4189583 96.1666667,9.5 C96.1666667,8.58104167 95.4189583,7.83333333 94.5,7.83333333 Z" id="Combined-Shape" stroke="none" fill="#8AAEF5" fill-rule="evenodd"></path>
                    <path d="M58.5,4 C59.8806641,4 61,5.11933594 61,6.5 C61,7.88066406 59.8806641,9 58.5,9 C57.1193359,9 56,7.88066406 56,6.5 C56,5.11933594 57.1193359,4 58.5,4 Z M58.5,4.83333333 C57.5810417,4.83333333 56.8333333,5.58104167 56.8333333,6.5 C56.8333333,7.41895833 57.5810417,8.16666667 58.5,8.16666667 C59.4189583,8.16666667 60.1666667,7.41895833 60.1666667,6.5 C60.1666667,5.58104167 59.4189583,4.83333333 58.5,4.83333333 Z" id="Combined-Shape" stroke="none" fill="#8AAEF5" fill-rule="evenodd"></path>
                    <path d="M350.5,2 C351.880664,2 353,3.11933594 353,4.5 C353,5.88066406 351.880664,7 350.5,7 C349.119336,7 348,5.88066406 348,4.5 C348,3.11933594 349.119336,2 350.5,2 Z M350.5,2.83333333 C349.581042,2.83333333 348.833333,3.58104167 348.833333,4.5 C348.833333,5.41895833 349.581042,6.16666667 350.5,6.16666667 C351.418958,6.16666667 352.166667,5.41895833 352.166667,4.5 C352.166667,3.58104167 351.418958,2.83333333 350.5,2.83333333 Z" id="Combined-Shape" stroke="none" fill="#8AAEF5" fill-rule="evenodd"></path>
                    <path d="M31.5,7 C32.8806641,7 34,8.11933594 34,9.5 C34,10.8806641 32.8806641,12 31.5,12 C30.1193359,12 29,10.8806641 29,9.5 C29,8.11933594 30.1193359,7 31.5,7 Z M31.5,7.83333333 C30.5810417,7.83333333 29.8333333,8.58104167 29.8333333,9.5 C29.8333333,10.4189583 30.5810417,11.1666667 31.5,11.1666667 C32.4189583,11.1666667 33.1666667,10.4189583 33.1666667,9.5 C33.1666667,8.58104167 32.4189583,7.83333333 31.5,7.83333333 Z" id="Combined-Shape" stroke="none" fill="#8AAEF5" fill-rule="evenodd"></path>
                    <path d="M323.5,5 C324.880664,5 326,6.11933594 326,7.5 C326,8.88066406 324.880664,10 323.5,10 C322.119336,10 321,8.88066406 321,7.5 C321,6.11933594 322.119336,5 323.5,5 Z M323.5,5.83333333 C322.581042,5.83333333 321.833333,6.58104167 321.833333,7.5 C321.833333,8.41895833 322.581042,9.16666667 323.5,9.16666667 C324.418958,9.16666667 325.166667,8.41895833 325.166667,7.5 C325.166667,6.58104167 324.418958,5.83333333 323.5,5.83333333 Z" id="Combined-Shape" stroke="none" fill="#8AAEF5" fill-rule="evenodd"></path>
                    <path d="M85.5,9 C86.8806641,9 88,10.1193359 88,11.5 C88,12.8806641 86.8806641,14 85.5,14 C84.1193359,14 83,12.8806641 83,11.5 C83,10.1193359 84.1193359,9 85.5,9 Z M85.5,9.83333333 C84.5810417,9.83333333 83.8333333,10.5810417 83.8333333,11.5 C83.8333333,12.4189583 84.5810417,13.1666667 85.5,13.1666667 C86.4189583,13.1666667 87.1666667,12.4189583 87.1666667,11.5 C87.1666667,10.5810417 86.4189583,9.83333333 85.5,9.83333333 Z" id="Combined-Shape" stroke="none" fill="#8AAEF5" fill-rule="evenodd"></path>
                    <path d="M179.5,9 C180.880664,9 182,10.1193359 182,11.5 C182,12.8806641 180.880664,14 179.5,14 C178.119336,14 177,12.8806641 177,11.5 C177,10.1193359 178.119336,9 179.5,9 Z M179.5,9.83333333 C178.581042,9.83333333 177.833333,10.5810417 177.833333,11.5 C177.833333,12.4189583 178.581042,13.1666667 179.5,13.1666667 C180.418958,13.1666667 181.166667,12.4189583 181.166667,11.5 C181.166667,10.5810417 180.418958,9.83333333 179.5,9.83333333 Z" id="Combined-Shape" stroke="none" fill="#8AAEF5" fill-rule="evenodd"></path>
                    <path d="M377.5,7 C378.880664,7 380,8.11933594 380,9.5 C380,10.8806641 378.880664,12 377.5,12 C376.119336,12 375,10.8806641 375,9.5 C375,8.11933594 376.119336,7 377.5,7 Z M377.5,7.83333333 C376.581042,7.83333333 375.833333,8.58104167 375.833333,9.5 C375.833333,10.4189583 376.581042,11.1666667 377.5,11.1666667 C378.418958,11.1666667 379.166667,10.4189583 379.166667,9.5 C379.166667,8.58104167 378.418958,7.83333333 377.5,7.83333333 Z" id="Combined-Shape" stroke="none" fill="#8AAEF5" fill-rule="evenodd"></path>
                    <path d="M263,10 C265.666667,9.33333333 268.333333,8.66666667 271,8" id="Path-6" stroke="#8AAEF5" stroke-width="1" fill="none" transform="translate(267.000000, 9.000000) scale(1, -1) translate(-267.000000, -9.000000) "></path>
                    <path d="M220.377791,9.17045166 C221.792603,4.90045926 222.912722,4.15745551 228.377791,2.17045166" id="Path-8" stroke="#8AAEF5" stroke-width="1" fill="none" transform="translate(224.377791, 5.670452) rotate(28.000000) translate(-224.377791, -5.670452) "></path>
                    <path d="M145,9.22953536 C150.833008,9.78509091 154.916667,8.72953536 157.250977,6.06286869 C159.221354,4.13202059 162.288574,3.55662997 166.452637,4.33669682" id="Path-4" stroke="#8AAEF5" stroke-width="1" fill="none"></path>
                    <path d="M4,9.22953536 C9.83300781,9.78509091 13.9166667,8.72953536 16.2509766,6.06286869 C18.2213542,4.13202059 21.2885742,3.55662997 25.4526367,4.33669682" id="Path-4" stroke="#8AAEF5" stroke-width="1" fill="none"></path>
                    <path d="M33,7.68856436 C36.7576497,5.5516503 38.9119466,5.32547842 42.811849,7.68856436" id="Path-5" stroke="#8AAEF5" stroke-width="1" fill="none"></path>
                    <path d="M325,5.68856436 C328.75765,3.5516503 330.911947,3.32547842 334.811849,5.68856436" id="Path-5" stroke="#8AAEF5" stroke-width="1" fill="none"></path>
                    <path d="M58,8.77382813 C58,9.88728215 59.6095246,11.9118038 61.8099532,12.7738281 C64.0089269,13.6352826 66.7982062,13.3348291 68.6083984,12.6666667 C69.974204,12.1625324 71.3922508,11.2324505 72.8625389,9.87642108 C73.6150707,9.18236982 74.7746606,7.89022946 76.3413086,6" id="Path-9" stroke="#8AAEF5" stroke-width="1" fill="none"></path>
                    <path d="M350,6.77382813 C350,7.88728215 351.609525,9.91180377 353.809953,10.7738281 C356.008927,11.6352826 358.798206,11.3348291 360.608398,10.6666667 C361.974204,10.1625324 363.392251,9.2324505 364.862539,7.87642108 C365.615071,7.18236982 366.774661,5.89022946 368.341309,4" id="Path-9" stroke="#8AAEF5" stroke-width="1" fill="none"></path>
                    <line x1="112" y1="4" x2="122" y2="4" id="Path-10" stroke="#8AAEF5" stroke-width="1" fill="none"></line>
                    <line x1="97" y1="9.5" x2="107" y2="9.5" id="Path-10" stroke="#8AAEF5" stroke-width="1" fill="none"></line>
                    <path d="M42.6576117,9.05999189 L44.9346375,6.79531204 C45.0217875,6.70863455 45.0217875,6.56847521 44.9346375,6.48179773 L44.5155757,6.06500811 C44.4284257,5.97833063 44.2875023,5.97833063 44.2003523,6.06500811 L42.5,7.75614119 L40.7996477,6.06500811 C40.7124977,5.97833063 40.5715743,5.97833063 40.4844243,6.06500811 L40.0653625,6.48179773 C39.9782125,6.56847521 39.9782125,6.70863455 40.0653625,6.79531204 L42.3423883,9.05999189 C42.4295383,9.14666937 42.5704617,9.14666937 42.6576117,9.05999189 Z" id="chevron_dropdown" stroke="none" fill="#8AAEF5" fill-rule="evenodd" transform="translate(42.500000, 7.562500) rotate(-44.000000) translate(-42.500000, -7.562500) "></path>
                    <path d="M334.657612,7.05999189 L336.934637,4.79531204 C337.021788,4.70863455 337.021788,4.56847521 336.934637,4.48179773 L336.515576,4.06500811 C336.428426,3.97833063 336.287502,3.97833063 336.200352,4.06500811 L334.5,5.75614119 L332.799648,4.06500811 C332.712498,3.97833063 332.571574,3.97833063 332.484424,4.06500811 L332.065363,4.48179773 C331.978212,4.56847521 331.978212,4.70863455 332.065363,4.79531204 L334.342388,7.05999189 C334.429538,7.14666937 334.570462,7.14666937 334.657612,7.05999189 Z" id="chevron_dropdown" stroke="none" fill="#8AAEF5" fill-rule="evenodd" transform="translate(334.500000, 5.562500) rotate(-44.000000) translate(-334.500000, -5.562500) "></path>
                    <path d="M75.6576117,8.05999189 L77.9346375,5.79531204 C78.0217875,5.70863455 78.0217875,5.56847521 77.9346375,5.48179773 L77.5155757,5.06500811 C77.4284257,4.97833063 77.2875023,4.97833063 77.2003523,5.06500811 L75.5,6.75614119 L73.7996477,5.06500811 C73.7124977,4.97833063 73.5715743,4.97833063 73.4844243,5.06500811 L73.0653625,5.48179773 C72.9782125,5.56847521 72.9782125,5.70863455 73.0653625,5.79531204 L75.3423883,8.05999189 C75.4295383,8.14666937 75.5704617,8.14666937 75.6576117,8.05999189 Z" id="chevron_dropdown" stroke="none" fill="#8AAEF5" fill-rule="evenodd" transform="translate(75.500000, 6.562500) rotate(-138.000000) translate(-75.500000, -6.562500) "></path>
                    <path d="M367.657612,6.05999189 L369.934637,3.79531204 C370.021788,3.70863455 370.021788,3.56847521 369.934637,3.48179773 L369.515576,3.06500811 C369.428426,2.97833063 369.287502,2.97833063 369.200352,3.06500811 L367.5,4.75614119 L365.799648,3.06500811 C365.712498,2.97833063 365.571574,2.97833063 365.484424,3.06500811 L365.065363,3.48179773 C364.978212,3.56847521 364.978212,3.70863455 365.065363,3.79531204 L367.342388,6.05999189 C367.429538,6.14666937 367.570462,6.14666937 367.657612,6.05999189 Z" id="chevron_dropdown" stroke="none" fill="#8AAEF5" fill-rule="evenodd" transform="translate(367.500000, 4.562500) rotate(-138.000000) translate(-367.500000, -4.562500) "></path>
                    <path d="M106.657612,11.0599919 L108.934637,8.79531204 C109.021788,8.70863455 109.021788,8.56847521 108.934637,8.48179773 L108.515576,8.06500811 C108.428426,7.97833063 108.287502,7.97833063 108.200352,8.06500811 L106.5,9.75614119 L104.799648,8.06500811 C104.712498,7.97833063 104.571574,7.97833063 104.484424,8.06500811 L104.065363,8.48179773 C103.978212,8.56847521 103.978212,8.70863455 104.065363,8.79531204 L106.342388,11.0599919 C106.429538,11.1466694 106.570462,11.1466694 106.657612,11.0599919 Z" id="chevron_dropdown" stroke="none" fill="#8AAEF5" fill-rule="evenodd" transform="translate(106.500000, 9.562500) rotate(-90.000000) translate(-106.500000, -9.562500) "></path>
                    <path d="M121.720112,5.99749189 L123.997137,3.73281204 C124.084288,3.64613455 124.084288,3.50597521 123.997137,3.41929773 L123.578076,3.00250811 C123.490926,2.91583063 123.350002,2.91583063 123.262852,3.00250811 L121.5625,4.69364119 L119.862148,3.00250811 C119.774998,2.91583063 119.634074,2.91583063 119.546924,3.00250811 L119.127863,3.41929773 C119.040712,3.50597521 119.040712,3.64613455 119.127863,3.73281204 L121.404888,5.99749189 C121.492038,6.08416937 121.632962,6.08416937 121.720112,5.99749189 Z" id="chevron_dropdown" stroke="none" fill="#8AAEF5" fill-rule="evenodd" transform="translate(121.562500, 4.500000) rotate(-90.000000) translate(-121.562500, -4.500000) "></path>
                    <path d="M165.657612,6.05999189 L167.934637,3.79531204 C168.021788,3.70863455 168.021788,3.56847521 167.934637,3.48179773 L167.515576,3.06500811 C167.428426,2.97833063 167.287502,2.97833063 167.200352,3.06500811 L165.5,4.75614119 L163.799648,3.06500811 C163.712498,2.97833063 163.571574,2.97833063 163.484424,3.06500811 L163.065363,3.48179773 C162.978212,3.56847521 162.978212,3.70863455 163.065363,3.79531204 L165.342388,6.05999189 C165.429538,6.14666937 165.570462,6.14666937 165.657612,6.05999189 Z" id="chevron_dropdown" stroke="none" fill="#8AAEF5" fill-rule="evenodd" transform="translate(165.500000, 4.562500) rotate(-90.000000) translate(-165.500000, -4.562500) "></path>
                    <path d="M24.6576117,6.05999189 L26.9346375,3.79531204 C27.0217875,3.70863455 27.0217875,3.56847521 26.9346375,3.48179773 L26.5155757,3.06500811 C26.4284257,2.97833063 26.2875023,2.97833063 26.2003523,3.06500811 L24.5,4.75614119 L22.7996477,3.06500811 C22.7124977,2.97833063 22.5715743,2.97833063 22.4844243,3.06500811 L22.0653625,3.48179773 C21.9782125,3.56847521 21.9782125,3.70863455 22.0653625,3.79531204 L24.3423883,6.05999189 C24.4295383,6.14666937 24.5704617,6.14666937 24.6576117,6.05999189 Z" id="chevron_dropdown" stroke="none" fill="#8AAEF5" fill-rule="evenodd" transform="translate(24.500000, 4.562500) rotate(-90.000000) translate(-24.500000, -4.562500) "></path>
                    <path d="M228.657612,6.05999189 L230.934637,3.79531204 C231.021788,3.70863455 231.021788,3.56847521 230.934637,3.48179773 L230.515576,3.06500811 C230.428426,2.97833063 230.287502,2.97833063 230.200352,3.06500811 L228.5,4.75614119 L226.799648,3.06500811 C226.712498,2.97833063 226.571574,2.97833063 226.484424,3.06500811 L226.065363,3.48179773 C225.978212,3.56847521 225.978212,3.70863455 226.065363,3.79531204 L228.342388,6.05999189 C228.429538,6.14666937 228.570462,6.14666937 228.657612,6.05999189 Z" id="chevron_dropdown" stroke="none" fill="#8AAEF5" fill-rule="evenodd" transform="translate(228.500000, 4.562500) rotate(-94.000000) translate(-228.500000, -4.562500) "></path>
                    <path d="M270.657612,12.0599919 L272.934637,9.79531204 C273.021788,9.70863455 273.021788,9.56847521 272.934637,9.48179773 L272.515576,9.06500811 C272.428426,8.97833063 272.287502,8.97833063 272.200352,9.06500811 L270.5,10.7561412 L268.799648,9.06500811 C268.712498,8.97833063 268.571574,8.97833063 268.484424,9.06500811 L268.065363,9.48179773 C267.978212,9.56847521 267.978212,9.70863455 268.065363,9.79531204 L270.342388,12.0599919 C270.429538,12.1466694 270.570462,12.1466694 270.657612,12.0599919 Z" id="chevron_dropdown" stroke="none" fill="#8AAEF5" fill-rule="evenodd" transform="translate(270.500000, 10.562500) rotate(-71.000000) translate(-270.500000, -10.562500) "></path>
                </g>
            </g>
        </g>
    </g>
</svg>