<?xml version="1.0" encoding="UTF-8"?>
<svg width="380px" height="8px" viewBox="0 0 380 8" version="1.1" xmlns="http://www.w3.org/2000/svg" xmlns:xlink="http://www.w3.org/1999/xlink">
    <!-- Generator: Sketch 63.1 (92452) - https://sketch.com -->
    <title>Pattern_EvaluationForms</title>
    <desc>Created with Sketch.</desc>
    <defs>
        <rect id="path-1" x="0" y="0" width="380" height="8"></rect>
    </defs>
    <g id="Playbooks" stroke="none" stroke-width="1" fill="none" fill-rule="evenodd">
        <g id="Pattern_EvaluationForms">
            <mask id="mask-2" fill="white">
                <use xlink:href="#path-1"></use>
            </mask>
            <use id="Mask" fill="#4A82F1" xlink:href="#path-1"></use>
            <g id="Group-10" mask="url(#mask-2)">
                <g transform="translate(3.000000, -5.000000)">
                    <g id="cubes" transform="translate(48.000000, 2.000000)">
                        <path d="M7.5,3.59570312 L7.5,1.39648437 C7.5,1.10351562 7.31835938,0.841796875 7.04296875,0.73828125 L5.24609375,0.064453125 C5.08789062,0.00390625 4.91210938,0.00390625 4.75195312,0.064453125 L2.95507812,0.73828125 C2.6796875,0.841796875 2.49804688,1.10351562 2.49804688,1.39648437 L2.49804688,3.59570312 L0.45703125,4.36328125 C0.181640625,4.46484375 0,4.72851562 0,5.02148437 L0,7.10351562 C0,7.36914062 0.150390625,7.61328125 0.388671875,7.73242187 L2.31445312,8.6953125 C2.51171875,8.79492187 2.74609375,8.79492187 2.94335938,8.6953125 L5,7.66796875 L7.05664062,8.6953125 C7.25390625,8.79492187 7.48828125,8.79492187 7.68554688,8.6953125 L9.61132812,7.73242187 C9.84960938,7.61328125 10,7.36914062 10,7.10351562 L10,5.02148437 C10,4.72851562 9.81835938,4.46679687 9.54296875,4.36328125 L7.5,3.59570312 Z M5.234375,4.27539062 L5.234375,2.36328125 L7.03125,1.74414062 L7.03125,3.65039062 L5.234375,4.27539062 Z M2.96875,1.234375 L5,0.47265625 L7.03125,1.234375 L7.03125,1.23828125 L5,1.953125 L2.96875,1.23632812 L2.96875,1.234375 Z M2.96875,1.74414063 L4.765625,2.36328125 L4.765625,4.27539062 L2.96875,3.65039062 L2.96875,1.74414063 Z M2.3828125,8.17773438 L0.4921875,7.23242188 L0.4921875,5.41015625 L2.3828125,6.17773438 L2.3828125,8.17773438 Z M0.4921875,4.87890625 L0.4921875,4.875 L2.62890625,4.07421875 L4.74023437,4.86523438 L4.74023437,4.88867188 L2.62890625,5.74609375 L0.4921875,4.87890625 Z M2.875,6.17773438 L4.74023437,5.41992187 L4.74023437,7.24609375 L2.875,8.1796875 L2.875,6.17773438 Z M7.125,8.17773438 L5.25976562,7.24609375 L5.25976562,5.421875 L7.125,6.1796875 L7.125,8.17773438 L7.125,8.17773438 Z M9.5078125,7.23242188 L7.6171875,8.17773438 L7.6171875,6.17773438 L9.5078125,5.41015625 L9.5078125,7.23242188 L9.5078125,7.23242188 Z M9.5078125,4.87890625 L7.37109375,5.74609375 L5.25976562,4.88867188 L5.25976562,4.86523438 L7.37109375,4.07421875 L9.5078125,4.875 L9.5078125,4.87890625 Z" id="Shape" fill="#8AAEF5" fill-rule="nonzero"></path>
                    </g>
                    <g id="cubes" transform="translate(362.000000, 2.000000)">
                        <path d="M7.5,3.59570312 L7.5,1.39648437 C7.5,1.10351562 7.31835938,0.841796875 7.04296875,0.73828125 L5.24609375,0.064453125 C5.08789062,0.00390625 4.91210938,0.00390625 4.75195312,0.064453125 L2.95507812,0.73828125 C2.6796875,0.841796875 2.49804688,1.10351562 2.49804688,1.39648437 L2.49804688,3.59570312 L0.45703125,4.36328125 C0.181640625,4.46484375 0,4.72851562 0,5.02148437 L0,7.10351562 C0,7.36914062 0.150390625,7.61328125 0.388671875,7.73242187 L2.31445312,8.6953125 C2.51171875,8.79492187 2.74609375,8.79492187 2.94335938,8.6953125 L5,7.66796875 L7.05664062,8.6953125 C7.25390625,8.79492187 7.48828125,8.79492187 7.68554688,8.6953125 L9.61132812,7.73242187 C9.84960938,7.61328125 10,7.36914062 10,7.10351562 L10,5.02148437 C10,4.72851562 9.81835938,4.46679687 9.54296875,4.36328125 L7.5,3.59570312 Z M5.234375,4.27539062 L5.234375,2.36328125 L7.03125,1.74414062 L7.03125,3.65039062 L5.234375,4.27539062 Z M2.96875,1.234375 L5,0.47265625 L7.03125,1.234375 L7.03125,1.23828125 L5,1.953125 L2.96875,1.23632812 L2.96875,1.234375 Z M2.96875,1.74414063 L4.765625,2.36328125 L4.765625,4.27539062 L2.96875,3.65039062 L2.96875,1.74414063 Z M2.3828125,8.17773438 L0.4921875,7.23242188 L0.4921875,5.41015625 L2.3828125,6.17773438 L2.3828125,8.17773438 Z M0.4921875,4.87890625 L0.4921875,4.875 L2.62890625,4.07421875 L4.74023437,4.86523438 L4.74023437,4.88867188 L2.62890625,5.74609375 L0.4921875,4.87890625 Z M2.875,6.17773438 L4.74023437,5.41992187 L4.74023437,7.24609375 L2.875,8.1796875 L2.875,6.17773438 Z M7.125,8.17773438 L5.25976562,7.24609375 L5.25976562,5.421875 L7.125,6.1796875 L7.125,8.17773438 L7.125,8.17773438 Z M9.5078125,7.23242188 L7.6171875,8.17773438 L7.6171875,6.17773438 L9.5078125,5.41015625 L9.5078125,7.23242188 L9.5078125,7.23242188 Z M9.5078125,4.87890625 L7.37109375,5.74609375 L5.25976562,4.88867188 L5.25976562,4.86523438 L7.37109375,4.07421875 L9.5078125,4.875 L9.5078125,4.87890625 Z" id="Shape" fill="#8AAEF5" fill-rule="nonzero"></path>
                    </g>
                    <g id="cubes" transform="translate(163.000000, 4.000000)">
                        <path d="M7.5,3.59570312 L7.5,1.39648437 C7.5,1.10351562 7.31835938,0.841796875 7.04296875,0.73828125 L5.24609375,0.064453125 C5.08789062,0.00390625 4.91210938,0.00390625 4.75195312,0.064453125 L2.95507812,0.73828125 C2.6796875,0.841796875 2.49804688,1.10351562 2.49804688,1.39648437 L2.49804688,3.59570312 L0.45703125,4.36328125 C0.181640625,4.46484375 0,4.72851562 0,5.02148437 L0,7.10351562 C0,7.36914062 0.150390625,7.61328125 0.388671875,7.73242187 L2.31445312,8.6953125 C2.51171875,8.79492187 2.74609375,8.79492187 2.94335938,8.6953125 L5,7.66796875 L7.05664062,8.6953125 C7.25390625,8.79492187 7.48828125,8.79492187 7.68554688,8.6953125 L9.61132812,7.73242187 C9.84960938,7.61328125 10,7.36914062 10,7.10351562 L10,5.02148437 C10,4.72851562 9.81835938,4.46679687 9.54296875,4.36328125 L7.5,3.59570312 Z M5.234375,4.27539062 L5.234375,2.36328125 L7.03125,1.74414062 L7.03125,3.65039062 L5.234375,4.27539062 Z M2.96875,1.234375 L5,0.47265625 L7.03125,1.234375 L7.03125,1.23828125 L5,1.953125 L2.96875,1.23632812 L2.96875,1.234375 Z M2.96875,1.74414063 L4.765625,2.36328125 L4.765625,4.27539062 L2.96875,3.65039062 L2.96875,1.74414063 Z M2.3828125,8.17773438 L0.4921875,7.23242188 L0.4921875,5.41015625 L2.3828125,6.17773438 L2.3828125,8.17773438 Z M0.4921875,4.87890625 L0.4921875,4.875 L2.62890625,4.07421875 L4.74023437,4.86523438 L4.74023437,4.88867188 L2.62890625,5.74609375 L0.4921875,4.87890625 Z M2.875,6.17773438 L4.74023437,5.41992187 L4.74023437,7.24609375 L2.875,8.1796875 L2.875,6.17773438 Z M7.125,8.17773438 L5.25976562,7.24609375 L5.25976562,5.421875 L7.125,6.1796875 L7.125,8.17773438 L7.125,8.17773438 Z M9.5078125,7.23242188 L7.6171875,8.17773438 L7.6171875,6.17773438 L9.5078125,5.41015625 L9.5078125,7.23242188 L9.5078125,7.23242188 Z M9.5078125,4.87890625 L7.37109375,5.74609375 L5.25976562,4.88867188 L5.25976562,4.86523438 L7.37109375,4.07421875 L9.5078125,4.875 L9.5078125,4.87890625 Z" id="Shape" fill="#8AAEF5" fill-rule="nonzero"></path>
                    </g>
                    <g id="cubes" transform="translate(227.000000, 8.000000)">
                        <path d="M7.5,3.59570312 L7.5,1.39648437 C7.5,1.10351562 7.31835938,0.841796875 7.04296875,0.73828125 L5.24609375,0.064453125 C5.08789062,0.00390625 4.91210938,0.00390625 4.75195312,0.064453125 L2.95507812,0.73828125 C2.6796875,0.841796875 2.49804688,1.10351562 2.49804688,1.39648437 L2.49804688,3.59570312 L0.45703125,4.36328125 C0.181640625,4.46484375 0,4.72851562 0,5.02148437 L0,7.10351562 C0,7.36914062 0.150390625,7.61328125 0.388671875,7.73242187 L2.31445312,8.6953125 C2.51171875,8.79492187 2.74609375,8.79492187 2.94335938,8.6953125 L5,7.66796875 L7.05664062,8.6953125 C7.25390625,8.79492187 7.48828125,8.79492187 7.68554688,8.6953125 L9.61132812,7.73242187 C9.84960938,7.61328125 10,7.36914062 10,7.10351562 L10,5.02148437 C10,4.72851562 9.81835938,4.46679687 9.54296875,4.36328125 L7.5,3.59570312 Z M5.234375,4.27539062 L5.234375,2.36328125 L7.03125,1.74414062 L7.03125,3.65039062 L5.234375,4.27539062 Z M2.96875,1.234375 L5,0.47265625 L7.03125,1.234375 L7.03125,1.23828125 L5,1.953125 L2.96875,1.23632812 L2.96875,1.234375 Z M2.96875,1.74414063 L4.765625,2.36328125 L4.765625,4.27539062 L2.96875,3.65039062 L2.96875,1.74414063 Z M2.3828125,8.17773438 L0.4921875,7.23242188 L0.4921875,5.41015625 L2.3828125,6.17773438 L2.3828125,8.17773438 Z M0.4921875,4.87890625 L0.4921875,4.875 L2.62890625,4.07421875 L4.74023437,4.86523438 L4.74023437,4.88867188 L2.62890625,5.74609375 L0.4921875,4.87890625 Z M2.875,6.17773438 L4.74023437,5.41992187 L4.74023437,7.24609375 L2.875,8.1796875 L2.875,6.17773438 Z M7.125,8.17773438 L5.25976562,7.24609375 L5.25976562,5.421875 L7.125,6.1796875 L7.125,8.17773438 L7.125,8.17773438 Z M9.5078125,7.23242188 L7.6171875,8.17773438 L7.6171875,6.17773438 L9.5078125,5.41015625 L9.5078125,7.23242188 L9.5078125,7.23242188 Z M9.5078125,4.87890625 L7.37109375,5.74609375 L5.25976562,4.88867188 L5.25976562,4.86523438 L7.37109375,4.07421875 L9.5078125,4.875 L9.5078125,4.87890625 Z" id="Shape" fill="#8AAEF5" fill-rule="nonzero"></path>
                    </g>
                    <g id="crosshairs" transform="translate(0.000000, 7.000000)">
                        <path d="M8.7890625,4.078125 L8.27342578,4.078125 C8.07885352,2.31829102 6.68170898,0.921146484 4.921875,0.726574219 L4.921875,0.2109375 C4.921875,0.0944472656 4.82742773,0 4.7109375,0 L4.2890625,0 C4.17257227,0 4.078125,0.0944472656 4.078125,0.2109375 L4.078125,0.726574219 C2.31829102,0.921146484 0.921146484,2.31829102 0.726574219,4.078125 L0.2109375,4.078125 C0.0944472656,4.078125 0,4.17257227 0,4.2890625 L0,4.7109375 C0,4.82742773 0.0944472656,4.921875 0.2109375,4.921875 L0.726574219,4.921875 C0.921146484,6.68170898 2.31829102,8.07885352 4.078125,8.27342578 L4.078125,8.7890625 C4.078125,8.90555273 4.17257227,9 4.2890625,9 L4.7109375,9 C4.82742773,9 4.921875,8.90555273 4.921875,8.7890625 L4.921875,8.27342578 C6.68170898,8.07885352 8.07885352,6.68170898 8.27342578,4.921875 L8.7890625,4.921875 C8.90555273,4.921875 9,4.82742773 9,4.7109375 L9,4.2890625 C9,4.17257227 8.90555273,4.078125 8.7890625,4.078125 Z M4.921875,7.42325977 L4.921875,6.6796875 C4.921875,6.56319727 4.82742773,6.46875 4.7109375,6.46875 L4.2890625,6.46875 C4.17257227,6.46875 4.078125,6.56319727 4.078125,6.6796875 L4.078125,7.42325977 C2.78484961,7.239375 1.76051953,6.21442969 1.57674023,4.921875 L2.3203125,4.921875 C2.43680273,4.921875 2.53125,4.82742773 2.53125,4.7109375 L2.53125,4.2890625 C2.53125,4.17257227 2.43680273,4.078125 2.3203125,4.078125 L1.57674023,4.078125 C1.760625,2.78484961 2.78557031,1.76051953 4.078125,1.57674023 L4.078125,2.3203125 C4.078125,2.43680273 4.17257227,2.53125 4.2890625,2.53125 L4.7109375,2.53125 C4.82742773,2.53125 4.921875,2.43680273 4.921875,2.3203125 L4.921875,1.57674023 C6.21515039,1.760625 7.23948047,2.78557031 7.42325977,4.078125 L6.6796875,4.078125 C6.56319727,4.078125 6.46875,4.17257227 6.46875,4.2890625 L6.46875,4.7109375 C6.46875,4.82742773 6.56319727,4.921875 6.6796875,4.921875 L7.42325977,4.921875 C7.239375,6.21515039 6.21442969,7.23948047 4.921875,7.42325977 Z M5.0625,4.5 C5.0625,4.8106582 4.8106582,5.0625 4.5,5.0625 C4.1893418,5.0625 3.9375,4.8106582 3.9375,4.5 C3.9375,4.1893418 4.1893418,3.9375 4.5,3.9375 C4.8106582,3.9375 5.0625,4.1893418 5.0625,4.5 Z" id="Shape" fill="#8AAEF5" fill-rule="nonzero"></path>
                    </g>
                    <g id="crosshairs" transform="translate(314.000000, 7.000000)">
                        <path d="M8.7890625,4.078125 L8.27342578,4.078125 C8.07885352,2.31829102 6.68170898,0.921146484 4.921875,0.726574219 L4.921875,0.2109375 C4.921875,0.0944472656 4.82742773,0 4.7109375,0 L4.2890625,0 C4.17257227,0 4.078125,0.0944472656 4.078125,0.2109375 L4.078125,0.726574219 C2.31829102,0.921146484 0.921146484,2.31829102 0.726574219,4.078125 L0.2109375,4.078125 C0.0944472656,4.078125 0,4.17257227 0,4.2890625 L0,4.7109375 C0,4.82742773 0.0944472656,4.921875 0.2109375,4.921875 L0.726574219,4.921875 C0.921146484,6.68170898 2.31829102,8.07885352 4.078125,8.27342578 L4.078125,8.7890625 C4.078125,8.90555273 4.17257227,9 4.2890625,9 L4.7109375,9 C4.82742773,9 4.921875,8.90555273 4.921875,8.7890625 L4.921875,8.27342578 C6.68170898,8.07885352 8.07885352,6.68170898 8.27342578,4.921875 L8.7890625,4.921875 C8.90555273,4.921875 9,4.82742773 9,4.7109375 L9,4.2890625 C9,4.17257227 8.90555273,4.078125 8.7890625,4.078125 Z M4.921875,7.42325977 L4.921875,6.6796875 C4.921875,6.56319727 4.82742773,6.46875 4.7109375,6.46875 L4.2890625,6.46875 C4.17257227,6.46875 4.078125,6.56319727 4.078125,6.6796875 L4.078125,7.42325977 C2.78484961,7.239375 1.76051953,6.21442969 1.57674023,4.921875 L2.3203125,4.921875 C2.43680273,4.921875 2.53125,4.82742773 2.53125,4.7109375 L2.53125,4.2890625 C2.53125,4.17257227 2.43680273,4.078125 2.3203125,4.078125 L1.57674023,4.078125 C1.760625,2.78484961 2.78557031,1.76051953 4.078125,1.57674023 L4.078125,2.3203125 C4.078125,2.43680273 4.17257227,2.53125 4.2890625,2.53125 L4.7109375,2.53125 C4.82742773,2.53125 4.921875,2.43680273 4.921875,2.3203125 L4.921875,1.57674023 C6.21515039,1.760625 7.23948047,2.78557031 7.42325977,4.078125 L6.6796875,4.078125 C6.56319727,4.078125 6.46875,4.17257227 6.46875,4.2890625 L6.46875,4.7109375 C6.46875,4.82742773 6.56319727,4.921875 6.6796875,4.921875 L7.42325977,4.921875 C7.239375,6.21515039 6.21442969,7.23948047 4.921875,7.42325977 Z M5.0625,4.5 C5.0625,4.8106582 4.8106582,5.0625 4.5,5.0625 C4.1893418,5.0625 3.9375,4.8106582 3.9375,4.5 C3.9375,4.1893418 4.1893418,3.9375 4.5,3.9375 C4.8106582,3.9375 5.0625,4.1893418 5.0625,4.5 Z" id="Shape" fill="#8AAEF5" fill-rule="nonzero"></path>
                    </g>
                    <g id="crosshairs" transform="translate(63.000000, 0.000000)">
                        <path d="M8.7890625,4.078125 L8.27342578,4.078125 C8.07885352,2.31829102 6.68170898,0.921146484 4.921875,0.726574219 L4.921875,0.2109375 C4.921875,0.0944472656 4.82742773,0 4.7109375,0 L4.2890625,0 C4.17257227,0 4.078125,0.0944472656 4.078125,0.2109375 L4.078125,0.726574219 C2.31829102,0.921146484 0.921146484,2.31829102 0.726574219,4.078125 L0.2109375,4.078125 C0.0944472656,4.078125 0,4.17257227 0,4.2890625 L0,4.7109375 C0,4.82742773 0.0944472656,4.921875 0.2109375,4.921875 L0.726574219,4.921875 C0.921146484,6.68170898 2.31829102,8.07885352 4.078125,8.27342578 L4.078125,8.7890625 C4.078125,8.90555273 4.17257227,9 4.2890625,9 L4.7109375,9 C4.82742773,9 4.921875,8.90555273 4.921875,8.7890625 L4.921875,8.27342578 C6.68170898,8.07885352 8.07885352,6.68170898 8.27342578,4.921875 L8.7890625,4.921875 C8.90555273,4.921875 9,4.82742773 9,4.7109375 L9,4.2890625 C9,4.17257227 8.90555273,4.078125 8.7890625,4.078125 Z M4.921875,7.42325977 L4.921875,6.6796875 C4.921875,6.56319727 4.82742773,6.46875 4.7109375,6.46875 L4.2890625,6.46875 C4.17257227,6.46875 4.078125,6.56319727 4.078125,6.6796875 L4.078125,7.42325977 C2.78484961,7.239375 1.76051953,6.21442969 1.57674023,4.921875 L2.3203125,4.921875 C2.43680273,4.921875 2.53125,4.82742773 2.53125,4.7109375 L2.53125,4.2890625 C2.53125,4.17257227 2.43680273,4.078125 2.3203125,4.078125 L1.57674023,4.078125 C1.760625,2.78484961 2.78557031,1.76051953 4.078125,1.57674023 L4.078125,2.3203125 C4.078125,2.43680273 4.17257227,2.53125 4.2890625,2.53125 L4.7109375,2.53125 C4.82742773,2.53125 4.921875,2.43680273 4.921875,2.3203125 L4.921875,1.57674023 C6.21515039,1.760625 7.23948047,2.78557031 7.42325977,4.078125 L6.6796875,4.078125 C6.56319727,4.078125 6.46875,4.17257227 6.46875,4.2890625 L6.46875,4.7109375 C6.46875,4.82742773 6.56319727,4.921875 6.6796875,4.921875 L7.42325977,4.921875 C7.239375,6.21515039 6.21442969,7.23948047 4.921875,7.42325977 Z M5.0625,4.5 C5.0625,4.8106582 4.8106582,5.0625 4.5,5.0625 C4.1893418,5.0625 3.9375,4.8106582 3.9375,4.5 C3.9375,4.1893418 4.1893418,3.9375 4.5,3.9375 C4.8106582,3.9375 5.0625,4.1893418 5.0625,4.5 Z" id="Shape" fill="#8AAEF5" fill-rule="nonzero"></path>
                    </g>
                    <g id="crosshairs" transform="translate(103.000000, 5.000000)">
                        <path d="M8.7890625,4.078125 L8.27342578,4.078125 C8.07885352,2.31829102 6.68170898,0.921146484 4.921875,0.726574219 L4.921875,0.2109375 C4.921875,0.0944472656 4.82742773,0 4.7109375,0 L4.2890625,0 C4.17257227,0 4.078125,0.0944472656 4.078125,0.2109375 L4.078125,0.726574219 C2.31829102,0.921146484 0.921146484,2.31829102 0.726574219,4.078125 L0.2109375,4.078125 C0.0944472656,4.078125 0,4.17257227 0,4.2890625 L0,4.7109375 C0,4.82742773 0.0944472656,4.921875 0.2109375,4.921875 L0.726574219,4.921875 C0.921146484,6.68170898 2.31829102,8.07885352 4.078125,8.27342578 L4.078125,8.7890625 C4.078125,8.90555273 4.17257227,9 4.2890625,9 L4.7109375,9 C4.82742773,9 4.921875,8.90555273 4.921875,8.7890625 L4.921875,8.27342578 C6.68170898,8.07885352 8.07885352,6.68170898 8.27342578,4.921875 L8.7890625,4.921875 C8.90555273,4.921875 9,4.82742773 9,4.7109375 L9,4.2890625 C9,4.17257227 8.90555273,4.078125 8.7890625,4.078125 Z M4.921875,7.42325977 L4.921875,6.6796875 C4.921875,6.56319727 4.82742773,6.46875 4.7109375,6.46875 L4.2890625,6.46875 C4.17257227,6.46875 4.078125,6.56319727 4.078125,6.6796875 L4.078125,7.42325977 C2.78484961,7.239375 1.76051953,6.21442969 1.57674023,4.921875 L2.3203125,4.921875 C2.43680273,4.921875 2.53125,4.82742773 2.53125,4.7109375 L2.53125,4.2890625 C2.53125,4.17257227 2.43680273,4.078125 2.3203125,4.078125 L1.57674023,4.078125 C1.760625,2.78484961 2.78557031,1.76051953 4.078125,1.57674023 L4.078125,2.3203125 C4.078125,2.43680273 4.17257227,2.53125 4.2890625,2.53125 L4.7109375,2.53125 C4.82742773,2.53125 4.921875,2.43680273 4.921875,2.3203125 L4.921875,1.57674023 C6.21515039,1.760625 7.23948047,2.78557031 7.42325977,4.078125 L6.6796875,4.078125 C6.56319727,4.078125 6.46875,4.17257227 6.46875,4.2890625 L6.46875,4.7109375 C6.46875,4.82742773 6.56319727,4.921875 6.6796875,4.921875 L7.42325977,4.921875 C7.239375,6.21515039 6.21442969,7.23948047 4.921875,7.42325977 Z M5.0625,4.5 C5.0625,4.8106582 4.8106582,5.0625 4.5,5.0625 C4.1893418,5.0625 3.9375,4.8106582 3.9375,4.5 C3.9375,4.1893418 4.1893418,3.9375 4.5,3.9375 C4.8106582,3.9375 5.0625,4.1893418 5.0625,4.5 Z" id="Shape" fill="#8AAEF5" fill-rule="nonzero"></path>
                    </g>
                    <g id="crosshairs" transform="translate(196.000000, 7.000000)">
                        <path d="M8.7890625,4.078125 L8.27342578,4.078125 C8.07885352,2.31829102 6.68170898,0.921146484 4.921875,0.726574219 L4.921875,0.2109375 C4.921875,0.0944472656 4.82742773,0 4.7109375,0 L4.2890625,0 C4.17257227,0 4.078125,0.0944472656 4.078125,0.2109375 L4.078125,0.726574219 C2.31829102,0.921146484 0.921146484,2.31829102 0.726574219,4.078125 L0.2109375,4.078125 C0.0944472656,4.078125 0,4.17257227 0,4.2890625 L0,4.7109375 C0,4.82742773 0.0944472656,4.921875 0.2109375,4.921875 L0.726574219,4.921875 C0.921146484,6.68170898 2.31829102,8.07885352 4.078125,8.27342578 L4.078125,8.7890625 C4.078125,8.90555273 4.17257227,9 4.2890625,9 L4.7109375,9 C4.82742773,9 4.921875,8.90555273 4.921875,8.7890625 L4.921875,8.27342578 C6.68170898,8.07885352 8.07885352,6.68170898 8.27342578,4.921875 L8.7890625,4.921875 C8.90555273,4.921875 9,4.82742773 9,4.7109375 L9,4.2890625 C9,4.17257227 8.90555273,4.078125 8.7890625,4.078125 Z M4.921875,7.42325977 L4.921875,6.6796875 C4.921875,6.56319727 4.82742773,6.46875 4.7109375,6.46875 L4.2890625,6.46875 C4.17257227,6.46875 4.078125,6.56319727 4.078125,6.6796875 L4.078125,7.42325977 C2.78484961,7.239375 1.76051953,6.21442969 1.57674023,4.921875 L2.3203125,4.921875 C2.43680273,4.921875 2.53125,4.82742773 2.53125,4.7109375 L2.53125,4.2890625 C2.53125,4.17257227 2.43680273,4.078125 2.3203125,4.078125 L1.57674023,4.078125 C1.760625,2.78484961 2.78557031,1.76051953 4.078125,1.57674023 L4.078125,2.3203125 C4.078125,2.43680273 4.17257227,2.53125 4.2890625,2.53125 L4.7109375,2.53125 C4.82742773,2.53125 4.921875,2.43680273 4.921875,2.3203125 L4.921875,1.57674023 C6.21515039,1.760625 7.23948047,2.78557031 7.42325977,4.078125 L6.6796875,4.078125 C6.56319727,4.078125 6.46875,4.17257227 6.46875,4.2890625 L6.46875,4.7109375 C6.46875,4.82742773 6.56319727,4.921875 6.6796875,4.921875 L7.42325977,4.921875 C7.239375,6.21515039 6.21442969,7.23948047 4.921875,7.42325977 Z M5.0625,4.5 C5.0625,4.8106582 4.8106582,5.0625 4.5,5.0625 C4.1893418,5.0625 3.9375,4.8106582 3.9375,4.5 C3.9375,4.1893418 4.1893418,3.9375 4.5,3.9375 C4.8106582,3.9375 5.0625,4.1893418 5.0625,4.5 Z" id="Shape" fill="#8AAEF5" fill-rule="nonzero"></path>
                    </g>
                    <g id="crosshairs" transform="translate(292.000000, 2.000000)">
                        <path d="M8.7890625,4.078125 L8.27342578,4.078125 C8.07885352,2.31829102 6.68170898,0.921146484 4.921875,0.726574219 L4.921875,0.2109375 C4.921875,0.0944472656 4.82742773,0 4.7109375,0 L4.2890625,0 C4.17257227,0 4.078125,0.0944472656 4.078125,0.2109375 L4.078125,0.726574219 C2.31829102,0.921146484 0.921146484,2.31829102 0.726574219,4.078125 L0.2109375,4.078125 C0.0944472656,4.078125 0,4.17257227 0,4.2890625 L0,4.7109375 C0,4.82742773 0.0944472656,4.921875 0.2109375,4.921875 L0.726574219,4.921875 C0.921146484,6.68170898 2.31829102,8.07885352 4.078125,8.27342578 L4.078125,8.7890625 C4.078125,8.90555273 4.17257227,9 4.2890625,9 L4.7109375,9 C4.82742773,9 4.921875,8.90555273 4.921875,8.7890625 L4.921875,8.27342578 C6.68170898,8.07885352 8.07885352,6.68170898 8.27342578,4.921875 L8.7890625,4.921875 C8.90555273,4.921875 9,4.82742773 9,4.7109375 L9,4.2890625 C9,4.17257227 8.90555273,4.078125 8.7890625,4.078125 Z M4.921875,7.42325977 L4.921875,6.6796875 C4.921875,6.56319727 4.82742773,6.46875 4.7109375,6.46875 L4.2890625,6.46875 C4.17257227,6.46875 4.078125,6.56319727 4.078125,6.6796875 L4.078125,7.42325977 C2.78484961,7.239375 1.76051953,6.21442969 1.57674023,4.921875 L2.3203125,4.921875 C2.43680273,4.921875 2.53125,4.82742773 2.53125,4.7109375 L2.53125,4.2890625 C2.53125,4.17257227 2.43680273,4.078125 2.3203125,4.078125 L1.57674023,4.078125 C1.760625,2.78484961 2.78557031,1.76051953 4.078125,1.57674023 L4.078125,2.3203125 C4.078125,2.43680273 4.17257227,2.53125 4.2890625,2.53125 L4.7109375,2.53125 C4.82742773,2.53125 4.921875,2.43680273 4.921875,2.3203125 L4.921875,1.57674023 C6.21515039,1.760625 7.23948047,2.78557031 7.42325977,4.078125 L6.6796875,4.078125 C6.56319727,4.078125 6.46875,4.17257227 6.46875,4.2890625 L6.46875,4.7109375 C6.46875,4.82742773 6.56319727,4.921875 6.6796875,4.921875 L7.42325977,4.921875 C7.239375,6.21515039 6.21442969,7.23948047 4.921875,7.42325977 Z M5.0625,4.5 C5.0625,4.8106582 4.8106582,5.0625 4.5,5.0625 C4.1893418,5.0625 3.9375,4.8106582 3.9375,4.5 C3.9375,4.1893418 4.1893418,3.9375 4.5,3.9375 C4.8106582,3.9375 5.0625,4.1893418 5.0625,4.5 Z" id="Shape" fill="#8AAEF5" fill-rule="nonzero"></path>
                    </g>
                    <g id="list-ol" transform="translate(26.000000, 5.000000)">
                        <path d="M1.08580078,6.48632812 L1.39341797,6.13212891 C1.4546396,6.06386121 1.48663861,5.97430186 1.48253906,5.88269531 L1.48253906,5.82451172 C1.48253906,5.6953125 1.41503906,5.625 1.28320312,5.625 L0.28125,5.625 C0.203584957,5.625 0.140625,5.68795996 0.140625,5.765625 L0.140625,6.046875 C0.140625,6.12454004 0.203584957,6.1875 0.28125,6.1875 L0.682734375,6.1875 C0.61447878,6.25613877 0.549933918,6.32837034 0.489375,6.40388672 L0.390761719,6.52693359 C0.320449219,6.61605469 0.298476563,6.705 0.341542969,6.78849609 L0.36,6.82242187 C0.412734375,6.92367187 0.470742188,6.9609375 0.575332031,6.9609375 L0.658476563,6.9609375 C0.840058594,6.9609375 0.938671875,7.00382812 0.938671875,7.12072266 C0.938671875,7.20369141 0.86484375,7.26521484 0.68625,7.26521484 C0.59293372,7.26447815 0.500623638,7.24586099 0.414316406,7.21037109 C0.300234375,7.14216797 0.207949219,7.14884766 0.140097656,7.26521484 L0.0418359375,7.42886719 C-0.0237304687,7.53662109 -0.0144140625,7.63488281 0.087890625,7.7090625 C0.223417969,7.79150391 0.446308594,7.875 0.73828125,7.875 C1.33875,7.875 1.59082031,7.47509766 1.59082031,7.09945312 C1.59029297,6.84667969 1.43050781,6.57632812 1.08580078,6.48632812 L1.08580078,6.48632812 Z M8.71875,6.328125 L3.09375,6.328125 C2.93841991,6.328125 2.8125,6.45404491 2.8125,6.609375 L2.8125,6.890625 C2.8125,7.04595509 2.93841991,7.171875 3.09375,7.171875 L8.71875,7.171875 C8.87408009,7.171875 9,7.04595509 9,6.890625 L9,6.609375 C9,6.45404491 8.87408009,6.328125 8.71875,6.328125 Z M8.71875,0.703125 L3.09375,0.703125 C2.93841991,0.703125 2.8125,0.829044914 2.8125,0.984375 L2.8125,1.265625 C2.8125,1.42095509 2.93841991,1.546875 3.09375,1.546875 L8.71875,1.546875 C8.87408009,1.546875 9,1.42095509 9,1.265625 L9,0.984375 C9,0.829044914 8.87408009,0.703125 8.71875,0.703125 Z M8.71875,3.515625 L3.09375,3.515625 C2.93841991,3.515625 2.8125,3.64154491 2.8125,3.796875 L2.8125,4.078125 C2.8125,4.23345509 2.93841991,4.359375 3.09375,4.359375 L8.71875,4.359375 C8.87408009,4.359375 9,4.23345509 9,4.078125 L9,3.796875 C9,3.64154491 8.87408009,3.515625 8.71875,3.515625 Z M0.28125,2.25 L1.40625,2.25 C1.48391504,2.25 1.546875,2.18704004 1.546875,2.109375 L1.546875,1.828125 C1.546875,1.75045996 1.48391504,1.6875 1.40625,1.6875 L1.125,1.6875 L1.125,0.140625 C1.125,0.0629599571 1.06204004,0 0.984375,0 L0.5625,0 C0.509341791,9.48731152e-05 0.460780439,0.0301566621 0.436992188,0.0776953125 L0.296367188,0.358945313 C0.274573449,0.402497723 0.276865263,0.454225806 0.302425232,0.495680208 C0.3279852,0.537134611 0.373174159,0.56241316 0.421875,0.5625 L0.5625,0.5625 L0.5625,1.6875 L0.28125,1.6875 C0.203584957,1.6875 0.140625,1.75045996 0.140625,1.828125 L0.140625,2.109375 C0.140625,2.18704004 0.203584957,2.25 0.28125,2.25 Z M0.212695313,5.0625 L1.40625,5.0625 C1.48391504,5.0625 1.546875,4.99954004 1.546875,4.921875 L1.546875,4.640625 C1.546875,4.56295996 1.48391504,4.5 1.40625,4.5 L0.726503906,4.5 C0.784160156,4.31912109 1.57605469,4.17164063 1.57605469,3.50789062 C1.57605469,2.99707031 1.13660156,2.8125 0.794355469,2.8125 C0.418886719,2.8125 0.200214844,2.98828125 0.0833203125,3.14208984 C0.006328125,3.24035156 0.0305859375,3.33263672 0.132363281,3.41226562 L0.283183594,3.53320312 C0.381796875,3.61335937 0.476542969,3.57662109 0.56671875,3.4903125 C0.61102596,3.44679333 0.670727532,3.42253365 0.732832031,3.4228125 C0.791367187,3.4228125 0.895957031,3.45023437 0.895957031,3.57662109 C0.896484375,3.80021484 0,3.96052734 0,4.79162109 L0,4.86193359 C0,4.9921875 0.089296875,5.0625 0.212695313,5.0625 Z" id="Shape" fill="#8AAEF5" fill-rule="nonzero"></path>
                    </g>
                    <g id="list-ol" transform="translate(340.000000, 5.000000)">
                        <path d="M1.08580078,6.48632812 L1.39341797,6.13212891 C1.4546396,6.06386121 1.48663861,5.97430186 1.48253906,5.88269531 L1.48253906,5.82451172 C1.48253906,5.6953125 1.41503906,5.625 1.28320312,5.625 L0.28125,5.625 C0.203584957,5.625 0.140625,5.68795996 0.140625,5.765625 L0.140625,6.046875 C0.140625,6.12454004 0.203584957,6.1875 0.28125,6.1875 L0.682734375,6.1875 C0.61447878,6.25613877 0.549933918,6.32837034 0.489375,6.40388672 L0.390761719,6.52693359 C0.320449219,6.61605469 0.298476563,6.705 0.341542969,6.78849609 L0.36,6.82242187 C0.412734375,6.92367187 0.470742188,6.9609375 0.575332031,6.9609375 L0.658476563,6.9609375 C0.840058594,6.9609375 0.938671875,7.00382812 0.938671875,7.12072266 C0.938671875,7.20369141 0.86484375,7.26521484 0.68625,7.26521484 C0.59293372,7.26447815 0.500623638,7.24586099 0.414316406,7.21037109 C0.300234375,7.14216797 0.207949219,7.14884766 0.140097656,7.26521484 L0.0418359375,7.42886719 C-0.0237304687,7.53662109 -0.0144140625,7.63488281 0.087890625,7.7090625 C0.223417969,7.79150391 0.446308594,7.875 0.73828125,7.875 C1.33875,7.875 1.59082031,7.47509766 1.59082031,7.09945312 C1.59029297,6.84667969 1.43050781,6.57632812 1.08580078,6.48632812 L1.08580078,6.48632812 Z M8.71875,6.328125 L3.09375,6.328125 C2.93841991,6.328125 2.8125,6.45404491 2.8125,6.609375 L2.8125,6.890625 C2.8125,7.04595509 2.93841991,7.171875 3.09375,7.171875 L8.71875,7.171875 C8.87408009,7.171875 9,7.04595509 9,6.890625 L9,6.609375 C9,6.45404491 8.87408009,6.328125 8.71875,6.328125 Z M8.71875,0.703125 L3.09375,0.703125 C2.93841991,0.703125 2.8125,0.829044914 2.8125,0.984375 L2.8125,1.265625 C2.8125,1.42095509 2.93841991,1.546875 3.09375,1.546875 L8.71875,1.546875 C8.87408009,1.546875 9,1.42095509 9,1.265625 L9,0.984375 C9,0.829044914 8.87408009,0.703125 8.71875,0.703125 Z M8.71875,3.515625 L3.09375,3.515625 C2.93841991,3.515625 2.8125,3.64154491 2.8125,3.796875 L2.8125,4.078125 C2.8125,4.23345509 2.93841991,4.359375 3.09375,4.359375 L8.71875,4.359375 C8.87408009,4.359375 9,4.23345509 9,4.078125 L9,3.796875 C9,3.64154491 8.87408009,3.515625 8.71875,3.515625 Z M0.28125,2.25 L1.40625,2.25 C1.48391504,2.25 1.546875,2.18704004 1.546875,2.109375 L1.546875,1.828125 C1.546875,1.75045996 1.48391504,1.6875 1.40625,1.6875 L1.125,1.6875 L1.125,0.140625 C1.125,0.0629599571 1.06204004,0 0.984375,0 L0.5625,0 C0.509341791,9.48731152e-05 0.460780439,0.0301566621 0.436992188,0.0776953125 L0.296367188,0.358945313 C0.274573449,0.402497723 0.276865263,0.454225806 0.302425232,0.495680208 C0.3279852,0.537134611 0.373174159,0.56241316 0.421875,0.5625 L0.5625,0.5625 L0.5625,1.6875 L0.28125,1.6875 C0.203584957,1.6875 0.140625,1.75045996 0.140625,1.828125 L0.140625,2.109375 C0.140625,2.18704004 0.203584957,2.25 0.28125,2.25 Z M0.212695313,5.0625 L1.40625,5.0625 C1.48391504,5.0625 1.546875,4.99954004 1.546875,4.921875 L1.546875,4.640625 C1.546875,4.56295996 1.48391504,4.5 1.40625,4.5 L0.726503906,4.5 C0.784160156,4.31912109 1.57605469,4.17164063 1.57605469,3.50789062 C1.57605469,2.99707031 1.13660156,2.8125 0.794355469,2.8125 C0.418886719,2.8125 0.200214844,2.98828125 0.0833203125,3.14208984 C0.006328125,3.24035156 0.0305859375,3.33263672 0.132363281,3.41226562 L0.283183594,3.53320312 C0.381796875,3.61335937 0.476542969,3.57662109 0.56671875,3.4903125 C0.61102596,3.44679333 0.670727532,3.42253365 0.732832031,3.4228125 C0.791367187,3.4228125 0.895957031,3.45023437 0.895957031,3.57662109 C0.896484375,3.80021484 0,3.96052734 0,4.79162109 L0,4.86193359 C0,4.9921875 0.089296875,5.0625 0.212695313,5.0625 Z" id="Shape" fill="#8AAEF5" fill-rule="nonzero"></path>
                    </g>
                    <g id="list-ol" transform="translate(147.000000, 7.000000)">
                        <path d="M1.08580078,6.48632812 L1.39341797,6.13212891 C1.4546396,6.06386121 1.48663861,5.97430186 1.48253906,5.88269531 L1.48253906,5.82451172 C1.48253906,5.6953125 1.41503906,5.625 1.28320312,5.625 L0.28125,5.625 C0.203584957,5.625 0.140625,5.68795996 0.140625,5.765625 L0.140625,6.046875 C0.140625,6.12454004 0.203584957,6.1875 0.28125,6.1875 L0.682734375,6.1875 C0.61447878,6.25613877 0.549933918,6.32837034 0.489375,6.40388672 L0.390761719,6.52693359 C0.320449219,6.61605469 0.298476563,6.705 0.341542969,6.78849609 L0.36,6.82242187 C0.412734375,6.92367187 0.470742188,6.9609375 0.575332031,6.9609375 L0.658476563,6.9609375 C0.840058594,6.9609375 0.938671875,7.00382812 0.938671875,7.12072266 C0.938671875,7.20369141 0.86484375,7.26521484 0.68625,7.26521484 C0.59293372,7.26447815 0.500623638,7.24586099 0.414316406,7.21037109 C0.300234375,7.14216797 0.207949219,7.14884766 0.140097656,7.26521484 L0.0418359375,7.42886719 C-0.0237304687,7.53662109 -0.0144140625,7.63488281 0.087890625,7.7090625 C0.223417969,7.79150391 0.446308594,7.875 0.73828125,7.875 C1.33875,7.875 1.59082031,7.47509766 1.59082031,7.09945312 C1.59029297,6.84667969 1.43050781,6.57632812 1.08580078,6.48632812 L1.08580078,6.48632812 Z M8.71875,6.328125 L3.09375,6.328125 C2.93841991,6.328125 2.8125,6.45404491 2.8125,6.609375 L2.8125,6.890625 C2.8125,7.04595509 2.93841991,7.171875 3.09375,7.171875 L8.71875,7.171875 C8.87408009,7.171875 9,7.04595509 9,6.890625 L9,6.609375 C9,6.45404491 8.87408009,6.328125 8.71875,6.328125 Z M8.71875,0.703125 L3.09375,0.703125 C2.93841991,0.703125 2.8125,0.829044914 2.8125,0.984375 L2.8125,1.265625 C2.8125,1.42095509 2.93841991,1.546875 3.09375,1.546875 L8.71875,1.546875 C8.87408009,1.546875 9,1.42095509 9,1.265625 L9,0.984375 C9,0.829044914 8.87408009,0.703125 8.71875,0.703125 Z M8.71875,3.515625 L3.09375,3.515625 C2.93841991,3.515625 2.8125,3.64154491 2.8125,3.796875 L2.8125,4.078125 C2.8125,4.23345509 2.93841991,4.359375 3.09375,4.359375 L8.71875,4.359375 C8.87408009,4.359375 9,4.23345509 9,4.078125 L9,3.796875 C9,3.64154491 8.87408009,3.515625 8.71875,3.515625 Z M0.28125,2.25 L1.40625,2.25 C1.48391504,2.25 1.546875,2.18704004 1.546875,2.109375 L1.546875,1.828125 C1.546875,1.75045996 1.48391504,1.6875 1.40625,1.6875 L1.125,1.6875 L1.125,0.140625 C1.125,0.0629599571 1.06204004,0 0.984375,0 L0.5625,0 C0.509341791,9.48731152e-05 0.460780439,0.0301566621 0.436992188,0.0776953125 L0.296367188,0.358945313 C0.274573449,0.402497723 0.276865263,0.454225806 0.302425232,0.495680208 C0.3279852,0.537134611 0.373174159,0.56241316 0.421875,0.5625 L0.5625,0.5625 L0.5625,1.6875 L0.28125,1.6875 C0.203584957,1.6875 0.140625,1.75045996 0.140625,1.828125 L0.140625,2.109375 C0.140625,2.18704004 0.203584957,2.25 0.28125,2.25 Z M0.212695313,5.0625 L1.40625,5.0625 C1.48391504,5.0625 1.546875,4.99954004 1.546875,4.921875 L1.546875,4.640625 C1.546875,4.56295996 1.48391504,4.5 1.40625,4.5 L0.726503906,4.5 C0.784160156,4.31912109 1.57605469,4.17164063 1.57605469,3.50789062 C1.57605469,2.99707031 1.13660156,2.8125 0.794355469,2.8125 C0.418886719,2.8125 0.200214844,2.98828125 0.0833203125,3.14208984 C0.006328125,3.24035156 0.0305859375,3.33263672 0.132363281,3.41226562 L0.283183594,3.53320312 C0.381796875,3.61335937 0.476542969,3.57662109 0.56671875,3.4903125 C0.61102596,3.44679333 0.670727532,3.42253365 0.732832031,3.4228125 C0.791367187,3.4228125 0.895957031,3.45023437 0.895957031,3.57662109 C0.896484375,3.80021484 0,3.96052734 0,4.79162109 L0,4.86193359 C0,4.9921875 0.089296875,5.0625 0.212695313,5.0625 Z" id="Shape" fill="#8AAEF5" fill-rule="nonzero"></path>
                    </g>
                    <g id="list-ol" transform="translate(270.000000, 5.000000)">
                        <path d="M1.08580078,6.48632812 L1.39341797,6.13212891 C1.4546396,6.06386121 1.48663861,5.97430186 1.48253906,5.88269531 L1.48253906,5.82451172 C1.48253906,5.6953125 1.41503906,5.625 1.28320312,5.625 L0.28125,5.625 C0.203584957,5.625 0.140625,5.68795996 0.140625,5.765625 L0.140625,6.046875 C0.140625,6.12454004 0.203584957,6.1875 0.28125,6.1875 L0.682734375,6.1875 C0.61447878,6.25613877 0.549933918,6.32837034 0.489375,6.40388672 L0.390761719,6.52693359 C0.320449219,6.61605469 0.298476563,6.705 0.341542969,6.78849609 L0.36,6.82242187 C0.412734375,6.92367187 0.470742188,6.9609375 0.575332031,6.9609375 L0.658476563,6.9609375 C0.840058594,6.9609375 0.938671875,7.00382812 0.938671875,7.12072266 C0.938671875,7.20369141 0.86484375,7.26521484 0.68625,7.26521484 C0.59293372,7.26447815 0.500623638,7.24586099 0.414316406,7.21037109 C0.300234375,7.14216797 0.207949219,7.14884766 0.140097656,7.26521484 L0.0418359375,7.42886719 C-0.0237304687,7.53662109 -0.0144140625,7.63488281 0.087890625,7.7090625 C0.223417969,7.79150391 0.446308594,7.875 0.73828125,7.875 C1.33875,7.875 1.59082031,7.47509766 1.59082031,7.09945312 C1.59029297,6.84667969 1.43050781,6.57632812 1.08580078,6.48632812 L1.08580078,6.48632812 Z M8.71875,6.328125 L3.09375,6.328125 C2.93841991,6.328125 2.8125,6.45404491 2.8125,6.609375 L2.8125,6.890625 C2.8125,7.04595509 2.93841991,7.171875 3.09375,7.171875 L8.71875,7.171875 C8.87408009,7.171875 9,7.04595509 9,6.890625 L9,6.609375 C9,6.45404491 8.87408009,6.328125 8.71875,6.328125 Z M8.71875,0.703125 L3.09375,0.703125 C2.93841991,0.703125 2.8125,0.829044914 2.8125,0.984375 L2.8125,1.265625 C2.8125,1.42095509 2.93841991,1.546875 3.09375,1.546875 L8.71875,1.546875 C8.87408009,1.546875 9,1.42095509 9,1.265625 L9,0.984375 C9,0.829044914 8.87408009,0.703125 8.71875,0.703125 Z M8.71875,3.515625 L3.09375,3.515625 C2.93841991,3.515625 2.8125,3.64154491 2.8125,3.796875 L2.8125,4.078125 C2.8125,4.23345509 2.93841991,4.359375 3.09375,4.359375 L8.71875,4.359375 C8.87408009,4.359375 9,4.23345509 9,4.078125 L9,3.796875 C9,3.64154491 8.87408009,3.515625 8.71875,3.515625 Z M0.28125,2.25 L1.40625,2.25 C1.48391504,2.25 1.546875,2.18704004 1.546875,2.109375 L1.546875,1.828125 C1.546875,1.75045996 1.48391504,1.6875 1.40625,1.6875 L1.125,1.6875 L1.125,0.140625 C1.125,0.0629599571 1.06204004,0 0.984375,0 L0.5625,0 C0.509341791,9.48731152e-05 0.460780439,0.0301566621 0.436992188,0.0776953125 L0.296367188,0.358945313 C0.274573449,0.402497723 0.276865263,0.454225806 0.302425232,0.495680208 C0.3279852,0.537134611 0.373174159,0.56241316 0.421875,0.5625 L0.5625,0.5625 L0.5625,1.6875 L0.28125,1.6875 C0.203584957,1.6875 0.140625,1.75045996 0.140625,1.828125 L0.140625,2.109375 C0.140625,2.18704004 0.203584957,2.25 0.28125,2.25 Z M0.212695313,5.0625 L1.40625,5.0625 C1.48391504,5.0625 1.546875,4.99954004 1.546875,4.921875 L1.546875,4.640625 C1.546875,4.56295996 1.48391504,4.5 1.40625,4.5 L0.726503906,4.5 C0.784160156,4.31912109 1.57605469,4.17164063 1.57605469,3.50789062 C1.57605469,2.99707031 1.13660156,2.8125 0.794355469,2.8125 C0.418886719,2.8125 0.200214844,2.98828125 0.0833203125,3.14208984 C0.006328125,3.24035156 0.0305859375,3.33263672 0.132363281,3.41226562 L0.283183594,3.53320312 C0.381796875,3.61335937 0.476542969,3.57662109 0.56671875,3.4903125 C0.61102596,3.44679333 0.670727532,3.42253365 0.732832031,3.4228125 C0.791367187,3.4228125 0.895957031,3.45023437 0.895957031,3.57662109 C0.896484375,3.80021484 0,3.96052734 0,4.79162109 L0,4.86193359 C0,4.9921875 0.089296875,5.0625 0.212695313,5.0625 Z" id="Shape" fill="#8AAEF5" fill-rule="nonzero"></path>
                    </g>
                    <g id="list-ol" transform="translate(210.000000, 2.000000)">
                        <path d="M1.08580078,6.48632812 L1.39341797,6.13212891 C1.4546396,6.06386121 1.48663861,5.97430186 1.48253906,5.88269531 L1.48253906,5.82451172 C1.48253906,5.6953125 1.41503906,5.625 1.28320312,5.625 L0.28125,5.625 C0.203584957,5.625 0.140625,5.68795996 0.140625,5.765625 L0.140625,6.046875 C0.140625,6.12454004 0.203584957,6.1875 0.28125,6.1875 L0.682734375,6.1875 C0.61447878,6.25613877 0.549933918,6.32837034 0.489375,6.40388672 L0.390761719,6.52693359 C0.320449219,6.61605469 0.298476563,6.705 0.341542969,6.78849609 L0.36,6.82242187 C0.412734375,6.92367187 0.470742188,6.9609375 0.575332031,6.9609375 L0.658476563,6.9609375 C0.840058594,6.9609375 0.938671875,7.00382812 0.938671875,7.12072266 C0.938671875,7.20369141 0.86484375,7.26521484 0.68625,7.26521484 C0.59293372,7.26447815 0.500623638,7.24586099 0.414316406,7.21037109 C0.300234375,7.14216797 0.207949219,7.14884766 0.140097656,7.26521484 L0.0418359375,7.42886719 C-0.0237304687,7.53662109 -0.0144140625,7.63488281 0.087890625,7.7090625 C0.223417969,7.79150391 0.446308594,7.875 0.73828125,7.875 C1.33875,7.875 1.59082031,7.47509766 1.59082031,7.09945312 C1.59029297,6.84667969 1.43050781,6.57632812 1.08580078,6.48632812 L1.08580078,6.48632812 Z M8.71875,6.328125 L3.09375,6.328125 C2.93841991,6.328125 2.8125,6.45404491 2.8125,6.609375 L2.8125,6.890625 C2.8125,7.04595509 2.93841991,7.171875 3.09375,7.171875 L8.71875,7.171875 C8.87408009,7.171875 9,7.04595509 9,6.890625 L9,6.609375 C9,6.45404491 8.87408009,6.328125 8.71875,6.328125 Z M8.71875,0.703125 L3.09375,0.703125 C2.93841991,0.703125 2.8125,0.829044914 2.8125,0.984375 L2.8125,1.265625 C2.8125,1.42095509 2.93841991,1.546875 3.09375,1.546875 L8.71875,1.546875 C8.87408009,1.546875 9,1.42095509 9,1.265625 L9,0.984375 C9,0.829044914 8.87408009,0.703125 8.71875,0.703125 Z M8.71875,3.515625 L3.09375,3.515625 C2.93841991,3.515625 2.8125,3.64154491 2.8125,3.796875 L2.8125,4.078125 C2.8125,4.23345509 2.93841991,4.359375 3.09375,4.359375 L8.71875,4.359375 C8.87408009,4.359375 9,4.23345509 9,4.078125 L9,3.796875 C9,3.64154491 8.87408009,3.515625 8.71875,3.515625 Z M0.28125,2.25 L1.40625,2.25 C1.48391504,2.25 1.546875,2.18704004 1.546875,2.109375 L1.546875,1.828125 C1.546875,1.75045996 1.48391504,1.6875 1.40625,1.6875 L1.125,1.6875 L1.125,0.140625 C1.125,0.0629599571 1.06204004,0 0.984375,0 L0.5625,0 C0.509341791,9.48731152e-05 0.460780439,0.0301566621 0.436992188,0.0776953125 L0.296367188,0.358945313 C0.274573449,0.402497723 0.276865263,0.454225806 0.302425232,0.495680208 C0.3279852,0.537134611 0.373174159,0.56241316 0.421875,0.5625 L0.5625,0.5625 L0.5625,1.6875 L0.28125,1.6875 C0.203584957,1.6875 0.140625,1.75045996 0.140625,1.828125 L0.140625,2.109375 C0.140625,2.18704004 0.203584957,2.25 0.28125,2.25 Z M0.212695313,5.0625 L1.40625,5.0625 C1.48391504,5.0625 1.546875,4.99954004 1.546875,4.921875 L1.546875,4.640625 C1.546875,4.56295996 1.48391504,4.5 1.40625,4.5 L0.726503906,4.5 C0.784160156,4.31912109 1.57605469,4.17164063 1.57605469,3.50789062 C1.57605469,2.99707031 1.13660156,2.8125 0.794355469,2.8125 C0.418886719,2.8125 0.200214844,2.98828125 0.0833203125,3.14208984 C0.006328125,3.24035156 0.0305859375,3.33263672 0.132363281,3.41226562 L0.283183594,3.53320312 C0.381796875,3.61335937 0.476542969,3.57662109 0.56671875,3.4903125 C0.61102596,3.44679333 0.670727532,3.42253365 0.732832031,3.4228125 C0.791367187,3.4228125 0.895957031,3.45023437 0.895957031,3.57662109 C0.896484375,3.80021484 0,3.96052734 0,4.79162109 L0,4.86193359 C0,4.9921875 0.089296875,5.0625 0.212695313,5.0625 Z" id="Shape" fill="#8AAEF5" fill-rule="nonzero"></path>
                    </g>
                </g>
            </g>
        </g>
    </g>
</svg>