<?xml version="1.0" encoding="UTF-8"?>
<svg width="12px" height="284px" viewBox="0 0 12 284" version="1.1" xmlns="http://www.w3.org/2000/svg" xmlns:xlink="http://www.w3.org/1999/xlink">
    <!-- Generator: Sketch 63.1 (92452) - https://sketch.com -->
    <title>Group 12</title>
    <desc>Created with Sketch.</desc>
    <defs>
        <rect id="path-1" x="0" y="0" width="12" height="284"></rect>
    </defs>
    <g id="Playbooks" stroke="none" stroke-width="1" fill="none" fill-rule="evenodd">
        <g id="Group-12">
            <mask id="mask-2" fill="white">
                <use xlink:href="#path-1"></use>
            </mask>
            <use id="Mask" fill="#4A82F1" xlink:href="#path-1"></use>
            <g mask="url(#mask-2)">
                <g transform="translate(-4.000000, 6.000000)">
                    <g id="rocket-launch" transform="translate(13.000000, 20.000000) rotate(-56.000000) translate(-13.000000, -20.000000) translate(8.000000, 15.000000)">
                        <path d="M0.696977148,6.87629707 C0.19195,7.38124844 -0.0576070313,8.64440918 0.0112480469,9.98847969 C1.36115313,10.0579834 2.62084082,9.80583184 3.1238457,9.30282598 C3.91074023,8.5161209 3.96128516,7.46715547 3.24709844,6.75304414 C2.53295039,6.03900918 1.48379551,6.08955391 0.696977148,6.87629707 Z M2.29136582,8.51753242 C2.12367207,8.68518867 1.70378887,8.76922617 1.25388398,8.74603281 C1.23095781,8.29807285 1.31411836,7.87704473 1.48246035,7.70874023 C1.74472051,7.44651797 2.09437441,7.42965703 2.33241191,7.66765586 C2.57044922,7.90569297 2.55362598,8.25531016 2.29136582,8.51753242 Z M9.86646699,0.376892188 C9.84350254,0.270194922 9.72997734,0.156860352 9.62328047,0.134048438 C8.99641211,0 8.50515625,0 8.01599805,0 C6.00000957,0 4.79101914,1.07818594 3.88850117,2.5 L1.85328652,2.5 C1.53498867,2.5 1.15798262,2.7328873 1.01561836,3.01754004 L0.0503486328,4.94720469 C0.0205101824,5.0130207 0.00381972981,5.08403298 0.00121542969,5.15625 C0.00121542969,5.41512609 0.211164912,5.62495268 0.470041016,5.625 L2.50037305,5.625 C2.9976897,5.62496275 3.47465212,5.82248643 3.82633289,6.17411761 C4.17801367,6.52574879 4.37560461,7.00268335 4.3756375,7.5 L4.3756375,9.53125 C4.37572656,9.79012617 4.5855871,10 4.84446328,10 C4.91667088,9.99732612 4.98766984,9.98063879 5.0535084,9.9508668 L6.98217852,8.98590078 C7.26656387,8.8436127 7.49925996,8.46706387 7.49925996,8.14910898 L7.49925996,6.10931406 C8.91699043,5.20477305 9.99963809,3.9920043 9.99963809,1.98638906 C10.0014689,1.49517051 10.0014689,1.00395195 9.86646699,0.376892188 Z M6.99488125,5.31898437 C6.50011563,5.63465059 6.84828262,5.45062969 5.05511035,6.33869141 C4.77294203,5.72146226 4.27778109,5.2265986 3.66038262,4.94480098 C4.54657402,3.15410566 4.36148477,3.50437129 4.68016426,3.00235703 C5.59889473,1.55502324 6.59651289,0.9375 8.01599805,0.9375 C8.36069355,0.9375 8.6710957,0.9375 9.01937695,0.98140625 C9.06439023,1.33811855 9.06320762,1.65462402 9.06198691,1.98638809 C9.06198652,3.39790352 8.44377754,4.39457031 6.99488125,5.31898437 Z M7.18859121,2.03125 C6.75713353,2.03131267 6.40741291,2.38111795 6.40745469,2.81257564 C6.40749647,3.24403333 6.75728482,3.59377088 7.18874251,3.59374999 C7.6202002,3.5937291 7.96995469,3.24395769 7.96995469,2.8125 C7.96974482,2.38107019 7.62002104,2.03139721 7.18859121,2.03125 L7.18859121,2.03125 Z" id="Shape" fill="#8AAEF5" fill-rule="nonzero"></path>
                    </g>
                    <g id="rocket-launch" transform="translate(11.000000, 218.000000) rotate(-56.000000) translate(-11.000000, -218.000000) translate(6.000000, 213.000000)">
                        <path d="M0.696977148,6.87629707 C0.19195,7.38124844 -0.0576070313,8.64440918 0.0112480469,9.98847969 C1.36115313,10.0579834 2.62084082,9.80583184 3.1238457,9.30282598 C3.91074023,8.5161209 3.96128516,7.46715547 3.24709844,6.75304414 C2.53295039,6.03900918 1.48379551,6.08955391 0.696977148,6.87629707 Z M2.29136582,8.51753242 C2.12367207,8.68518867 1.70378887,8.76922617 1.25388398,8.74603281 C1.23095781,8.29807285 1.31411836,7.87704473 1.48246035,7.70874023 C1.74472051,7.44651797 2.09437441,7.42965703 2.33241191,7.66765586 C2.57044922,7.90569297 2.55362598,8.25531016 2.29136582,8.51753242 Z M9.86646699,0.376892188 C9.84350254,0.270194922 9.72997734,0.156860352 9.62328047,0.134048438 C8.99641211,0 8.50515625,0 8.01599805,0 C6.00000957,0 4.79101914,1.07818594 3.88850117,2.5 L1.85328652,2.5 C1.53498867,2.5 1.15798262,2.7328873 1.01561836,3.01754004 L0.0503486328,4.94720469 C0.0205101824,5.0130207 0.00381972981,5.08403298 0.00121542969,5.15625 C0.00121542969,5.41512609 0.211164912,5.62495268 0.470041016,5.625 L2.50037305,5.625 C2.9976897,5.62496275 3.47465212,5.82248643 3.82633289,6.17411761 C4.17801367,6.52574879 4.37560461,7.00268335 4.3756375,7.5 L4.3756375,9.53125 C4.37572656,9.79012617 4.5855871,10 4.84446328,10 C4.91667088,9.99732612 4.98766984,9.98063879 5.0535084,9.9508668 L6.98217852,8.98590078 C7.26656387,8.8436127 7.49925996,8.46706387 7.49925996,8.14910898 L7.49925996,6.10931406 C8.91699043,5.20477305 9.99963809,3.9920043 9.99963809,1.98638906 C10.0014689,1.49517051 10.0014689,1.00395195 9.86646699,0.376892188 Z M6.99488125,5.31898437 C6.50011563,5.63465059 6.84828262,5.45062969 5.05511035,6.33869141 C4.77294203,5.72146226 4.27778109,5.2265986 3.66038262,4.94480098 C4.54657402,3.15410566 4.36148477,3.50437129 4.68016426,3.00235703 C5.59889473,1.55502324 6.59651289,0.9375 8.01599805,0.9375 C8.36069355,0.9375 8.6710957,0.9375 9.01937695,0.98140625 C9.06439023,1.33811855 9.06320762,1.65462402 9.06198691,1.98638809 C9.06198652,3.39790352 8.44377754,4.39457031 6.99488125,5.31898437 Z M7.18859121,2.03125 C6.75713353,2.03131267 6.40741291,2.38111795 6.40745469,2.81257564 C6.40749647,3.24403333 6.75728482,3.59377088 7.18874251,3.59374999 C7.6202002,3.5937291 7.96995469,3.24395769 7.96995469,2.8125 C7.96974482,2.38107019 7.62002104,2.03139721 7.18859121,2.03125 L7.18859121,2.03125 Z" id="Shape" fill="#8AAEF5" fill-rule="nonzero"></path>
                    </g>
                    <g id="rocket-launch" transform="translate(10.000000, 140.000000) rotate(-26.000000) translate(-10.000000, -140.000000) translate(5.000000, 135.000000)">
                        <path d="M0.696977148,6.87629707 C0.19195,7.38124844 -0.0576070313,8.64440918 0.0112480469,9.98847969 C1.36115313,10.0579834 2.62084082,9.80583184 3.1238457,9.30282598 C3.91074023,8.5161209 3.96128516,7.46715547 3.24709844,6.75304414 C2.53295039,6.03900918 1.48379551,6.08955391 0.696977148,6.87629707 Z M2.29136582,8.51753242 C2.12367207,8.68518867 1.70378887,8.76922617 1.25388398,8.74603281 C1.23095781,8.29807285 1.31411836,7.87704473 1.48246035,7.70874023 C1.74472051,7.44651797 2.09437441,7.42965703 2.33241191,7.66765586 C2.57044922,7.90569297 2.55362598,8.25531016 2.29136582,8.51753242 Z M9.86646699,0.376892188 C9.84350254,0.270194922 9.72997734,0.156860352 9.62328047,0.134048438 C8.99641211,0 8.50515625,0 8.01599805,0 C6.00000957,0 4.79101914,1.07818594 3.88850117,2.5 L1.85328652,2.5 C1.53498867,2.5 1.15798262,2.7328873 1.01561836,3.01754004 L0.0503486328,4.94720469 C0.0205101824,5.0130207 0.00381972981,5.08403298 0.00121542969,5.15625 C0.00121542969,5.41512609 0.211164912,5.62495268 0.470041016,5.625 L2.50037305,5.625 C2.9976897,5.62496275 3.47465212,5.82248643 3.82633289,6.17411761 C4.17801367,6.52574879 4.37560461,7.00268335 4.3756375,7.5 L4.3756375,9.53125 C4.37572656,9.79012617 4.5855871,10 4.84446328,10 C4.91667088,9.99732612 4.98766984,9.98063879 5.0535084,9.9508668 L6.98217852,8.98590078 C7.26656387,8.8436127 7.49925996,8.46706387 7.49925996,8.14910898 L7.49925996,6.10931406 C8.91699043,5.20477305 9.99963809,3.9920043 9.99963809,1.98638906 C10.0014689,1.49517051 10.0014689,1.00395195 9.86646699,0.376892188 Z M6.99488125,5.31898437 C6.50011563,5.63465059 6.84828262,5.45062969 5.05511035,6.33869141 C4.77294203,5.72146226 4.27778109,5.2265986 3.66038262,4.94480098 C4.54657402,3.15410566 4.36148477,3.50437129 4.68016426,3.00235703 C5.59889473,1.55502324 6.59651289,0.9375 8.01599805,0.9375 C8.36069355,0.9375 8.6710957,0.9375 9.01937695,0.98140625 C9.06439023,1.33811855 9.06320762,1.65462402 9.06198691,1.98638809 C9.06198652,3.39790352 8.44377754,4.39457031 6.99488125,5.31898437 Z M7.18859121,2.03125 C6.75713353,2.03131267 6.40741291,2.38111795 6.40745469,2.81257564 C6.40749647,3.24403333 6.75728482,3.59377088 7.18874251,3.59374999 C7.6202002,3.5937291 7.96995469,3.24395769 7.96995469,2.8125 C7.96974482,2.38107019 7.62002104,2.03139721 7.18859121,2.03125 L7.18859121,2.03125 Z" id="Shape" fill="#8AAEF5" fill-rule="nonzero"></path>
                    </g>
                    <g id="rocket-launch" transform="translate(12.000000, 270.000000) rotate(-26.000000) translate(-12.000000, -270.000000) translate(7.000000, 265.000000)">
                        <path d="M0.696977148,6.87629707 C0.19195,7.38124844 -0.0576070313,8.64440918 0.0112480469,9.98847969 C1.36115313,10.0579834 2.62084082,9.80583184 3.1238457,9.30282598 C3.91074023,8.5161209 3.96128516,7.46715547 3.24709844,6.75304414 C2.53295039,6.03900918 1.48379551,6.08955391 0.696977148,6.87629707 Z M2.29136582,8.51753242 C2.12367207,8.68518867 1.70378887,8.76922617 1.25388398,8.74603281 C1.23095781,8.29807285 1.31411836,7.87704473 1.48246035,7.70874023 C1.74472051,7.44651797 2.09437441,7.42965703 2.33241191,7.66765586 C2.57044922,7.90569297 2.55362598,8.25531016 2.29136582,8.51753242 Z M9.86646699,0.376892188 C9.84350254,0.270194922 9.72997734,0.156860352 9.62328047,0.134048438 C8.99641211,0 8.50515625,0 8.01599805,0 C6.00000957,0 4.79101914,1.07818594 3.88850117,2.5 L1.85328652,2.5 C1.53498867,2.5 1.15798262,2.7328873 1.01561836,3.01754004 L0.0503486328,4.94720469 C0.0205101824,5.0130207 0.00381972981,5.08403298 0.00121542969,5.15625 C0.00121542969,5.41512609 0.211164912,5.62495268 0.470041016,5.625 L2.50037305,5.625 C2.9976897,5.62496275 3.47465212,5.82248643 3.82633289,6.17411761 C4.17801367,6.52574879 4.37560461,7.00268335 4.3756375,7.5 L4.3756375,9.53125 C4.37572656,9.79012617 4.5855871,10 4.84446328,10 C4.91667088,9.99732612 4.98766984,9.98063879 5.0535084,9.9508668 L6.98217852,8.98590078 C7.26656387,8.8436127 7.49925996,8.46706387 7.49925996,8.14910898 L7.49925996,6.10931406 C8.91699043,5.20477305 9.99963809,3.9920043 9.99963809,1.98638906 C10.0014689,1.49517051 10.0014689,1.00395195 9.86646699,0.376892188 Z M6.99488125,5.31898437 C6.50011563,5.63465059 6.84828262,5.45062969 5.05511035,6.33869141 C4.77294203,5.72146226 4.27778109,5.2265986 3.66038262,4.94480098 C4.54657402,3.15410566 4.36148477,3.50437129 4.68016426,3.00235703 C5.59889473,1.55502324 6.59651289,0.9375 8.01599805,0.9375 C8.36069355,0.9375 8.6710957,0.9375 9.01937695,0.98140625 C9.06439023,1.33811855 9.06320762,1.65462402 9.06198691,1.98638809 C9.06198652,3.39790352 8.44377754,4.39457031 6.99488125,5.31898437 Z M7.18859121,2.03125 C6.75713353,2.03131267 6.40741291,2.38111795 6.40745469,2.81257564 C6.40749647,3.24403333 6.75728482,3.59377088 7.18874251,3.59374999 C7.6202002,3.5937291 7.96995469,3.24395769 7.96995469,2.8125 C7.96974482,2.38107019 7.62002104,2.03139721 7.18859121,2.03125 L7.18859121,2.03125 Z" id="Shape" fill="#8AAEF5" fill-rule="nonzero"></path>
                    </g>
                    <g id="rocket-launch" transform="translate(7.000000, 92.000000) rotate(-67.000000) translate(-7.000000, -92.000000) translate(2.000000, 87.000000)">
                        <path d="M0.696977148,6.87629707 C0.19195,7.38124844 -0.0576070313,8.64440918 0.0112480469,9.98847969 C1.36115313,10.0579834 2.62084082,9.80583184 3.1238457,9.30282598 C3.91074023,8.5161209 3.96128516,7.46715547 3.24709844,6.75304414 C2.53295039,6.03900918 1.48379551,6.08955391 0.696977148,6.87629707 Z M2.29136582,8.51753242 C2.12367207,8.68518867 1.70378887,8.76922617 1.25388398,8.74603281 C1.23095781,8.29807285 1.31411836,7.87704473 1.48246035,7.70874023 C1.74472051,7.44651797 2.09437441,7.42965703 2.33241191,7.66765586 C2.57044922,7.90569297 2.55362598,8.25531016 2.29136582,8.51753242 Z M9.86646699,0.376892188 C9.84350254,0.270194922 9.72997734,0.156860352 9.62328047,0.134048438 C8.99641211,0 8.50515625,0 8.01599805,0 C6.00000957,0 4.79101914,1.07818594 3.88850117,2.5 L1.85328652,2.5 C1.53498867,2.5 1.15798262,2.7328873 1.01561836,3.01754004 L0.0503486328,4.94720469 C0.0205101824,5.0130207 0.00381972981,5.08403298 0.00121542969,5.15625 C0.00121542969,5.41512609 0.211164912,5.62495268 0.470041016,5.625 L2.50037305,5.625 C2.9976897,5.62496275 3.47465212,5.82248643 3.82633289,6.17411761 C4.17801367,6.52574879 4.37560461,7.00268335 4.3756375,7.5 L4.3756375,9.53125 C4.37572656,9.79012617 4.5855871,10 4.84446328,10 C4.91667088,9.99732612 4.98766984,9.98063879 5.0535084,9.9508668 L6.98217852,8.98590078 C7.26656387,8.8436127 7.49925996,8.46706387 7.49925996,8.14910898 L7.49925996,6.10931406 C8.91699043,5.20477305 9.99963809,3.9920043 9.99963809,1.98638906 C10.0014689,1.49517051 10.0014689,1.00395195 9.86646699,0.376892188 Z M6.99488125,5.31898437 C6.50011563,5.63465059 6.84828262,5.45062969 5.05511035,6.33869141 C4.77294203,5.72146226 4.27778109,5.2265986 3.66038262,4.94480098 C4.54657402,3.15410566 4.36148477,3.50437129 4.68016426,3.00235703 C5.59889473,1.55502324 6.59651289,0.9375 8.01599805,0.9375 C8.36069355,0.9375 8.6710957,0.9375 9.01937695,0.98140625 C9.06439023,1.33811855 9.06320762,1.65462402 9.06198691,1.98638809 C9.06198652,3.39790352 8.44377754,4.39457031 6.99488125,5.31898437 Z M7.18859121,2.03125 C6.75713353,2.03131267 6.40741291,2.38111795 6.40745469,2.81257564 C6.40749647,3.24403333 6.75728482,3.59377088 7.18874251,3.59374999 C7.6202002,3.5937291 7.96995469,3.24395769 7.96995469,2.8125 C7.96974482,2.38107019 7.62002104,2.03139721 7.18859121,2.03125 L7.18859121,2.03125 Z" id="Shape" fill="#8AAEF5" fill-rule="nonzero"></path>
                    </g>
                    <g id="sparkles" transform="translate(2.000000, 37.000000)">
                        <path d="M6.31167315,2.02645914 L7.47081712,2.50972763 L7.9540856,3.6688716 C7.98041455,3.72169876 8.03436045,3.75508698 8.09338521,3.75508698 C8.15240998,3.75508698 8.20635588,3.72169876 8.23268482,3.6688716 L8.71595331,2.50972763 L9.87509728,2.02645914 C9.92792444,2.0001302 9.96131266,1.94618429 9.96131266,1.88715953 C9.96131266,1.82813477 9.92792444,1.77418887 9.87509728,1.74785992 L8.71595331,1.26459144 L8.23268482,0.105447471 C8.20635588,0.052620309 8.15240998,0.0192320838 8.09338521,0.0192320838 C8.03436045,0.0192320838 7.98041455,0.052620309 7.9540856,0.105447471 L7.47081712,1.26459144 L6.31167315,1.74785992 C6.25884599,1.77418887 6.22545776,1.82813477 6.22545776,1.88715953 C6.22545776,1.94618429 6.25884599,2.0001302 6.31167315,2.02645914 Z M9.87509728,7.97354086 L8.71595331,7.49027237 L8.23268482,6.3311284 C8.20635588,6.27830124 8.15240998,6.24491302 8.09338521,6.24491302 C8.03436045,6.24491302 7.98041455,6.27830124 7.9540856,6.3311284 L7.47081712,7.49027237 L6.31167315,7.97354086 C6.25884599,7.9998698 6.22545776,8.05381571 6.22545776,8.11284047 C6.22545776,8.17186523 6.25884599,8.22581113 6.31167315,8.25214008 L7.47081712,8.73540856 L7.9540856,9.89455253 C7.98041455,9.94737969 8.03436045,9.98076792 8.09338521,9.98076792 C8.15240998,9.98076792 8.20635588,9.94737969 8.23268482,9.89455253 L8.71595331,8.73540856 L9.87509728,8.25214008 C9.92792444,8.22581113 9.96131266,8.17186523 9.96131266,8.11284047 C9.96131266,8.05381571 9.92792444,7.9998698 9.87509728,7.97354086 L9.87509728,7.97354086 Z M7.47081712,5 C7.47081712,4.82305831 7.37076117,4.66132967 7.21245136,4.58229572 L5.17256809,3.56245136 L4.15311284,1.52276265 C3.99494163,1.20661479 3.47587549,1.20661479 3.31770428,1.52276265 L2.29805447,3.56245136 L0.258365759,4.58229572 C0.100098493,4.66136027 0.000109497796,4.8230827 0.000109497796,5 C0.000109497796,5.1769173 0.100098493,5.33863973 0.258365759,5.41770428 L2.29805447,6.43754864 L3.31770428,8.47743191 C3.39676883,8.63569917 3.55849126,8.73568817 3.73540856,8.73568817 C3.91232586,8.73568817 4.07404829,8.63569917 4.15311284,8.47743191 L5.17256809,6.43754864 L7.21245136,5.41770428 C7.37076117,5.33867033 7.47081712,5.17694169 7.47081712,5 Z M4.61634241,5.67178988 C4.52583633,5.71694859 4.45244137,5.79027528 4.40719844,5.8807393 L3.73540856,7.22431907 L3.06361868,5.8807393 C3.01837575,5.79027528 2.94498079,5.71694859 2.85447471,5.67178988 L1.51089494,5 L2.85447471,4.32821012 C2.94495044,4.28310164 3.01834179,4.20984683 3.06361868,4.11945525 L3.73540856,2.77568093 L4.40719844,4.11945525 C4.45247533,4.20984683 4.52586668,4.28310164 4.61634241,4.32821012 L5.95992218,5 L4.61634241,5.67178988 Z" id="Shape" fill="#8AAEF5" fill-rule="nonzero"></path>
                    </g>
                    <g id="sparkles" transform="translate(7.000000, 162.000000)">
                        <path d="M6.31167315,2.02645914 L7.47081712,2.50972763 L7.9540856,3.6688716 C7.98041455,3.72169876 8.03436045,3.75508698 8.09338521,3.75508698 C8.15240998,3.75508698 8.20635588,3.72169876 8.23268482,3.6688716 L8.71595331,2.50972763 L9.87509728,2.02645914 C9.92792444,2.0001302 9.96131266,1.94618429 9.96131266,1.88715953 C9.96131266,1.82813477 9.92792444,1.77418887 9.87509728,1.74785992 L8.71595331,1.26459144 L8.23268482,0.105447471 C8.20635588,0.052620309 8.15240998,0.0192320838 8.09338521,0.0192320838 C8.03436045,0.0192320838 7.98041455,0.052620309 7.9540856,0.105447471 L7.47081712,1.26459144 L6.31167315,1.74785992 C6.25884599,1.77418887 6.22545776,1.82813477 6.22545776,1.88715953 C6.22545776,1.94618429 6.25884599,2.0001302 6.31167315,2.02645914 Z M9.87509728,7.97354086 L8.71595331,7.49027237 L8.23268482,6.3311284 C8.20635588,6.27830124 8.15240998,6.24491302 8.09338521,6.24491302 C8.03436045,6.24491302 7.98041455,6.27830124 7.9540856,6.3311284 L7.47081712,7.49027237 L6.31167315,7.97354086 C6.25884599,7.9998698 6.22545776,8.05381571 6.22545776,8.11284047 C6.22545776,8.17186523 6.25884599,8.22581113 6.31167315,8.25214008 L7.47081712,8.73540856 L7.9540856,9.89455253 C7.98041455,9.94737969 8.03436045,9.98076792 8.09338521,9.98076792 C8.15240998,9.98076792 8.20635588,9.94737969 8.23268482,9.89455253 L8.71595331,8.73540856 L9.87509728,8.25214008 C9.92792444,8.22581113 9.96131266,8.17186523 9.96131266,8.11284047 C9.96131266,8.05381571 9.92792444,7.9998698 9.87509728,7.97354086 L9.87509728,7.97354086 Z M7.47081712,5 C7.47081712,4.82305831 7.37076117,4.66132967 7.21245136,4.58229572 L5.17256809,3.56245136 L4.15311284,1.52276265 C3.99494163,1.20661479 3.47587549,1.20661479 3.31770428,1.52276265 L2.29805447,3.56245136 L0.258365759,4.58229572 C0.100098493,4.66136027 0.000109497796,4.8230827 0.000109497796,5 C0.000109497796,5.1769173 0.100098493,5.33863973 0.258365759,5.41770428 L2.29805447,6.43754864 L3.31770428,8.47743191 C3.39676883,8.63569917 3.55849126,8.73568817 3.73540856,8.73568817 C3.91232586,8.73568817 4.07404829,8.63569917 4.15311284,8.47743191 L5.17256809,6.43754864 L7.21245136,5.41770428 C7.37076117,5.33867033 7.47081712,5.17694169 7.47081712,5 Z M4.61634241,5.67178988 C4.52583633,5.71694859 4.45244137,5.79027528 4.40719844,5.8807393 L3.73540856,7.22431907 L3.06361868,5.8807393 C3.01837575,5.79027528 2.94498079,5.71694859 2.85447471,5.67178988 L1.51089494,5 L2.85447471,4.32821012 C2.94495044,4.28310164 3.01834179,4.20984683 3.06361868,4.11945525 L3.73540856,2.77568093 L4.40719844,4.11945525 C4.45247533,4.20984683 4.52586668,4.28310164 4.61634241,4.32821012 L5.95992218,5 L4.61634241,5.67178988 Z" id="Shape" fill="#8AAEF5" fill-rule="nonzero"></path>
                    </g>
                    <g id="sparkles" transform="translate(0.000000, 177.000000)">
                        <path d="M6.31167315,2.02645914 L7.47081712,2.50972763 L7.9540856,3.6688716 C7.98041455,3.72169876 8.03436045,3.75508698 8.09338521,3.75508698 C8.15240998,3.75508698 8.20635588,3.72169876 8.23268482,3.6688716 L8.71595331,2.50972763 L9.87509728,2.02645914 C9.92792444,2.0001302 9.96131266,1.94618429 9.96131266,1.88715953 C9.96131266,1.82813477 9.92792444,1.77418887 9.87509728,1.74785992 L8.71595331,1.26459144 L8.23268482,0.105447471 C8.20635588,0.052620309 8.15240998,0.0192320838 8.09338521,0.0192320838 C8.03436045,0.0192320838 7.98041455,0.052620309 7.9540856,0.105447471 L7.47081712,1.26459144 L6.31167315,1.74785992 C6.25884599,1.77418887 6.22545776,1.82813477 6.22545776,1.88715953 C6.22545776,1.94618429 6.25884599,2.0001302 6.31167315,2.02645914 Z M9.87509728,7.97354086 L8.71595331,7.49027237 L8.23268482,6.3311284 C8.20635588,6.27830124 8.15240998,6.24491302 8.09338521,6.24491302 C8.03436045,6.24491302 7.98041455,6.27830124 7.9540856,6.3311284 L7.47081712,7.49027237 L6.31167315,7.97354086 C6.25884599,7.9998698 6.22545776,8.05381571 6.22545776,8.11284047 C6.22545776,8.17186523 6.25884599,8.22581113 6.31167315,8.25214008 L7.47081712,8.73540856 L7.9540856,9.89455253 C7.98041455,9.94737969 8.03436045,9.98076792 8.09338521,9.98076792 C8.15240998,9.98076792 8.20635588,9.94737969 8.23268482,9.89455253 L8.71595331,8.73540856 L9.87509728,8.25214008 C9.92792444,8.22581113 9.96131266,8.17186523 9.96131266,8.11284047 C9.96131266,8.05381571 9.92792444,7.9998698 9.87509728,7.97354086 L9.87509728,7.97354086 Z M7.47081712,5 C7.47081712,4.82305831 7.37076117,4.66132967 7.21245136,4.58229572 L5.17256809,3.56245136 L4.15311284,1.52276265 C3.99494163,1.20661479 3.47587549,1.20661479 3.31770428,1.52276265 L2.29805447,3.56245136 L0.258365759,4.58229572 C0.100098493,4.66136027 0.000109497796,4.8230827 0.000109497796,5 C0.000109497796,5.1769173 0.100098493,5.33863973 0.258365759,5.41770428 L2.29805447,6.43754864 L3.31770428,8.47743191 C3.39676883,8.63569917 3.55849126,8.73568817 3.73540856,8.73568817 C3.91232586,8.73568817 4.07404829,8.63569917 4.15311284,8.47743191 L5.17256809,6.43754864 L7.21245136,5.41770428 C7.37076117,5.33867033 7.47081712,5.17694169 7.47081712,5 Z M4.61634241,5.67178988 C4.52583633,5.71694859 4.45244137,5.79027528 4.40719844,5.8807393 L3.73540856,7.22431907 L3.06361868,5.8807393 C3.01837575,5.79027528 2.94498079,5.71694859 2.85447471,5.67178988 L1.51089494,5 L2.85447471,4.32821012 C2.94495044,4.28310164 3.01834179,4.20984683 3.06361868,4.11945525 L3.73540856,2.77568093 L4.40719844,4.11945525 C4.45247533,4.20984683 4.52586668,4.28310164 4.61634241,4.32821012 L5.95992218,5 L4.61634241,5.67178988 Z" id="Shape" fill="#8AAEF5" fill-rule="nonzero"></path>
                    </g>
                    <g id="sparkles" transform="translate(9.000000, 229.000000)">
                        <path d="M6.31167315,2.02645914 L7.47081712,2.50972763 L7.9540856,3.6688716 C7.98041455,3.72169876 8.03436045,3.75508698 8.09338521,3.75508698 C8.15240998,3.75508698 8.20635588,3.72169876 8.23268482,3.6688716 L8.71595331,2.50972763 L9.87509728,2.02645914 C9.92792444,2.0001302 9.96131266,1.94618429 9.96131266,1.88715953 C9.96131266,1.82813477 9.92792444,1.77418887 9.87509728,1.74785992 L8.71595331,1.26459144 L8.23268482,0.105447471 C8.20635588,0.052620309 8.15240998,0.0192320838 8.09338521,0.0192320838 C8.03436045,0.0192320838 7.98041455,0.052620309 7.9540856,0.105447471 L7.47081712,1.26459144 L6.31167315,1.74785992 C6.25884599,1.77418887 6.22545776,1.82813477 6.22545776,1.88715953 C6.22545776,1.94618429 6.25884599,2.0001302 6.31167315,2.02645914 Z M9.87509728,7.97354086 L8.71595331,7.49027237 L8.23268482,6.3311284 C8.20635588,6.27830124 8.15240998,6.24491302 8.09338521,6.24491302 C8.03436045,6.24491302 7.98041455,6.27830124 7.9540856,6.3311284 L7.47081712,7.49027237 L6.31167315,7.97354086 C6.25884599,7.9998698 6.22545776,8.05381571 6.22545776,8.11284047 C6.22545776,8.17186523 6.25884599,8.22581113 6.31167315,8.25214008 L7.47081712,8.73540856 L7.9540856,9.89455253 C7.98041455,9.94737969 8.03436045,9.98076792 8.09338521,9.98076792 C8.15240998,9.98076792 8.20635588,9.94737969 8.23268482,9.89455253 L8.71595331,8.73540856 L9.87509728,8.25214008 C9.92792444,8.22581113 9.96131266,8.17186523 9.96131266,8.11284047 C9.96131266,8.05381571 9.92792444,7.9998698 9.87509728,7.97354086 L9.87509728,7.97354086 Z M7.47081712,5 C7.47081712,4.82305831 7.37076117,4.66132967 7.21245136,4.58229572 L5.17256809,3.56245136 L4.15311284,1.52276265 C3.99494163,1.20661479 3.47587549,1.20661479 3.31770428,1.52276265 L2.29805447,3.56245136 L0.258365759,4.58229572 C0.100098493,4.66136027 0.000109497796,4.8230827 0.000109497796,5 C0.000109497796,5.1769173 0.100098493,5.33863973 0.258365759,5.41770428 L2.29805447,6.43754864 L3.31770428,8.47743191 C3.39676883,8.63569917 3.55849126,8.73568817 3.73540856,8.73568817 C3.91232586,8.73568817 4.07404829,8.63569917 4.15311284,8.47743191 L5.17256809,6.43754864 L7.21245136,5.41770428 C7.37076117,5.33867033 7.47081712,5.17694169 7.47081712,5 Z M4.61634241,5.67178988 C4.52583633,5.71694859 4.45244137,5.79027528 4.40719844,5.8807393 L3.73540856,7.22431907 L3.06361868,5.8807393 C3.01837575,5.79027528 2.94498079,5.71694859 2.85447471,5.67178988 L1.51089494,5 L2.85447471,4.32821012 C2.94495044,4.28310164 3.01834179,4.20984683 3.06361868,4.11945525 L3.73540856,2.77568093 L4.40719844,4.11945525 C4.45247533,4.20984683 4.52586668,4.28310164 4.61634241,4.32821012 L5.95992218,5 L4.61634241,5.67178988 Z" id="Shape" fill="#8AAEF5" fill-rule="nonzero"></path>
                    </g>
                    <g id="sparkles" transform="translate(3.000000, 112.000000)">
                        <path d="M6.31167315,2.02645914 L7.47081712,2.50972763 L7.9540856,3.6688716 C7.98041455,3.72169876 8.03436045,3.75508698 8.09338521,3.75508698 C8.15240998,3.75508698 8.20635588,3.72169876 8.23268482,3.6688716 L8.71595331,2.50972763 L9.87509728,2.02645914 C9.92792444,2.0001302 9.96131266,1.94618429 9.96131266,1.88715953 C9.96131266,1.82813477 9.92792444,1.77418887 9.87509728,1.74785992 L8.71595331,1.26459144 L8.23268482,0.105447471 C8.20635588,0.052620309 8.15240998,0.0192320838 8.09338521,0.0192320838 C8.03436045,0.0192320838 7.98041455,0.052620309 7.9540856,0.105447471 L7.47081712,1.26459144 L6.31167315,1.74785992 C6.25884599,1.77418887 6.22545776,1.82813477 6.22545776,1.88715953 C6.22545776,1.94618429 6.25884599,2.0001302 6.31167315,2.02645914 Z M9.87509728,7.97354086 L8.71595331,7.49027237 L8.23268482,6.3311284 C8.20635588,6.27830124 8.15240998,6.24491302 8.09338521,6.24491302 C8.03436045,6.24491302 7.98041455,6.27830124 7.9540856,6.3311284 L7.47081712,7.49027237 L6.31167315,7.97354086 C6.25884599,7.9998698 6.22545776,8.05381571 6.22545776,8.11284047 C6.22545776,8.17186523 6.25884599,8.22581113 6.31167315,8.25214008 L7.47081712,8.73540856 L7.9540856,9.89455253 C7.98041455,9.94737969 8.03436045,9.98076792 8.09338521,9.98076792 C8.15240998,9.98076792 8.20635588,9.94737969 8.23268482,9.89455253 L8.71595331,8.73540856 L9.87509728,8.25214008 C9.92792444,8.22581113 9.96131266,8.17186523 9.96131266,8.11284047 C9.96131266,8.05381571 9.92792444,7.9998698 9.87509728,7.97354086 L9.87509728,7.97354086 Z M7.47081712,5 C7.47081712,4.82305831 7.37076117,4.66132967 7.21245136,4.58229572 L5.17256809,3.56245136 L4.15311284,1.52276265 C3.99494163,1.20661479 3.47587549,1.20661479 3.31770428,1.52276265 L2.29805447,3.56245136 L0.258365759,4.58229572 C0.100098493,4.66136027 0.000109497796,4.8230827 0.000109497796,5 C0.000109497796,5.1769173 0.100098493,5.33863973 0.258365759,5.41770428 L2.29805447,6.43754864 L3.31770428,8.47743191 C3.39676883,8.63569917 3.55849126,8.73568817 3.73540856,8.73568817 C3.91232586,8.73568817 4.07404829,8.63569917 4.15311284,8.47743191 L5.17256809,6.43754864 L7.21245136,5.41770428 C7.37076117,5.33867033 7.47081712,5.17694169 7.47081712,5 Z M4.61634241,5.67178988 C4.52583633,5.71694859 4.45244137,5.79027528 4.40719844,5.8807393 L3.73540856,7.22431907 L3.06361868,5.8807393 C3.01837575,5.79027528 2.94498079,5.71694859 2.85447471,5.67178988 L1.51089494,5 L2.85447471,4.32821012 C2.94495044,4.28310164 3.01834179,4.20984683 3.06361868,4.11945525 L3.73540856,2.77568093 L4.40719844,4.11945525 C4.45247533,4.20984683 4.52586668,4.28310164 4.61634241,4.32821012 L5.95992218,5 L4.61634241,5.67178988 Z" id="Shape" fill="#8AAEF5" fill-rule="nonzero"></path>
                    </g>
                    <g id="bolt" transform="translate(4.000000, 0.000000)">
                        <path d="M5.903125,2.6234375 C5.775,2.4 5.5421875,2.265625 5.284375,2.265625 L3.809375,2.265625 L4.2578125,0.8984375 C4.315625,0.6828125 4.2703125,0.45625 4.134375,0.278125 C3.996875,0.1015625 3.7890625,0 3.565625,0 L1.5265625,0 C1.1703125,0 0.865625,0.2671875 0.8265625,0.5796875 L0.0078125,3.8953125 C-0.021875,4.1109375 0.0421875,4.328125 0.184375,4.4921875 C0.3265625,4.65625 0.5328125,4.75 0.75,4.75 L2.2828125,4.75 L1.7375,7.1203125 C1.6875,7.334375 1.7359375,7.55625 1.871875,7.728125 C2.0078125,7.9015625 2.2125,8 2.4328125,8 C2.6875,8 2.925,7.8625 3.0390625,7.6625 L5.9015625,3.3390625 C6.0328125,3.115625 6.0328125,2.846875 5.903125,2.6234375 Z M2.5015625,7.146875 L3.225,4 L0.7421875,4 L1.5265625,0.75 L3.5203125,0.7359375 L2.7734375,3.015625 L5.21875,3.015625 L2.5015625,7.146875 Z" id="Shape" fill="#8AAEF5" fill-rule="nonzero"></path>
                    </g>
                    <g id="bolt" transform="translate(6.000000, 67.000000)">
                        <path d="M5.903125,2.6234375 C5.775,2.4 5.5421875,2.265625 5.284375,2.265625 L3.809375,2.265625 L4.2578125,0.8984375 C4.315625,0.6828125 4.2703125,0.45625 4.134375,0.278125 C3.996875,0.1015625 3.7890625,0 3.565625,0 L1.5265625,0 C1.1703125,0 0.865625,0.2671875 0.8265625,0.5796875 L0.0078125,3.8953125 C-0.021875,4.1109375 0.0421875,4.328125 0.184375,4.4921875 C0.3265625,4.65625 0.5328125,4.75 0.75,4.75 L2.2828125,4.75 L1.7375,7.1203125 C1.6875,7.334375 1.7359375,7.55625 1.871875,7.728125 C2.0078125,7.9015625 2.2125,8 2.4328125,8 C2.6875,8 2.925,7.8625 3.0390625,7.6625 L5.9015625,3.3390625 C6.0328125,3.115625 6.0328125,2.846875 5.903125,2.6234375 Z M2.5015625,7.146875 L3.225,4 L0.7421875,4 L1.5265625,0.75 L3.5203125,0.7359375 L2.7734375,3.015625 L5.21875,3.015625 L2.5015625,7.146875 Z" id="Shape" fill="#8AAEF5" fill-rule="nonzero"></path>
                    </g>
                    <g id="bolt" transform="translate(6.000000, 250.000000)">
                        <path d="M5.903125,2.6234375 C5.775,2.4 5.5421875,2.265625 5.284375,2.265625 L3.809375,2.265625 L4.2578125,0.8984375 C4.315625,0.6828125 4.2703125,0.45625 4.134375,0.278125 C3.996875,0.1015625 3.7890625,0 3.565625,0 L1.5265625,0 C1.1703125,0 0.865625,0.2671875 0.8265625,0.5796875 L0.0078125,3.8953125 C-0.021875,4.1109375 0.0421875,4.328125 0.184375,4.4921875 C0.3265625,4.65625 0.5328125,4.75 0.75,4.75 L2.2828125,4.75 L1.7375,7.1203125 C1.6875,7.334375 1.7359375,7.55625 1.871875,7.728125 C2.0078125,7.9015625 2.2125,8 2.4328125,8 C2.6875,8 2.925,7.8625 3.0390625,7.6625 L5.9015625,3.3390625 C6.0328125,3.115625 6.0328125,2.846875 5.903125,2.6234375 Z M2.5015625,7.146875 L3.225,4 L0.7421875,4 L1.5265625,0.75 L3.5203125,0.7359375 L2.7734375,3.015625 L5.21875,3.015625 L2.5015625,7.146875 Z" id="Shape" fill="#8AAEF5" fill-rule="nonzero"></path>
                    </g>
                    <g id="bolt" transform="translate(9.000000, 191.000000)">
                        <path d="M5.903125,2.6234375 C5.775,2.4 5.5421875,2.265625 5.284375,2.265625 L3.809375,2.265625 L4.2578125,0.8984375 C4.315625,0.6828125 4.2703125,0.45625 4.134375,0.278125 C3.996875,0.1015625 3.7890625,0 3.565625,0 L1.5265625,0 C1.1703125,0 0.865625,0.2671875 0.8265625,0.5796875 L0.0078125,3.8953125 C-0.021875,4.1109375 0.0421875,4.328125 0.184375,4.4921875 C0.3265625,4.65625 0.5328125,4.75 0.75,4.75 L2.2828125,4.75 L1.7375,7.1203125 C1.6875,7.334375 1.7359375,7.55625 1.871875,7.728125 C2.0078125,7.9015625 2.2125,8 2.4328125,8 C2.6875,8 2.925,7.8625 3.0390625,7.6625 L5.9015625,3.3390625 C6.0328125,3.115625 6.0328125,2.846875 5.903125,2.6234375 Z M2.5015625,7.146875 L3.225,4 L0.7421875,4 L1.5265625,0.75 L3.5203125,0.7359375 L2.7734375,3.015625 L5.21875,3.015625 L2.5015625,7.146875 Z" id="Shape" fill="#8AAEF5" fill-rule="nonzero"></path>
                    </g>
                </g>
            </g>
        </g>
    </g>
</svg>