<?xml version="1.0" encoding="UTF-8"?>
<svg width="14px" height="14px" viewBox="0 0 14 14" version="1.1" xmlns="http://www.w3.org/2000/svg" xmlns:xlink="http://www.w3.org/1999/xlink">
    <!-- Generator: Sketch 62 (91390) - https://sketch.com -->
    <title>actions</title>
    <desc>Created with Sketch.</desc>
    <g id="Design-System-" stroke="none" stroke-width="1" fill="none" fill-rule="evenodd">
        <g id="Iconography" transform="translate(-897.000000, -342.000000)" fill="#FFFFFF">
            <g id="actions" transform="translate(894.000000, 340.000000)">
                <g>
                    <rect id="Rectangle" fill-opacity="0" x="0" y="0" width="20" height="20"></rect>
                    <g transform="translate(3.000000, 2.000000)" fill-rule="nonzero" id="Shape">
                        <path d="M8.61028226,2.56120968 L9.07798387,3.96403226 L6.52100806,6.52100806 C6.25625,6.78576613 6.25625,7.21423387 6.52100806,7.47899194 C6.78548387,7.74346774 7.21423387,7.74375 7.47899194,7.47899194 L10.0359677,4.92201613 L11.4387903,5.38971774 C11.647379,5.45915323 11.8771371,5.40495968 12.0326613,5.24971774 L13.8297984,3.45258065 C14.1346371,3.14774194 14.0121371,2.6283871 13.6028629,2.49177419 L12.0318145,1.96818548 L11.5082258,0.397419355 C11.3718952,-0.0118548387 10.8525403,-0.134354839 10.5474194,0.170483871 L8.75056452,1.96733871 C8.59523283,2.1228233 8.54094297,2.35265404 8.61028226,2.56120968 L8.61028226,2.56120968 Z M7,4.06451613 C7.21620968,4.06451613 7.42564516,4.0916129 7.62858871,4.13620968 L8.0446371,3.72016129 L7.75334677,2.84657258 C7.74657258,2.82596774 7.74770161,2.80508065 7.74177419,2.78419355 C7.49987903,2.74185484 7.25403226,2.70939516 6.99971774,2.70939516 C4.62818548,2.70939516 2.70939516,4.62875 2.70939516,6.99971774 C2.70939516,9.37125 4.62875,11.2900403 6.99971774,11.2900403 C9.37125,11.2900403 11.2900403,9.37068548 11.2900403,6.99971774 C11.2900403,6.74483871 11.2575806,6.49870968 11.2152419,6.25625 C11.1949194,6.25032258 11.1731855,6.2528629 11.1531452,6.24608871 L10.2798387,5.95508065 L9.86379032,6.37112903 C9.9083871,6.57407258 9.93520161,6.78350806 9.93520161,6.99971774 C9.93520161,8.61846774 8.61846774,9.93520161 6.99971774,9.93520161 C5.38096774,9.93520161 4.06423387,8.61846774 4.06423387,6.99971774 C4.06423387,5.38096774 5.38125,4.06451613 7,4.06451613 Z M13.6734274,4.8858871 L12.6714113,5.88790323 C12.6335887,5.92572581 12.5904032,5.95508065 12.5494758,5.98810484 C12.6093145,6.31693548 12.6451613,6.65395161 12.6451613,6.99971774 C12.6451613,10.1124597 10.1127419,12.644879 7,12.644879 C3.88725806,12.644879 1.35483871,10.1124597 1.35483871,6.99971774 C1.35483871,3.88697581 3.88725806,1.35455645 7,1.35455645 C7.34830645,1.35455645 7.6878629,1.39068548 8.01895161,1.45137097 C8.05169355,1.41129032 8.07483871,1.36556452 8.11209677,1.32830645 L9.1141129,0.326290323 C8.43027139,0.10992493 7.71725392,-1.00595116e-07 7,-1.00595116e-07 C3.13391129,-1.00595116e-07 0,3.13391129 0,6.9999999 C0,10.8660887 3.13391129,13.9999999 7,13.9999999 C10.8660887,13.9999999 14,10.8660887 14,6.9999999 C14,6.26302419 13.8845565,5.55314516 13.6734274,4.8858871 Z"></path>
                    </g>
                </g>
            </g>
        </g>
    </g>
</svg>