<?xml version="1.0" encoding="UTF-8"?>
<svg xmlns="http://www.w3.org/2000/svg" xmlns:xlink="http://www.w3.org/1999/xlink" width="11pt" height="11pt" viewBox="0 0 11 11" version="1.1">
<g id="surface1">
<path style=" stroke:none;fill-rule:nonzero;fill:rgb(100%,100%,100%);fill-opacity:1;" d="M 2.898438 1.300781 C 2.898438 1.5 2.898438 1.699219 2.898438 2 C 2.800781 2 2.800781 2 2.699219 2 C 2.601562 2 2.5 2 2.398438 2 C 2.300781 2 2.300781 2 2.300781 2.101562 C 2.300781 2.5 2.300781 3 2.300781 3.398438 C 2.300781 5.601562 2.300781 7.898438 2.300781 10.101562 C 2.300781 10.199219 2.398438 10.300781 2.5 10.300781 C 4.101562 10.300781 5.699219 10.300781 7.300781 10.300781 C 7.699219 10.300781 8.101562 10.300781 8.601562 10.300781 C 8.699219 10.300781 8.699219 10.300781 8.800781 10.300781 C 8.898438 10.300781 8.898438 10.300781 8.898438 10.199219 C 8.898438 10.101562 8.898438 10 8.898438 9.898438 C 8.898438 8 8.898438 6.199219 8.898438 4.300781 C 8.898438 3.699219 8.898438 3.101562 8.898438 2.5 C 8.898438 2.398438 8.898438 2.199219 8.898438 2.101562 C 8.898438 2 8.898438 2 8.800781 2 C 8.5 2 8.300781 2 8.199219 2 C 8.199219 2 8.199219 2 8.101562 2 C 8.101562 1.800781 8.101562 1.5 8.101562 1.300781 C 8.300781 1.300781 8.5 1.300781 8.800781 1.300781 C 8.898438 1.300781 9.101562 1.398438 9.199219 1.5 C 9.300781 1.601562 9.398438 1.800781 9.5 1.898438 C 9.5 1.898438 9.5 1.898438 9.5 2 C 9.5 4.800781 9.5 7.5 9.5 10.300781 C 9.5 10.398438 9.5 10.398438 9.398438 10.5 C 9.300781 10.699219 9.199219 10.800781 9.101562 10.898438 C 9 10.898438 8.898438 11 8.898438 11 C 8.898438 11 8.898438 11 8.800781 11 C 6.601562 11 4.398438 11 2.199219 11 C 2.199219 11 2.199219 11 2.101562 11 C 1.800781 10.898438 1.601562 10.699219 1.5 10.398438 C 1.5 10.300781 1.5 10.199219 1.5 10.101562 C 1.5 9.101562 1.5 8 1.5 7 C 1.5 5.601562 1.5 4.101562 1.5 2.699219 C 1.5 2.5 1.5 2.300781 1.5 2.101562 C 1.5 1.800781 1.699219 1.601562 2 1.5 C 2.101562 1.5 2.199219 1.5 2.199219 1.5 C 2.5 1.300781 2.699219 1.300781 2.898438 1.300781 Z M 2.898438 1.300781 "/>
<path style=" stroke:none;fill-rule:nonzero;fill:rgb(100%,100%,100%);fill-opacity:1;" d="M 4.5 1 C 4.5 0.300781 5.101562 0 5.5 0 C 5.800781 0 6 0.101562 6.199219 0.300781 C 6.398438 0.5 6.398438 0.699219 6.398438 1 C 6.398438 1 6.398438 1 6.5 1 C 6.699219 1 7 1 7.199219 1 C 7.300781 1 7.300781 1 7.398438 1.101562 C 7.398438 1.199219 7.398438 1.199219 7.398438 1.300781 C 7.398438 1.601562 7.398438 1.898438 7.398438 2.199219 C 7.398438 2.398438 7.300781 2.398438 7.199219 2.398438 C 6.699219 2.398438 6.199219 2.398438 5.601562 2.398438 C 5 2.398438 4.398438 2.398438 3.800781 2.398438 C 3.800781 2.398438 3.699219 2.398438 3.699219 2.398438 C 3.601562 2.300781 3.601562 2.199219 3.601562 2.101562 C 3.601562 1.800781 3.601562 1.5 3.601562 1.199219 C 3.601562 1.199219 3.601562 1.199219 3.601562 1.101562 C 3.601562 1 3.699219 1 3.800781 1 C 4 1 4.199219 1 4.5 1 Z M 5.800781 0.800781 C 5.800781 0.601562 5.699219 0.5 5.5 0.5 C 5.300781 0.5 5.199219 0.601562 5.199219 0.800781 C 5.199219 0.898438 5.300781 1.101562 5.5 1.101562 C 5.699219 1.101562 5.800781 1 5.800781 0.800781 Z M 5.800781 0.800781 "/>
<path style=" stroke:none;fill-rule:nonzero;fill:rgb(100%,100%,100%);fill-opacity:1;" d="M 3.699219 8.199219 C 3.699219 8 3.800781 7.699219 3.800781 7.300781 C 3.800781 7.199219 3.800781 7 3.699219 6.898438 C 3.5 6.601562 3.199219 6.398438 3 6.101562 C 2.699219 5.699219 2.800781 5.5 3.300781 5.300781 C 4.5 5 4.300781 5.300781 5 4.101562 C 5.300781 3.601562 5.601562 3.601562 5.898438 4.101562 C 6 4.199219 6.101562 4.300781 6.199219 4.5 C 6.398438 5 6.699219 5.199219 7.300781 5.300781 C 7.5 5.300781 7.699219 5.398438 7.898438 5.398438 C 8.199219 5.5 8.300781 5.699219 8.101562 5.898438 C 7.898438 6.199219 7.699219 6.5 7.5 6.699219 C 7.199219 7 7.101562 7.199219 7.199219 7.5 C 7.300781 7.800781 7.300781 8.101562 7.300781 8.398438 C 7.300781 8.800781 7.101562 9 6.699219 8.800781 C 6.398438 8.699219 6.101562 8.601562 5.800781 8.398438 C 5.5 8.300781 5.300781 8.199219 5.101562 8.398438 C 4.898438 8.5 4.601562 8.699219 4.398438 8.800781 C 3.800781 9 3.699219 8.898438 3.699219 8.199219 Z M 3.699219 8.199219 "/>
</g>
</svg>
