<?xml version="1.0" encoding="UTF-8"?>
<svg xmlns="http://www.w3.org/2000/svg" xmlns:xlink="http://www.w3.org/1999/xlink" width="11pt" height="11pt" viewBox="0 0 11 11" version="1.1">
<g id="surface1">
<path style=" stroke:none;fill-rule:evenodd;fill:rgb(100%,100%,100%);fill-opacity:1;" d="M 2.398438 7.398438 C 3.300781 7.398438 4 6.699219 4 5.800781 C 4 4.898438 3.300781 4.199219 2.398438 4.199219 C 1.5 4.199219 0.800781 4.898438 0.800781 5.800781 C 0.800781 6.699219 1.5 7.398438 2.398438 7.398438 "/>
<path style=" stroke:none;fill-rule:evenodd;fill:rgb(100%,100%,100%);fill-opacity:1;" d="M 6.5 5.5 C 6.398438 5.101562 6 5.101562 5.800781 5.300781 C 5.800781 5.300781 5.699219 5.398438 5.699219 5.5 L 3.898438 8.300781 C 3.699219 8.199219 3.5 8.101562 3.300781 8 C 3 7.898438 2.699219 7.800781 2.398438 7.800781 C 2.101562 7.800781 1.800781 7.898438 1.5 8 C 1.101562 8.199219 0.699219 8.5 0.398438 8.898438 C 0.398438 9 0.300781 9.199219 0.300781 9.300781 L 0 11 L 3.800781 11 L 4.898438 9.101562 L 6.5 6.5 C 6.601562 6.300781 6.699219 5.800781 6.5 5.5 "/>
<path style=" stroke:none;fill-rule:evenodd;fill:rgb(100%,100%,100%);fill-opacity:1;" d="M 10.5 0 L 2.5 0 C 2.199219 0 2 0.300781 2 0.800781 L 2 3.601562 C 2.101562 3.5 2.300781 3.5 2.5 3.5 C 2.601562 3.5 2.699219 3.5 2.800781 3.5 L 2.800781 1.101562 L 10.300781 1.101562 L 10.300781 8.300781 L 6 8.300781 L 5.300781 9.5 L 10.5 9.5 C 10.800781 9.5 11 9.199219 11 8.699219 L 11 0.699219 C 11 0.300781 10.800781 0 10.5 0 "/>
</g>
</svg>
