<?xml version="1.0" encoding="UTF-8"?>
<svg xmlns="http://www.w3.org/2000/svg" xmlns:xlink="http://www.w3.org/1999/xlink" width="11pt" height="11pt" viewBox="0 0 11 11" version="1.1">
<g id="surface1">
<path style=" stroke:none;fill-rule:nonzero;fill:rgb(100%,100%,100%);fill-opacity:1;" d="M 11 0.769531 C 11 3.925781 11 7.085938 11 10.230469 C 10.988281 10.242188 10.988281 10.253906 10.988281 10.261719 C 10.910156 10.679688 10.605469 11 10.140625 11 C 7.050781 11 3.960938 11 0.859375 11 C 0.769531 11 0.683594 10.988281 0.59375 10.96875 C 0.21875 10.847656 0 10.503906 0 10.03125 C 0 7.007812 0 3.992188 0 0.96875 C 0 0.933594 0 0.890625 0 0.859375 C 0.0234375 0.605469 0.109375 0.394531 0.273438 0.230469 C 0.449219 0.0546875 0.648438 0 0.867188 0 C 2.234375 0 3.609375 0 4.972656 0 C 6.6875 0 8.402344 0 10.121094 0 C 10.351562 0 10.570312 0.0546875 10.746094 0.253906 C 10.878906 0.394531 10.945312 0.570312 11 0.769531 Z M 0.792969 2.308594 C 0.792969 4.90625 0.792969 7.480469 0.792969 10.066406 C 3.925781 10.066406 7.0625 10.066406 10.195312 10.066406 C 10.195312 7.480469 10.195312 4.894531 10.195312 2.308594 C 7.0625 2.308594 3.9375 2.308594 0.792969 2.308594 Z M 2.550781 1.605469 C 2.773438 1.605469 2.9375 1.40625 2.949219 1.15625 C 2.949219 0.902344 2.761719 0.691406 2.550781 0.691406 C 2.34375 0.691406 2.167969 0.902344 2.167969 1.15625 C 2.167969 1.40625 2.332031 1.605469 2.550781 1.605469 Z M 1.375 1.605469 C 1.59375 1.605469 1.769531 1.40625 1.769531 1.164062 C 1.769531 0.914062 1.59375 0.703125 1.386719 0.703125 C 1.164062 0.691406 0.988281 0.902344 0.988281 1.144531 C 0.988281 1.398438 1.15625 1.59375 1.375 1.605469 Z M 3.75 1.605469 C 3.972656 1.605469 4.136719 1.40625 4.148438 1.15625 C 4.148438 0.902344 3.960938 0.691406 3.75 0.691406 C 3.542969 0.691406 3.367188 0.902344 3.367188 1.15625 C 3.367188 1.40625 3.542969 1.605469 3.75 1.605469 Z M 3.75 1.605469 "/>
<path style=" stroke:none;fill-rule:nonzero;fill:rgb(100%,100%,100%);fill-opacity:1;" d="M 5.433594 6.160156 C 5.378906 6.128906 5.335938 6.105469 5.300781 6.082031 C 4.355469 5.53125 3.398438 4.984375 2.453125 4.433594 C 2.386719 4.390625 2.355469 4.34375 2.355469 4.257812 C 2.363281 4.09375 2.355469 3.9375 2.355469 3.75 C 2.398438 3.773438 2.429688 3.796875 2.476562 3.816406 C 3.609375 4.488281 4.742188 5.171875 5.886719 5.839844 C 5.949219 5.886719 5.972656 5.941406 5.984375 6.015625 C 6.027344 6.324219 5.917969 6.46875 5.675781 6.601562 C 4.609375 7.214844 3.554688 7.855469 2.496094 8.492188 C 2.464844 8.515625 2.421875 8.535156 2.363281 8.570312 C 2.363281 8.359375 2.363281 8.160156 2.363281 7.976562 C 2.363281 7.941406 2.421875 7.910156 2.453125 7.886719 C 3.277344 7.414062 4.09375 6.929688 4.917969 6.457031 C 5.082031 6.359375 5.246094 6.257812 5.433594 6.160156 Z M 5.433594 6.160156 "/>
<path style=" stroke:none;fill-rule:nonzero;fill:rgb(100%,100%,100%);fill-opacity:1;" d="M 8.636719 6.402344 C 7.996094 6.402344 7.371094 6.402344 6.730469 6.402344 C 6.730469 6.214844 6.730469 6.027344 6.730469 5.828125 C 7.359375 5.828125 7.996094 5.828125 8.636719 5.828125 C 8.636719 6.015625 8.636719 6.203125 8.636719 6.402344 Z M 8.636719 6.402344 "/>
</g>
</svg>
