<?xml version="1.0" encoding="UTF-8"?>
<svg width="14px" height="11px" viewBox="0 0 14 11" version="1.1" xmlns="http://www.w3.org/2000/svg" xmlns:xlink="http://www.w3.org/1999/xlink">
    <!-- Generator: Sketch 62 (91390) - https://sketch.com -->
    <title>custom_phrases</title>
    <desc>Created with Sketch.</desc>
    <g id="Design-System-" stroke="none" stroke-width="1" fill="none" fill-rule="evenodd">
        <g id="Iconography" transform="translate(-129.000000, -466.000000)" fill="#FFFFFF">
            <g id="custom_phrases" transform="translate(126.000000, 462.000000)">
                <g>
                    <rect id="Rectangle" fill-opacity="0" x="0" y="0" width="20" height="20"></rect>
                    <g id="quote-left" transform="translate(3.000000, 4.000000)" fill-rule="nonzero">
                        <path d="M12.25,4.66666667 L10.8888889,4.66666667 L10.8888889,4.47222222 C10.8888889,3.93506944 11.3239583,3.5 11.8611111,3.5 L12.0555556,3.5 C12.6996528,3.5 13.2222222,2.97743056 13.2222222,2.33333333 L13.2222222,1.16666667 C13.2222222,0.522569444 12.6996528,0 12.0555556,0 L11.8611111,0 C9.39409722,0 7.38888889,2.00520833 7.38888889,4.47222222 L7.38888889,9.13888889 C7.38888889,10.1038194 8.17395833,10.8888889 9.13888889,10.8888889 L12.25,10.8888889 C13.2149306,10.8888889 14,10.1038194 14,9.13888889 L14,6.41666667 C14,5.45173611 13.2149306,4.66666667 12.25,4.66666667 Z M12.8333333,9.13888889 C12.8333333,9.45972222 12.5708333,9.72222222 12.25,9.72222222 L9.13888889,9.72222222 C8.81805556,9.72222222 8.55555556,9.45972222 8.55555556,9.13888889 L8.55555556,4.47222222 C8.55555556,2.64930556 10.0381944,1.16666667 11.8611111,1.16666667 L12.0555556,1.16666667 L12.0555556,2.33333333 L11.8611111,2.33333333 C10.6822917,2.33333333 9.72222222,3.29340278 9.72222222,4.47222222 L9.72222222,5.83333333 L12.25,5.83333333 C12.5708333,5.83333333 12.8333333,6.09583333 12.8333333,6.41666667 L12.8333333,9.13888889 Z M4.86111111,4.66666667 L3.5,4.66666667 L3.5,4.47222222 C3.5,3.93506944 3.93506944,3.5 4.47222222,3.5 L4.66666667,3.5 C5.31076389,3.5 5.83333333,2.97743056 5.83333333,2.33333333 L5.83333333,1.16666667 C5.83333333,0.522569444 5.31076389,0 4.66666667,0 L4.47222222,0 C2.00520833,0 0,2.00520833 0,4.47222222 L0,9.13888889 C0,10.1038194 0.785069444,10.8888889 1.75,10.8888889 L4.86111111,10.8888889 C5.82604167,10.8888889 6.61111111,10.1038194 6.61111111,9.13888889 L6.61111111,6.41666667 C6.61111111,5.45173611 5.82604167,4.66666667 4.86111111,4.66666667 Z M5.44444444,9.13888889 C5.44444444,9.45972222 5.18194444,9.72222222 4.86111111,9.72222222 L1.75,9.72222222 C1.42916667,9.72222222 1.16666667,9.45972222 1.16666667,9.13888889 L1.16666667,4.47222222 C1.16666667,2.64930556 2.64930556,1.16666667 4.47222222,1.16666667 L4.66666667,1.16666667 L4.66666667,2.33333333 L4.47222222,2.33333333 C3.29340278,2.33333333 2.33333333,3.29340278 2.33333333,4.47222222 L2.33333333,5.83333333 L4.86111111,5.83333333 C5.18194444,5.83333333 5.44444444,6.09583333 5.44444444,6.41666667 L5.44444444,9.13888889 Z" id="Shape"></path>
                    </g>
                </g>
            </g>
        </g>
    </g>
</svg>