<?xml version="1.0" encoding="UTF-8"?>
<svg width="13px" height="14px" viewBox="0 0 13 14" version="1.1" xmlns="http://www.w3.org/2000/svg" xmlns:xlink="http://www.w3.org/1999/xlink">
    <!-- Generator: Sketch 62 (91390) - https://sketch.com -->
    <title>customize</title>
    <desc>Created with Sketch.</desc>
    <g id="Design-System-" stroke="none" stroke-width="1" fill="none" fill-rule="evenodd">
        <g id="Iconography" transform="translate(-226.000000, -344.000000)" fill="#FFFFFF">
            <g id="customize" transform="translate(222.000000, 342.000000)">
                <g>
                    <rect id="Rectangle" fill-opacity="0" x="0" y="0" width="20" height="20"></rect>
                    <g transform="translate(4.000000, 2.000000)" fill-rule="nonzero" id="Shape">
                        <path d="M7.4375,9.625 L6.78125,9.625 L6.78125,0.4375 C6.78125,0.196875 6.584375,0 6.34375,0 L5.90625,0 C5.665625,0 5.46875,0.196875 5.46875,0.4375 L5.46875,9.625 L4.8125,9.625 C4.571875,9.625 4.375,9.821875 4.375,10.0625 L4.375,10.9375 C4.375,11.178125 4.571875,11.375 4.8125,11.375 L5.46875,11.375 L5.46875,13.5625 C5.46875,13.803125 5.665625,14 5.90625,14 L6.34375,14 C6.584375,14 6.78125,13.803125 6.78125,13.5625 L6.78125,11.375 L7.4375,11.375 C7.678125,11.375 7.875,11.178125 7.875,10.9375 L7.875,10.0625 C7.875,9.821875 7.678125,9.625 7.4375,9.625 Z M3.0625,2.625 L2.40625,2.625 L2.40625,0.4375 C2.40625,0.196875 2.209375,0 1.96875,0 L1.53125,0 C1.290625,0 1.09375,0.196875 1.09375,0.4375 L1.09375,2.625 L0.4375,2.625 C0.196875,2.625 0,2.821875 0,3.0625 L0,3.9375 C0,4.178125 0.196875,4.375 0.4375,4.375 L1.09375,4.375 L1.09375,13.5625 C1.09375,13.803125 1.290625,14 1.53125,14 L1.96875,14 C2.209375,14 2.40625,13.803125 2.40625,13.5625 L2.40625,4.375 L3.0625,4.375 C3.303125,4.375 3.5,4.178125 3.5,3.9375 L3.5,3.0625 C3.5,2.821875 3.303125,2.625 3.0625,2.625 Z M11.8125,6.125 L11.15625,6.125 L11.15625,0.4375 C11.15625,0.196875 10.959375,0 10.71875,0 L10.28125,0 C10.040625,0 9.84375,0.196875 9.84375,0.4375 L9.84375,6.125 L9.1875,6.125 C8.946875,6.125 8.75,6.321875 8.75,6.5625 L8.75,7.4375 C8.75,7.678125 8.946875,7.875 9.1875,7.875 L9.84375,7.875 L9.84375,13.5625 C9.84375,13.803125 10.040625,14 10.28125,14 L10.71875,14 C10.959375,14 11.15625,13.803125 11.15625,13.5625 L11.15625,7.875 L11.8125,7.875 C12.053125,7.875 12.25,7.678125 12.25,7.4375 L12.25,6.5625 C12.25,6.321875 12.053125,6.125 11.8125,6.125 Z"></path>
                    </g>
                </g>
            </g>
        </g>
    </g>
</svg>