<?xml version="1.0" encoding="UTF-8"?>
<svg width="14px" height="12px" viewBox="0 0 14 12" version="1.1" xmlns="http://www.w3.org/2000/svg" xmlns:xlink="http://www.w3.org/1999/xlink">
    <!-- Generator: Sketch 62 (91390) - https://sketch.com -->
    <title>custom_reports</title>
    <desc>Created with Sketch.</desc>
    <g id="Design-System-" stroke="none" stroke-width="1" fill="none" fill-rule="evenodd">
        <g id="Iconography" transform="translate(-417.000000, -343.000000)" fill="#FFFFFF">
            <g id="custom_reports" transform="translate(414.000000, 340.000000)">
                <g>
                    <rect id="Rectangle" fill-opacity="0" x="0" y="0" width="20" height="20"></rect>
                    <g transform="translate(3.000000, 3.000000)" fill-rule="nonzero" id="Shape">
                        <path d="M9.57894737,7.36842105 L8.10526316,7.36842105 C7.69838816,7.36842105 7.36842105,7.69838816 7.36842105,8.10526316 L7.36842105,11.0526316 C7.36842105,11.4595066 7.69838816,11.7894737 8.10526316,11.7894737 L9.57894737,11.7894737 C9.98582237,11.7894737 10.3157895,11.4595066 10.3157895,11.0526316 L10.3157895,8.10526316 C10.3157895,7.69838816 9.98582237,7.36842105 9.57894737,7.36842105 Z M9.21052632,10.6842105 L8.47368421,10.6842105 L8.47368421,8.47368421 L9.21052632,8.47368421 L9.21052632,10.6842105 Z M13.2631579,4.42105263 L11.7894737,4.42105263 C11.3825987,4.42105263 11.0526316,4.75101974 11.0526316,5.15789474 L11.0526316,11.0526316 C11.0526316,11.4595066 11.3825987,11.7894737 11.7894737,11.7894737 L13.2631579,11.7894737 C13.6700329,11.7894737 14,11.4595066 14,11.0526316 L14,5.15789474 C14,4.75101974 13.6700329,4.42105263 13.2631579,4.42105263 Z M12.8947368,10.6842105 L12.1578947,10.6842105 L12.1578947,5.52631579 L12.8947368,5.52631579 L12.8947368,10.6842105 Z M5.89473684,4.42105263 L4.42105263,4.42105263 C4.01417763,4.42105263 3.68421053,4.75101974 3.68421053,5.15789474 L3.68421053,11.0526316 C3.68421053,11.4595066 4.01417763,11.7894737 4.42105263,11.7894737 L5.89473684,11.7894737 C6.30161184,11.7894737 6.63157895,11.4595066 6.63157895,11.0526316 L6.63157895,5.15789474 C6.63157895,4.75101974 6.30161184,4.42105263 5.89473684,4.42105263 Z M5.52631579,10.6842105 L4.78947368,10.6842105 L4.78947368,5.52631579 L5.52631579,5.52631579 L5.52631579,10.6842105 Z M2.21052632,8.10526316 L0.736842105,8.10526316 C0.329967105,8.10526316 0,8.43523026 0,8.84210526 L0,11.0526316 C0,11.4595066 0.329967105,11.7894737 0.736842105,11.7894737 L2.21052632,11.7894737 C2.61740132,11.7894737 2.94736842,11.4595066 2.94736842,11.0526316 L2.94736842,8.84210526 C2.94736842,8.43523026 2.61740132,8.10526316 2.21052632,8.10526316 Z M1.84210526,10.6842105 L1.10526316,10.6842105 L1.10526316,9.21052632 L1.84210526,9.21052632 L1.84210526,10.6842105 Z M1.47368421,5.89473684 C2.08411184,5.89473684 2.57894737,5.39990132 2.57894737,4.78947368 C2.57894737,4.69115132 2.56190789,4.59743421 2.53796053,4.50671053 L4.87513158,2.16953947 C4.96585526,2.19348684 5.05957237,2.21052632 5.15789474,2.21052632 C5.29950658,2.21052632 5.43351974,2.18151316 5.55809211,2.13292763 L7.75342105,3.88914474 C7.74536184,3.94279605 7.73707237,3.99667763 7.73707237,4.05263158 C7.73707237,4.66305921 8.23190789,5.15789474 8.84233553,5.15789474 C9.45276316,5.15789474 9.94759868,4.66305921 9.94759868,4.05263158 C9.94759868,3.99667763 9.93907895,3.94302632 9.93125,3.889375 L12.1265789,2.13315789 C12.2506908,2.18151316 12.3847039,2.21052632 12.5263158,2.21052632 C13.1367434,2.21052632 13.6315789,1.71569079 13.6315789,1.10526316 C13.6315789,0.494835526 13.1367434,0 12.5263158,0 C11.9158882,0 11.4210526,0.494835526 11.4210526,1.10526316 C11.4210526,1.16121711 11.4295724,1.21486842 11.4374013,1.26851974 L9.24207237,3.02473684 C9.11773026,2.97615132 8.98348684,2.94713816 8.841875,2.94713816 C8.70026316,2.94713816 8.56625,2.97615132 8.44167763,3.02473684 L6.24680921,1.26875 C6.25486842,1.21509868 6.26315789,1.16121711 6.26315789,1.10526316 C6.26315789,0.494835526 5.76832237,0 5.15789474,0 C4.54746711,0 4.05263158,0.494835526 4.05263158,1.10526316 C4.05263158,1.20358553 4.06967105,1.29730263 4.09361842,1.38802632 L1.75644737,3.72519737 C1.66572368,3.70125 1.57200658,3.68421053 1.47368421,3.68421053 C0.863256579,3.68421053 0.368421053,4.17904605 0.368421053,4.78947368 C0.368421053,5.39990132 0.863256579,5.89473684 1.47368421,5.89473684 Z"></path>
                    </g>
                </g>
            </g>
        </g>
    </g>
</svg>