<?xml version="1.0" standalone="no"?>
<!DOCTYPE svg PUBLIC "-//W3C//DTD SVG 20010904//EN"
 "http://www.w3.org/TR/2001/REC-SVG-20010904/DTD/svg10.dtd">
<svg version="1.0" xmlns="http://www.w3.org/2000/svg"
 width="14px" viewBox="0 0 512.000000 512.000000"
 preserveAspectRatio="xMidYMid meet">

<g transform="translate(0.000000,512.000000) scale(0.100000,-0.100000)"
fill="#ffffff" stroke="none">
<path d="M2315 5109 c-1079 -111 -1977 -887 -2238 -1934 -56 -227 -71 -350
-71 -600 -1 -166 4 -247 17 -330 17 -102 51 -267 63 -307 4 -14 20 -12 147 21
103 27 142 41 141 52 -1 7 -13 70 -27 139 -38 185 -51 323 -43 495 31 767 436
1447 1104 1854 236 145 524 248 827 297 154 25 497 26 650 1 494 -81 908 -287
1257 -626 107 -103 228 -239 228 -255 0 -3 -70 -6 -155 -6 l-155 0 0 -150 0
-150 359 0 359 0 86 345 c47 190 86 351 86 358 0 8 -47 24 -132 45 -73 18
-138 32 -144 32 -7 0 -26 -59 -44 -132 l-33 -132 -60 70 c-92 106 -262 272
-357 347 -356 286 -795 480 -1242 548 -154 23 -481 33 -623 18z"/>
<path d="M2110 4020 l0 -190 -27 -12 c-99 -39 -259 -126 -322 -174 -87 -65
-60 -69 -255 45 -76 44 -142 81 -146 81 -7 0 -450 -762 -450 -774 0 -2 72 -46
161 -97 l161 -92 -9 -71 c-4 -39 -8 -118 -8 -176 0 -58 4 -137 8 -176 l9 -71
-161 -92 c-89 -51 -161 -95 -161 -97 0 -12 443 -774 450 -774 4 0 70 37 146
81 195 114 168 110 255 45 63 -48 223 -135 322 -174 l27 -12 0 -190 0 -190
450 0 450 0 0 191 0 190 33 11 c70 24 246 121 316 174 87 65 60 69 255 -45 76
-44 142 -81 146 -81 14 0 452 772 443 780 -4 4 -77 47 -161 96 l-154 87 9 71
c10 91 10 261 0 352 l-9 71 154 87 c84 49 157 92 161 96 9 8 -429 780 -443
780 -4 0 -70 -37 -146 -81 -195 -114 -168 -110 -255 -45 -70 53 -246 150 -316
174 l-33 11 0 190 0 191 -450 0 -450 0 0 -190z m597 -726 c150 -31 275 -99
382 -207 98 -100 162 -209 198 -341 23 -84 23 -288 0 -372 -77 -280 -300 -490
-579 -548 -519 -107 -989 363 -882 882 32 154 96 271 211 384 183 179 426 253
670 202z"/>
<path d="M2455 2996 c-83 -20 -146 -56 -211 -120 -177 -178 -177 -455 0 -631
179 -178 455 -178 631 -1 178 179 178 454 1 632 -114 114 -267 158 -421 120z"/>
<path d="M4885 3160 c-98 -26 -140 -41 -139 -51 1 -8 13 -70 27 -139 38 -184
51 -323 43 -490 -23 -546 -228 -1045 -590 -1438 -363 -394 -821 -638 -1346
-719 -160 -24 -493 -24 -645 0 -406 66 -779 229 -1090 475 -126 100 -395 376
-395 406 0 3 70 6 155 6 l155 0 0 150 0 150 -359 0 -359 0 -86 -345 c-47 -190
-86 -351 -86 -358 0 -8 47 -24 133 -45 72 -18 137 -32 143 -32 7 0 26 59 44
132 l33 132 60 -70 c442 -509 999 -811 1672 -906 139 -20 494 -17 650 6 941
133 1734 776 2063 1671 50 138 106 363 129 520 21 146 24 508 4 630 -17 112
-62 328 -69 341 -5 8 -50 0 -147 -26z"/>
</g>
</svg>
