<?xml version="1.0" encoding="UTF-8"?>
<svg width="14px" height="14px" viewBox="0 0 14 14" version="1.1" xmlns="http://www.w3.org/2000/svg" xmlns:xlink="http://www.w3.org/1999/xlink">
    <!-- Generator: Sketch 62 (91390) - https://sketch.com -->
    <title>help_white</title>
    <desc>Created with Sketch.</desc>
    <g id="Design-System-" stroke="none" stroke-width="1" fill="none" fill-rule="evenodd">
        <g id="Iconography" transform="translate(-513.000000, -342.000000)" fill="#FFFFFF">
            <g id="help_white" transform="translate(510.000000, 340.000000)">
                <g>
                    <rect id="Rectangle" fill-opacity="0" x="0" y="0" width="20" height="20"></rect>
                    <g id="question-circle" transform="translate(3.000000, 2.000000)" fill-rule="nonzero">
                        <path d="M7,0 C3.13427823,0 0,3.13540726 0,7 C0,10.8668508 3.13427823,14 7,14 C10.8657218,14 14,10.8668508 14,7 C14,3.13540726 10.8657218,0 7,0 Z M7,12.6451613 C3.88014516,12.6451613 1.35483871,10.1208992 1.35483871,7 C1.35483871,3.88118952 3.88025806,1.35483871 7,1.35483871 C10.1186976,1.35483871 12.6451613,3.88022984 12.6451613,7 C12.6451613,10.1197984 10.1208992,12.6451613 7,12.6451613 Z M10.0270484,5.44193548 C10.0270484,7.33453226 7.98290726,7.36366129 7.98290726,8.06306855 L7.98290726,8.24193548 C7.98290726,8.4289879 7.83125,8.58064516 7.64419758,8.58064516 L6.35577419,8.58064516 C6.16872177,8.58064516 6.01706452,8.4289879 6.01706452,8.24193548 L6.01706452,7.99752823 C6.01706452,6.98859677 6.78198387,6.58527823 7.36002016,6.26118952 C7.85569355,5.98330645 8.1594879,5.79430645 8.1594879,5.42629839 C8.1594879,4.93951613 7.53854839,4.61641532 7.03655242,4.61641532 C6.38202419,4.61641532 6.07986694,4.92625 5.655125,5.46231452 C5.5406129,5.60683065 5.33165726,5.63367339 5.18471371,5.52226613 L4.39935887,4.92675806 C4.25520968,4.81746774 4.22291935,4.61441129 4.32472984,4.46489919 C4.99162097,3.48563306 5.84104839,2.93548387 7.16354032,2.93548387 C8.54860887,2.93548387 10.0270484,4.01664516 10.0270484,5.44193548 L10.0270484,5.44193548 Z M8.18548387,10.1612903 C8.18548387,10.8149718 7.65368145,11.3467742 7,11.3467742 C6.34631855,11.3467742 5.81451613,10.8149718 5.81451613,10.1612903 C5.81451613,9.50760887 6.34631855,8.97580645 7,8.97580645 C7.65368145,8.97580645 8.18548387,9.50760887 8.18548387,10.1612903 Z" id="Shape"></path>
                    </g>
                </g>
            </g>
        </g>
    </g>
</svg>