<?xml version="1.0" encoding="UTF-8"?>
<svg width="10px" height="14px" viewBox="0 0 10 14" version="1.1" xmlns="http://www.w3.org/2000/svg" xmlns:xlink="http://www.w3.org/1999/xlink">
    <!-- Generator: Sketch 62 (91390) - https://sketch.com -->
    <title>interactions</title>
    <desc>Created with Sketch.</desc>
    <g id="Design-System-" stroke="none" stroke-width="1" fill="none" fill-rule="evenodd">
        <g id="Iconography" transform="translate(-1282.000000, -343.000000)" fill="#FFFFFF">
            <g id="interactions" transform="translate(1278.000000, 340.000000)">
                <g>
                    <rect id="Rectangle" fill-opacity="0" x="0" y="0" width="20" height="20"></rect>
                    <g id="microphone-alt" transform="translate(4.000000, 3.000000)" fill-rule="nonzero">
                        <path d="M9.1875,5.25 L8.75,5.25 C8.50828125,5.25 8.3125,5.44578125 8.3125,5.6875 L8.3125,7 C8.3125,9.0453125 6.54910156,10.6864844 4.46277344,10.4830469 C2.64441406,10.3055859 1.3125,8.67097656 1.3125,6.84414063 L1.3125,5.6875 C1.3125,5.44578125 1.11671875,5.25 0.875,5.25 L0.4375,5.25 C0.19578125,5.25 0,5.44578125 0,5.6875 L0,6.785625 C0,9.23671875 1.74917969,11.4217578 4.15625,11.7537109 L4.15625,12.6875 L2.625,12.6875 C2.38328125,12.6875 2.1875,12.8832813 2.1875,13.125 L2.1875,13.5625 C2.1875,13.8042188 2.38328125,14 2.625,14 L7,14 C7.24171875,14 7.4375,13.8042188 7.4375,13.5625 L7.4375,13.125 C7.4375,12.8832813 7.24171875,12.6875 7,12.6875 L5.46875,12.6875 L5.46875,11.7641016 C7.81238281,11.4425391 9.625,9.43085937 9.625,7 L9.625,5.6875 C9.625,5.44578125 9.42921875,5.25 9.1875,5.25 Z M4.8125,9.625 C6.26226563,9.625 7.4375,8.44976562 7.4375,7 L7.4375,2.625 C7.4375,1.17523437 6.26226563,0 4.8125,0 C3.36273437,0 2.1875,1.17523437 2.1875,2.625 L2.1875,7 C2.1875,8.44976562 3.36273437,9.625 4.8125,9.625 Z M3.5,2.625 C3.5,1.90121094 4.08871094,1.3125 4.8125,1.3125 C5.53628906,1.3125 6.125,1.90121094 6.125,2.625 L5.03125,2.625 C4.91039063,2.625 4.8125,2.72289062 4.8125,2.84375 L4.8125,3.28125 C4.8125,3.40210938 4.91039063,3.5 5.03125,3.5 L6.125,3.5 L6.125,4.375 L5.03125,4.375 C4.91039063,4.375 4.8125,4.47289062 4.8125,4.59375 L4.8125,5.03125 C4.8125,5.15210938 4.91039063,5.25 5.03125,5.25 L6.125,5.25 L6.125,6.125 L5.03125,6.125 C4.91039063,6.125 4.8125,6.22289063 4.8125,6.34375 L4.8125,6.78125 C4.8125,6.90210937 4.91039063,7 5.03125,7 L6.125,7 C6.125,7.72378906 5.53628906,8.3125 4.8125,8.3125 C4.08871094,8.3125 3.5,7.72378906 3.5,7 L3.5,2.625 Z" id="Shape"></path>
                    </g>
                </g>
            </g>
        </g>
    </g>
</svg>