<?xml version="1.0" encoding="UTF-8"?>
<svg xmlns="http://www.w3.org/2000/svg" xmlns:xlink="http://www.w3.org/1999/xlink" width="11pt" height="11pt" viewBox="0 0 11 11" version="1.1">
<g id="surface1">
<path style=" stroke:none;fill-rule:nonzero;fill:rgb(100%,100%,100%);fill-opacity:1;" d="M 9 4.101562 L 8.699219 4.101562 C 8.5 4.101562 8.398438 4.300781 8.398438 4.398438 L 8.398438 5.398438 C 8.398438 7 7 8.300781 5.398438 8.101562 C 4 8 2.898438 6.699219 2.898438 5.199219 L 2.898438 4.5 C 2.898438 4.300781 2.699219 4.199219 2.601562 4.199219 L 2.300781 4.199219 C 2.101562 4.199219 2 4.398438 2 4.5 L 2 5.398438 C 2 7.300781 3.398438 9 5.300781 9.300781 L 5.300781 10 L 4.101562 10 C 3.898438 10 3.800781 10.199219 3.800781 10.300781 L 3.800781 10.601562 C 3.5 10.800781 3.699219 11 3.898438 11 L 7.300781 11 C 7.5 11 7.601562 10.800781 7.601562 10.699219 L 7.601562 10.300781 C 7.601562 10.101562 7.5 10 7.300781 10 L 6.101562 10 L 6.101562 9.199219 C 7.898438 9 9.398438 7.398438 9.398438 5.5 L 9.398438 4.5 C 9.398438 4.300781 9.199219 4.101562 9 4.101562 Z M 5.601562 7.601562 C 6.699219 7.601562 7.699219 6.699219 7.699219 5.5 L 7.699219 2.101562 C 7.601562 0.898438 6.699219 0 5.601562 0 C 4.5 0 3.5 0.898438 3.5 2.101562 L 3.5 5.5 C 3.5 6.601562 4.398438 7.601562 5.601562 7.601562 Z M 4.5 2.101562 C 4.5 1.5 5 1.101562 5.5 1.101562 C 6 1.101562 6.5 1.601562 6.5 2.101562 L 5.699219 2.101562 C 5.601562 2.101562 5.5 2.199219 5.5 2.300781 L 5.5 2.601562 C 5.5 2.699219 5.601562 2.800781 5.699219 2.800781 L 6.601562 2.800781 L 6.601562 3.5 L 5.699219 3.5 C 5.601562 3.5 5.5 3.601562 5.5 3.699219 L 5.5 4 C 5.5 4.101562 5.601562 4.199219 5.699219 4.199219 L 6.601562 4.199219 L 6.601562 4.898438 L 5.699219 4.898438 C 5.601562 4.800781 5.601562 4.898438 5.601562 5 L 5.601562 5.300781 C 5.601562 5.398438 5.699219 5.5 5.800781 5.5 L 6.699219 5.5 C 6.699219 6.101562 6.199219 6.5 5.699219 6.5 C 5.199219 6.5 4.699219 6 4.699219 5.5 L 4.699219 2.101562 Z M 4.5 2.101562 "/>
</g>
</svg>
