<?xml version="1.0" encoding="UTF-8"?>
<svg width="14px" height="14px" viewBox="0 0 14 14" version="1.1" xmlns="http://www.w3.org/2000/svg" xmlns:xlink="http://www.w3.org/1999/xlink">
    <!-- Generator: Sketch 62 (91390) - https://sketch.com -->
    <title>key_questions</title>
    <desc>Created with Sketch.</desc>
    <g id="Design-System-" stroke="none" stroke-width="1" fill="none" fill-rule="evenodd">
        <g id="Iconography" transform="translate(-321.000000, -343.000000)" fill="#FFFFFF">
            <g id="key_questions" transform="translate(318.000000, 340.000000)">
                <g>
                    <rect id="Rectangle" fill-opacity="0" x="0" y="0" width="20" height="20"></rect>
                    <path d="M17,4.5 L17,15.5 C17,16.3284375 16.3284375,17 15.5,17 L4.5,17 C3.6715625,17 3,16.3284375 3,15.5 L3,4.5 C3,3.6715625 3.6715625,3 4.5,3 L15.5,3 C16.3284375,3 17,3.6715625 17,4.5 Z M15.5,15.3125 L15.5,4.6875 C15.5,4.58394661 15.4160534,4.5 15.3125,4.5 L4.6875,4.5 C4.58394661,4.5 4.5,4.58394661 4.5,4.6875 L4.5,15.3125 C4.5,15.4160534 4.58394661,15.5 4.6875,15.5 L15.3125,15.5 C15.4160534,15.5 15.5,15.4160534 15.5,15.3125 Z M13.351375,8.275 C13.351375,10.370375 11.0882188,10.402625 11.0882188,11.1769688 L11.0882188,11.375 C11.0882188,11.5820938 10.9203125,11.75 10.7132188,11.75 L9.28675,11.75 C9.07965625,11.75 8.91175,11.5820938 8.91175,11.375 L8.91175,11.1044063 C8.91175,9.987375 9.758625,9.54084375 10.3985938,9.18203125 C10.947375,8.874375 11.2837188,8.665125 11.2837188,8.2576875 C11.2837188,7.71875 10.59625,7.36103125 10.0404688,7.36103125 C9.3158125,7.36103125 8.98128125,7.7040625 8.51103125,8.2975625 C8.38425,8.4575625 8.15290625,8.48728125 7.99021875,8.3639375 L7.12071875,7.704625 C6.961125,7.583625 6.925375,7.3588125 7.03809375,7.19328125 C7.7764375,6.10909375 8.716875,5.5 10.1810625,5.5 C11.7145313,5.5 13.351375,6.697 13.351375,8.275 Z M11.3125,13.5 C11.3125,14.2237187 10.7237187,14.8125 10,14.8125 C9.27628125,14.8125 8.6875,14.2237187 8.6875,13.5 C8.6875,12.7762813 9.27628125,12.1875 10,12.1875 C10.7237187,12.1875 11.3125,12.7762813 11.3125,13.5 Z" fill-rule="nonzero"></path>
                </g>
            </g>
        </g>
    </g>
</svg>