<?xml version="1.0" encoding="UTF-8"?>
<svg xmlns="http://www.w3.org/2000/svg" xmlns:xlink="http://www.w3.org/1999/xlink" width="11pt" height="11pt" viewBox="0 0 11 11" version="1.1">
<g id="surface1">
<path style=" stroke:none;fill-rule:nonzero;fill:rgb(100%,100%,100%);fill-opacity:1;" d="M 0 9.625 C 3.664062 9.625 7.316406 9.625 10.976562 9.625 C 11.121094 10.484375 10.582031 11 9.976562 11 C 7.128906 11 4.277344 11 1.429688 11 C 1.230469 11 1.035156 11.011719 0.835938 10.988281 C 0.40625 10.933594 0.109375 10.625 0.0117188 10.175781 C 0.0117188 10.152344 0 10.132812 -0.0117188 10.109375 C 0 9.945312 0 9.777344 0 9.625 Z M 0 9.625 "/>
<path style=" stroke:none;fill-rule:nonzero;fill:rgb(100%,100%,100%);fill-opacity:1;" d="M 10.316406 8.933594 C 9.03125 8.933594 7.753906 8.933594 6.46875 8.933594 C 6.457031 8.734375 6.457031 8.535156 6.433594 8.347656 C 6.335938 7.535156 5.664062 6.886719 4.894531 6.875 C 4.742188 6.875 4.574219 6.875 4.421875 6.863281 C 4.851562 6.785156 5.203125 6.578125 5.46875 6.214844 C 5.730469 5.851562 5.863281 5.433594 5.808594 4.972656 C 5.699219 4.058594 5.027344 3.421875 4.191406 3.433594 C 3.378906 3.441406 2.707031 4.09375 2.605469 4.984375 C 2.519531 5.773438 2.992188 6.675781 3.992188 6.898438 C 3.773438 6.898438 3.554688 6.875 3.332031 6.898438 C 2.574219 6.996094 1.96875 7.722656 1.957031 8.535156 C 1.957031 8.667969 1.957031 8.789062 1.957031 8.933594 C 1.519531 8.933594 1.089844 8.933594 0.660156 8.933594 C 0.660156 6.644531 0.660156 4.355469 0.660156 2.066406 C 2.375 2.066406 4.09375 2.066406 5.820312 2.066406 C 5.820312 2.894531 5.820312 3.707031 5.820312 4.542969 C 5.863281 4.519531 5.90625 4.5 5.941406 4.488281 C 6.566406 4.148438 7.195312 3.816406 7.832031 3.476562 C 7.875 3.453125 7.929688 3.433594 7.976562 3.433594 C 8.746094 3.433594 9.515625 3.433594 10.285156 3.433594 C 10.296875 3.433594 10.316406 3.433594 10.328125 3.433594 C 10.316406 5.269531 10.316406 7.09375 10.316406 8.933594 Z M 10.316406 8.933594 "/>
<path style=" stroke:none;fill-rule:nonzero;fill:rgb(100%,100%,100%);fill-opacity:1;" d="M 6.46875 3.421875 C 6.46875 2.265625 6.46875 1.132812 6.46875 0 C 7.976562 0 9.480469 0 10.988281 0 C 10.988281 0.914062 10.988281 1.816406 10.988281 2.738281 C 10.945312 2.738281 10.902344 2.738281 10.855469 2.738281 C 9.855469 2.738281 8.855469 2.738281 7.855469 2.738281 C 7.789062 2.738281 7.722656 2.761719 7.65625 2.78125 C 7.292969 2.96875 6.929688 3.167969 6.566406 3.355469 C 6.546875 3.386719 6.511719 3.398438 6.46875 3.421875 Z M 7.742188 1.035156 C 7.523438 1.035156 7.316406 1.035156 7.117188 1.035156 C 7.117188 1.265625 7.117188 1.484375 7.117188 1.703125 C 7.324219 1.703125 7.535156 1.703125 7.742188 1.703125 C 7.742188 1.484375 7.742188 1.265625 7.742188 1.035156 Z M 8.402344 1.035156 C 8.402344 1.265625 8.402344 1.484375 8.402344 1.703125 C 8.613281 1.703125 8.820312 1.703125 9.03125 1.703125 C 9.03125 1.472656 9.03125 1.253906 9.03125 1.035156 C 8.820312 1.035156 8.613281 1.035156 8.402344 1.035156 Z M 9.691406 1.703125 C 9.910156 1.703125 10.121094 1.703125 10.316406 1.703125 C 10.316406 1.472656 10.316406 1.253906 10.316406 1.035156 C 10.109375 1.035156 9.898438 1.035156 9.691406 1.035156 C 9.691406 1.253906 9.691406 1.472656 9.691406 1.703125 Z M 9.691406 1.703125 "/>
<path style=" stroke:none;fill-rule:nonzero;fill:rgb(100%,100%,100%);fill-opacity:1;" d="M 5.820312 8.933594 C 4.742188 8.933594 3.675781 8.933594 2.605469 8.933594 C 2.5625 8.46875 2.617188 8.0625 2.992188 7.765625 C 3.15625 7.632812 3.34375 7.566406 3.542969 7.566406 C 3.980469 7.566406 4.433594 7.558594 4.871094 7.566406 C 5.390625 7.578125 5.808594 8.019531 5.820312 8.578125 C 5.820312 8.691406 5.820312 8.800781 5.820312 8.933594 Z M 5.820312 8.933594 "/>
<path style=" stroke:none;fill-rule:nonzero;fill:rgb(100%,100%,100%);fill-opacity:1;" d="M 4.203125 4.113281 C 4.742188 4.113281 5.171875 4.574219 5.171875 5.148438 C 5.171875 5.710938 4.742188 6.171875 4.203125 6.183594 C 3.664062 6.183594 3.234375 5.71875 3.234375 5.148438 C 3.246094 4.585938 3.675781 4.125 4.203125 4.113281 Z M 4.203125 4.113281 "/>
</g>
</svg>
