<?xml version="1.0" encoding="UTF-8"?>
<svg width="13px" height="14px" viewBox="0 0 13 14" version="1.1" xmlns="http://www.w3.org/2000/svg" xmlns:xlink="http://www.w3.org/1999/xlink">
    <!-- Generator: Sketch 62 (91390) - https://sketch.com -->
    <title>my_playbooks</title>
    <desc>Created with Sketch.</desc>
    <g id="Design-System-" stroke="none" stroke-width="1" fill="none" fill-rule="evenodd">
        <g id="Iconography" transform="translate(-610.000000, -343.000000)">
            <g id="my_playbooks" transform="translate(606.000000, 340.000000)">
                <g>
                    <rect id="Rectangle" opacity="0.2" x="0" y="0" width="20" height="20"></rect>
                    <path d="M7.5,7.15625 L7.5,6.28125 C7.5,6.1609375 7.5984375,6.0625 7.71875,6.0625 L13.40625,6.0625 C13.5265625,6.0625 13.625,6.1609375 13.625,6.28125 L13.625,7.15625 C13.625,7.2765625 13.5265625,7.375 13.40625,7.375 L7.71875,7.375 C7.5984375,7.375 7.5,7.2765625 7.5,7.15625 Z M7.71875,9.5625 L13.40625,9.5625 C13.5265625,9.5625 13.625,9.4640625 13.625,9.34375 L13.625,8.46875 C13.625,8.3484375 13.5265625,8.25 13.40625,8.25 L7.71875,8.25 C7.5984375,8.25 7.5,8.3484375 7.5,8.46875 L7.5,9.34375 C7.5,9.4640625 7.5984375,9.5625 7.71875,9.5625 Z M15.8972656,13.9292969 C15.7824219,14.2847656 15.7824219,15.3402344 15.8972656,15.6957031 C16.096875,15.7339844 16.25,15.9117188 16.25,16.125 L16.25,16.5625 C16.25,16.803125 16.053125,17 15.8125,17 L6.1875,17 C4.97890625,17 4,16.0210937 4,14.8125 L4,5.1875 C4,3.97890625 4.97890625,3 6.1875,3 L15.8125,3 C16.053125,3 16.25,3.196875 16.25,3.4375 L16.25,13.5 C16.25,13.7132813 16.0996094,13.8882813 15.8972656,13.9292969 Z M14.7734375,13.9375 L6.1875,13.9375 C5.70625,13.9375 5.3125,14.33125 5.3125,14.8125 C5.3125,15.2964844 5.70351562,15.6875 6.1875,15.6875 L14.7734375,15.6875 C14.6996094,15.2144531 14.6996094,14.4105469 14.7734375,13.9375 Z M14.9375,4.3125 L6.1875,4.3125 C5.70351562,4.3125 5.3125,4.70351562 5.3125,5.1875 L5.3125,12.8082031 C5.58046875,12.690625 5.87578125,12.625 6.1875,12.625 L14.9375,12.625 L14.9375,4.3125 Z" fill="#FFFFFF" fill-rule="nonzero"></path>
                </g>
            </g>
        </g>
    </g>
</svg>