<?xml version="1.0" encoding="UTF-8"?>
<svg xmlns="http://www.w3.org/2000/svg" xmlns:xlink="http://www.w3.org/1999/xlink" width="11pt" height="11pt" viewBox="0 0 11 11" version="1.1">
<g id="surface1">
<path style=" stroke:none;fill-rule:nonzero;fill:rgb(100%,100%,100%);fill-opacity:1;" d="M 9.042969 11 C 6.675781 11 4.3125 11 1.945312 11 C 1.484375 10.824219 1.363281 10.660156 1.363281 10.152344 C 1.363281 7.027344 1.363281 3.894531 1.363281 0.769531 C 1.363281 0.285156 1.648438 0.0117188 2.121094 0.0117188 C 3.433594 0.0117188 4.742188 0.0117188 6.050781 0.0117188 C 6.082031 0.0117188 6.128906 0.0117188 6.171875 0.0117188 C 6.171875 0.0664062 6.171875 0.0976562 6.171875 0.144531 C 6.171875 0.980469 6.171875 1.824219 6.171875 2.660156 C 6.171875 3.179688 6.445312 3.441406 6.964844 3.441406 C 7.800781 3.441406 8.644531 3.441406 9.480469 3.441406 C 9.515625 3.441406 9.558594 3.441406 9.601562 3.441406 C 9.601562 3.476562 9.601562 3.488281 9.601562 3.507812 C 9.601562 5.773438 9.601562 8.039062 9.601562 10.308594 C 9.601562 10.417969 9.570312 10.539062 9.527344 10.636719 C 9.449219 10.835938 9.261719 10.933594 9.042969 11 Z M 8.238281 9.625 C 8.238281 8.019531 8.238281 6.425781 8.238281 4.828125 C 7.777344 4.828125 7.324219 4.828125 6.875 4.828125 C 6.875 6.433594 6.875 8.03125 6.875 9.625 C 7.335938 9.625 7.789062 9.625 8.238281 9.625 Z M 6.183594 9.625 C 6.183594 8.480469 6.183594 7.335938 6.183594 6.203125 C 5.71875 6.203125 5.269531 6.203125 4.816406 6.203125 C 4.816406 7.347656 4.816406 8.480469 4.816406 9.625 C 5.269531 9.625 5.71875 9.625 6.183594 9.625 Z M 4.113281 9.625 C 4.113281 8.933594 4.113281 8.25 4.113281 7.578125 C 3.652344 7.578125 3.199219 7.578125 2.75 7.578125 C 2.75 8.261719 2.75 8.941406 2.75 9.625 C 3.210938 9.625 3.664062 9.625 4.113281 9.625 Z M 4.113281 9.625 "/>
<path style=" stroke:none;fill-rule:nonzero;fill:rgb(100%,100%,100%);fill-opacity:1;" d="M 6.886719 0.0429688 C 7.777344 0.933594 8.691406 1.847656 9.582031 2.738281 C 8.691406 2.738281 7.789062 2.738281 6.875 2.738281 C 6.886719 1.835938 6.886719 0.933594 6.886719 0.0429688 Z M 6.886719 0.0429688 "/>
</g>
</svg>
