<?xml version="1.0" encoding="UTF-8"?>
<svg xmlns="http://www.w3.org/2000/svg" xmlns:xlink="http://www.w3.org/1999/xlink" width="11pt" height="11pt" viewBox="0 0 11 11" version="1.1">
<g id="surface1">
<path style=" stroke:none;fill-rule:nonzero;fill:rgb(100%,100%,100%);fill-opacity:1;" d="M 5.742188 10.726562 C 5.632812 10.726562 5.566406 10.726562 5.5 10.726562 C 4.179688 10.726562 2.847656 10.726562 1.527344 10.726562 C 0.914062 10.726562 0.550781 10.339844 0.550781 9.714844 C 0.550781 7.085938 0.550781 4.464844 0.550781 1.835938 C 0.550781 1.222656 0.914062 0.847656 1.507812 0.835938 C 1.859375 0.835938 2.199219 0.835938 2.597656 0.835938 C 2.5625 1.035156 2.539062 1.199219 2.496094 1.34375 C 2.476562 1.386719 2.386719 1.441406 2.332031 1.441406 C 2.046875 1.453125 1.769531 1.441406 1.484375 1.453125 C 1.242188 1.453125 1.144531 1.574219 1.144531 1.816406 C 1.144531 4.453125 1.144531 7.09375 1.144531 9.734375 C 1.144531 9.988281 1.265625 10.109375 1.527344 10.109375 C 2.652344 10.109375 3.773438 10.109375 4.882812 10.109375 C 5.039062 10.109375 5.136719 10.140625 5.246094 10.261719 C 5.378906 10.429688 5.542969 10.550781 5.742188 10.726562 Z M 5.742188 10.726562 "/>
<path style=" stroke:none;fill-rule:nonzero;fill:rgb(100%,100%,100%);fill-opacity:1;" d="M 7.535156 4.9375 C 8.976562 4.882812 10.449219 6.128906 10.449219 7.976562 C 10.449219 9.65625 9.128906 11.011719 7.503906 11 C 5.960938 10.976562 4.609375 9.714844 4.609375 7.941406 C 4.621094 6.105469 6.082031 4.882812 7.535156 4.9375 Z M 9.933594 7.976562 C 9.945312 6.566406 8.867188 5.457031 7.523438 5.457031 C 6.246094 5.457031 5.113281 6.488281 5.113281 7.953125 C 5.113281 9.371094 6.203125 10.429688 7.503906 10.460938 C 8.832031 10.484375 9.933594 9.351562 9.933594 7.976562 Z M 9.933594 7.976562 "/>
<path style=" stroke:none;fill-rule:nonzero;fill:rgb(100%,100%,100%);fill-opacity:1;" d="M 2.804688 0.59375 C 3.078125 0.59375 3.386719 0.59375 3.707031 0.59375 C 3.75 0.273438 3.90625 0.0546875 4.222656 0.0117188 C 4.5 -0.03125 4.773438 0.152344 4.816406 0.441406 C 4.839844 0.582031 4.882812 0.605469 5.015625 0.605469 C 5.28125 0.59375 5.542969 0.605469 5.785156 0.605469 C 5.863281 1.054688 5.941406 1.484375 6.027344 1.925781 C 4.882812 1.925781 3.730469 1.925781 2.5625 1.925781 C 2.617188 1.507812 2.707031 1.066406 2.804688 0.59375 Z M 4.269531 1 C 4.488281 1 4.675781 0.8125 4.6875 0.59375 C 4.6875 0.386719 4.488281 0.164062 4.289062 0.164062 C 4.070312 0.164062 3.894531 0.351562 3.894531 0.582031 C 3.871094 0.824219 4.046875 1 4.269531 1 Z M 4.269531 1 "/>
<path style=" stroke:none;fill-rule:nonzero;fill:rgb(100%,100%,100%);fill-opacity:1;" d="M 5.972656 0.859375 C 6.433594 0.859375 6.851562 0.824219 7.269531 0.867188 C 7.667969 0.902344 8.007812 1.285156 8.007812 1.726562 C 8.019531 2.683594 8.007812 3.640625 8.007812 4.597656 C 8.007812 4.621094 7.996094 4.640625 7.984375 4.675781 C 7.808594 4.652344 7.621094 4.640625 7.425781 4.632812 C 7.425781 4.554688 7.425781 4.476562 7.425781 4.398438 C 7.425781 3.574219 7.425781 2.75 7.425781 1.925781 C 7.425781 1.585938 7.316406 1.472656 6.996094 1.472656 C 6.765625 1.472656 6.523438 1.464844 6.304688 1.472656 C 6.128906 1.484375 6.015625 1.441406 6.015625 1.230469 C 6.015625 1.109375 5.996094 1 5.972656 0.859375 Z M 5.972656 0.859375 "/>
<path style=" stroke:none;fill-rule:nonzero;fill:rgb(100%,100%,100%);fill-opacity:1;" d="M 4.234375 4.675781 C 3.496094 4.675781 2.773438 4.675781 2.035156 4.675781 C 1.882812 4.675781 1.726562 4.640625 1.726562 4.445312 C 1.726562 4.234375 1.882812 4.203125 2.035156 4.203125 C 3.507812 4.203125 4.972656 4.203125 6.445312 4.203125 C 6.609375 4.203125 6.742188 4.246094 6.742188 4.453125 C 6.730469 4.652344 6.589844 4.675781 6.445312 4.675781 C 5.71875 4.675781 4.984375 4.675781 4.234375 4.675781 Z M 4.234375 4.675781 "/>
<path style=" stroke:none;fill-rule:nonzero;fill:rgb(100%,100%,100%);fill-opacity:1;" d="M 4.234375 3.191406 C 3.53125 3.191406 2.816406 3.191406 2.113281 3.191406 C 2.046875 3.191406 1.957031 3.210938 1.914062 3.167969 C 1.847656 3.125 1.761719 3.023438 1.761719 2.960938 C 1.761719 2.894531 1.847656 2.792969 1.914062 2.75 C 1.96875 2.71875 2.046875 2.726562 2.113281 2.726562 C 3.542969 2.726562 4.972656 2.726562 6.390625 2.726562 C 6.457031 2.726562 6.546875 2.707031 6.589844 2.75 C 6.65625 2.792969 6.742188 2.894531 6.742188 2.949219 C 6.742188 3.035156 6.664062 3.125 6.589844 3.167969 C 6.546875 3.199219 6.457031 3.191406 6.390625 3.191406 C 5.675781 3.191406 4.960938 3.191406 4.234375 3.191406 Z M 4.234375 3.191406 "/>
<path style=" stroke:none;fill-rule:nonzero;fill:rgb(100%,100%,100%);fill-opacity:1;" d="M 5.179688 5.6875 C 5.070312 5.828125 4.992188 5.941406 4.90625 6.050781 C 4.863281 6.105469 4.785156 6.148438 4.71875 6.148438 C 3.804688 6.160156 2.894531 6.160156 1.96875 6.148438 C 1.816406 6.148438 1.726562 6.082031 1.726562 5.917969 C 1.726562 5.753906 1.835938 5.675781 1.96875 5.675781 C 2.96875 5.675781 3.980469 5.675781 4.984375 5.675781 C 5.050781 5.6875 5.09375 5.6875 5.179688 5.6875 Z M 5.179688 5.6875 "/>
<path style=" stroke:none;fill-rule:nonzero;fill:rgb(100%,100%,100%);fill-opacity:1;" d="M 4.398438 8.65625 C 4.445312 8.8125 4.476562 8.953125 4.511719 9.109375 C 3.90625 9.109375 3.3125 9.109375 2.726562 9.109375 C 2.476562 9.109375 2.210938 9.109375 1.945312 9.109375 C 1.804688 9.109375 1.703125 9.019531 1.726562 8.878906 C 1.75 8.789062 1.835938 8.667969 1.914062 8.667969 C 2.75 8.644531 3.574219 8.65625 4.398438 8.65625 Z M 4.398438 8.65625 "/>
<path style=" stroke:none;fill-rule:nonzero;fill:rgb(100%,100%,100%);fill-opacity:1;" d="M 4.421875 7.171875 C 4.398438 7.324219 4.367188 7.46875 4.34375 7.621094 C 4.148438 7.621094 3.960938 7.621094 3.773438 7.621094 C 3.191406 7.621094 2.605469 7.621094 2.023438 7.621094 C 1.871094 7.621094 1.738281 7.589844 1.738281 7.390625 C 1.738281 7.195312 1.871094 7.171875 2.023438 7.171875 C 2.816406 7.183594 3.609375 7.171875 4.421875 7.171875 Z M 4.421875 7.171875 "/>
<path style=" stroke:none;fill-rule:nonzero;fill:rgb(100%,100%,100%);fill-opacity:1;" d="M 7.171875 7.214844 C 7.171875 6.929688 7.171875 6.644531 7.171875 6.359375 C 7.171875 6.128906 7.261719 6.015625 7.4375 6.015625 C 7.644531 6.015625 7.679688 6.160156 7.679688 6.335938 C 7.679688 6.832031 7.667969 7.324219 7.6875 7.832031 C 7.6875 7.929688 7.734375 8.0625 7.800781 8.140625 C 8.007812 8.394531 8.226562 8.636719 8.449219 8.886719 C 8.601562 9.0625 8.625 9.230469 8.503906 9.351562 C 8.394531 9.460938 8.21875 9.425781 8.0625 9.261719 C 7.820312 8.976562 7.546875 8.699219 7.316406 8.402344 C 7.238281 8.304688 7.183594 8.152344 7.171875 8.019531 C 7.160156 7.753906 7.171875 7.480469 7.171875 7.214844 Z M 7.171875 7.214844 "/>
</g>
</svg>
