<?xml version="1.0" encoding="UTF-8"?>
<svg xmlns="http://www.w3.org/2000/svg" xmlns:xlink="http://www.w3.org/1999/xlink" width="11pt" height="11pt" viewBox="0 0 11 11" version="1.1">
<g id="surface1">
<path style=" stroke:none;fill-rule:nonzero;fill:rgb(100%,100%,100%);fill-opacity:1;" d="M 5.664062 0 C 6.226562 0.496094 6.796875 0.988281 7.347656 1.484375 C 7.457031 1.585938 7.558594 1.695312 7.6875 1.761719 C 8.195312 2.046875 8.328125 2.484375 8.261719 3.035156 C 8.226562 3.277344 8.105469 3.453125 7.910156 3.433594 C 7.679688 3.421875 7.566406 3.265625 7.558594 3.046875 C 7.546875 2.960938 7.558594 2.871094 7.558594 2.738281 C 7.105469 2.738281 6.664062 2.738281 6.238281 2.738281 C 6.015625 2.738281 5.796875 2.738281 5.578125 2.738281 C 5.289062 2.738281 5.171875 2.628906 5.171875 2.34375 C 5.171875 1.902344 5.171875 1.464844 5.171875 1.023438 C 5.171875 0.925781 5.171875 0.824219 5.171875 0.714844 C 3.683594 0.714844 2.210938 0.714844 0.738281 0.714844 C 0.726562 3.90625 0.726562 7.085938 0.726562 10.285156 C 2.992188 10.285156 5.257812 10.285156 7.546875 10.285156 C 7.558594 10.1875 7.558594 10.085938 7.566406 10 C 7.589844 9.789062 7.6875 9.625 7.929688 9.636719 C 8.171875 9.648438 8.273438 9.789062 8.273438 10.019531 C 8.273438 10.195312 8.261719 10.363281 8.273438 10.539062 C 8.292969 10.734375 8.226562 10.890625 8.050781 11 C 5.378906 11 2.695312 11 0.0234375 11 C 0 7.335938 0 3.675781 0 0 C 1.882812 0 3.773438 0 5.664062 0 Z M 5.863281 1.121094 C 5.863281 1.453125 5.863281 1.738281 5.863281 2.035156 C 6.203125 2.035156 6.535156 2.035156 6.929688 2.035156 C 6.566406 1.714844 6.246094 1.441406 5.863281 1.121094 Z M 5.863281 1.121094 "/>
<path style=" stroke:none;fill-rule:nonzero;fill:rgb(100%,100%,100%);fill-opacity:1;" d="M 11 6.984375 C 10.96875 7.085938 10.921875 7.183594 10.902344 7.28125 C 10.527344 8.578125 9.238281 9.449219 7.976562 9.285156 C 6.566406 9.085938 5.523438 7.984375 5.5 6.664062 C 5.476562 5.226562 6.425781 4.046875 7.800781 3.816406 C 9.230469 3.574219 10.625 4.511719 10.933594 5.929688 C 10.945312 5.984375 10.96875 6.039062 11 6.105469 C 11 6.402344 11 6.699219 11 6.984375 Z M 6.191406 6.523438 C 6.191406 7.65625 7.085938 8.578125 8.207031 8.578125 C 9.359375 8.578125 10.273438 7.699219 10.285156 6.554688 C 10.296875 5.410156 9.394531 4.488281 8.25 4.476562 C 7.128906 4.453125 6.203125 5.378906 6.191406 6.523438 Z M 6.191406 6.523438 "/>
<path style=" stroke:none;fill-rule:nonzero;fill:rgb(100%,100%,100%);fill-opacity:1;" d="M 3.453125 4.125 C 3.992188 4.125 4.542969 4.125 5.070312 4.125 C 5.300781 4.125 5.476562 4.191406 5.488281 4.445312 C 5.511719 4.664062 5.355469 4.816406 5.082031 4.816406 C 3.980469 4.816406 2.882812 4.816406 1.78125 4.816406 C 1.507812 4.816406 1.351562 4.675781 1.375 4.445312 C 1.398438 4.191406 1.5625 4.125 1.792969 4.125 C 2.355469 4.136719 2.902344 4.125 3.453125 4.125 Z M 3.453125 4.125 "/>
<path style=" stroke:none;fill-rule:nonzero;fill:rgb(100%,100%,100%);fill-opacity:1;" d="M 2.75 5.5 C 3.078125 5.5 3.410156 5.5 3.738281 5.5 C 3.960938 5.5 4.09375 5.597656 4.101562 5.820312 C 4.125 6.050781 3.972656 6.183594 3.75 6.191406 C 3.078125 6.203125 2.386719 6.203125 1.714844 6.191406 C 1.507812 6.191406 1.34375 6.070312 1.363281 5.828125 C 1.375 5.597656 1.527344 5.5 1.75 5.511719 C 2.089844 5.511719 2.421875 5.5 2.75 5.5 Z M 2.75 5.5 "/>
<path style=" stroke:none;fill-rule:nonzero;fill:rgb(100%,100%,100%);fill-opacity:1;" d="M 2.75 6.875 C 3.078125 6.875 3.410156 6.875 3.738281 6.875 C 3.972656 6.875 4.113281 6.972656 4.125 7.203125 C 4.125 7.4375 3.972656 7.558594 3.761719 7.558594 C 3.089844 7.566406 2.429688 7.566406 1.761719 7.558594 C 1.550781 7.558594 1.386719 7.445312 1.398438 7.203125 C 1.40625 6.972656 1.550781 6.875 1.769531 6.875 C 2.089844 6.875 2.421875 6.875 2.75 6.875 Z M 2.75 6.875 "/>
<path style=" stroke:none;fill-rule:nonzero;fill:rgb(100%,100%,100%);fill-opacity:1;" d="M 7.855469 6.875 C 7.984375 7.0625 8.085938 7.195312 8.171875 7.347656 C 8.292969 7.535156 8.273438 7.722656 8.085938 7.855469 C 7.898438 7.976562 7.734375 7.921875 7.613281 7.753906 C 7.371094 7.425781 7.140625 7.085938 6.929688 6.730469 C 6.875 6.632812 6.886719 6.433594 6.953125 6.335938 C 7.148438 5.996094 7.382812 5.664062 7.613281 5.335938 C 7.742188 5.148438 7.910156 5.082031 8.105469 5.214844 C 8.304688 5.347656 8.304688 5.523438 8.195312 5.71875 C 8.105469 5.863281 8.007812 6.007812 7.886719 6.203125 C 8.414062 6.203125 8.886719 6.203125 9.351562 6.203125 C 9.460938 6.203125 9.570312 6.203125 9.679688 6.214844 C 9.878906 6.246094 9.988281 6.378906 9.976562 6.578125 C 9.953125 6.777344 9.84375 6.886719 9.625 6.886719 C 9.109375 6.886719 8.601562 6.886719 8.097656 6.886719 C 8.019531 6.875 7.964844 6.875 7.855469 6.875 Z M 7.855469 6.875 "/>
</g>
</svg>
