<?xml version="1.0" encoding="UTF-8"?>
<svg xmlns="http://www.w3.org/2000/svg" xmlns:xlink="http://www.w3.org/1999/xlink" width="11pt" height="11pt" viewBox="0 0 11 11" version="1.1">
<g id="surface1">
<path style=" stroke:none;fill-rule:nonzero;fill:rgb(100%,100%,100%);fill-opacity:1;" d="M 11 10.175781 C 10.945312 10.492188 10.824219 10.757812 10.582031 10.890625 C 10.472656 10.945312 10.351562 10.988281 10.230469 10.988281 C 8.382812 11 6.546875 11 4.695312 10.988281 C 4.246094 10.988281 3.9375 10.59375 3.925781 10 C 3.914062 8.820312 3.914062 7.644531 3.925781 6.457031 C 3.925781 5.839844 4.246094 5.457031 4.730469 5.457031 C 6.546875 5.457031 8.347656 5.457031 10.164062 5.457031 C 10.613281 5.457031 10.910156 5.808594 10.96875 6.226562 C 10.96875 6.246094 10.976562 6.257812 10.976562 6.28125 C 11 7.589844 11 8.878906 11 10.175781 Z M 11 10.175781 "/>
<path style=" stroke:none;fill-rule:nonzero;fill:rgb(100%,100%,100%);fill-opacity:1;" d="M 8.898438 4.761719 C 8.855469 4.761719 8.8125 4.761719 8.765625 4.761719 C 7.414062 4.761719 6.070312 4.761719 4.71875 4.761719 C 4.046875 4.761719 3.519531 5.300781 3.398438 6.117188 C 3.378906 6.246094 3.378906 6.378906 3.378906 6.511719 C 3.378906 7.039062 3.378906 7.566406 3.378906 8.097656 C 3.378906 8.140625 3.378906 8.195312 3.378906 8.238281 C 3.058594 8.238281 2.761719 8.273438 2.453125 8.226562 C 2.101562 8.183594 1.847656 7.789062 1.847656 7.316406 C 1.835938 6.105469 1.835938 4.894531 1.847656 3.675781 C 1.847656 3.125 2.179688 2.726562 2.605469 2.726562 C 4.453125 2.726562 6.292969 2.726562 8.140625 2.726562 C 8.558594 2.726562 8.867188 3.070312 8.898438 3.609375 C 8.921875 3.992188 8.898438 4.367188 8.898438 4.761719 Z M 8.898438 4.761719 "/>
<path style=" stroke:none;fill-rule:nonzero;fill:rgb(100%,100%,100%);fill-opacity:1;" d="M 7.0625 2.023438 C 7.007812 2.023438 6.972656 2.023438 6.929688 2.023438 C 5.5 2.023438 4.058594 2.023438 2.628906 2.023438 C 1.992188 2.023438 1.484375 2.539062 1.34375 3.320312 C 1.320312 3.464844 1.308594 3.609375 1.308594 3.75 C 1.308594 4.335938 1.308594 4.917969 1.308594 5.523438 C 1.035156 5.5 0.746094 5.589844 0.484375 5.445312 C 0.1875 5.28125 0.0234375 4.984375 0.0234375 4.566406 C 0 3.367188 0 2.15625 0 0.957031 C 0.0117188 0.386719 0.328125 0 0.804688 0 C 2.398438 0 4.003906 0 5.609375 0 C 5.828125 0 6.050781 0 6.269531 0 C 6.722656 0 7.027344 0.328125 7.0625 0.914062 C 7.074219 1.277344 7.0625 1.648438 7.0625 2.023438 Z M 7.0625 2.023438 "/>
</g>
</svg>
