<?xml version="1.0" encoding="UTF-8"?>
<svg xmlns="http://www.w3.org/2000/svg" xmlns:xlink="http://www.w3.org/1999/xlink" width="11pt" height="11pt" viewBox="0 0 11 11" version="1.1">
<g id="surface1">
<path style=" stroke:none;fill-rule:nonzero;fill:rgb(100%,100%,100%);fill-opacity:1;" d="M 0 4.542969 C 0.078125 4.398438 0.1875 4.355469 0.339844 4.355469 C 1.164062 4.367188 2.003906 4.355469 2.828125 4.355469 C 3.070312 4.355469 3.144531 4.445312 3.144531 4.695312 C 3.144531 6.675781 3.144531 8.667969 3.144531 10.648438 C 3.144531 10.902344 3.058594 10.988281 2.816406 10.988281 C 1.980469 10.988281 1.144531 10.988281 0.320312 10.988281 C 0.164062 10.988281 0.0546875 10.933594 0 10.78125 C 0 8.710938 0 6.632812 0 4.542969 Z M 2.398438 7.195312 C 2.398438 6.511719 2.398438 5.828125 2.398438 5.160156 C 1.847656 5.160156 1.296875 5.160156 0.757812 5.160156 C 0.757812 5.839844 0.757812 6.511719 0.757812 7.195312 C 1.308594 7.195312 1.847656 7.195312 2.398438 7.195312 Z M 2.398438 7.195312 "/>
<path style=" stroke:none;fill-rule:nonzero;fill:rgb(100%,100%,100%);fill-opacity:1;" d="M 11 5.5 C 11 7.203125 11 8.921875 11 10.625 C 11 10.910156 10.921875 10.988281 10.648438 10.988281 C 9.824219 10.988281 8.996094 10.988281 8.171875 10.988281 C 7.929688 10.988281 7.84375 10.902344 7.84375 10.636719 C 7.84375 7.203125 7.84375 3.773438 7.84375 0.339844 C 7.84375 0.078125 7.929688 -0.0117188 8.171875 -0.0117188 C 9.007812 -0.0117188 9.84375 -0.0117188 10.679688 -0.0117188 C 10.921875 -0.0117188 11 0.078125 11 0.328125 C 11 2.066406 11 3.785156 11 5.5 Z M 8.601562 0.804688 C 8.601562 2.496094 8.601562 4.191406 8.601562 5.875 C 9.152344 5.875 9.703125 5.875 10.242188 5.875 C 10.242188 4.179688 10.242188 2.484375 10.242188 0.804688 C 9.703125 0.804688 9.152344 0.804688 8.601562 0.804688 Z M 8.601562 0.804688 "/>
<path style=" stroke:none;fill-rule:nonzero;fill:rgb(100%,100%,100%);fill-opacity:1;" d="M 7.050781 6.886719 C 7.050781 8.140625 7.050781 9.382812 7.050781 10.636719 C 7.050781 10.921875 6.972656 11 6.699219 11 C 5.875 11 5.050781 11 4.214844 11 C 3.980469 11 3.894531 10.910156 3.894531 10.671875 C 3.894531 8.152344 3.894531 5.632812 3.894531 3.113281 C 3.894531 2.871094 3.980469 2.78125 4.214844 2.78125 C 5.050781 2.78125 5.875 2.78125 6.710938 2.78125 C 6.964844 2.78125 7.050781 2.871094 7.050781 3.136719 C 7.050781 4.378906 7.050781 5.632812 7.050781 6.886719 Z M 6.292969 7.679688 C 6.292969 6.304688 6.292969 4.9375 6.292969 3.574219 C 5.742188 3.574219 5.203125 3.574219 4.652344 3.574219 C 4.652344 4.949219 4.652344 6.3125 4.652344 7.679688 C 5.203125 7.679688 5.742188 7.679688 6.292969 7.679688 Z M 6.292969 7.679688 "/>
</g>
</svg>
