<?xml version="1.0" encoding="UTF-8"?>
<svg width="14px" height="14px" viewBox="0 0 14 14" version="1.1" xmlns="http://www.w3.org/2000/svg" xmlns:xlink="http://www.w3.org/1999/xlink">
    <!-- Generator: Sketch 62 (91390) - https://sketch.com -->
    <title>redactions</title>
    <desc>Created with Sketch.</desc>
    <g id="Design-System-" stroke="none" stroke-width="1" fill="none" fill-rule="evenodd">
        <g id="Iconography" transform="translate(-993.000000, -342.000000)" fill="#FFFFFF">
            <g id="redactions" transform="translate(990.000000, 340.000000)">
                <g>
                    <rect id="Rectangle" fill-opacity="0" x="0" y="0" width="20" height="20"></rect>
                    <g id="redaction" transform="translate(3.000000, 2.000000)" fill-rule="nonzero">
                        <path d="M13.8534375,0.5 L13.5,0.1465625 C13.3046875,-0.04875 12.988125,-0.04875 12.7928125,0.1465625 L10.675,2.264375 C9.6590625,1.4746875 8.38625,1 7,1 C3.68625,1 1,3.68625 1,7 C1,8.38625 1.4746875,9.6590625 2.264375,10.675 L0.1465625,12.793125 C-0.04875,12.9884375 -0.04875,13.305 0.1465625,13.5003125 L0.5,13.8534375 C0.6953125,14.04875 1.011875,14.04875 1.2071875,13.8534375 L3.325,11.735625 C4.340625,12.5253125 5.61375,13 7,13 C10.31375,13 13,10.31375 13,7 C13,5.61375 12.5253125,4.3409375 11.735625,3.325 L13.8534375,1.2071875 C14.04875,1.011875 14.04875,0.695 13.8534375,0.5 Z M2.5,7 C2.5,4.51875 4.51875,2.5 7,2.5 C7.97,2.5 8.86375,2.8159375 9.599375,3.34 L3.3396875,9.599375 C2.815625,8.86375 2.5,7.9703125 2.5,7 Z M11.5,7 C11.5,9.48125 9.48125,11.5 7,11.5 C6.0296875,11.5 5.13625,11.184375 4.4003125,10.66 L10.66,4.400625 C11.184375,5.13625 11.5,6.03 11.5,7 Z"></path>
                    </g>
                </g>
            </g>
        </g>
    </g>
</svg>