<?xml version="1.0" encoding="UTF-8"?>
<svg xmlns="http://www.w3.org/2000/svg" xmlns:xlink="http://www.w3.org/1999/xlink" width="11pt" height="11pt" viewBox="0 0 11 11" version="1.1">
<g id="surface1">
<path style=" stroke:none;fill-rule:nonzero;fill:rgb(100%,100%,100%);fill-opacity:1;" d="M 0 4.378906 C 0.0234375 4.3125 0.03125 4.246094 0.0546875 4.179688 C 0.21875 3.664062 0.59375 3.355469 1.066406 3.144531 C 1.363281 3.015625 1.695312 2.960938 2.011719 2.960938 C 2.605469 2.960938 3.191406 2.960938 3.785156 2.960938 C 3.804688 2.960938 3.828125 2.960938 3.859375 2.960938 C 3.859375 3.320312 3.859375 3.675781 3.859375 4.046875 C 3.828125 4.046875 3.785156 4.046875 3.75 4.046875 C 3.167969 4.046875 2.597656 4.046875 2.011719 4.046875 C 1.78125 4.046875 1.5625 4.101562 1.351562 4.222656 C 1.175781 4.324219 1.078125 4.464844 1.078125 4.695312 C 1.089844 6.226562 1.089844 7.753906 1.078125 9.285156 C 1.078125 9.480469 1.15625 9.613281 1.308594 9.714844 C 1.484375 9.824219 1.671875 9.878906 1.871094 9.898438 C 1.957031 9.910156 2.046875 9.910156 2.121094 9.910156 C 4.355469 9.910156 6.601562 9.910156 8.832031 9.910156 C 9.085938 9.910156 9.328125 9.890625 9.546875 9.769531 C 9.625 9.722656 9.703125 9.667969 9.769531 9.613281 C 9.84375 9.546875 9.890625 9.460938 9.890625 9.351562 C 9.890625 7.765625 9.890625 6.191406 9.890625 4.609375 C 9.890625 4.453125 9.800781 4.355469 9.691406 4.277344 C 9.472656 4.125 9.230469 4.058594 8.964844 4.058594 C 8.394531 4.058594 7.808594 4.058594 7.238281 4.058594 C 7.195312 4.058594 7.160156 4.058594 7.117188 4.058594 C 7.117188 3.695312 7.117188 3.332031 7.117188 2.96875 C 7.148438 2.96875 7.183594 2.960938 7.214844 2.960938 C 7.789062 2.960938 8.359375 2.960938 8.933594 2.960938 C 9.480469 2.96875 10 3.101562 10.4375 3.464844 C 10.800781 3.761719 10.988281 4.148438 10.988281 4.632812 C 10.988281 6.183594 10.976562 7.742188 10.988281 9.296875 C 10.988281 9.890625 10.734375 10.308594 10.261719 10.625 C 9.898438 10.867188 9.492188 10.988281 9.0625 10.988281 C 6.675781 11 4.289062 11 1.902344 10.988281 C 1.242188 10.988281 0.671875 10.734375 0.253906 10.1875 C 0.121094 10.011719 0.0546875 9.789062 0 9.570312 C 0 7.84375 0 6.117188 0 4.378906 Z M 0 4.378906 "/>
<path style=" stroke:none;fill-rule:nonzero;fill:rgb(100%,100%,100%);fill-opacity:1;" d="M 4.984375 6.09375 C 4.984375 6.015625 4.984375 5.972656 4.984375 5.929688 C 4.984375 4.15625 4.984375 2.375 4.984375 0.605469 C 4.984375 0.296875 5.136719 0.0898438 5.402344 0.0117188 C 5.71875 -0.078125 6.050781 0.164062 6.070312 0.496094 C 6.070312 0.539062 6.070312 0.582031 6.070312 0.628906 C 6.070312 2.386719 6.070312 4.148438 6.070312 5.90625 C 6.070312 5.949219 6.070312 5.996094 6.070312 6.050781 C 6.105469 6.027344 6.128906 6.015625 6.136719 5.996094 C 6.335938 5.796875 6.535156 5.597656 6.730469 5.402344 C 6.898438 5.234375 7.085938 5.191406 7.304688 5.257812 C 7.523438 5.335938 7.644531 5.488281 7.667969 5.71875 C 7.6875 5.90625 7.613281 6.0625 7.480469 6.191406 C 7.0625 6.609375 6.65625 7.019531 6.238281 7.4375 C 6.128906 7.546875 6.007812 7.667969 5.894531 7.777344 C 5.652344 8.007812 5.335938 8.007812 5.105469 7.765625 C 4.585938 7.25 4.046875 6.710938 3.519531 6.171875 C 3.210938 5.863281 3.34375 5.367188 3.75 5.257812 C 3.960938 5.203125 4.136719 5.257812 4.289062 5.410156 C 4.488281 5.609375 4.6875 5.808594 4.882812 6.007812 C 4.917969 6.027344 4.9375 6.050781 4.984375 6.09375 Z M 4.984375 6.09375 "/>
</g>
</svg>
