<?xml version="1.0" encoding="UTF-8"?>
<svg xmlns="http://www.w3.org/2000/svg" xmlns:xlink="http://www.w3.org/1999/xlink" width="11pt" height="11pt" viewBox="0 0 11 11" version="1.1">
<g id="surface1">
<path style=" stroke:none;fill-rule:nonzero;fill:rgb(100%,100%,100%);fill-opacity:1;" d="M 2.1875 0 C 2.242188 0 2.300781 0 2.363281 0 C 2.550781 0.078125 2.617188 0.21875 2.605469 0.417969 C 2.597656 0.496094 2.605469 0.582031 2.605469 0.660156 C 3.046875 0.660156 3.464844 0.660156 3.894531 0.660156 C 3.894531 0.570312 3.90625 0.496094 3.894531 0.417969 C 3.871094 0.21875 3.9375 0.078125 4.125 0 C 4.179688 0 4.234375 0 4.300781 0 C 4.488281 0.078125 4.554688 0.21875 4.542969 0.417969 C 4.53125 0.496094 4.542969 0.582031 4.542969 0.660156 C 4.984375 0.660156 5.402344 0.660156 5.828125 0.660156 C 5.828125 0.570312 5.839844 0.496094 5.828125 0.417969 C 5.796875 0.21875 5.875 0.078125 6.0625 0 C 6.117188 0 6.171875 0 6.238281 0 C 6.425781 0.078125 6.488281 0.21875 6.480469 0.417969 C 6.46875 0.496094 6.480469 0.582031 6.480469 0.660156 C 6.917969 0.660156 7.335938 0.660156 7.765625 0.660156 C 7.765625 0.570312 7.777344 0.496094 7.765625 0.417969 C 7.734375 0.21875 7.808594 0.078125 7.996094 0 C 8.050781 0 8.105469 0 8.171875 0 C 8.359375 0.078125 8.425781 0.21875 8.414062 0.417969 C 8.402344 0.496094 8.414062 0.582031 8.414062 0.660156 C 8.953125 0.660156 9.472656 0.660156 9.988281 0.660156 C 10.253906 0.660156 10.371094 0.78125 10.371094 1.046875 C 10.371094 2.75 10.371094 4.453125 10.371094 6.148438 C 10.371094 6.214844 10.394531 6.292969 10.4375 6.347656 C 10.691406 6.6875 10.867188 7.074219 10.957031 7.492188 C 10.976562 7.589844 11 7.699219 11.023438 7.800781 C 11.023438 7.984375 11.023438 8.171875 11.023438 8.359375 C 11 8.460938 10.988281 8.558594 10.96875 8.667969 C 10.835938 9.304688 10.527344 9.84375 10.03125 10.261719 C 9.316406 10.878906 8.480469 11.097656 7.558594 10.921875 C 6.820312 10.78125 6.238281 10.382812 5.785156 9.777344 C 5.730469 9.714844 5.6875 9.691406 5.597656 9.691406 C 3.859375 9.691406 2.121094 9.691406 0.375 9.691406 C 0.152344 9.691406 0.0234375 9.558594 0.0234375 9.339844 C 0 6.578125 0 3.804688 0 1.023438 C 0 0.792969 0.132812 0.671875 0.363281 0.671875 C 0.859375 0.671875 1.34375 0.671875 1.835938 0.671875 C 1.871094 0.671875 1.914062 0.671875 1.957031 0.671875 C 1.957031 0.582031 1.96875 0.507812 1.957031 0.429688 C 1.9375 0.21875 2.003906 0.078125 2.1875 0 Z M 9.703125 5.652344 C 9.703125 4.851562 9.703125 4.046875 9.703125 3.246094 C 6.675781 3.246094 3.664062 3.246094 0.648438 3.246094 C 0.648438 5.179688 0.648438 7.117188 0.648438 9.054688 C 2.222656 9.054688 3.785156 9.054688 5.347656 9.054688 C 5.300781 8.84375 5.246094 8.625 5.203125 8.414062 C 5.105469 8.414062 4.992188 8.414062 4.894531 8.414062 C 4.695312 8.414062 4.554688 8.28125 4.554688 8.097656 C 4.554688 7.910156 4.695312 7.777344 4.894531 7.777344 C 5.003906 7.777344 5.105469 7.777344 5.203125 7.777344 C 5.257812 7.558594 5.300781 7.347656 5.347656 7.128906 C 5.179688 7.128906 5.015625 7.128906 4.863281 7.128906 C 4.695312 7.128906 4.566406 6.996094 4.554688 6.832031 C 4.542969 6.664062 4.664062 6.5 4.816406 6.488281 C 5.070312 6.480469 5.324219 6.480469 5.566406 6.488281 C 5.652344 6.5 5.6875 6.480469 5.730469 6.414062 C 6.46875 5.367188 7.832031 4.917969 9.042969 5.347656 C 9.273438 5.433594 9.480469 5.554688 9.703125 5.652344 Z M 10.351562 8.105469 C 10.339844 6.875 9.382812 5.851562 8.105469 5.839844 C 6.875 5.839844 5.851562 6.820312 5.851562 8.085938 C 5.839844 9.328125 6.820312 10.339844 8.085938 10.351562 C 9.328125 10.363281 10.328125 9.382812 10.351562 8.105469 Z M 4.53125 1.308594 C 4.53125 1.417969 4.53125 1.507812 4.53125 1.605469 C 4.53125 1.804688 4.398438 1.945312 4.214844 1.945312 C 4.027344 1.945312 3.882812 1.804688 3.882812 1.605469 C 3.882812 1.507812 3.882812 1.40625 3.882812 1.308594 C 3.441406 1.308594 3.023438 1.308594 2.597656 1.308594 C 2.597656 1.40625 2.597656 1.507812 2.597656 1.605469 C 2.597656 1.804688 2.464844 1.945312 2.277344 1.945312 C 2.089844 1.945312 1.945312 1.804688 1.945312 1.605469 C 1.945312 1.507812 1.945312 1.40625 1.945312 1.308594 C 1.496094 1.308594 1.078125 1.308594 0.636719 1.308594 C 0.636719 1.738281 0.636719 2.167969 0.636719 2.585938 C 3.664062 2.585938 6.675781 2.585938 9.691406 2.585938 C 9.691406 2.15625 9.691406 1.726562 9.691406 1.308594 C 9.25 1.308594 8.820312 1.308594 8.394531 1.308594 C 8.394531 1.40625 8.394531 1.507812 8.394531 1.605469 C 8.394531 1.816406 8.261719 1.957031 8.0625 1.945312 C 7.875 1.945312 7.742188 1.804688 7.742188 1.605469 C 7.742188 1.507812 7.742188 1.40625 7.742188 1.308594 C 7.304688 1.308594 6.886719 1.308594 6.457031 1.308594 C 6.457031 1.40625 6.457031 1.507812 6.457031 1.605469 C 6.457031 1.816406 6.324219 1.957031 6.128906 1.945312 C 5.941406 1.945312 5.808594 1.804688 5.808594 1.605469 C 5.808594 1.507812 5.808594 1.40625 5.808594 1.308594 C 5.390625 1.308594 4.972656 1.308594 4.53125 1.308594 Z M 4.53125 1.308594 "/>
<path style=" stroke:none;fill-rule:nonzero;fill:rgb(100%,100%,100%);fill-opacity:1;" d="M 2.597656 4.554688 C 2.484375 4.554688 2.386719 4.554688 2.277344 4.554688 C 2.089844 4.554688 1.957031 4.410156 1.957031 4.234375 C 1.957031 4.058594 2.089844 3.914062 2.277344 3.914062 C 2.496094 3.914062 2.71875 3.914062 2.925781 3.914062 C 3.113281 3.914062 3.246094 4.058594 3.246094 4.234375 C 3.246094 4.410156 3.113281 4.554688 2.925781 4.554688 C 2.816406 4.554688 2.707031 4.554688 2.597656 4.554688 Z M 2.597656 4.554688 "/>
<path style=" stroke:none;fill-rule:nonzero;fill:rgb(100%,100%,100%);fill-opacity:1;" d="M 5.191406 4.554688 C 5.082031 4.554688 4.984375 4.554688 4.871094 4.554688 C 4.695312 4.554688 4.554688 4.410156 4.554688 4.234375 C 4.554688 4.058594 4.6875 3.914062 4.871094 3.914062 C 5.09375 3.914062 5.3125 3.914062 5.523438 3.914062 C 5.699219 3.914062 5.839844 4.058594 5.839844 4.234375 C 5.839844 4.410156 5.710938 4.554688 5.523438 4.554688 C 5.410156 4.554688 5.300781 4.554688 5.191406 4.554688 Z M 5.191406 4.554688 "/>
<path style=" stroke:none;fill-rule:nonzero;fill:rgb(100%,100%,100%);fill-opacity:1;" d="M 7.765625 4.554688 C 7.65625 4.554688 7.558594 4.554688 7.445312 4.554688 C 7.269531 4.554688 7.128906 4.410156 7.128906 4.234375 C 7.128906 4.058594 7.261719 3.914062 7.445312 3.914062 C 7.667969 3.914062 7.886719 3.914062 8.097656 3.914062 C 8.273438 3.914062 8.414062 4.058594 8.414062 4.234375 C 8.414062 4.410156 8.28125 4.554688 8.097656 4.554688 C 7.996094 4.554688 7.875 4.554688 7.765625 4.554688 Z M 7.765625 4.554688 "/>
<path style=" stroke:none;fill-rule:nonzero;fill:rgb(100%,100%,100%);fill-opacity:1;" d="M 2.597656 5.839844 C 2.484375 5.839844 2.386719 5.839844 2.277344 5.839844 C 2.089844 5.839844 1.957031 5.699219 1.957031 5.523438 C 1.957031 5.347656 2.089844 5.203125 2.277344 5.203125 C 2.496094 5.203125 2.71875 5.203125 2.925781 5.203125 C 3.113281 5.203125 3.246094 5.347656 3.246094 5.523438 C 3.246094 5.699219 3.113281 5.839844 2.925781 5.839844 C 2.816406 5.839844 2.707031 5.839844 2.597656 5.839844 Z M 2.597656 5.839844 "/>
<path style=" stroke:none;fill-rule:nonzero;fill:rgb(100%,100%,100%);fill-opacity:1;" d="M 5.191406 5.839844 C 5.082031 5.839844 4.984375 5.839844 4.871094 5.839844 C 4.6875 5.839844 4.554688 5.699219 4.554688 5.523438 C 4.554688 5.347656 4.6875 5.203125 4.871094 5.203125 C 5.09375 5.203125 5.3125 5.203125 5.523438 5.203125 C 5.710938 5.203125 5.839844 5.347656 5.839844 5.523438 C 5.839844 5.699219 5.710938 5.839844 5.523438 5.839844 C 5.410156 5.839844 5.300781 5.839844 5.191406 5.839844 Z M 5.191406 5.839844 "/>
<path style=" stroke:none;fill-rule:nonzero;fill:rgb(100%,100%,100%);fill-opacity:1;" d="M 2.597656 7.128906 C 2.484375 7.128906 2.375 7.128906 2.265625 7.128906 C 2.089844 7.128906 1.945312 6.984375 1.957031 6.796875 C 1.957031 6.621094 2.089844 6.488281 2.265625 6.480469 C 2.484375 6.480469 2.707031 6.480469 2.925781 6.480469 C 3.101562 6.480469 3.246094 6.621094 3.234375 6.808594 C 3.234375 6.984375 3.101562 7.117188 2.925781 7.128906 C 2.816406 7.140625 2.707031 7.128906 2.597656 7.128906 Z M 2.597656 7.128906 "/>
<path style=" stroke:none;fill-rule:nonzero;fill:rgb(100%,100%,100%);fill-opacity:1;" d="M 2.597656 8.414062 C 2.484375 8.414062 2.386719 8.414062 2.277344 8.414062 C 2.089844 8.414062 1.957031 8.273438 1.957031 8.097656 C 1.957031 7.921875 2.089844 7.777344 2.277344 7.777344 C 2.496094 7.777344 2.71875 7.777344 2.925781 7.777344 C 3.113281 7.777344 3.246094 7.921875 3.246094 8.097656 C 3.246094 8.273438 3.113281 8.414062 2.925781 8.414062 C 2.816406 8.425781 2.707031 8.414062 2.597656 8.414062 Z M 2.597656 8.414062 "/>
<path style=" stroke:none;fill-rule:nonzero;fill:rgb(100%,100%,100%);fill-opacity:1;" d="M 8.425781 7.777344 C 8.757812 7.777344 9.074219 7.777344 9.394531 7.777344 C 9.648438 7.777344 9.789062 8.03125 9.679688 8.25 C 9.625 8.359375 9.527344 8.414062 9.40625 8.425781 C 8.976562 8.425781 8.535156 8.425781 8.105469 8.425781 C 7.921875 8.425781 7.789062 8.28125 7.789062 8.105469 C 7.789062 7.679688 7.789062 7.261719 7.789062 6.832031 C 7.789062 6.644531 7.921875 6.5 8.105469 6.5 C 8.292969 6.5 8.425781 6.644531 8.425781 6.832031 C 8.425781 7.128906 8.425781 7.445312 8.425781 7.777344 Z M 8.425781 7.777344 "/>
</g>
</svg>
