<?xml version="1.0" encoding="UTF-8"?>
<svg xmlns="http://www.w3.org/2000/svg" xmlns:xlink="http://www.w3.org/1999/xlink" width="11pt" height="11pt" viewBox="0 0 11 11" version="1.1">
<g id="surface1">
<path style=" stroke:none;fill-rule:nonzero;fill:rgb(100%,100%,100%);fill-opacity:1;" d="M 0.988281 7.203125 C 1.011719 7.09375 1.023438 6.984375 1.066406 6.875 C 1.253906 6.378906 1.59375 6.039062 2.113281 5.90625 C 2.332031 5.851562 2.550781 5.875 2.761719 5.972656 C 3.167969 6.171875 3.554688 6.433594 3.914062 6.699219 C 3.9375 6.722656 3.972656 6.730469 4.003906 6.765625 C 4.003906 6.730469 4.003906 6.710938 4.003906 6.6875 C 4.003906 5.828125 4.003906 4.960938 4.003906 4.101562 C 3.992188 3.542969 4.300781 3.199219 4.761719 3.078125 C 5.148438 2.980469 5.53125 2.96875 5.917969 3.101562 C 6.292969 3.234375 6.546875 3.496094 6.644531 3.90625 C 6.65625 3.960938 6.65625 4.015625 6.65625 4.070312 C 6.65625 4.574219 6.65625 5.082031 6.65625 5.597656 C 6.65625 5.621094 6.65625 5.644531 6.65625 5.664062 C 6.832031 5.699219 7.007812 5.742188 7.183594 5.773438 C 7.777344 5.917969 8.371094 6.09375 8.921875 6.367188 C 9.074219 6.445312 9.238281 6.535156 9.382812 6.644531 C 9.65625 6.832031 9.890625 7.0625 9.976562 7.414062 C 9.976562 7.480469 9.976562 7.535156 9.976562 7.601562 C 9.964844 7.6875 9.953125 7.777344 9.945312 7.863281 C 9.8125 8.636719 9.601562 9.382812 9.304688 10.109375 C 9.207031 10.351562 9.097656 10.582031 8.941406 10.800781 C 8.878906 10.878906 8.8125 10.957031 8.710938 11 C 6.90625 11 5.105469 11 3.300781 11 C 3.265625 10.957031 3.222656 10.910156 3.179688 10.855469 C 2.53125 10.03125 1.914062 9.175781 1.34375 8.292969 C 1.222656 8.105469 1.121094 7.921875 1.023438 7.722656 C 0.980469 7.632812 0.980469 7.535156 0.945312 7.4375 C 0.988281 7.347656 0.988281 7.28125 0.988281 7.203125 Z M 6.027344 6.5 C 6.027344 6.480469 6.027344 6.457031 6.027344 6.433594 C 6.027344 5.828125 6.027344 5.214844 6.027344 4.597656 C 6.027344 4.566406 6.027344 4.519531 6.015625 4.488281 C 5.941406 4.203125 5.71875 4.035156 5.402344 4.003906 C 5.003906 3.972656 4.695312 4.234375 4.695312 4.640625 C 4.695312 5.621094 4.695312 6.601562 4.695312 7.578125 C 4.695312 7.601562 4.695312 7.621094 4.695312 7.65625 C 4.476562 7.679688 4.269531 7.6875 4.046875 7.65625 C 3.894531 7.632812 3.761719 7.566406 3.652344 7.445312 C 3.617188 7.402344 3.574219 7.371094 3.542969 7.335938 C 3.34375 7.148438 3.144531 6.964844 2.902344 6.820312 C 2.761719 6.730469 2.597656 6.675781 2.421875 6.675781 C 2.179688 6.675781 1.992188 6.84375 1.945312 7.085938 C 1.925781 7.214844 1.945312 7.347656 1.980469 7.480469 C 2.035156 7.722656 2.167969 7.921875 2.308594 8.117188 C 2.75 8.734375 3.222656 9.351562 3.683594 9.964844 C 3.695312 9.976562 3.730469 10 3.761719 10 C 5.257812 10 6.765625 10 8.261719 10 C 8.304688 10 8.316406 9.988281 8.339844 9.953125 C 8.460938 9.691406 8.578125 9.425781 8.699219 9.164062 C 8.84375 8.820312 8.964844 8.460938 9.019531 8.085938 C 9.0625 7.765625 8.964844 7.503906 8.722656 7.304688 C 8.546875 7.160156 8.339844 7.050781 8.117188 6.964844 C 7.558594 6.742188 6.964844 6.632812 6.359375 6.554688 C 6.246094 6.523438 6.136719 6.511719 6.027344 6.5 Z M 6.027344 6.5 "/>
<path style=" stroke:none;fill-rule:nonzero;fill:rgb(100%,100%,100%);fill-opacity:1;" d="M 5.53125 0.0117188 C 5.632812 0.0234375 5.742188 0.03125 5.839844 0.0546875 C 6.875 0.253906 7.613281 0.835938 8.050781 1.804688 C 8.21875 2.15625 8.28125 2.539062 8.292969 2.9375 C 8.292969 3.089844 8.304688 3.246094 8.28125 3.398438 C 8.25 3.675781 8.007812 3.859375 7.734375 3.839844 C 7.480469 3.828125 7.269531 3.597656 7.261719 3.332031 C 7.261719 3.144531 7.261719 2.960938 7.25 2.773438 C 7.183594 1.945312 6.511719 1.222656 5.6875 1.089844 C 4.621094 0.914062 3.628906 1.617188 3.476562 2.695312 C 3.453125 2.882812 3.453125 3.070312 3.453125 3.257812 C 3.453125 3.398438 3.433594 3.53125 3.34375 3.640625 C 3.210938 3.804688 2.992188 3.871094 2.792969 3.816406 C 2.597656 3.75 2.441406 3.5625 2.429688 3.355469 C 2.421875 2.980469 2.429688 2.597656 2.519531 2.222656 C 2.78125 1.109375 3.730469 0.230469 4.863281 0.0429688 C 4.960938 0.03125 5.070312 0.0234375 5.171875 0 C 5.289062 0.0117188 5.410156 0.0117188 5.53125 0.0117188 Z M 5.53125 0.0117188 "/>
</g>
</svg>
