<?xml version="1.0" encoding="UTF-8"?>
<svg width="14px" height="14px" viewBox="0 0 14 14" version="1.1" xmlns="http://www.w3.org/2000/svg" xmlns:xlink="http://www.w3.org/1999/xlink">
    <!-- Generator: Sketch 62 (91390) - https://sketch.com -->
    <title>themes</title>
    <desc>Created with Sketch.</desc>
    <g id="Design-System-" stroke="none" stroke-width="1" fill="none" fill-rule="evenodd">
        <g id="Iconography" transform="translate(-801.000000, -342.000000)" fill="#FFFFFF">
            <g id="themes" transform="translate(798.000000, 340.000000)">
                <g>
                    <rect id="Rectangle" fill-opacity="0" x="0" y="0" width="20" height="20"></rect>
                    <g transform="translate(3.000000, 2.000000)" fill-rule="nonzero">
                        <path d="M14,7 C14,6.17148437 13.4227734,5.48132813 12.6494922,5.30003906 C12.079375,3.4103125 10.5896875,1.92035156 8.69996094,1.35023437 C8.51867188,0.577226562 7.82851563,0 7,0 C6.17148437,0 5.48132813,0.577226562 5.30003906,1.35050781 C3.4103125,1.920625 1.92035156,3.4103125 1.35050781,5.3003125 C0.5775,5.48132813 0,6.17148437 0,7 C0,7.82851563 0.5775,8.51867188 1.35050781,8.69996094 C1.920625,10.5896875 3.4103125,12.0796484 5.30003906,12.6497656 C5.48132813,13.4227734 6.17148437,14 7,14 C7.82851563,14 8.51867188,13.4227734 8.69996094,12.6494922 C10.5896875,12.079375 12.0796484,10.5896875 12.6494922,8.6996875 C13.4227734,8.51867188 14,7.82851563 14,7 Z M12.25,7.4375 C12.0088281,7.4375 11.8125,7.24117188 11.8125,7 C11.8125,6.75882812 12.0088281,6.5625 12.25,6.5625 C12.4911719,6.5625 12.6875,6.75882812 12.6875,7 C12.6875,7.24117188 12.4911719,7.4375 12.25,7.4375 Z M7,1.3125 C7.24117188,1.3125 7.4375,1.50882812 7.4375,1.75 C7.4375,1.99117187 7.24117188,2.1875 7,2.1875 C6.75882812,2.1875 6.5625,1.99117187 6.5625,1.75 C6.5625,1.50882813 6.75882812,1.3125 7,1.3125 Z M1.75,6.5625 C1.99117187,6.5625 2.1875,6.75882812 2.1875,7 C2.1875,7.24117188 1.99117187,7.4375 1.75,7.4375 C1.50882813,7.4375 1.3125,7.24117188 1.3125,7 C1.3125,6.75882812 1.50882812,6.5625 1.75,6.5625 Z M7,12.6875 C6.75882812,12.6875 6.5625,12.4911719 6.5625,12.25 C6.5625,12.0088281 6.75882812,11.8125 7,11.8125 C7.24117188,11.8125 7.4375,12.0088281 7.4375,12.25 C7.4375,12.4911719 7.24117188,12.6875 7,12.6875 Z M8.47355469,11.3126562 C8.16292969,10.8253906 7.62097656,10.5 7,10.5 C6.37929688,10.5 5.83707031,10.8253906 5.52644531,11.3126562 C4.19146131,10.8570463 3.1429537,9.80853869 2.68734375,8.47355469 C3.17460938,8.16292969 3.5,7.62070312 3.5,7 C3.5,6.37902344 3.17460938,5.83707031 2.68734375,5.52644531 C3.14306522,4.19143472 4.19166428,3.14293665 5.52671875,2.68734375 C5.83707031,3.17460937 6.37929688,3.5 7,3.5 C7.62097656,3.5 8.16292969,3.17460937 8.47355469,2.68734375 C9.80850309,3.14310692 10.857038,4.19154081 11.3129297,5.52644531 C10.8253906,5.83707031 10.5,6.37902344 10.5,7 C10.5,7.62070312 10.8253906,8.16292969 11.3126562,8.47355469 C10.8571297,9.80859063 9.80859063,10.8571297 8.47355469,11.3126562 Z"></path>
                    </g>
                </g>
            </g>
        </g>
    </g>
</svg>