<?xml version="1.0" encoding="UTF-8"?>
<svg width="14px" height="12px" viewBox="0 0 14 12" version="1.1" xmlns="http://www.w3.org/2000/svg" xmlns:xlink="http://www.w3.org/1999/xlink">
    <!-- Generator: Sketch 62 (91390) - https://sketch.com -->
    <title>topics</title>
    <desc>Created with Sketch.</desc>
    <g id="Design-System-" stroke="none" stroke-width="1" fill="none" fill-rule="evenodd">
        <g id="Iconography" transform="translate(-705.000000, -344.000000)" fill="#FFFFFF">
            <g id="topics" transform="translate(702.000000, 340.000000)">
                <g>
                    <rect id="Rectangle" fill-opacity="0" x="0" y="0" width="20" height="20"></rect>
                    <g transform="translate(3.000000, 4.000000)" fill-rule="nonzero" id="Shape">
                        <path d="M12.425,8.05 C12.0071875,8.05 11.6309375,8.21625 11.34875,8.4809375 L9.638125,7.503125 C9.7365625,7.23625 9.8,6.951875 9.8,6.65 C9.8,5.2959375 8.7040625,4.2 7.35,4.2 C7.16625,4.2 6.986875,4.2240625 6.81625,4.2634375 L6.111875,2.7540625 C6.44,2.4653125 6.65,2.0475 6.65,1.5771875 C6.65,0.7065625 5.945625,0.0021875 5.075,0.0021875 C4.204375,0.0021875 3.5,0.7065625 3.5,1.5771875 C3.5,2.4478125 4.204375,3.1521875 5.075,3.1521875 C5.0946875,3.1521875 5.114375,3.1478125 5.1340625,3.145625 L5.866875,4.7140625 C5.2828125,5.1603125 4.9,5.858125 4.9,6.65 C4.9,8.0040625 5.9959375,9.1 7.35,9.1 C8.0215625,9.1 8.631875,8.82875 9.07375,8.3890625 L10.871875,9.4171875 C10.863125,9.485 10.85,9.555 10.85,9.625 C10.85,10.495625 11.554375,11.2 12.425,11.2 C13.295625,11.2 14,10.495625 14,9.625 C14,8.754375 13.295625,8.05 12.425,8.05 Z M5.075,2.1 C4.78625,2.1 4.55,1.86375 4.55,1.575 C4.55,1.28625 4.78625,1.05 5.075,1.05 C5.36375,1.05 5.6,1.28625 5.6,1.575 C5.6,1.86375 5.36375,2.1 5.075,2.1 Z M7.35,8.05 C6.5778125,8.05 5.95,7.4221875 5.95,6.65 C5.95,5.8778125 6.5778125,5.25 7.35,5.25 C8.1221875,5.25 8.75,5.8778125 8.75,6.65 C8.75,7.4221875 8.1221875,8.05 7.35,8.05 Z M12.425,10.15 C12.13625,10.15 11.9,9.91375 11.9,9.625 C11.9,9.33625 12.13625,9.1 12.425,9.1 C12.71375,9.1 12.95,9.33625 12.95,9.625 C12.95,9.91375 12.71375,10.15 12.425,10.15 Z M11.235,4.43625 L10.815,3.87625 L9.765,4.66375 L10.185,5.22375 L11.235,4.43625 Z M12.6,4.2 C13.3721875,4.2 14,3.5721875 14,2.8 C14,2.0278125 13.3721875,1.4 12.6,1.4 C11.8278125,1.4 11.2,2.0278125 11.2,2.8 C11.2,3.5721875 11.8278125,4.2 12.6,4.2 Z M3.325,7 L4.375,7 L4.375,6.3 L3.325,6.3 L3.325,7 Z M1.4,5.25 C0.6278125,5.25 0,5.8778125 0,6.65 C0,7.4221875 0.6278125,8.05 1.4,8.05 C2.1721875,8.05 2.8,7.4221875 2.8,6.65 C2.8,5.8778125 2.1721875,5.25 1.4,5.25 Z"></path>
                    </g>
                </g>
            </g>
        </g>
    </g>
</svg>