<?xml version="1.0" standalone="no"?>
<!DOCTYPE svg PUBLIC "-//W3C//DTD SVG 20010904//EN"
 "http://www.w3.org/TR/2001/REC-SVG-20010904/DTD/svg10.dtd">
<svg version="1.0" xmlns="http://www.w3.org/2000/svg"
 width="14px"  viewBox="0 0 512.000000 512.000000"
 preserveAspectRatio="xMidYMid meet">

<g transform="translate(0.000000,512.000000) scale(0.100000,-0.100000)"
fill="#ffffff" stroke="none">
<path d="M2433 4929 c-349 -45 -653 -265 -808 -584 -66 -137 -116 -381 -99
-491 l6 -42 -89 -60 c-484 -333 -786 -863 -838 -1475 l-7 -78 -56 -28 c-190
-96 -374 -299 -458 -505 -64 -158 -77 -223 -77 -401 -1 -141 3 -171 25 -256
110 -409 435 -703 850 -769 109 -18 311 -8 413 20 98 27 199 69 277 116 l59
36 81 -37 c248 -113 444 -165 711 -186 326 -27 655 35 985 186 l80 37 69 -40
c414 -245 954 -167 1283 185 116 124 201 279 248 452 22 85 26 115 25 256 0
175 -12 239 -72 389 -84 211 -261 411 -452 511 l-67 35 -7 78 c-10 121 -33
259 -61 362 -119 451 -399 852 -778 1112 l-88 61 6 37 c9 59 -12 241 -39 335
-85 291 -293 533 -569 661 -164 75 -373 107 -553 83z m297 -415 c217 -64 389
-241 445 -454 22 -84 23 -226 1 -310 -57 -225 -239 -407 -462 -464 -34 -9
-103 -16 -154 -16 -179 0 -318 58 -446 185 -127 127 -187 271 -187 450 1 194
85 367 238 492 81 66 205 120 310 137 54 8 199 -3 255 -20z m-1037 -1176 c142
-213 340 -359 592 -434 83 -26 104 -28 270 -28 143 -1 193 3 245 17 277 76
497 235 637 459 l35 57 72 -58 c170 -141 314 -318 406 -501 72 -143 136 -349
155 -496 l6 -51 -88 -7 c-364 -30 -664 -217 -839 -523 -171 -301 -179 -666
-20 -981 l37 -72 -45 -20 c-207 -88 -495 -133 -717 -111 -185 18 -348 56 -473
112 l-46 20 37 72 c187 372 140 807 -123 1128 -175 214 -419 343 -705 371
l-120 12 6 51 c42 331 209 661 457 902 57 55 171 153 174 149 1 0 22 -31 47
-68z m-536 -1453 c242 -46 448 -246 499 -486 20 -95 14 -240 -15 -329 -50
-157 -171 -300 -313 -369 -120 -59 -191 -74 -318 -69 -333 15 -587 265 -607
598 -15 248 126 489 347 597 139 69 261 86 407 58z m3051 -1 c230 -46 420
-222 488 -449 28 -92 26 -259 -4 -355 -61 -197 -221 -360 -412 -422 -91 -29
-254 -36 -340 -14 -218 54 -395 218 -461 426 -30 91 -36 244 -15 335 43 180
172 343 336 424 136 67 265 84 408 55z"/>
</g>
</svg>
