<?xml version="1.0" encoding="UTF-8"?>
<svg xmlns="http://www.w3.org/2000/svg" xmlns:xlink="http://www.w3.org/1999/xlink" width="13pt" height="13pt" viewBox="0 0 13 13" version="1.1">
<g id="surface1">
<path style="fill-rule:nonzero;fill:rgb(100%,100%,100%);fill-opacity:1;stroke-width:0.2;stroke-linecap:butt;stroke-linejoin:miter;stroke:rgb(100%,100%,100%);stroke-opacity:1;stroke-miterlimit:10;" d="M 12.498197 8.097957 C 12.300481 10.100361 11.40024 11.79988 9.801683 12.902043 C 8.598558 13.798077 7.201923 14.100962 5.599159 14 C 2.402043 13.701322 0.100962 11.101562 0 7.90024 C -0.100962 4.501202 2.59976 1.699519 5.902043 1.501803 C 5.902043 1.400841 5.902043 1.400841 5.902043 1.29988 C 5.902043 1.001202 5.902043 0.698317 5.902043 0.399639 C 5.902043 0.201923 6.09976 0 6.301683 0 C 7.298678 0 8.29988 0.201923 9.301082 0.601562 C 11.79988 1.699519 13.301683 3.600962 13.798077 6.200721 C 14 6.701322 14 7.201923 14 7.698317 C 14 8.001202 13.798077 8.097957 13.600361 8.097957 C 13.200721 8.097957 12.902043 8.097957 12.498197 8.097957 Z M 11.698918 8.097957 C 11.597957 8.097957 11.501202 8.097957 11.501202 8.097957 C 9.801683 8.097957 8.097957 8.097957 6.398438 8.097957 C 5.998798 8.097957 5.902043 7.90024 5.902043 7.601562 C 5.902043 5.902043 5.902043 4.101562 5.902043 2.402043 C 5.902043 2.301082 5.902043 2.20012 5.902043 2.20012 C 3.201322 2.301082 0.799279 4.698918 0.799279 7.698317 C 0.698317 10.701923 3.201322 13.200721 6.200721 13.200721 C 9.301082 13.301683 11.597957 10.899639 11.698918 8.097957 Z M 13.200721 7.399639 C 13.09976 3.701923 9.999399 0.90024 6.600361 0.799279 C 6.600361 2.999399 6.600361 5.199519 6.600361 7.399639 C 8.901442 7.399639 11.000601 7.399639 13.200721 7.399639 Z M 13.200721 7.399639 " transform="matrix(0.928571,0,0,0.928571,0,0)"/>
</g>
</svg>
