<?xml version="1.0" encoding="UTF-8"?>
<svg width="11px" height="14px" viewBox="0 0 11 14" version="1.1" xmlns="http://www.w3.org/2000/svg" xmlns:xlink="http://www.w3.org/1999/xlink">
    <!-- Generator: Sketch 63.1 (92452) - https://sketch.com -->
    <title>download_file</title>
    <desc>Created with Sketch.</desc>
    <g id="Design-System-" stroke="none" stroke-width="1" fill="none" fill-rule="evenodd">
        <g id="Iconography" transform="translate(-1179.000000, -860.000000)">
            <g id="download_file" transform="translate(1174.000000, 857.000000)">
                <rect id="Rectangle" fill-opacity="0" fill="#FFFFFF" x="0" y="0" width="20" height="20"></rect>
                <path d="M11.1875,9.45503906 C11.1875,9.27375 11.0336719,9.12691406 10.84375,9.12691406 L10.15625,9.12691406 C9.96632813,9.12691406 9.8125,9.27375 9.8125,9.45503906 L9.8125,11.7521875 L8.41229167,11.7521875 C8.10549479,11.7521875 7.95252604,12.1068359 8.17023437,12.3132812 L10.2416146,14.2757422 C10.3845573,14.4110937 10.6151563,14.4110937 10.758099,14.2757422 L12.8294792,12.3132812 C13.0471875,12.1071094 12.8942188,11.7521875 12.5874219,11.7521875 L11.1875,11.7521875 L11.1875,9.45503906 Z M15.5940885,5.67914063 L13.1909896,3.38554688 C12.9331771,3.13945313 12.5836979,3 12.2201823,3 L6.37471354,3 C5.61588542,3.00273438 5,3.590625 5,4.31496094 L5,15.6877734 C5,16.4121094 5.61588542,17 6.37471354,17 L14.6229948,17 C15.3821094,17 16,16.4121094 16,15.6877734 L16,6.60855469 C16,6.2615625 15.851901,5.92523438 15.5940885,5.67914063 Z M12.331901,4.42160156 L14.5115625,6.50191406 L12.331901,6.50191406 L12.331901,4.42160156 L12.331901,4.42160156 Z M14.625,15.6877734 L6.37471354,15.6877734 L6.37471354,4.31496094 L10.9571875,4.31496094 L10.9571875,7.15816406 C10.9571875,7.52183594 11.2636979,7.81414063 11.6446875,7.81414063 L14.625,7.81414063 L14.625,15.6877734 Z" id="Shape" fill="#0D4DCE" fill-rule="nonzero"></path>
            </g>
        </g>
    </g>
</svg>