<?xml version="1.0" encoding="UTF-8"?>
<svg width="14px" height="14px" viewBox="0 0 14 14" version="1.1" xmlns="http://www.w3.org/2000/svg" xmlns:xlink="http://www.w3.org/1999/xlink">
    <!-- Generator: Sketch 63.1 (92452) - https://sketch.com -->
    <title>ic_settings</title>
    <desc>Created with Sketch.</desc>
    <g id="Design-System-" stroke="none" stroke-width="1" fill="none" fill-rule="evenodd">
        <g id="Iconography" transform="translate(-510.000000, -185.000000)" fill="#FFFFFF">
            <g id="ic_settings" transform="translate(507.000000, 182.000000)">
                <g id="settings">
                    <rect id="Rectangle" fill-opacity="0" x="0" y="0" width="20" height="20"></rect>
                    <g transform="translate(3.000000, 3.000000)" fill-rule="nonzero" id="Shape">
                        <path d="M12.7079046,6.46370968 L13.632805,5.9448629 C13.9065892,5.79128629 14.0393278,5.47795161 13.9574481,5.18124194 C13.6262116,3.98077016 12.9744855,2.9077379 12.0968423,2.05390726 C11.8737718,1.83690726 11.5282739,1.79293145 11.2549544,1.94633871 L10.3317386,2.46450806 C10.0318329,2.25594245 9.71180913,2.07614837 9.37616598,1.92765323 L9.37616598,0.890270161 C9.37612867,0.58303765 9.16346403,0.314245004 8.85793361,0.235262097 C7.64495851,-0.0782419355 6.35660996,-0.0786370968 5.14212448,0.235233871 C4.83659336,0.314209677 4.62383402,0.583004032 4.62383402,0.890241935 L4.62383402,1.927625 C4.28819087,2.07612015 3.96816712,2.25591422 3.66826141,2.46447984 L2.74504564,1.94631048 C2.47172614,1.79290323 2.12622822,1.83687903 1.90315768,2.05387903 C1.02551452,2.90770968 0.373788382,3.98071371 0.0425518672,5.18121371 C-0.0393278008,5.47792339 0.0934107884,5.79125806 0.367195021,5.94483468 L1.29209544,6.46370968 C1.25665977,6.82039796 1.25665977,7.17957381 1.29209544,7.5362621 L0.367195021,8.05510887 C0.0934107884,8.20868548 -0.0393278008,8.52202016 0.0425518672,8.81872984 C0.373788382,10.0192016 1.02551452,11.0922339 1.90315768,11.9460645 C2.12622822,12.1630645 2.47172614,12.2070403 2.74504564,12.0536331 L3.66826141,11.5354637 C3.96816098,11.7440306 4.28818582,11.9238159 4.62383402,12.0722903 L4.62383402,13.1096734 C4.62387133,13.4169059 4.83653597,13.6856985 5.14206639,13.7646815 C6.35504149,14.0781855 7.64339004,14.0786089 8.85787552,13.7647097 C9.16340664,13.6857339 9.37616598,13.4169395 9.37616598,13.1097016 L9.37616598,12.0723185 C9.71180261,11.9238223 10.0318253,11.7440382 10.3317386,11.5354919 L11.2549544,12.0536613 C11.5282739,12.2070685 11.8737718,12.1630927 12.0968423,11.9460927 C12.9744855,11.0922621 13.6262116,10.0192298 13.9574481,8.81875806 C14.0393278,8.52204839 13.9065892,8.20871371 13.632805,8.0551371 L12.7079046,7.53629032 C12.7433402,7.17923387 12.7433402,6.82076613 12.7079046,6.46370968 Z M11.1778091,8.24247177 L12.4505602,8.95627419 C12.221618,9.55713887 11.8891529,10.1157752 11.4673942,10.6082742 L10.1943527,9.89390726 C9.26535685,10.6672097 9.12956846,10.7428548 7.98200415,11.1366613 L7.98200415,12.5648589 C7.33203591,12.6726817 6.66796409,12.6726817 6.01799585,12.5648589 L6.01799585,11.1366613 C4.87057676,10.7429113 4.73429461,10.6669274 3.8056473,9.89390726 L2.53260581,10.6082742 C2.11085265,10.1157714 1.77838819,9.55713606 1.54943983,8.95627419 L2.82219087,8.24247177 C2.60057261,7.07677419 2.60045643,6.92379032 2.82219087,5.75752823 L1.54943983,5.04372581 C1.77744813,4.44452016 2.1103112,3.88508468 2.53260581,3.39169758 L3.8056473,4.10606452 C4.73464315,3.3327621 4.87046058,3.25708871 6.01799585,2.86331048 L6.01799585,1.43514113 C6.66796409,1.32731833 7.33203591,1.32731833 7.98200415,1.43514113 L7.98200415,2.86333871 C9.12942324,3.25708871 9.26570539,3.33307258 10.1943527,4.10609274 L11.4673942,3.39172581 C11.8891534,3.8842349 12.2216184,4.44288059 12.4505602,5.04375403 L11.1778091,5.75755645 C11.3994564,6.92328226 11.3995436,7.07620968 11.1778091,8.24247177 Z M7,4.29032258 C5.46246888,4.29032258 4.21161826,5.50586694 4.21161826,7 C4.21161826,8.49413306 5.46246888,9.70967742 7,9.70967742 C8.53753112,9.70967742 9.78838174,8.49413306 9.78838174,7 C9.78838174,5.50586694 8.53753112,4.29032258 7,4.29032258 Z M7,8.35483871 C6.23121992,8.35483871 5.60580913,7.74708065 5.60580913,7 C5.60580913,6.25294758 6.23121992,5.64516129 7,5.64516129 C7.76878008,5.64516129 8.39419087,6.25294758 8.39419087,7 C8.39419087,7.74708065 7.76878008,8.35483871 7,8.35483871 Z"></path>
                    </g>
                </g>
            </g>
        </g>
    </g>
</svg>