<?xml version="1.0" encoding="UTF-8"?>
<svg width="14px" height="9px" viewBox="0 0 14 9" version="1.1" xmlns="http://www.w3.org/2000/svg" xmlns:xlink="http://www.w3.org/1999/xlink">
    <!-- Generator: Sketch 63.1 (92452) - https://sketch.com -->
    <title>icon_view_pw</title>
    <desc>Created with Sketch.</desc>
    <g id="Design-System-" stroke="none" stroke-width="1" fill="none" fill-rule="evenodd">
        <g id="Iconography" transform="translate(-1090.000000, -863.000000)">
            <g id="icon_view_pw" transform="translate(1087.000000, 857.000000)">
                <g>
                    <rect id="Rectangle" fill-opacity="0" fill="#FFFFFF" x="0" y="0" width="20" height="20"></rect>
                    <path d="M10,7.87498797 C9.74239157,7.87888262 9.48668976,7.91834631 9.240693,7.9921875 C9.35448227,8.18515233 9.41506847,8.40302554 9.41666556,8.625 C9.41666556,9.34987373 8.8072742,9.9375 8.05555186,9.9375 C7.82535569,9.93595995 7.59941267,9.87753765 7.39930062,9.7678125 C7.07551464,10.85064 7.50660652,12.0117708 8.46951694,12.6504023 C9.43242735,13.2890339 10.7110964,13.2618687 11.643904,12.5829629 C12.5767116,11.9040571 12.9543525,10.725745 12.5814243,9.65771903 C12.2084961,8.58969309 11.1686773,7.8715993 10,7.87498797 L10,7.87498797 Z M16.9154298,10.1578125 C15.597337,7.67789062 12.9878876,6 10,6 C7.01211238,6 4.40193382,7.6790625 3.0845702,10.1580469 C2.97180993,10.3731328 2.97180993,10.6271016 3.0845702,10.8421875 C4.40266298,13.3221094 7.01211238,15 10,15 C12.9878876,15 15.5980662,13.3209375 16.9154298,10.8419531 C17.0281901,10.6268672 17.0281901,10.3728984 16.9154298,10.1578125 Z M10,13.875 C7.60225239,13.875 5.40405377,12.5859375 4.21696819,10.5 C5.40405377,8.4140625 7.60200934,7.125 10,7.125 C12.3979907,7.125 14.5959462,8.4140625 15.7830318,10.5 C14.5961893,12.5859375 12.3979907,13.875 10,13.875 Z" id="Shape" fill="#0D4DCE" fill-rule="nonzero"></path>
                </g>
            </g>
        </g>
    </g>
</svg>