<?xml version="1.0" encoding="UTF-8"?>
<svg width="17px" height="14px" viewBox="0 0 17 14" version="1.1" xmlns="http://www.w3.org/2000/svg" xmlns:xlink="http://www.w3.org/1999/xlink">
    <!-- Generator: Sketch 63.1 (92452) - https://sketch.com -->
    <title>platform_settings</title>
    <desc>Created with Sketch.</desc>
    <g id="Design-System-" stroke="none" stroke-width="1" fill="none" fill-rule="evenodd">
        <g id="Iconography" transform="translate(-415.000000, -465.000000)" fill="#FFFFFF">
            <g id="platform_settings" transform="translate(414.000000, 462.000000)">
                <g>
                    <rect id="Rectangle" fill-opacity="0" x="0" y="0" width="20" height="20"></rect>
                    <g id="cogs" transform="translate(1.000000, 3.000000)" fill-rule="nonzero">
                        <path d="M5.63235677,12.3467665 C5.01773003,12.3467665 4.55805122,12.2563802 4.14743924,12.1530816 C3.87369792,12.083355 3.68001302,11.8354384 3.68001302,11.5513672 L3.68001302,10.7327257 C3.43726128,10.6190972 3.20483941,10.484809 2.98532986,10.3298611 L2.29581163,10.7275608 C2.04789497,10.8721788 1.73025174,10.8256944 1.53398437,10.6165148 C0.619791667,9.64550781 0.392534722,9.1031901 0.0568142361,8.07278646 C-0.0361545139,7.79129774 0.0852213542,7.48656684 0.340885417,7.33936632 L1.03298611,6.95199653 C1.00974392,6.6860026 1.00974392,6.41742622 1.03298611,6.14884983 L0.340885417,5.75889757 C0.0826388889,5.61427951 -0.0361545139,5.30696615 0.0568142361,5.02547743 C0.395117187,3.99249132 0.622374132,3.45275608 1.53398437,2.48174913 C1.73025174,2.27256944 2.0453125,2.22608507 2.29581163,2.37070312 L2.98532986,2.76840278 C3.20483941,2.61345486 3.43726128,2.47916667 3.68001302,2.36553819 L3.68001302,1.58563368 C3.68001302,1.29898003 3.87628038,1.0484809 4.15518663,0.983919271 C5.29663628,0.712760417 5.96291233,0.712760417 7.10694444,0.983919271 C7.38585069,1.05106337 7.58211806,1.29898003 7.58211806,1.58563368 L7.58211806,2.37070312 C7.82486979,2.4843316 8.05729167,2.61861979 8.27680122,2.77356771 L8.96631944,2.37586806 C9.21681858,2.23125 9.53187934,2.28031684 9.73072917,2.48949653 C10.4047526,3.21000434 10.9806424,4.00023872 11.1975694,5.0797092 C11.2492187,5.3327908 11.1355903,5.59103733 10.9160807,5.72790799 L10.229145,6.15401476 C10.2523872,6.42000868 10.2523872,6.68858507 10.229145,6.95716146 L10.9160807,7.38326823 C11.1330078,7.51755642 11.2492187,7.77580295 11.1975694,8.02630208 C10.9883898,9.07220052 10.4331597,9.86759983 9.7281467,10.6242622 C9.53187934,10.8334418 9.21681858,10.8799262 8.96631944,10.7353082 L8.27680122,10.3376085 C8.05729167,10.4925564 7.82486979,10.6268446 7.58211806,10.7404731 L7.58211806,11.5591146 C7.58211806,11.8431858 7.39101562,12.0911024 7.11469184,12.160829 C6.70666233,12.2589627 6.24698351,12.3467665 5.63235677,12.3467665 Z M4.91959635,11.0374566 C5.3921875,11.1123481 5.87252604,11.1123481 6.34253472,11.0374566 L6.34253472,9.88051215 L6.75572917,9.73331163 C7.14826389,9.59385851 7.50722656,9.38726128 7.82228733,9.11610243 L8.15542535,8.83203125 L9.15742187,9.41050347 C9.45957031,9.03862847 9.69973958,8.62285156 9.87018229,8.17866753 L8.86818576,7.60019531 L8.94824219,7.16892361 C9.02313368,6.75831163 9.02313368,6.34253472 8.94824219,5.93192274 L8.86818576,5.50065104 L9.87018229,4.92217882 C9.69973958,4.47799479 9.45957031,4.06221788 9.15742187,3.69034288 L8.15542535,4.2688151 L7.82228733,3.98474392 C7.5046441,3.71358507 7.14568142,3.50440538 6.75572917,3.36753472 L6.34253472,3.2203342 L6.34253472,2.06597222 C5.86994358,1.99108073 5.38960503,1.99108073 4.91959635,2.06597222 L4.91959635,3.22291667 L4.50640191,3.37011719 C4.11386719,3.50957031 3.75490451,3.71616753 3.43984375,3.98732639 L3.10670573,4.27139757 L2.1047092,3.69292535 C1.80256076,4.06480035 1.56239149,4.48057726 1.39194878,4.92476128 L2.39394531,5.50323351 L2.31388889,5.93450521 C2.2389974,6.34511719 2.2389974,6.7608941 2.31388889,7.17150608 L2.39394531,7.60277778 L1.39194878,8.18125 C1.56239149,8.62543403 1.80256076,9.0437934 2.1047092,9.41308594 L3.10670573,8.83461372 L3.43984375,9.1186849 C3.75748698,9.38984375 4.11644965,9.59902344 4.50640191,9.7358941 L4.91959635,9.88309462 L4.91959635,11.0374566 L4.91959635,11.0374566 Z M5.61944444,8.83977865 C5.03580729,8.83977865 4.45217014,8.61768663 4.00798611,8.1735026 C3.11961806,7.28513455 3.11961806,5.83895399 4.00798611,4.95058594 C4.89635417,4.06221788 6.34253472,4.06221788 7.23090278,4.95058594 C8.11927083,5.83895399 8.11927083,7.28513455 7.23090278,8.1735026 C6.78413628,8.61768663 6.20049913,8.83977865 5.61944444,8.83977865 Z M5.61944444,5.52389323 C5.35345052,5.52389323 5.0874566,5.62460938 4.88344184,5.82862413 C4.47799479,6.23407118 4.47799479,6.89259983 4.88344184,7.29804688 C5.28888889,7.70349392 5.94741753,7.70349392 6.35286458,7.29804688 C6.75831163,6.89259983 6.75831163,6.23407118 6.35286458,5.82862413 C6.15143229,5.62460938 5.88543837,5.52389323 5.61944444,5.52389323 Z M16.5148655,2.19509549 C16.4890408,2.0453125 16.3599175,1.93684896 16.2075521,1.93684896 L15.7917752,1.93684896 C15.7013889,1.6811849 15.5645182,1.44618056 15.3914931,1.24474826 L15.5980903,0.88578559 C15.6729818,0.754079861 15.6445747,0.586219618 15.5283637,0.490668403 C15.2881944,0.291818576 15.0170356,0.131705729 14.7200521,0.0206597222 C14.5780165,-0.0335720486 14.4153212,0.0232421875 14.3404297,0.157530382 L14.1338325,0.516493056 C13.870421,0.467426215 13.5992622,0.467426215 13.3358507,0.516493056 L13.1292535,0.157530382 C13.0517795,0.0258246528 12.8916667,-0.0309895833 12.7496311,0.0206597222 C12.4526476,0.131705729 12.1789062,0.291818576 11.938737,0.490668403 C11.822526,0.586219618 11.7915365,0.754079861 11.8690104,0.88578559 L12.0756076,1.24474826 C11.9025825,1.44618056 11.7657118,1.6811849 11.6753255,1.93684896 L11.2595486,1.93684896 C11.1071832,1.93684896 10.9754774,2.04789497 10.9522352,2.20026042 C10.9005859,2.51532118 10.9031684,2.83296441 10.9522352,3.13511285 C10.9780599,3.28489583 11.1071832,3.39335937 11.2595486,3.39335937 L11.6753255,3.39335937 C11.7657118,3.64902344 11.9025825,3.88402778 12.0756076,4.08546007 L11.8690104,4.44442274 C11.7941189,4.57612847 11.822526,4.74398872 11.938737,4.83953993 C12.1789062,5.03838976 12.4526476,5.1985026 12.7496311,5.30954861 C12.8916667,5.36378038 13.054362,5.30696615 13.1292535,5.17267795 L13.3358507,4.81371528 C13.5992622,4.86278212 13.870421,4.86278212 14.1338325,4.81371528 L14.3404297,5.17267795 C14.4179036,5.30438368 14.5780165,5.36119792 14.7200521,5.30954861 C15.0170356,5.1985026 15.2907769,5.03838976 15.5309462,4.83953993 C15.6471571,4.74398872 15.6781467,4.57612847 15.6006727,4.44442274 L15.3940755,4.08546007 C15.5671007,3.88402778 15.7039714,3.64902344 15.7943576,3.39335937 L16.2101345,3.39335937 C16.3625,3.39335937 16.4942057,3.28231337 16.5174479,3.12994792 C16.5665148,2.81488715 16.5665148,2.49982639 16.5148655,2.19509549 Z M13.7309679,3.49149306 C13.2738715,3.49149306 12.904579,3.12220052 12.904579,2.66510417 C12.904579,2.20800781 13.2738715,1.83871528 13.7309679,1.83871528 C14.1880642,1.83871528 14.5573568,2.20800781 14.5573568,2.66510417 C14.5573568,3.12220052 14.1880642,3.49149306 13.7309679,3.49149306 Z M16.5148655,10.0871094 C16.4890408,9.93732639 16.3599175,9.82886285 16.2075521,9.82886285 L15.7917752,9.82886285 C15.7013889,9.57319878 15.5645182,9.33819444 15.3914931,9.13676215 L15.5980903,8.77779948 C15.6729818,8.64609375 15.6445747,8.47823351 15.5283637,8.38268229 C15.2881944,8.18383247 15.0144531,8.02371962 14.7174696,7.91267361 C14.575434,7.85844184 14.4127387,7.91525608 14.3378472,8.04954427 L14.13125,8.40850694 C13.8678385,8.3594401 13.5966797,8.3594401 13.3332682,8.40850694 L13.126671,8.04954427 C13.049197,7.91783854 12.8890842,7.86102431 12.7470486,7.91267361 C12.4500651,8.02371962 12.1763238,8.18383247 11.9361545,8.38268229 C11.8199436,8.47823351 11.788954,8.64609375 11.866428,8.77779948 L12.0730252,9.13676215 C11.9,9.33819444 11.7631293,9.57319878 11.6727431,9.82886285 L11.2569661,9.82886285 C11.1046007,9.82886285 10.972895,9.93990885 10.9496528,10.0922743 C10.8980035,10.4073351 10.9005859,10.7249783 10.9496528,11.0271267 C10.9754774,11.1769097 11.1046007,11.2853733 11.2569661,11.2853733 L11.6727431,11.2853733 C11.7631293,11.5410373 11.9,11.7760417 12.0730252,11.977474 L11.866428,12.3364366 C11.7915365,12.4681424 11.8199436,12.6360026 11.9361545,12.7315538 C12.1763238,12.9304036 12.4500651,13.0905165 12.7470486,13.2015625 C12.8890842,13.2557943 13.0517795,13.19898 13.126671,13.0646918 L13.3332682,12.7057292 C13.5966797,12.754796 13.8678385,12.754796 14.13125,12.7057292 L14.3378472,13.0646918 C14.4153212,13.1963976 14.575434,13.2532118 14.7174696,13.2015625 C15.0144531,13.0905165 15.2881944,12.9304036 15.5283637,12.7315538 C15.6445747,12.6360026 15.6755642,12.4681424 15.5980903,12.3364366 L15.3914931,11.977474 C15.5645182,11.7760417 15.7013889,11.5410373 15.7917752,11.2853733 L16.2075521,11.2853733 C16.3599175,11.2853733 16.4916233,11.1743273 16.5148655,11.0219618 C16.5665148,10.7094835 16.5665148,10.3918403 16.5148655,10.0871094 Z M13.7309679,11.3835069 C13.2738715,11.3835069 12.904579,11.0142144 12.904579,10.5571181 C12.904579,10.1000217 13.2738715,9.73072917 13.7309679,9.73072917 C14.1880642,9.73072917 14.5573568,10.1000217 14.5573568,10.5571181 C14.5573568,11.0142144 14.1880642,11.3835069 13.7309679,11.3835069 Z" id="Shape"></path>
                    </g>
                </g>
            </g>
        </g>
    </g>
</svg>