<?xml version="1.0" encoding="UTF-8"?>
<svg xmlns="http://www.w3.org/2000/svg" xmlns:xlink="http://www.w3.org/1999/xlink" width="13pt" height="13pt" viewBox="0 0 13 13" version="1.1">
<g id="surface1">
<path style=" stroke:none;fill-rule:nonzero;fill:rgb(100%,100%,100%);fill-opacity:1;" d="M 6.671875 12.640625 C 6.460938 12.640625 6.179688 12.640625 5.96875 12.640625 C 5.898438 12.640625 5.898438 12.640625 5.828125 12.640625 C 5.476562 12.566406 5.128906 12.566406 4.773438 12.496094 C 1.542969 11.65625 -0.5625 8.425781 0.140625 5.128906 C 0.417969 3.789062 1.054688 2.597656 2.035156 1.6875 C 3.511719 0.351562 5.195312 -0.210938 7.164062 0.0703125 C 8.425781 0.210938 9.480469 0.773438 10.464844 1.542969 C 11.585938 2.527344 12.285156 3.71875 12.496094 5.195312 C 12.566406 5.40625 12.566406 5.6875 12.566406 5.898438 C 12.566406 6.109375 12.566406 6.390625 12.566406 6.671875 C 12.566406 6.738281 12.566406 6.738281 12.566406 6.808594 C 12.566406 7.019531 12.496094 7.234375 12.496094 7.511719 C 12.285156 8.777344 11.65625 9.832031 10.8125 10.742188 C 9.898438 11.726562 8.707031 12.285156 7.445312 12.496094 C 7.164062 12.566406 6.949219 12.566406 6.671875 12.640625 Z M 6.53125 7.164062 C 7.792969 7.019531 8.566406 5.898438 8.496094 4.773438 C 8.425781 3.648438 7.511719 2.738281 6.390625 2.738281 C 5.265625 2.667969 4.285156 3.441406 4.074219 4.5625 C 4.003906 5.195312 4.144531 5.757812 4.5625 6.25 C 4.914062 6.738281 5.476562 7.019531 6.109375 7.164062 C 5.828125 7.234375 5.617188 7.234375 5.335938 7.304688 C 3.863281 7.652344 2.808594 8.566406 2.246094 9.898438 C 2.175781 9.96875 2.175781 10.039062 2.316406 10.109375 C 3.71875 11.515625 5.40625 12.078125 7.375 11.796875 C 8.566406 11.585938 9.621094 11.023438 10.464844 10.109375 C 10.535156 10.039062 10.535156 10.039062 10.535156 9.96875 C 9.898438 8.496094 8.847656 7.582031 7.304688 7.304688 C 7.019531 7.234375 6.808594 7.164062 6.53125 7.164062 Z M 6.53125 7.164062 "/>
</g>
</svg>
