<?xml version="1.0" encoding="UTF-8"?>
<svg width="18px" height="14px" viewBox="0 0 18 14" version="1.1" xmlns="http://www.w3.org/2000/svg" xmlns:xlink="http://www.w3.org/1999/xlink">
    <!-- Generator: Sketch 63.1 (92452) - https://sketch.com -->
    <title>roles</title>
    <desc>Created with Sketch.</desc>
    <g id="Design-System-" stroke="none" stroke-width="1" fill="none" fill-rule="evenodd">
        <g id="Iconography" transform="translate(-610.000000, -465.000000)" fill="#FFFFFF">
            <g id="roles" transform="translate(609.000000, 462.000000)">
                <g>
                    <g id="topic_detection" fill-opacity="0">
                        <g id="Rectangle">
                            <rect x="0" y="0" width="20" height="20"></rect>
                        </g>
                    </g>
                    <g transform="translate(1.000000, 3.000000)" fill-rule="nonzero" id="Shape">
                        <path d="M2.84375,7.4375 L8.09375,7.4375 L8.09375,8.75 L9.40625,8.75 L9.40625,7.4375 L14.65625,7.4375 L14.65625,8.75 L15.96875,8.75 L15.96875,7.17527344 C15.96875,6.59640625 15.4978906,6.125 14.9184766,6.125 L9.40625,6.125 L9.40625,4.375 L10.5,4.375 C10.9831641,4.375 11.375,3.98316406 11.375,3.5 L11.375,0.875 C11.375,0.391835937 10.9831641,0 10.5,0 L7,0 C6.51683594,0 6.125,0.391835938 6.125,0.875 L6.125,3.5 C6.125,3.74171875 6.22289063,3.96046875 6.38121094,4.11878906 C6.53953125,4.27710938 6.75828125,4.375 7,4.375 L8.09375,4.375 L8.09375,6.125 L2.58152344,6.125 C2.00210937,6.125 1.53125,6.59613281 1.53125,7.17527344 L1.53125,8.75 L2.84375,8.75 L2.84375,7.4375 Z M7.4375,3.0625 L7.4375,1.3125 L10.0625,1.3125 L10.0625,3.0625 L7.4375,3.0625 Z M16.625,9.625 L14,9.625 C13.5168359,9.625 13.125,10.0168359 13.125,10.5 L13.125,13.125 C13.125,13.6081641 13.5168359,14 14,14 L16.625,14 C17.1081641,14 17.5,13.6081641 17.5,13.125 L17.5,10.5 C17.5,10.0168359 17.1081641,9.625 16.625,9.625 Z M16.1875,12.6875 L14.4375,12.6875 L14.4375,10.9375 L16.1875,10.9375 L16.1875,12.6875 Z M10.0625,9.625 L7.4375,9.625 C6.95433594,9.625 6.5625,10.0168359 6.5625,10.5 L6.5625,13.125 C6.5625,13.6081641 6.95433594,14 7.4375,14 L10.0625,14 C10.5456641,14 10.9375,13.6081641 10.9375,13.125 L10.9375,10.5 C10.9375,10.0168359 10.5456641,9.625 10.0625,9.625 Z M9.625,12.6875 L7.875,12.6875 L7.875,10.9375 L9.625,10.9375 L9.625,12.6875 Z M3.5,9.625 L0.875,9.625 C0.391835937,9.625 0,10.0168359 0,10.5 L0,13.125 C0,13.6081641 0.391835938,14 0.875,14 L3.5,14 C3.98316406,14 4.375,13.6081641 4.375,13.125 L4.375,10.5 C4.375,10.0168359 3.98316406,9.625 3.5,9.625 Z M3.0625,12.6875 L1.3125,12.6875 L1.3125,10.9375 L3.0625,10.9375 L3.0625,12.6875 Z"></path>
                    </g>
                </g>
            </g>
        </g>
    </g>
</svg>