<?xml version="1.0" encoding="UTF-8"?>
<svg width="17px" height="14px" viewBox="0 0 17 14" version="1.1" xmlns="http://www.w3.org/2000/svg" xmlns:xlink="http://www.w3.org/1999/xlink">
    <!-- Generator: Sketch 63.1 (92452) - https://sketch.com -->
    <title>topic_detection</title>
    <desc>Created with Sketch.</desc>
    <g id="Design-System-" stroke="none" stroke-width="1" fill="none" fill-rule="evenodd">
        <g id="Iconography" transform="translate(-511.000000, -466.000000)" fill="#FFFFFF">
            <g id="topic_detection" transform="translate(509.000000, 462.000000)">
                <g>
                    <rect id="Rectangle" fill-opacity="0" x="0" y="0" width="20" height="20"></rect>
                    <g id="waveform" transform="translate(2.000000, 4.000000)" fill-rule="nonzero">
                        <path d="M8.37606838,0 L7.95726496,0 C7.72596622,0 7.53846154,0.187504677 7.53846154,0.418803419 L7.53846154,12.982906 C7.53846154,13.2142047 7.72596622,13.4017094 7.95726496,13.4017094 L8.37606838,13.4017094 C8.60736712,13.4017094 8.79487179,13.2142047 8.79487179,12.982906 L8.79487179,0.418803419 C8.79487179,0.187504677 8.60736712,0 8.37606838,0 Z M5.86324786,2.51282051 L5.44444444,2.51282051 C5.2131457,2.51282051 5.02564103,2.70032519 5.02564103,2.93162393 L5.02564103,10.4700855 C5.02564103,10.7013842 5.2131457,10.8888889 5.44444444,10.8888889 L5.86324786,10.8888889 C6.0945466,10.8888889 6.28205128,10.7013842 6.28205128,10.4700855 L6.28205128,2.93162393 C6.28205128,2.70032519 6.0945466,2.51282051 5.86324786,2.51282051 Z M10.8888889,3.35042735 L10.4700855,3.35042735 C10.2387867,3.35042735 10.0512821,3.53793203 10.0512821,3.76923077 L10.0512821,9.63247863 C10.0512821,9.86377737 10.2387867,10.0512821 10.4700855,10.0512821 L10.8888889,10.0512821 C11.1201876,10.0512821 11.3076923,9.86377737 11.3076923,9.63247863 L11.3076923,3.76923077 C11.3076923,3.53793203 11.1201876,3.35042735 10.8888889,3.35042735 Z M13.4017094,1.67521368 L12.982906,1.67521368 C12.7516072,1.67521368 12.5641026,1.86271835 12.5641026,2.09401709 L12.5641026,11.3076923 C12.5641026,11.538991 12.7516072,11.7264957 12.982906,11.7264957 L13.4017094,11.7264957 C13.6330081,11.7264957 13.8205128,11.538991 13.8205128,11.3076923 L13.8205128,2.09401709 C13.8205128,1.86271835 13.6330081,1.67521368 13.4017094,1.67521368 Z M3.35042735,5.02564103 L2.93162393,5.02564103 C2.70032519,5.02564103 2.51282051,5.2131457 2.51282051,5.44444444 L2.51282051,7.95726496 C2.51282051,8.1885637 2.70032519,8.37606838 2.93162393,8.37606838 L3.35042735,8.37606838 C3.58172609,8.37606838 3.76923077,8.1885637 3.76923077,7.95726496 L3.76923077,5.44444444 C3.76923077,5.2131457 3.58172609,5.02564103 3.35042735,5.02564103 Z M0.837606838,5.86324786 L0.418803419,5.86324786 C0.187504677,5.86324786 0,6.05075254 0,6.28205128 L0,7.11965812 C0,7.35095686 0.187504677,7.53846154 0.418803419,7.53846154 L0.837606838,7.53846154 C1.06890558,7.53846154 1.25641026,7.35095686 1.25641026,7.11965812 L1.25641026,6.28205128 C1.25641026,6.05075254 1.06890558,5.86324786 0.837606838,5.86324786 Z M15.9145299,5.86324786 L15.4957265,5.86324786 C15.2644278,5.86324786 15.0769231,6.05075254 15.0769231,6.28205128 L15.0769231,7.11965812 C15.0769231,7.35095686 15.2644278,7.53846154 15.4957265,7.53846154 L15.9145299,7.53846154 C16.1458287,7.53846154 16.3333333,7.35095686 16.3333333,7.11965812 L16.3333333,6.28205128 C16.3333333,6.05075254 16.1458287,5.86324786 15.9145299,5.86324786 Z" id="Shape"></path>
                    </g>
                </g>
            </g>
        </g>
    </g>
</svg>