<?xml version="1.0" encoding="UTF-8"?>
<svg width="11px" height="14px" viewBox="0 0 11 14" version="1.1" xmlns="http://www.w3.org/2000/svg" xmlns:xlink="http://www.w3.org/1999/xlink">
    <!-- Generator: Sketch 63.1 (92452) - https://sketch.com -->
    <title>upload_file</title>
    <desc>Created with Sketch.</desc>
    <g id="Design-System-" stroke="none" stroke-width="1" fill="none" fill-rule="evenodd">
        <g id="Iconography" transform="translate(-810.000000, -860.000000)">
            <g id="upload_file" transform="translate(805.000000, 857.000000)">
                <g id="Group">
                    <g id="back" fill="#FFFFFF" fill-opacity="0">
                        <g id="Rectangle">
                            <rect x="0" y="0" width="20" height="20"></rect>
                        </g>
                    </g>
                    <g id="file-upload" transform="translate(5.000000, 3.000000)" fill="#0D4DCE" fill-rule="nonzero">
                        <path d="M10.5940885,2.67914063 L8.19098958,0.385546875 C7.93317708,0.139453125 7.58369792,0 7.22018229,0 L1.37471354,0 C0.615885417,0.002734375 0,0.590625 0,1.31496094 L0,12.6877734 C0,13.4121094 0.615885417,14 1.37471354,14 L9.62299479,14 C10.3821094,14 11,13.4121094 11,12.6877734 L11,3.60855469 C11,3.2615625 10.851901,2.92523438 10.5940885,2.67914063 Z M7.33190104,1.42160156 L9.5115625,3.50191406 L7.33190104,3.50191406 L7.33190104,1.42160156 L7.33190104,1.42160156 Z M9.625,12.6877734 L1.37471354,12.6877734 L1.37471354,1.31496094 L5.9571875,1.31496094 L5.9571875,4.15816406 C5.9571875,4.52183594 6.26369792,4.81414063 6.6446875,4.81414063 L9.625,4.81414063 L9.625,12.6877734 Z M5.24161458,6.22863281 L3.17023437,8.19109375 C2.95252604,8.39726562 3.10549479,8.7521875 3.41229167,8.7521875 L4.8125,8.7521875 L4.8125,11.0490625 C4.8125,11.2303516 4.96632812,11.3771875 5.15625,11.3771875 L5.84375,11.3771875 C6.03367187,11.3771875 6.1875,11.2303516 6.1875,11.0490625 L6.1875,8.7521875 L7.58770833,8.7521875 C7.89450521,8.7521875 8.04747396,8.39753906 7.82976562,8.19109375 L5.75838542,6.22863281 C5.61544271,6.09328125 5.38455729,6.09328125 5.24161458,6.22863281 Z" id="Shape"></path>
                    </g>
                </g>
            </g>
        </g>
    </g>
</svg>