<?xml version="1.0" encoding="UTF-8"?>
<svg width="18px" height="13px" viewBox="0 0 18 13" version="1.1" xmlns="http://www.w3.org/2000/svg" xmlns:xlink="http://www.w3.org/1999/xlink">
    <!-- Generator: Sketch 63.1 (92452) - https://sketch.com -->
    <title>Users</title>
    <desc>Created with Sketch.</desc>
    <g id="Design-System-" stroke="none" stroke-width="1" fill="none" fill-rule="evenodd">
        <g id="Iconography" transform="translate(-319.000000, -465.000000)" fill="#FFFFFF">
            <g id="Users" transform="translate(318.000000, 462.000000)">
                <g>
                    <rect id="Rectangle" fill-opacity="0" x="0" y="0" width="20" height="20"></rect>
                    <g id="users" transform="translate(1.000000, 3.000000)" fill-rule="nonzero">
                        <path d="M15.2997351,5.39990649 C16.5428385,5.39990649 17.5496961,4.39304893 17.5496961,3.14994545 C17.5496961,1.90684198 16.5428385,0.899984415 15.2997351,0.899984415 C14.0566316,0.899984415 13.049774,1.90684198 13.049774,3.14994545 C13.049774,4.39304893 14.0566316,5.39990649 15.2997351,5.39990649 Z M15.2997351,2.24996104 C15.7947265,2.24996104 16.1997195,2.65495403 16.1997195,3.14994545 C16.1997195,3.64493688 15.7947265,4.04992987 15.2997351,4.04992987 C14.8047436,4.04992987 14.3997506,3.64493688 14.3997506,3.14994545 C14.3997506,2.65495403 14.8047436,2.24996104 15.2997351,2.24996104 Z M2.69995325,5.39990649 C3.94305672,5.39990649 4.94991428,4.39304893 4.94991428,3.14994545 C4.94991428,1.90684198 3.94305672,0.899984415 2.69995325,0.899984415 C1.45684977,0.899984415 0.449992208,1.90684198 0.449992208,3.14994545 C0.449992208,4.39304893 1.45684977,5.39990649 2.69995325,5.39990649 Z M2.69995325,2.24996104 C3.19494467,2.24996104 3.59993766,2.65495403 3.59993766,3.14994545 C3.59993766,3.64493688 3.19494467,4.04992987 2.69995325,4.04992987 C2.20496182,4.04992987 1.79996883,3.64493688 1.79996883,3.14994545 C1.79996883,2.65495403 2.20496182,2.24996104 2.69995325,2.24996104 Z M13.8485102,8.18142083 C13.0750861,7.0339407 11.578862,6.6064481 10.2541974,7.00862864 C9.85482935,7.12956404 9.43577411,7.19706287 8.9970317,7.19706287 C8.5582893,7.19706287 8.13923406,7.12956404 7.73986597,7.00862864 C6.41520141,6.6064481 4.91897732,7.03112825 4.14555321,8.18142083 C3.79680925,8.69891187 3.59431276,9.3204636 3.59431276,9.98982701 L3.59431276,11.2498052 C3.59431276,11.9951048 4.19898979,12.5997818 4.94428938,12.5997818 L13.0441491,12.5997818 C13.7894487,12.5997818 14.3941257,11.9951048 14.3941257,11.2498052 L14.3941257,9.98982701 C14.3997506,9.3204636 14.1972542,8.69891187 13.8485102,8.18142083 Z M13.049774,11.2498052 L4.94991428,11.2498052 L4.94991428,9.98982701 C4.94991428,8.96609474 5.77115006,8.12798425 6.78925743,8.09985974 C7.50643252,8.39797958 8.24891966,8.54985195 8.99984415,8.54985195 C9.75076865,8.54985195 10.4932558,8.39797958 11.2104309,8.09985974 C12.2285382,8.12798425 13.049774,8.96328229 13.049774,9.98982701 L13.049774,11.2498052 Z M15.6372292,6.29989091 L14.9622409,6.29989091 C14.4756868,6.29989091 14.0228822,6.44895083 13.6460137,6.70207144 C14.0228822,6.98612902 14.3547514,7.32643563 14.6134969,7.72017881 C14.7231825,7.6808045 14.838493,7.64986753 14.9594285,7.64986753 L15.6344168,7.64986753 C16.1912821,7.64986753 16.6468992,8.10548464 16.6468992,8.66235 C16.6468992,9.03359357 16.950644,9.33733831 17.3218875,9.33733831 C17.6931311,9.33733831 17.9968814,9.03359357 17.9968814,8.66235 C17.9996883,7.36018505 16.9393942,6.29989091 15.6372292,6.29989091 Z M8.99984415,6.29989091 C10.7407515,6.29989091 12.1497896,4.89085281 12.1497896,3.14994545 C12.1497896,1.4090381 10.7407515,0 8.99984415,0 C7.2589368,0 5.8498987,1.4090381 5.8498987,3.14994545 C5.8498987,4.89085281 7.2589368,6.29989091 8.99984415,6.29989091 Z M8.99984415,1.34997662 C9.99263946,1.34997662 10.799813,2.15715015 10.799813,3.14994545 C10.799813,4.14274076 9.99263946,4.94991428 8.99984415,4.94991428 C8.00704885,4.94991428 7.19987532,4.14274076 7.19987532,3.14994545 C7.19987532,2.15715015 8.00704885,1.34997662 8.99984415,1.34997662 Z M4.35367461,6.70207144 C3.97680614,6.44895083 3.52400148,6.29989091 3.0374474,6.29989091 L2.36245909,6.29989091 C1.06029414,6.29989091 0,7.36018505 0,8.66235 C0,9.03359357 0.30374474,9.33733831 0.674988312,9.33733831 C1.04623188,9.33733831 1.34997662,9.03359357 1.34997662,8.66235 C1.34997662,8.10548464 1.80559373,7.64986753 2.36245909,7.64986753 L3.0374474,7.64986753 C3.16119526,7.64986753 3.27650576,7.6808045 3.38337891,7.72017881 C3.64493688,7.32643563 3.97680614,6.98612902 4.35367461,6.70207144 Z" id="Shape"></path>
                    </g>
                </g>
            </g>
        </g>
    </g>
</svg>